<?xml version="1.0" encoding="UTF-8"?>
<svg id="Layer_2" data-name="Layer 2" xmlns="http://www.w3.org/2000/svg" viewBox="0 0 304.85 182.58">
  <defs>
    <style>
      .cls-1, .cls-2, .cls-3, .cls-4, .cls-5, .cls-6, .cls-7, .cls-8 {
        stroke-width: 0px;
      }

      .cls-2 {
        fill: #252122;
      }

      .cls-3 {
        fill: #cda58a;
      }

      .cls-4 {
        fill: #bcb1bb;
      }

      .cls-5 {
        fill: #c08a93;
      }

      .cls-6 {
        fill: #89b8c9;
      }

      .cls-7 {
        fill: #9eb798;
      }

      .cls-8 {
        fill: #fff;
      }
    </style>
  </defs>
  <g id="Layer_1-2" data-name="Layer 1">
    <g>
      <path class="cls-2" d="M177.37,103.06c-7,8.05-15.29,11.86-21.87,13.84-3.59,1.08-8.59,2.18-13.4,5.05-5.23,3.12-7.28,6.36-8.11,8.04l-4.17-2.22c.83-1.68,2.88-4.92,8.11-8.04,4.81-2.87,9.81-3.97,13.4-5.05,6.57-1.98,14.87-5.79,21.87-13.84"/>
      <g>
        <path class="cls-1" d="M237.01,35.37c-7.07-27.82-35.14-42.55-60.62-31.9-7.52,3.14-13.48,8.09-17.82,14.98C136.91-.46,107.95-.12,87.97,13.29c-19.28,12.94-27.1,34.48-20.07,55.48,6.01,17.93,21.56,29.3,39.82,28.78,8.85-.25,16.49-3.96,23.43-9.83,10.7,9.98,23.14,15.55,38.19,17.74,0,0-.01.01-.02.02.41,0,.79.05,1.14.13.27.03.53.09.77.16.13.01.25.02.38.03.04,0,.07,0,.11-.01.75-.04,1.5.05,2.25.18.25-.02.5-.04.75-.03.3-.05.59-.09.86-.12,6.36-.8,12.91-.85,19.09-2.37,31.95-7.89,50.14-37.4,42.34-68.09Z"/>
        <path class="cls-5" d="M199.52,58.73c-4.69,4.62-10.55,6.24-16.59,6.07-2.31-7.6-4.49-14.65-6.58-21.73-2.6-8.86,6.76-17.41,16.46-15.09,6.27,1.5,10.23,5.45,11.83,11.59,1.89,7.28.28,13.83-5.12,19.16Z"/>
        <path class="cls-4" d="M190.52,100.46c-4.83.95-9.78,1.24-15.53,1.93,5-10.97,7.37-21.62,7.08-32.59,3.87-.78,7.47-1.17,10.86-2.25,13.33-4.25,20.14-18.47,15.07-31.39-3.12-7.93-9.18-12.41-17.62-12.7-8.12-.27-14.24,3.56-17.91,11.25-3.54-4.53-7.06-9.04-10.71-13.72,5.94-10,15.1-15.05,26.36-16.52,21.2-2.77,41.78,10.81,45.9,35.94,4.77,29.06-13.48,54.17-43.5,60.05Z"/>
        <path class="cls-7" d="M177.5,64.02c-15.56-3.23-24.29-22.56-17.6-38.38,10.12,10.84,15.64,23.53,17.6,38.38Z"/>
        <path class="cls-3" d="M177.95,74.03c-.83,8.57-2.47,16.89-6,24.79-.81,1.82-1.68,2.73-3.88,2.38-12.82-2.07-24.12-7.24-33.88-16.24,10.99-14.58,9.33-32.77-3.74-43.6-11.03-9.13-28.14-6.69-35.96,5.12-5.29,7.99-4.49,17.94,2.02,25.02,5.85,6.38,13.02,6.94,22.38,1.67,2.86,3.84,5.73,7.7,8.84,11.88-4.7,4.5-10.42,7.24-16.93,7.99-19.76,2.29-37.1-11.11-40.53-31.09-4.25-24.7,11.47-47.07,37.45-52.79,16.98-3.74,32.47-.29,46.17,10.72,2,1.6,2.31,2.86,1.47,5.25-5.64,16.01.68,33.58,14.51,40.83,1.21.63,2.45,1.44,3.74,1.61,4.06.52,4.69,2.89,4.34,6.46Z"/>
        <path class="cls-6" d="M136.64,69.95c-.91,4.2-3.16,8.1-4.79,12.14-.46-.04-.93-.09-1.4-.13-3.54-5.18-7.08-10.35-10.33-15.09-2.98,1.77-5.78,4.31-9.03,5.2-7.43,2.03-14.83-3.89-15.66-11.88-1.07-10.27,6.59-18.99,16.96-20.07,15.91-1.66,27.56,14.49,24.25,29.83Z"/>
      </g>
      <g>
        <path class="cls-2" d="M49.27,125.44v55.79c0,.12-.74.49-1.47.49-1.47,0-2.58-.86-2.58-4.3v-8.23c-3.69,7.62-11.43,13.39-21.87,13.39-15.36,0-23.35-10.45-23.35-26.17v-30.96c0-1.6.74-2.09,1.72-2.09h.61c.98,0,1.72.49,1.72,2.09v30.72c0,13.76,6.76,22.61,19.54,22.61,10.2,0,17.94-5.78,21.63-14.75v-38.58c0-1.6.74-2.09,1.72-2.09h.49c1.11,0,1.84.49,1.84,2.09Z"/>
        <path class="cls-2" d="M115.99,148.66v31.09c0,1.47-.86,1.97-1.84,1.97h-.49c-.98,0-1.72-.49-1.72-1.97v-30.72c0-13.76-6.88-22.61-19.54-22.61-10.2,0-17.94,5.78-21.63,14.62v38.71c0,1.47-.74,1.97-1.72,1.97h-.61c-.98,0-1.72-.49-1.72-1.97v-55.91c0-.12.61-.49,1.35-.49,1.47,0,2.58.86,2.58,4.3v8.48c3.69-7.86,11.55-13.52,21.87-13.52,15.48,0,23.47,10.32,23.47,26.05Z"/>
        <path class="cls-2" d="M182.22,148.66v31.09c0,1.47-.86,1.97-1.84,1.97h-.49c-.98,0-1.72-.49-1.72-1.97v-30.72c0-13.76-6.88-22.61-19.54-22.61-10.2,0-17.94,5.78-21.63,14.62v38.71c0,1.47-.74,1.97-1.72,1.97h-.61c-.98,0-1.72-.49-1.72-1.97v-55.91c0-.12.61-.49,1.35-.49,1.47,0,2.58.86,2.58,4.3v8.48c3.69-7.86,11.55-13.52,21.87-13.52,15.48,0,23.47,10.32,23.47,26.05Z"/>
        <path class="cls-2" d="M238.25,148.66h1.23v-3.69c0-11.67-7.25-18.68-19.05-18.68-10.57,0-17.57,4.92-20.77,11.31-.12,0-2.21-.37-2.21-2.46,0-.98,1.23-3.32,3.32-5.28,3.56-3.69,9.83-7.25,19.91-7.25,14.13,0,22.73,8.48,22.73,22.24v36.37c0,.12-.61.49-1.35.49-1.47,0-2.58-.86-2.58-4.3v-9.58c-3.2,8.36-12.41,14.75-24.33,14.75s-20.15-6.02-20.15-15.61c0-12.78,12.17-18.06,43.25-18.31ZM239.48,151.86h-1.47c-28.39.37-38.83,4.67-38.83,15.11,0,7.62,6.51,12.17,16.22,12.17,13.39,0,24.08-8.97,24.08-21.01v-6.27Z"/>
        <path class="cls-2" d="M263.07,164.88v-37.6h-8.6c-1.6,0-2.09-.61-2.09-1.6v-.37c0-1.11.49-1.6,2.09-1.6h8.6v-12.29c0-1.6.74-2.21,1.84-2.21h.49c.98,0,1.72.61,1.72,2.21v12.29h17.94c1.6,0,2.09.49,2.09,1.6v.37c0,.98-.49,1.6-2.09,1.6h-17.94v37.36c0,10.32,3.44,14.38,10.44,14.38,4.67,0,7.86-2.21,9.83-5.65.25-.12,1.47.49,1.47,2.09,0,.86-.61,2.21-2.09,3.69-1.84,1.84-4.79,3.44-9.34,3.44-9.46,0-14.38-5.28-14.38-17.7Z"/>
        <path class="cls-2" d="M301.78,103.32c2.09,0,3.07,1.11,3.07,3.19s-1.11,3.2-3.32,3.2c-1.84,0-2.95-1.11-2.95-3.2s1.11-3.19,3.19-3.19ZM299.69,125.44c0-1.6.74-2.09,1.72-2.09h.49c1.11,0,1.84.49,1.84,2.09v54.31c0,1.47-.86,1.97-1.84,1.97h-.49c-.98,0-1.72-.49-1.72-1.97v-54.31Z"/>
      </g>
      <rect class="cls-8" x="128.59" y="119.73" width="4.36" height="14.36"/>
    </g>
  </g>
</svg>