<!DOCTYPE svg PUBLIC "-//W3C//DTD SVG 1.1//EN" "http://www.w3.org/Graphics/SVG/1.1/DTD/svg11.dtd">

<!-- Uploaded to: SVG Repo, www.svgrepo.com, Transformed by: SVG Repo Mixer Tools -->
<svg width="800px" height="800px" viewBox="0 0 24 24" fill="none" xmlns="http://www.w3.org/2000/svg">

<g id="SVGRepo_bgCarrier" stroke-width="0"/>

<g id="SVGRepo_tracerCarrier" stroke-linecap="round" stroke-linejoin="round"/>

<g id="SVGRepo_iconCarrier"> <path d="M8 18C5.17157 18 3.75736 18 2.87868 17.1213C2 16.2426 2 14.8284 2 12C2 9.17157 2 7.75736 2.87868 6.87868C3.75736 6 5.17157 6 8 6C10.8284 6 12.2426 6 13.1213 6.87868C14 7.75736 14 9.17157 14 12" stroke="#ffffff" stroke-width="1.5" stroke-linecap="round" stroke-linejoin="round"/> <path d="M10 12C10 14.8284 10 16.2426 10.8787 17.1213C11.7574 18 13.1716 18 16 18C18.8284 18 20.2426 18 21.1213 17.1213C21.4211 16.8215 21.6186 16.4594 21.7487 16M22 12C22 9.17157 22 7.75736 21.1213 6.87868C20.2426 6 18.8284 6 16 6" stroke="#ffffff" stroke-width="1.5" stroke-linecap="round" stroke-linejoin="round"/> </g>

</svg>