<?xml version="1.0" encoding="UTF-8"?>
<svg id="Layer_2" data-name="Layer 2" xmlns="http://www.w3.org/2000/svg" viewBox="0 0 70.06 69.93">
  <defs>
    <style>
      .cls-1 {
        fill: #fff;
        stroke-width: 0px;
      }
    </style>
  </defs>
  <g id="Layer_1-2" data-name="Layer 1">
    <g id="_8UedRL" data-name="8UedRL">
      <path class="cls-1" d="M63.12,60.85c-18.12,3.87-36.35,5.94-54.28,9.07-4.25.42-3.62-7.78-3.81-10.58-.47-4.48-1.1-8.97-1.11-13.49-.34-1.88-.99-3.66-.85-5.6.44-4.73-1.28-9.4-.94-14.12.19-1.9-1.16-3.46-1.01-5.31C1.46,15.09-.22,9.38.02,3.41.09,1.88.11.32,1.7.19,3.65.1,5.72-.12,7.7.08c1.6.12,3.13.94,4.61,1.02,8.12.08,16.32-.58,24.37.84,4.68.69,9.38-.5,14.07-.18,4.1.36,7.98,1.33,12.09,1.16,3.82.09,8.77-.67,6.77,4.95-.6,2.58.14,5.35-.73,7.95-.92,2.55-.12,5.3-.93,7.83-.29.87-.57,1.74-.65,2.66-.46,6.34-.65,12.69-1.88,18.92-.17,1.28-.08,2.53-.29,3.79-.19,1.08-.7,2.07-.83,3.15-.2,2.84.2,6.06-1.06,8.57l-.11.11ZM36.58,40.07c1.15-.13,2.63.11,3.97-.11.1-.13-.36-.44-.56-.65-.5-.46-.94-.87-1.45-1.33-.2-.17-.44-.46-.62-.41-.51.38-1.03,1.95-1.59,2.52-.19.19-.39.06-.63.27-.27.2-.72.6-.25.73.31-.08.7-.76,1-.95l.12-.07ZM3.82,2.83c-.55-.35-.79-.69-.52-.16,5.41,8.17,11.87,4.97,19.99,5.61,1.87-.11,3.49-.09,5.14.84,1.31.51,2.84.09,4.12-.16,1.14-.24-.02-.43-.58-.55C22.71,6.35,13.2,4.9,3.94,2.9l-.12-.07ZM66.6,5.79c-.23.05-1.16-.21-1.66-.02-6.25,1.4-12.57,2.79-19.07,4.27-1.03.2-1.24,1.06-.87,1.94,1.29,3.57,2.53,7,3.77,10.42.12.31.33.78.6.89.4.21.95-.33,1.28-.67,4.86-4.76,12.92-13.75,16.01-16.87l-.06.03ZM42.34,31.72c.48-4.51-.17-8.96.48-13.63.15-1.77.46-3.59.59-5.32,0-.47-.14-.87-.48-1.16-3.54-1.8-7.8-1.58-11.67-1.63-5.43.09-11.28-.07-16.85.07-.82.1-3.53-.09-2.17,1.32,8.71,8.07,16.71,15.9,25.17,23.41,1.36,1.16,2.43-.14,3.5-1.24.5-.52,1.09-1,1.38-1.66l.06-.16ZM37.1,36.76c-.02-.32-.24-.64-.56-.95-8.66-8.07-17.12-15.95-25.34-24.37-.37-.3-.67-.37-.85-.12-.7,2.05.4,4.55.46,6.44-.07,7.12.93,14.32,1.23,21.38.12,1.55-.26,3.93,2.07,3.53,6.06-.44,11.9-.83,17.78-1.29,1.4-.11,2.24-1.08,3.18-2.04.63-.75,1.77-1.44,2.02-2.44v-.14ZM50.35,25.07c-.08.44.04.92.19,1.36,1.26,3.38,2.55,6.8,3.83,10.24,2.28,6,4.5,12.17,6.89,18.3.87,1.84,1.61-2.95,1.79-3.49.47-1.92.15-3.94.13-5.93.06-1.14.75-2.15.95-3.33.21-1.23.06-2.48.22-3.72,1.24-6.26,1.47-12.65,2-19.02.17-1.27.94-2.38,1.04-3.62-.08-2.35.1-4.74.46-7.13.18-1.26-.03-1.73-1.07-.64-3.25,3.25-6.53,6.54-9.82,9.83-2.05,2.32-4.99,4.4-6.58,7l-.04.16ZM58.2,60.02c-9.51-4.37-20.34-6.38-29.99-10.33-1.13-.47-2.15-.11-2.86.85-4.88,6-10.72,10.91-15.97,16.64-.52.62-.46.95.47.84,16.3-2.63,32.34-4.81,48.35-7.95v-.05ZM42.96,40.28c1.66,2.53,4.26,4.51,6.26,6.69,3.34,3.24,6.74,6.38,10.57,9.11.67.38.55-.15.36-.71-3.67-9.77-7.23-19.24-10.83-28.73-.28-.65-.63-.95-1.18-.41-1.23,1.45-2.33,3.03-3.39,4.43-.41.59-.69,1.24-.85,1.94-.3,2.47-1.15,5.05-.99,7.53l.05.16ZM33.68,42.47c-1.88,1.16-3.51,3.13-5.02,4.44-.21.22-.48.53-.39.79,6.29,2.91,27.17,9.46,30.93,10.01.51,0-.53-.84-.74-1.05-4.98-4.47-9.93-8.94-15.02-13.5-.69-.61-1.51-.95-2.42-.96-2.28.1-4.88-.28-7.17.21l-.17.07ZM24.7,48.37c-.19-.34-.77-.44-1.19-.53-3.57-.69-6.5-2.28-9.72-2.85-.93-.21-1.7.22-1.86,1.19-1.17,6.59-2.77,13.25-3.75,20.16.14.39.74-.23.97-.44,4.58-4.54,8.89-8.72,12.95-12.94,1.04-1.13,1.76-2.34,2.52-3.75.13-.29.18-.53.12-.73l-.05-.11ZM3.72,16.8c-.41,3.49-.73,7.47.33,10.96.89,3.29.38,6.98.95,10.46,1,6.01.91,12.12,1.19,18.27.04,1.17.24,2.24,1,3.14.61.72.89-.07.98-.75.78-4.45,1.66-9.09,2.47-13.88.1-.81.05-1.61-.14-2.4-2.22-8.32-4.3-17.22-6.75-25.8h-.03ZM61.34,4.65c.19-.43-1.07-.56-1.55-.53-6.07.09-12.11-.22-18.2.2-1.79.27-3.21-.77-4.99-1.09-1.7-.18-3.37-.11-5.13-.19-3.92.03-8.09,0-11.93.05-.56.02-1.67.12-1.94.5-.05.13.17.24.56.29,3.17.16,6.2,1.49,9.38,1.86,4.29.65,8.57,2.11,12.97,2.6,1.12.05,2.25.73,3.28.79,1.45-.17,2.73-1.06,4.26-.95,1.88.06,3.48-1.01,5.25-1.43,2.64-.47,5.81-.27,7.99-2.02l.04-.08ZM2.37,4.64c1.97,9.01,4.69,18.07,7.05,27.61.09.32.25,1.05.49,1.06.21,0,.33-1,.28-1.84-.16-2.03-.89-3.87-.86-5.95-.28-5.33.58-10.44-1-14.77-1.01-1.73-2.95-3.22-4.29-4.7-.64-.62-1.43-1.54-1.63-1.44l-.03.03ZM44.53,29.23c1.25-1.26,2.31-2.94,3.44-4.33.16-.26.32-.54.31-.85-.92-3.32-2.38-6.51-3.65-10.13-.18-.4-.24-.24-.25.18.08,5.2-.17,10.15.09,15.11h.06ZM26.6,47.33c.96-.56,1.69-1.66,2.54-2.4.41-.39,1.14-.96.93-1.63-.08-.11-.22-.17-.41-.19-3.84.15-8.12-.61-11.31,1.6,0,.22.7.36,1.16.53,2.3.66,4.59,1.66,6.93,2.14l.16-.04ZM42.05,39.76c-.05-1.81.1-3.87-.05-5.61-.48.42-1.93,1.96-2.25,2.45.63,1.06,1.53,2.11,2.26,3.17h.05ZM12.35,2.39c.04.15-.01.62.12.76.52.1,1.28-.07,1.86-.07.51-.07,1.21,0,1.66-.16.08-.1.06-.44-.03-.54-1.08-.13-2.45,0-3.55-.05l-.05.05ZM1.94,15.01c.16-.04.66.03.8-.1.09-.33-.11-.89-.13-1.28-.09-.39-.06-.96-.24-1.27-.59-.23-.49.33-.49.75,0,.58,0,1.29,0,1.85l.06.05Z"/>
    </g>
  </g>
</svg>