<?xml version="1.0" encoding="UTF-8"?>
<svg id="Layer_2" data-name="Layer 2" xmlns="http://www.w3.org/2000/svg" viewBox="0 0 4309.62 1256.78">
  <defs>
    <style>
      .cls-1 {
        fill: none;
        stroke: #000;
        stroke-linecap: round;
        stroke-linejoin: round;
        stroke-width: 2px;
      }

      .cls-2 {
        stroke-width: 0px;
      }
    </style>
  </defs>
  <g id="bugs">
    <g>
      <path class="cls-2" d="M1409.47,685.65c-.09-6.09,4.28-10.85,10.01-10.89,6.26-.04,10.73,5.13,10.64,12.32-.08,6.08-3.83,10.36-9.26,10.54-5.91.2-11.29-5.46-11.39-11.98Z"/>
      <path class="cls-2" d="M2899.17,1009.43c-6.84.21-12.71-6.51-12.89-14.76-.16-7.45,4.51-12.73,11.25-12.73,7.02,0,13.23,6.83,13.22,14.57,0,6.83-5.29,12.73-11.58,12.92ZM2904.77,995.87c-.45-3.71-2.11-7.03-6.74-7.23-4.5-.19-6.19,2.8-5.85,6.83.36,4.15,2.31,7.41,7.03,7.24,3.79-.14,5.62-2.61,5.56-6.84Z"/>
      <path class="cls-2" d="M467.74,1033.12c-.02,5.96-3.99,10.67-9.09,10.79-5.97.14-11.8-6.33-11.62-12.9.17-6,4.73-10.53,10.48-10.41,6.4.13,10.26,4.86,10.23,12.53Z"/>
      <path class="cls-2" d="M4309.62,609.31c-.09,6.79-3.28,10.65-8.88,10.71-5.61.06-10.94-6.06-10.98-12.58-.04-6.12,4.42-11.11,9.95-11.14,5.9-.04,10.01,5.36,9.91,13.02Z"/>
      <path class="cls-2" d="M517.71,427.14c.16,6.22-3.56,10.6-8.96,10.55-5.72-.06-10.37-5.22-10.49-11.62-.11-5.79,3.96-10.54,9.13-10.67,5.38-.13,10.16,5.3,10.33,11.75Z"/>
      <g>
        <path class="cls-2" d="M1332.63,1157.97c2.34,3.41,5.55,3.58,8,5.05,9.9,5.92,12.33,15.74,6.16,25.4-10.1,15.83-39.42,16.63-50.29,1.38-3.54-4.97-3.42-11.21.57-16.24,3.68-4.63,8.37-7.99,13.65-10.72,5.55-2.87,5.68-4.26,1.71-9.24-2.18-2.73-4.74-5.19-6.72-8.05-2.32-3.36-4.98-7.23-1.59-11.14,3.21-3.69,7.67-5.8,12.56-3.51,3.8,1.78,6.46,1.65,8.98-1.92,3.16-4.48,7.63-3.75,11.83-2.04,4.1,1.67,6.27,4.98,6.41,9.58.17,6.01-2.89,10.53-6.42,14.91-1.63,2.02-3.11,4.16-4.86,6.53ZM1329.93,1184.35c.85,2.59-1.86,8.42,4.81,7.24,5.4-.96,7.92-5.64,9.05-10.73,1.05-4.71-.57-8.64-4.36-11.59-2.98-2.32-5.2-1.7-6.89,1.79-1.97,4.07-2.29,8.39-2.61,13.29ZM1315.38,1184.23c.08,1.44,0,3.21.32,4.91.5,2.78,1.81,5.06,5.12,4.81,3.18-.24,3.42-2.83,3.37-5.16-.13-5.87,1.04-11.57,1.91-17.32.26-1.74.35-3.62-1.59-4.54-2.31-1.09-3.96.24-5.17,1.99-3.11,4.51-3.47,9.78-3.95,15.32ZM1311.16,1172.04c-6.33.86-11.2,4.84-11.09,9.14.12,4.77,2.66,7.88,8.19,8.79.99-6.15,1.93-11.92,2.9-17.92ZM1331.41,1148.51c4.15-4,6.92-7.36,6.12-12.24-.34-2.09-1.54-3.92-3.88-4.21-2.6-.32-3.64,1.61-4.07,3.69-.86,4.15-1.89,8.4,1.82,12.76ZM1318.01,1148.22c1.92-4.37.62-7.59-2.28-10.36-1.35-1.29-3.18-1.66-4.74-.55-1.66,1.17-1.61,3.06-.6,4.62,1.67,2.58,2.94,5.7,7.63,6.29Z"/>
        <path class="cls-1" d="M1324.64,1152.96c-.64-6.79.79-14.29-6.99-18.47-3.58-1.92-6.41-2.04-9.76.82-3.9,3.34-1.34,6.06.13,8.85,2.33,4.41,6.43,7.04,10.48,9.67"/>
        <path class="cls-1" d="M1330.78,1152.96c4.44-2.25,6.74-6.24,8.8-10.51,2.86-5.92,2.15-8.79-2.63-12.34-5.46-4.05-7.99-.55-10.59,3.54-1,1.57-2.31,2.94-3.48,4.4"/>
        <path class="cls-1" d="M1325.52,1159.11c2.38,2.14,3.88,5.41,7.9,5.3,7.76-.21,11.29,4.65,13.16,11.37,1.9,6.81-1.33,11.96-6.23,15.67-7.49,5.68-16.1,8.56-25.28,4.36-3.51-1.61-7.77-.43-10.46-2.65-3.63-3-8.2-5.82-7.26-12.13.99-6.58,4.41-10.22,10.58-12.39,4.79-1.69,10.48-2.36,13.2-7.77"/>
        <path class="cls-1" d="M1330.78,1165.25c-3.16,9.74-5.03,19.6-2.63,29.83"/>
        <path class="cls-1" d="M1314.11,1167.88c.16,8.59-1.86,16.95-2.63,25.44"/>
      </g>
      <g>
        <path class="cls-2" d="M3207.47,1006.77c-10.57,1.23-18.57-3.02-24.11-12.16-5.87-9.7-2.68-20.13,7.87-25.75,6.84-3.64,6.95-3.95,2.46-10.03-2.43-3.29-5-6.48-6.25-10.45-2.05-6.53-.47-11.46,4.6-14.5,5.22-3.13,8.12-2.7,13.53,2.84,1.94,1.98,3.62,2.68,6.12,1.66,2.19-.89,4.48-1.33,6.85-1.2,7.67.45,10.69,5.61,7.6,12.64-1.83,4.15-5.36,6.88-8.01,10.34-4.41,5.77-4.4,6.27,1.99,9.41,5.33,2.63,10.09,5.87,13.48,10.85,4.36,6.39,4,11.77-1.27,17.38-6.7,7.14-15.33,9.14-24.87,8.98ZM3200.28,991.82c.2-4.47-.93-8.1-1.75-11.76-.51-2.27-1.02-4.74-3.99-4.95-2.86-.2-4.94,1.3-6.51,3.58-3.03,4.41-2.14,11.29,2.29,15.96,1.95,2.06,4.06,4.87,7.23,3.96,3.64-1.04,2.46-4.71,2.72-6.8ZM3215.37,991.31c-.52-5.19-1.22-10.93-4.52-15.95-1.04-1.58-2.56-2.45-4.41-2.09-1.59.31-2.56,1.72-2.27,3.22,1.29,6.85,1.41,13.79,1.93,20.7.14,1.87,1.35,3.23,3.31,3.48,1.86.23,3.38-.61,4.46-2.11,1.44-1.99,1.48-4.32,1.51-7.25ZM3219.77,977.48c-.38,7.41.66,13.39,3.29,19.32,5.22-1.21,7.74-4.75,7.31-8.87-.53-5.09-4.04-8.7-10.6-10.45ZM3199.96,954.69c2.38-4.22,1.71-7.99,1.24-11.66-.31-2.39-1.42-4.87-4.36-4.35-3.3.57-5.14,3.18-4.24,6.39,1.07,3.81,2.43,7.8,7.37,9.62ZM3212.94,955.09c1.92-.11,3.08-.99,3.9-2.15,1.71-2.46,4.96-4.44,3.41-8.11-.55-1.31-2.26-1.68-3.77-1.27-3.72,1-4.35,4.16-4.97,7.29-.29,1.45-.25,2.84,1.44,4.24Z"/>
        <path class="cls-1" d="M3203.71,966.99c-2.36,1.43-3.42,4.09-6.99,4.58-13.12,1.79-18.05,14.14-9.5,24.22,3.45,4.07,7.6,9.5,14.74,6.29,8.06,5.35,15.23-1.28,22.77-2.08,7.89-.83,10.88-11.35,6.19-18.11-3.42-4.93-7.25-9.03-14.05-7.89"/>
        <path class="cls-1" d="M3205.47,962.6c-.1-5.05.97-9.96,1.67-14.93.77-5.48-5.62-12.63-10.44-12.27-5.32.4-8.77,5.54-7.01,10.52,2.37,6.73,5.91,12.46,13.15,14.92"/>
        <path class="cls-1" d="M3199.33,972.25c4.37,9.26,3.43,19.17,3.51,28.95"/>
        <path class="cls-1" d="M3209.85,967.86c5.49,3.49,6.82,8.81,7.1,14.91.26,5.57,2.49,10.97,1.67,16.67"/>
        <path class="cls-1" d="M3208.1,945.06c2.86-3.01,6.05-4.86,10.53-4.47,5.59.48,7.95,3.34,5.15,7.91-3.54,5.78-7.5,11.58-14.82,13.14-1.84.39-3.2.67-3.49,2.72"/>
      </g>
      <path class="cls-1" d="M1899.24,1234.55c-4.55.13-5.6,3.9-6.95,7.05-1.47,3.41.63,6.88,1.99,9.46,1.55,2.96,5.29,5.61,9.32,4.43,4.12-1.2,7.36-4.09,7.86-8.67.54-4.99-1.34-9.07-6.08-11.37-1.63-.79-3.4-1.22-5.25-.9"/>
      <g>
        <path class="cls-2" d="M193.09,198.8c-10.57,1.23-18.57-3.02-24.11-12.16-5.87-9.7-2.68-20.13,7.87-25.75,6.84-3.64,6.95-3.95,2.46-10.03-2.43-3.29-5-6.48-6.25-10.45-2.05-6.53-.47-11.46,4.6-14.5,5.22-3.13,8.12-2.7,13.53,2.84,1.94,1.98,3.62,2.68,6.12,1.66,2.19-.89,4.48-1.33,6.85-1.2,7.67.45,10.69,5.61,7.6,12.64-1.83,4.15-5.36,6.88-8.01,10.34-4.41,5.77-4.4,6.27,1.99,9.41,5.33,2.63,10.09,5.87,13.48,10.85,4.36,6.39,4,11.77-1.27,17.38-6.7,7.14-15.33,9.14-24.87,8.98ZM185.9,183.85c.2-4.47-.93-8.1-1.75-11.76-.51-2.27-1.02-4.74-3.99-4.95-2.86-.2-4.94,1.3-6.51,3.58-3.03,4.41-2.14,11.29,2.29,15.96,1.95,2.06,4.06,4.87,7.23,3.96,3.64-1.04,2.46-4.71,2.72-6.8ZM200.99,183.34c-.52-5.19-1.22-10.93-4.52-15.95-1.04-1.58-2.56-2.45-4.41-2.09-1.59.31-2.56,1.72-2.27,3.22,1.29,6.85,1.41,13.79,1.93,20.7.14,1.87,1.35,3.23,3.31,3.48,1.86.23,3.38-.61,4.46-2.11,1.44-1.99,1.48-4.32,1.51-7.25ZM205.39,169.51c-.38,7.41.66,13.39,3.29,19.32,5.22-1.21,7.74-4.75,7.31-8.87-.53-5.09-4.04-8.7-10.6-10.45ZM185.58,146.73c2.38-4.22,1.71-7.99,1.24-11.66-.31-2.39-1.42-4.87-4.36-4.35-3.3.57-5.14,3.18-4.24,6.39,1.07,3.81,2.43,7.8,7.37,9.62ZM198.56,147.13c1.92-.11,3.08-.99,3.9-2.15,1.71-2.46,4.96-4.44,3.41-8.11-.55-1.31-2.26-1.68-3.77-1.27-3.72,1-4.35,4.16-4.97,7.29-.29,1.45-.25,2.84,1.44,4.24Z"/>
        <path class="cls-1" d="M189.33,159.02c-2.36,1.43-3.42,4.09-6.99,4.58-13.12,1.79-18.05,14.14-9.5,24.22,3.45,4.07,7.6,9.5,14.74,6.29,8.06,5.35,15.23-1.28,22.77-2.08,7.89-.83,10.88-11.35,6.19-18.11-3.42-4.93-7.25-9.03-14.05-7.89"/>
        <path class="cls-1" d="M191.09,154.63c-.1-5.05.97-9.96,1.67-14.93.77-5.48-5.62-12.63-10.44-12.27-5.32.4-8.77,5.54-7.01,10.52,2.37,6.73,5.91,12.46,13.15,14.92"/>
        <path class="cls-1" d="M184.95,164.28c4.37,9.26,3.43,19.17,3.51,28.95"/>
        <path class="cls-1" d="M195.47,159.9c5.49,3.49,6.82,8.81,7.1,14.91.26,5.57,2.49,10.97,1.67,16.67"/>
        <path class="cls-1" d="M193.72,137.09c2.86-3.01,6.05-4.86,10.53-4.47,5.59.48,7.95,3.34,5.15,7.91-3.54,5.78-7.5,11.58-14.82,13.14-1.84.39-3.2.67-3.49,2.72"/>
      </g>
      <g>
        <path class="cls-2" d="M835.24,658.48c-10.57,1.23-18.57-3.02-24.11-12.16-5.87-9.7-2.68-20.13,7.87-25.75,6.84-3.64,6.95-3.95,2.46-10.03-2.43-3.29-5-6.48-6.25-10.45-2.05-6.53-.47-11.46,4.6-14.5,5.22-3.13,8.12-2.7,13.53,2.84,1.94,1.98,3.62,2.68,6.12,1.66,2.19-.89,4.48-1.33,6.85-1.2,7.67.45,10.69,5.61,7.6,12.64-1.83,4.15-5.36,6.88-8.01,10.34-4.41,5.77-4.4,6.27,1.99,9.41,5.33,2.63,10.09,5.87,13.48,10.85,4.36,6.39,4,11.77-1.27,17.38-6.7,7.14-15.33,9.14-24.87,8.98ZM828.05,643.53c.2-4.47-.93-8.1-1.75-11.76-.51-2.27-1.02-4.74-3.99-4.95-2.86-.2-4.94,1.3-6.51,3.58-3.03,4.41-2.14,11.29,2.29,15.96,1.95,2.06,4.06,4.87,7.23,3.96,3.64-1.04,2.46-4.71,2.72-6.8ZM843.14,643.02c-.52-5.19-1.22-10.93-4.52-15.95-1.04-1.58-2.56-2.45-4.41-2.09-1.59.31-2.56,1.72-2.27,3.22,1.29,6.85,1.41,13.79,1.93,20.7.14,1.87,1.35,3.23,3.31,3.48,1.86.23,3.38-.61,4.46-2.11,1.44-1.99,1.48-4.32,1.51-7.25ZM847.54,629.19c-.38,7.41.66,13.39,3.29,19.32,5.22-1.21,7.74-4.75,7.31-8.87-.53-5.09-4.04-8.7-10.6-10.45ZM827.72,606.4c2.38-4.22,1.71-7.99,1.24-11.66-.31-2.39-1.42-4.87-4.36-4.35-3.3.57-5.14,3.18-4.24,6.39,1.07,3.81,2.43,7.8,7.37,9.62ZM840.71,606.81c1.92-.11,3.08-.99,3.9-2.15,1.71-2.46,4.96-4.44,3.41-8.11-.55-1.31-2.26-1.68-3.77-1.27-3.72,1-4.35,4.16-4.97,7.29-.29,1.45-.25,2.84,1.44,4.24Z"/>
        <path class="cls-1" d="M831.48,618.7c-2.36,1.43-3.42,4.09-6.99,4.58-13.12,1.79-18.05,14.14-9.5,24.22,3.45,4.07,7.6,9.5,14.74,6.29,8.06,5.35,15.23-1.28,22.77-2.08,7.89-.83,10.88-11.35,6.19-18.11-3.42-4.93-7.25-9.03-14.05-7.89"/>
        <path class="cls-1" d="M833.23,614.31c-.1-5.05.97-9.96,1.67-14.93.77-5.48-5.62-12.63-10.44-12.27-5.32.4-8.77,5.54-7.01,10.52,2.37,6.73,5.91,12.46,13.15,14.92"/>
        <path class="cls-1" d="M827.09,623.96c4.37,9.26,3.43,19.17,3.51,28.95"/>
        <path class="cls-1" d="M837.62,619.58c5.49,3.49,6.82,8.81,7.1,14.91.26,5.57,2.49,10.97,1.67,16.67"/>
        <path class="cls-1" d="M835.87,596.77c2.86-3.01,6.05-4.86,10.53-4.47,5.59.48,7.95,3.34,5.15,7.91-3.54,5.78-7.5,11.58-14.82,13.14-1.84.39-3.2.67-3.49,2.72"/>
      </g>
      <g>
        <path class="cls-2" d="M4003.87,732.17c-10.57,1.23-18.57-3.02-24.11-12.16-5.87-9.7-2.68-20.13,7.87-25.75,6.84-3.64,6.95-3.95,2.46-10.03-2.43-3.29-5-6.48-6.25-10.45-2.05-6.53-.47-11.46,4.6-14.5,5.22-3.13,8.12-2.7,13.53,2.84,1.94,1.98,3.62,2.68,6.12,1.66,2.19-.89,4.48-1.33,6.85-1.2,7.67.45,10.69,5.61,7.6,12.64-1.83,4.15-5.36,6.88-8.01,10.34-4.41,5.77-4.4,6.27,1.99,9.41,5.33,2.63,10.09,5.87,13.48,10.85,4.36,6.39,4,11.77-1.27,17.38-6.7,7.14-15.33,9.14-24.87,8.98ZM3996.68,717.22c.2-4.47-.93-8.1-1.75-11.76-.51-2.27-1.02-4.74-3.99-4.95-2.86-.2-4.94,1.3-6.51,3.58-3.03,4.41-2.14,11.29,2.29,15.96,1.95,2.06,4.06,4.87,7.23,3.96,3.64-1.04,2.46-4.71,2.72-6.8ZM4011.77,716.71c-.52-5.19-1.22-10.93-4.52-15.95-1.04-1.58-2.56-2.45-4.41-2.09-1.59.31-2.56,1.72-2.27,3.22,1.29,6.85,1.41,13.79,1.93,20.7.14,1.87,1.35,3.23,3.31,3.48,1.86.23,3.38-.61,4.46-2.11,1.44-1.99,1.48-4.32,1.51-7.25ZM4016.17,702.88c-.38,7.41.66,13.39,3.29,19.32,5.22-1.21,7.74-4.75,7.31-8.87-.53-5.09-4.04-8.7-10.6-10.45ZM3996.36,680.09c2.38-4.22,1.71-7.99,1.24-11.66-.31-2.39-1.42-4.87-4.36-4.35-3.3.57-5.14,3.18-4.24,6.39,1.07,3.81,2.43,7.8,7.37,9.62ZM4009.34,680.5c1.92-.11,3.08-.99,3.9-2.15,1.71-2.46,4.96-4.44,3.41-8.11-.55-1.31-2.26-1.68-3.77-1.27-3.72,1-4.35,4.16-4.97,7.29-.29,1.45-.25,2.84,1.44,4.24Z"/>
        <path class="cls-1" d="M4000.11,692.39c-2.36,1.43-3.42,4.09-6.99,4.58-13.12,1.79-18.05,14.14-9.5,24.22,3.45,4.07,7.6,9.5,14.74,6.29,8.06,5.35,15.23-1.28,22.77-2.08,7.89-.83,10.88-11.35,6.19-18.11-3.42-4.93-7.25-9.03-14.05-7.89"/>
        <path class="cls-1" d="M4001.87,688c-.1-5.05.97-9.96,1.67-14.93.77-5.48-5.62-12.63-10.44-12.27-5.32.4-8.77,5.54-7.01,10.52,2.37,6.73,5.91,12.46,13.15,14.92"/>
        <path class="cls-1" d="M3995.73,697.65c4.37,9.26,3.43,19.17,3.51,28.95"/>
        <path class="cls-1" d="M4006.25,693.27c5.49,3.49,6.82,8.81,7.1,14.91.26,5.57,2.49,10.97,1.67,16.67"/>
        <path class="cls-1" d="M4004.5,670.46c2.86-3.01,6.05-4.86,10.53-4.47,5.59.48,7.95,3.34,5.15,7.91-3.54,5.78-7.5,11.58-14.82,13.14-1.84.39-3.2.67-3.49,2.72"/>
      </g>
      <g>
        <path class="cls-2" d="M3631.91,79.5c-10.57,1.23-18.57-3.02-24.11-12.16-5.87-9.7-2.68-20.13,7.87-25.75,6.84-3.64,6.95-3.95,2.46-10.03-2.43-3.29-5-6.48-6.25-10.45-2.05-6.53-.47-11.46,4.6-14.5,5.22-3.13,8.12-2.7,13.53,2.84,1.94,1.98,3.62,2.68,6.12,1.66,2.19-.89,4.48-1.33,6.85-1.2,7.67.45,10.69,5.61,7.6,12.64-1.83,4.15-5.36,6.88-8.01,10.34-4.41,5.77-4.4,6.27,1.99,9.41,5.33,2.63,10.09,5.87,13.48,10.85,4.36,6.39,4,11.77-1.27,17.38-6.7,7.14-15.33,9.14-24.87,8.98ZM3624.73,64.54c.2-4.47-.93-8.1-1.75-11.76-.51-2.27-1.02-4.74-3.99-4.95-2.86-.2-4.94,1.3-6.51,3.58-3.03,4.41-2.14,11.29,2.29,15.96,1.95,2.06,4.06,4.87,7.23,3.96,3.64-1.04,2.46-4.71,2.72-6.8ZM3639.82,64.04c-.52-5.19-1.22-10.93-4.52-15.95-1.04-1.58-2.56-2.45-4.41-2.09-1.59.31-2.56,1.72-2.27,3.22,1.29,6.85,1.41,13.79,1.93,20.7.14,1.87,1.35,3.23,3.31,3.48,1.86.23,3.38-.61,4.46-2.11,1.44-1.99,1.48-4.32,1.51-7.25ZM3644.22,50.2c-.38,7.41.66,13.39,3.29,19.32,5.22-1.21,7.74-4.75,7.31-8.87-.53-5.09-4.04-8.7-10.6-10.45ZM3624.4,27.42c2.38-4.22,1.71-7.99,1.24-11.66-.31-2.39-1.42-4.87-4.36-4.35-3.3.57-5.14,3.18-4.24,6.39,1.07,3.81,2.43,7.8,7.37,9.62ZM3637.39,27.82c1.92-.11,3.08-.99,3.9-2.15,1.71-2.46,4.96-4.44,3.41-8.11-.55-1.31-2.26-1.68-3.77-1.27-3.72,1-4.35,4.16-4.97,7.29-.29,1.45-.25,2.84,1.44,4.24Z"/>
        <path class="cls-1" d="M3628.16,39.71c-2.36,1.43-3.42,4.09-6.99,4.58-13.12,1.79-18.05,14.14-9.5,24.22,3.45,4.07,7.6,9.5,14.74,6.29,8.06,5.35,15.23-1.28,22.77-2.08,7.89-.83,10.88-11.35,6.19-18.11-3.42-4.93-7.25-9.03-14.05-7.89"/>
        <path class="cls-1" d="M3629.91,35.33c-.1-5.05.97-9.96,1.67-14.93.77-5.48-5.62-12.63-10.44-12.27-5.32.4-8.77,5.54-7.01,10.52,2.37,6.73,5.91,12.46,13.15,14.92"/>
        <path class="cls-1" d="M3623.77,44.98c4.37,9.26,3.43,19.17,3.51,28.95"/>
        <path class="cls-1" d="M3634.3,40.59c5.49,3.49,6.82,8.81,7.1,14.91.26,5.57,2.49,10.97,1.67,16.67"/>
        <path class="cls-1" d="M3632.54,17.78c2.86-3.01,6.05-4.86,10.53-4.47,5.59.48,7.95,3.34,5.15,7.91-3.54,5.78-7.5,11.58-14.82,13.14-1.84.39-3.2.67-3.49,2.72"/>
      </g>
      <path class="cls-2" d="M891.53,53.48c-.02,5.96-3.99,10.67-9.09,10.79-5.97.14-11.8-6.33-11.62-12.9.17-6,4.73-10.53,10.48-10.41,6.4.13,10.26,4.86,10.23,12.53Z"/>
      <path class="cls-2" d="M3849.62,299.11c-.02,5.96-3.99,10.67-9.09,10.79-5.97.14-11.8-6.33-11.62-12.9.17-6,4.73-10.53,10.48-10.41,6.4.13,10.26,4.86,10.23,12.53Z"/>
      <path class="cls-2" d="M4008.58,27.49c-6.84.21-12.71-6.51-12.89-14.76C3995.53,5.28,4000.2,0,4006.94,0c7.02,0,13.23,6.83,13.22,14.57,0,6.83-5.29,12.73-11.58,12.92ZM4014.18,13.93c-.45-3.71-2.11-7.03-6.74-7.23-4.5-.19-6.19,2.8-5.85,6.83.36,4.15,2.31,7.41,7.03,7.24,3.79-.14,5.62-2.61,5.56-6.84Z"/>
      <path class="cls-1" d="M8.45,722.81c-4.55.13-5.6,3.9-6.95,7.05-1.47,3.41.63,6.88,1.99,9.46,1.55,2.96,5.29,5.61,9.32,4.43,4.12-1.2,7.36-4.09,7.86-8.67.54-4.99-1.34-9.07-6.08-11.37-1.63-.79-3.4-1.22-5.25-.9"/>
      <path class="cls-2" d="M3418.02,590.36c-.02,5.96-3.99,10.67-9.09,10.79-5.97.14-11.8-6.33-11.62-12.9.17-6,4.73-10.53,10.48-10.41,6.4.13,10.26,4.86,10.23,12.53Z"/>
    </g>
  </g>
</svg>