<?xml version="1.0" encoding="UTF-8"?>
<svg id="Layer_2" data-name="Layer 2" xmlns="http://www.w3.org/2000/svg" viewBox="0 0 796.83 781.62">
  <defs>
    <style>
      .cls-1 {
        fill: #0c0c0c;
        stroke-width: 0px;
      }
    </style>
  </defs>
  <g id="Layer_2-2" data-name="Layer 2">
    <path class="cls-1" d="M355.81,51.07c12.7-18.14,26.85-35.38,42.59-51.07,14.8,14.7,28.06,30.86,40.25,47.71,15.76,21.88,27.06,46.89,32.51,73.17,2.11,12.09-1.79,24.41-8.52,34.51,4.94,4.16,11.32,6.89,17.94,6.38,7.17-.39,13.27-4.68,18.42-9.25.38,6.73,1.55,13.96,6.29,19.17,4.3,5.01,10.83,7.67,17.42,8.07,2.48-12.11,8.98-23.76,19.55-30.82,22.17-14.07,47.17-23.79,73.19-28.33,21.33-3.67,42.97-5.99,64.64-6.11-1.06,40.31-5.69,82.02-25.15,118.23-5.36,9.69-10.37,20.25-19.74,26.91-6.37,4.86-14.09,7.45-21.8,9.42.78,6,2.95,12.07,7.64,16.23,5.34,5.13,13.11,6.46,20.29,6.82-4.65,5.05-9.04,11.03-9.42,18.08-.54,6.49,2.26,12.77,6.53,17.59,10.7-6.95,23.99-10.7,36.76-8.08,22.79,4.93,44.79,13.61,64.44,26.03,20.51,13.11,39.68,28.29,57.19,45.06-11.75,11.58-24.75,21.87-37.91,31.85-19.47,14.62-40.99,26.94-64.49,34.11-10.37,2.97-20.96,6.88-31.96,5.76-8.66-.73-16.79-4.19-24.05-8.7-4.26,4.86-7.05,11.15-6.5,17.66.41,7.02,4.78,12.96,9.42,18-7.19.36-15,1.69-20.34,6.86-4.67,4.16-6.86,10.22-7.57,16.23,12.35,2.69,24.38,8.87,31.59,19.37,13.2,20.1,22.78,42.54,27.66,66,4.61,22.76,7.24,45.98,7.37,69.19-16.9-.04-33.75-1.74-50.48-3.9-24.28-3.2-48.33-9.54-70.05-20.82-9.31-5.01-19.4-9.55-26.2-17.86-5.62-6.51-8.69-14.67-10.76-22.85-6.12.71-12.28,2.85-16.52,7.4-5.29,5.24-6.67,12.89-7.02,19.98-5.12-4.54-11.17-8.81-18.29-9.23-6.65-.57-13.11,2.16-18.06,6.39,7.05,10.48,10.9,23.48,8.25,36-4.88,21.68-13.31,42.64-25.4,61.45-13.56,20.84-29.51,40.22-47.09,57.91-11.43-11.12-21.56-23.42-31.45-35.86-15.33-19.46-28.33-41-35.79-64.6-3.02-10.19-7.04-20.59-5.86-31.38.72-8.46,4.23-16.43,8.86-23.51-4.92-4.22-11.35-6.96-18-6.42-7.15.4-13.23,4.69-18.36,9.24-.38-6.38-1.39-13.16-5.55-18.31-4.32-5.5-11.23-8.66-18.24-8.85-2.34,12.1-8.96,23.67-19.44,30.73-22.2,14.12-47.26,23.83-73.33,28.36-21.28,3.69-42.87,5.93-64.49,6.12,1.01-40.33,5.68-82.1,25.15-118.3,5.49-10.01,10.73-20.9,20.61-27.51,6.09-4.61,13.59-6.58,20.74-8.94-.44-6.68-3.58-13.24-9-17.37-5.27-4.15-12.23-5.15-18.76-5.53,4.62-5.04,9-10.98,9.43-18,.55-6.5-2.24-12.81-6.5-17.66-10.73,6.92-24.01,10.7-36.8,8.07-24.15-5.19-47.36-14.72-67.91-28.24-19.13-12.68-37.21-26.98-53.7-42.85,15.26-14.77,32.03-28.01,49.56-40.11,22.1-15.17,47.3-26.02,73.76-31.28,12.28-2.03,24.82,1.75,35.07,8.37,4.27-4.82,7.05-11.1,6.53-17.56-.38-7.07-4.77-13.06-9.43-18.11,6.17-.36,12.69-1.25,17.88-4.86,6.03-4.2,9.68-11.29,9.76-18.51-12.36-2.24-24.14-8.8-31.32-19.09-14.36-21.77-24.27-46.34-28.88-71.9-3.75-20.87-6.06-42.04-6.22-63.24,41.13,1.02,83.72,5.58,120.65,24.71,10.48,5.49,21.86,10.86,28.56,20.98,4.14,5.84,6.61,12.64,8.19,19.56,6.57-.4,13.1-3.05,17.4-8.06,4.75-5.21,5.92-12.46,6.3-19.18,5.15,4.57,11.24,8.86,18.42,9.25,6.62.51,13-2.21,17.94-6.38-7.04-10.5-10.9-23.5-8.25-36,5.41-24.37,15.55-47.7,29.91-68.31h-.02ZM358.32,57.88c-10.9,15.94-19.97,33.33-24.88,51.98-2.74,12.35-2.78,26.83,5.24,37.36,6.66,7.91,18,5.34,27.11,5.43-4.77-12.42-1.75-26.09,4.14-37.59,5.72-12.15,12.46-23.82,19.15-35.49,2.72-3.84,5.36-8.08,9.3-10.77,3.99,2.64,6.62,6.96,9.37,10.79,7.86,13.86,16.05,27.63,22.14,42.38,4,9.7,4.81,20.74,1.15,30.68,6.32-.09,12.76,1.02,19-.43,5.88-1.41,10.12-6.36,12.08-11.78,4.55-12.29,3.35-25.95-.92-38.13-5.46-16.12-13.57-31.32-23.33-45.33-12.09-17.07-24.35-34.19-39.45-48.86-15.37,14.92-27.8,32.38-40.08,49.76h0ZM369.58,133.46c-1.72,7.13-.75,15.27,4.44,20.85,5.65,6,12.99,11.15,21.42,12.32,10.63,1.34,20.44-4.96,27.33-12.31,5.22-5.58,6.16-13.74,4.46-20.88-4.71-21.07-15.69-40.26-28.82-57.36-13.14,17.09-24.11,36.29-28.82,57.37h0ZM122.56,120.22c-.16,17.04,2.31,33.97,5.28,50.73,3.66,23.12,9.98,46.26,22.27,66.51,6.84,10.33,16.83,20.06,29.56,22.48,10.8,1.59,17.33-8.37,23.92-14.89-5.44-2.76-10.51-6.31-14.28-11.07-7.88-9.83-11.14-22.19-15.09-33.84-3.31-11.89-8.26-23.58-8.37-36.09.35-.34,1.05-1.02,1.4-1.35,10.72-.01,20.81,3.71,30.98,6.52,11.04,3.31,22.27,6.44,32.61,11.58,8.26,4.06,14.87,10.84,19.02,18.91,6.57-6.5,16.75-12.87,15.12-23.45-2.59-12.87-12.97-22.89-23.96-29.62-18.75-10.59-39.79-16.76-61.06-20.24-18.96-3.28-38.09-6.32-57.41-6.17h0ZM618.53,126.1c-21.84,3.46-43.53,9.65-62.79,20.55-10.95,6.74-21.35,16.73-23.9,29.61-1.63,10.58,8.5,17.03,15.2,23.45,3.05-5.96,7.31-11.39,12.91-15.23,10.15-7.05,22.4-10.18,34.06-13.92,11.69-3.13,23.22-7.77,35.52-7.85.36.33,1.06.99,1.42,1.33-.3,13.94-5.96,26.96-9.69,40.24-4.91,15.77-11.47,33.52-28.04,40.78,6.58,6.53,13.1,16.47,23.88,14.89,13.1-2.51,23.29-12.65,30.16-23.37,10.87-18.44,17.16-39.19,20.73-60.11,3.32-18.57,6.43-37.31,6.25-56.23-18.74-.14-37.31,2.7-55.72,5.88h0ZM310.73,183.29c-10.13.38-20.19,2.66-29.46,6.68-9.59,4.22-17.7,11.83-21.78,21.39-4.46,9.91-6.9,21.8-1.9,31.98,6.9,13.37,18.01,25.53,32.87,30.32,13.96,5.65,30.59-3.27,36.22-16.34,6.05-13.9-7.76-32.17-23.23-29.18-3.75.51-4.84,4.45-6.15,7.34,3.02-1.17,6.37-2.95,9.67-1.62,6.54,2.33,6,13.39-.87,14.89-8.4,2.83-17.76-6.29-14.66-14.58,1.38-10.04,13.84-14.03,22.61-11.04,15.78,5.44,26.24,24.52,19.83,40.18-2.62,6.71-8.76,10.97-14.59,14.85,13.85,12.92,15.61,32.72,15.63,50.37-18-.03-38.19-1.74-51.35-15.32-4.1,6.01-8.81,12.29-16.12,14.68-14.83,5.17-32-3.47-38.77-16.87-3.61-7.07-2.78-16.69,3.32-22.18,3.59-2.82,8.54-3.76,13.04-3.21,5.95,1.81,10.69,8.41,8.57,14.56-1.45,6.79-12.77,7.39-15.17.97-1.42-3.24.43-6.54,1.6-9.53-2.15,1-4.63,1.63-6.27,3.41-1.93,2.76-1.73,6.39-1.2,9.55,2.92,12.11,17.67,20.79,29.75,15.86,11.14-4.65,19.16-16.51,18.4-28.47-1.66-11.07-8-21.15-16.48-28.51-8.53-7.1-18.63-14.33-30.44-13.5-13.99,1.03-28.31,7.35-36.22,19.13-7.01,10.52-10.09,23.23-10.71,35.68-8.49,9.38-15.65,20.5-18.24,32.93-2.74,12.85,2.16,26.09,9.98,36.33,4.98,6.57,12.73,10.68,20.89,12.07,15.04,3.52,32.17,2.17,44.76-7.31,8.88-8.02,11.77-21.81,7.17-32.71-5.73-13.78-28.11-17.25-37.09-4.87-2.65,2.87-.74,6.71.46,9.76,1.6-2.94,2.7-6.81,6.33-7.91,4.92-1.81,10.04,2.64,10.69,7.32-.16,6.05-6.37,10.45-12.29,9.8-6.05.21-10.06-5.29-11.81-10.31-2.13-8.1,3.79-16.41,11.2-19.62,14.85-6.15,34.98-.22,41.75,14.69,3.16,6.65,1.97,14.16.57,21.08,19.16-.49,34.62,12.29,47.39,24.78-12.78,12.49-28.23,25.27-47.39,24.78,1.41,6.9,2.6,14.39-.55,21.06-6.88,15.16-27.62,21.1-42.52,14.35-6.05-2.93-10.65-9.04-10.95-15.72,0-4.89,3.01-9.37,6.75-12.37,5.53-3.06,13.9-1.58,16.81,4.35,3.61,5.64-3.39,13.53-9.6,11.29-3.66-1.08-4.77-4.98-6.36-7.95-.91,2.81-3.04,6.14-1.01,8.98,7.58,11.93,27.34,10.57,35.35-.18,7.74-11.11,5-27.62-4.9-36.6-11.45-8.58-26.85-10.65-40.76-8.06-8.52,1.2-17.25,4.11-23.03,10.67-9.43,10.78-15.03,25.74-11.54,39.91,2.88,11.88,9.78,22.5,17.95,31.57.33,9.89,2.71,19.7,6.75,28.75,4.46,9.81,12.72,17.99,22.99,21.9,10.22,4.28,22.51,6.19,32.7.8,11.24-6.01,21.69-14.53,27.3-26.05,2.87-5.99,5.27-12.7,3.69-19.37-2.16-9.38-8.81-18.01-17.97-21.76-14.13-5.94-32.73,7.52-29.8,22.66.48,3.66,4.39,4.94,7.47,5.93-1.41-3.09-3.19-6.85-1.2-10.09,2.22-4.2,8.04-4.45,11.91-2.46,5.02,3.94,4.06,12.04-.7,15.86-4.68,4.97-12.9,3.35-17.93-.19-6.48-5.69-7.09-15.94-2.98-23.15,7.07-12.92,23.91-21.12,38.45-15.95,7.25,2.41,11.9,8.67,15.99,14.65,13.16-13.59,33.37-15.33,51.37-15.31-.07,17.64-1.79,37.44-15.65,50.34,5.79,3.87,11.92,8.1,14.56,14.78,6.47,15.63-3.94,34.71-19.7,40.22-7.42,2.34-17.36.44-21.27-6.75-1.81-4.25-3.24-9.83-.03-13.8,2.85-4.05,8.18-6.77,13.19-5.07,6.9,1.42,7.51,12.47,1.02,14.88-3.32,1.38-6.69-.42-9.73-1.56,1.29,2.88,2.4,6.79,6.16,7.31,15.46,2.97,29.25-15.3,23.2-29.17-4.77-10.95-16.92-18.84-29.14-18.04-12.25,1.84-23.23,9.01-30.91,18.42-6.42,7.82-12.62,17.07-11.81,27.59,1.05,14.02,7.8,28.37,20.25,36.03,10.6,6.52,23.22,9.43,35.62,10.02,13.68,11.89,32.17,22.08,51.01,17.47,12.33-3.41,25.22-10.46,29.92-22.86,4.9-14.43,5.76-31.05-1.56-44.87-6-13.4-24.09-18.49-37.3-13.04-14.01,5.67-17.51,27.59-4.89,36.36,2.95,2.6,6.85.67,9.98-.48-3.04-1.56-7.01-2.64-8.12-6.22-2.27-6.08,5.7-12.95,11.47-9.45,4.17,1.95,6.34,6.58,6,11.01.19,6.25-5.96,10.42-11.5,11.87-8.83,1.42-17.33-5.33-19.87-13.38-4.66-13.97,1.04-31.68,14.91-38.39,6.96-3.56,15.04-2.48,22.4-.97-.49-18.79,12.53-33.96,25.26-46.49,12.73,12.53,25.77,27.69,25.26,46.49,8.04-1.75,17.06-2.58,24.36,2,12.05,7.17,16.95,22.84,13.42,35.88-1.83,7.45-8.22,13.78-16.04,14.99-5.58.81-10.93-2.45-14.3-6.54-3.08-5.49-1.55-13.66,4.54-16.48,5.78-3.48,13.78,3.47,11.41,9.54-1.15,3.55-5.11,4.62-8.15,6.14,3.11,1.11,7.01,3.1,9.98.53,12.68-8.75,9.18-30.76-4.85-36.41-11.1-4.53-25.18-1.73-33.35,6.99-8.66,11.04-10.86,25.92-8.36,39.4,1.21,8.52,4.09,17.33,10.93,23.16,10.97,9.26,26.23,14.78,40.67,11.37,12.09-2.83,22.95-9.54,32.15-17.6,18.02-.96,38.22-6.63,48.29-22.55,6.53-11.1,10.67-25.37,4.83-37.59-6.91-13.31-18-25.44-32.83-30.22-13.96-5.68-30.59,3.24-36.22,16.31-6.06,13.86,7.69,32.13,23.15,29.21,3.78-.5,4.9-4.44,6.23-7.34-3.28,1.29-7.15,3.2-10.54,1.18-4.24-2.17-4.51-7.85-2.51-11.61,3.72-4.7,11.55-4.22,15.51-.01,5.99,4.71,4.32,13.99-.26,19.05-6.03,5.53-15.74,5.99-22.8,2.13-13.19-6.92-21.58-23.43-16.34-37.68,2.44-7.14,8.83-11.73,14.94-15.74-13.85-12.92-15.61-32.72-15.63-50.37,18,.03,38.19,1.75,51.35,15.33,4.1-6,8.77-12.26,16.07-14.66,14.83-5.22,32.06,3.41,38.83,16.84,3.48,6.81,2.81,15.84-2.58,21.52-3.59,3.37-8.98,4.41-13.77,3.88-5.97-1.83-10.73-8.46-8.57-14.62,1.41-6.45,11.83-7.35,14.8-1.65,1.96,3.24.14,6.98-1.22,10.08,3.04-1.06,6.92-2.27,7.45-5.9,2.78-14.07-13.11-26.85-26.75-23.65-12.81,3.36-22.24,16.55-21.39,29.49,1.69,10.99,7.98,20.99,16.36,28.33,8.56,7.13,18.68,14.38,30.52,13.59,14.3-1.05,28.94-7.66,36.74-19.87,6.64-10.42,9.61-22.82,10.23-34.98,12.15-13.4,22.51-31.61,17.77-50.1-3.54-12.35-11.07-25.28-24.18-29.57-12.52-3.77-26.37-5.04-38.9-.64-6.1,2.23-12.46,5.18-16.08,10.76-5.71,8.48-7.27,19.99-2.68,29.28,6.36,12.97,27.87,15.9,36.6,3.84,2.53-2.83.99-6.68-.68-9.5-1.48,2.93-2.62,6.68-6.2,7.68-6.19,2.19-13.14-5.67-9.56-11.27,2.91-5.97,11.29-7.46,16.86-4.36,2.87,2.26,5.1,5.39,6.23,8.84,2.09,8.1-3.86,16.39-11.26,19.59-14.85,6.12-34.94.21-41.73-14.69-3.18-6.67-1.99-14.17-.57-21.09-19.16.49-34.62-12.29-47.39-24.78,12.77-12.49,28.23-25.27,47.39-24.78-1.41-6.92-2.61-14.41.55-21.05,7.05-15.5,28.63-21.47,43.57-13.81,8.46,4.34,13.48,16.37,6.53,24.1-4.26,7.14-16.59,6.45-20.19-.95-3.61-5.67,3.48-13.56,9.69-11.24,3.59,1.11,4.67,4.97,6.29,7.91.89-2.83,3.02-6.18.97-9.01-7.8-12.21-28.4-10.43-35.96,1.14-6.9,11.09-4.11,26.87,5.48,35.62,11.45,8.64,26.94,10.7,40.88,8.12,8.47-1.21,17.15-4.11,22.93-10.62,9.44-10.76,15.07-25.74,11.6-39.91-2.88-11.87-9.73-22.51-17.94-31.54-.38-9.9-2.71-19.75-6.79-28.8-4.3-9.45-12.09-17.43-21.87-21.45-10.12-4.37-22.25-6.75-32.64-1.84-13.59,6.81-26,17.71-30.85,32.3-5.74,13.68,3.38,29.96,16.69,35.46,14.18,5.93,32.81-7.66,29.72-22.85-.57-3.63-4.54-4.69-7.45-5.99,1.31,3.18,3.24,6.92,1.26,10.24-2.19,4.26-8.04,4.53-11.92,2.56-4.75-3.67-4.27-11.33,0-15.2,5.04-6.12,15.26-4.2,20.17,1.03,4.9,6.03,5.19,14.92,1.45,21.58-7.07,12.93-23.88,21.16-38.42,16.02-7.3-2.4-11.96-8.66-16.05-14.64-13.18,13.56-33.37,15.3-51.36,15.31.03-17.65,1.76-37.46,15.63-50.37-5.82-3.88-11.99-8.14-14.59-14.88-6.18-15.04,3.28-33.12,17.93-39.45,6.47-2.76,14.55-2.03,20.11,2.35,4.03,3.44,5.25,9.22,4.67,14.21-1.89,5.85-8.63,10.47-14.9,8.37-6.91-1.48-7.45-12.59-.88-14.9,3.28-1.35,6.63.45,9.66,1.62-1.05-2.13-1.7-4.56-3.52-6.19-2.82-1.85-6.51-1.67-9.71-1.15-12.36,2.86-21.22,17.37-16.14,29.24,4.77,10.89,16.86,18.75,29.05,17.99,12.26-1.81,23.25-8.98,30.93-18.36,6.43-7.85,12.66-17.08,11.85-27.63-1.05-14.06-7.83-28.46-20.34-36.1-10.6-6.47-23.19-9.37-35.55-9.98-8.15-7.2-17.63-13.12-28.06-16.52-10.16-3.31-21.54-2.6-31.2,1.92-9.24,3.92-18.11,10.36-21.63,19.96-4.94,14.45-5.79,31.1,1.55,44.95,6.02,13.37,24.07,18.43,37.28,13,14.02-5.67,17.51-27.6,4.87-36.37-2.88-2.52-6.7-.74-9.73.36,2.84,1.77,6.76,2.8,7.88,6.29,1.87,4.85-2.71,9.92-7.51,10.5-6.18-.15-10.62-6.29-9.94-12.08-.14-6.22,5.97-10.33,11.47-11.78,8.86-1.45,17.36,5.32,19.91,13.39,4.61,13.92-1.03,31.55-14.79,38.31-7,3.62-15.14,2.53-22.54,1.03.5,18.79-12.53,33.95-25.26,46.48-12.73-12.53-25.76-27.69-25.26-46.48-7.37,1.49-15.46,2.59-22.42-.99-13.85-6.7-19.53-24.37-14.9-38.33,2.51-8.06,10.99-14.81,19.83-13.44,5.55,1.44,11.78,5.59,11.55,11.9.33,4.39-1.8,9.01-5.96,10.97-5.73,3.51-13.73-3.26-11.54-9.34,1.01-3.58,4.91-4.69,7.92-6.14-2.95-1.54-6.85-3.17-9.76-.64-12.63,8.83-9.07,30.81,5.01,36.41,11.1,4.48,25.14,1.67,33.31-7.04,8.6-11.03,10.8-25.85,8.33-39.3-1.22-8.55-4.09-17.4-10.94-23.23-10.97-9.26-26.23-14.77-40.68-11.37-12.09,2.82-22.96,9.53-32.15,17.6v-.02ZM171.5,168.24c3.08,21.31,9.2,42.63,21.19,60.83,4.05,6.17,10.6,11.26,18.35,11.46,10.43.39,22.31-2.34,28.56-11.25,4.92-7.29,6.41-16.61,5.24-25.17-1.66-9.34-10.33-15.05-18.25-19.17-17-9.11-35.99-14.06-55.08-16.7ZM563.29,189.03c-6.27,3.94-11.47,10.35-11.68,17.93-.4,10.23,2.36,21.9,11.45,28.05,7.43,4.84,16.93,6.31,25.67,5.15,9.92-1.71,15.75-10.76,20.06-18.85,8.97-16.43,13.86-34.7,16.52-53.08-21.73,3.02-43.46,9.02-62.02,20.8h0ZM381.48,261.27c.71,12.42,8.25,23.39,16.92,32,8.66-8.61,16.18-19.56,16.92-31.96-.54-11.9-10.8-19.88-16.92-29.28-6.12,9.38-16.35,17.36-16.92,29.23h0ZM283.94,278.53c2.48,11.03.84,24.24,9.64,32.87,9.47,7.95,22.44,10.33,34.57,10.5-.17-11.92-2.6-24.68-10.74-33.96-8.8-8.6-22.25-6.95-33.46-9.41h0ZM479.42,287.92c-8.16,9.27-10.61,22.05-10.74,33.98,12.18-.18,25.26-2.57,34.7-10.65,8.63-8.67,7.01-21.74,9.5-32.72-11.24,2.42-24.64.84-33.45,9.38h0ZM105.22,328.93c-16.83,5.37-32.67,13.46-47.25,23.26-17.36,11.83-34.79,23.83-49.7,38.62,14.96,14.81,32.42,26.84,49.81,38.7,16.02,10.69,33.52,19.53,52.24,24.63,12.83,3.09,27.76,3.34,39.07-4.19,8.76-6.32,6.22-17.97,6.22-27.13-13.4,4.98-28,1.24-40.25-4.96-11.71-5.44-22.99-11.69-34.28-17.92-3.89-2.7-8.27-5.28-10.97-9.16,2.79-3.82,7.07-6.46,10.99-9.1,13.82-7.57,27.57-15.38,42.22-21.35,10.15-4.2,21.81-5.25,32.29-1.52-.11-6.48,1.19-13.16-.69-19.5-1.7-5.42-6.62-9.2-11.9-11.03-12.16-4.3-25.69-3.31-37.81.65h0ZM647.42,331.67c-8.77,6.29-6.23,17.97-6.23,27.13,7.24-2.41,15.09-3.09,22.57-1.41,13.35,3.1,25.28,10.11,37.33,16.29,8.87,5.1,19.06,9.06,25.62,17.12-2.76,3.86-7.08,6.45-10.99,9.12-14.11,7.72-28.16,15.74-43.16,21.73-9.92,3.94-21.22,4.76-31.37,1.16-.01,9.16-2.54,20.86,6.26,27.16,11.3,7.49,26.2,7.25,39,4.18,20.72-5.65,39.9-15.84,57.31-28.08,15.7-10.76,31.25-21.9,44.79-35.26-14.96-14.8-32.39-26.81-49.77-38.66-16.05-10.73-33.61-19.58-52.38-24.68-12.8-3.09-27.69-3.3-38.97,4.2h0ZM77.55,390.81c16.6,12.31,35.14,22.58,55.45,27.61,7.48,2,16.22,2.37,22.72-2.46,6.73-5.29,12.18-12.68,13.97-21.05,2-10.82-4.6-21.04-12.42-28.02-5.68-5.1-13.95-6.01-21.22-4.34-21.49,4.62-41.07,15.38-58.5,28.27h0ZM638.75,367.54c-7.1,6.74-13.16,16.07-11.81,26.16,1.19,8.3,6.46,15.52,12.63,21.08,5.66,5.04,13.89,5.95,21.12,4.32,21.5-4.61,41.12-15.38,58.56-28.29-17.7-13.07-37.62-24.03-59.49-28.46-7.34-1.59-15.55-.1-21,5.19h0ZM236.54,390.81c9.58,6,17.71,16.07,29.86,16.6,12.63-.72,23.79-8.1,32.57-16.6-8.8-8.5-20-15.91-32.65-16.6-12.09.57-20.21,10.59-29.78,16.6h0ZM497.84,390.81c8.46,8.24,19.09,15.19,31.16,16.56,12.77.4,21.36-10.36,31.26-16.56-9.58-6-17.71-16.05-29.83-16.6-12.64.71-23.82,8.1-32.6,16.6h0ZM293.53,470.25c-8.75,8.65-7.13,21.8-9.59,32.84,11.21-2.43,24.58-.85,33.39-9.35,8.2-9.27,10.63-22.06,10.82-34-12.16.13-25.16,2.53-34.62,10.51h0ZM468.67,459.73c.15,11.9,2.58,24.65,10.72,33.92,8.81,8.6,22.24,6.99,33.49,9.43-2.48-11-.87-24.11-9.54-32.76-9.45-8.04-22.51-10.44-34.67-10.59ZM381.48,520.3c.54,11.9,10.8,19.88,16.92,29.28,6.13-9.41,16.41-17.4,16.92-29.32-.75-12.39-8.27-23.32-16.92-31.92-8.65,8.61-16.18,19.58-16.92,31.96h0ZM149.5,545.12c-10.83,18.4-17.11,39.09-20.68,59.97-3.33,18.6-6.43,37.35-6.26,56.3,17.38.12,34.66-2.29,51.76-5.21,23.53-3.58,47.09-9.77,67.7-21.8,10.56-6.72,20.5-16.54,22.96-29.04,1.6-10.58-8.53-16.98-15.19-23.44-2.97,5.65-6.9,10.9-12.16,14.68-10.25,7.43-22.82,10.61-34.76,14.47-11.74,3.13-23.27,7.77-35.61,7.87-.36-.33-1.06-1-1.42-1.34.06-11.79,4.61-22.84,7.75-34.06,3.76-11.41,6.95-23.32,13.82-33.4,3.99-5.89,9.76-10.37,16.16-13.54-6.58-6.52-13.09-16.44-23.84-14.9-13.14,2.48-23.38,12.67-30.25,23.44h0ZM593.22,536.57c9.32,4.35,16.59,12.21,20.72,21.43,6.24,13.82,10.13,28.52,14.48,43,1.66,5.34,2.3,10.94,2.54,16.52-.34.35-1.02,1.05-1.36,1.39-5.72-.25-11.45-.85-16.93-2.51-14.37-4.12-28.92-7.89-42.72-13.68-9.83-4.05-18.34-11.29-22.93-20.82-6.64,6.45-16.77,12.83-15.19,23.4,2.54,12.87,12.89,22.87,23.83,29.61,17.33,9.83,36.7,15.86,56.32,19.46,20.58,3.59,41.3,7.19,62.28,7.02.18-20.59-3.48-40.93-7.14-61.11-3.68-19.22-9.81-38.2-19.81-55.18-6.85-10.72-17.02-20.85-30.09-23.4-10.83-1.64-17.39,8.34-23.98,14.88h0ZM188.07,560.19c-9,16.47-13.92,34.78-16.58,53.19,21.73-3.02,43.48-9.02,62.05-20.81,6.26-3.95,11.43-10.34,11.65-17.9.41-10.25-2.36-21.9-11.43-28.05-7.45-4.87-16.97-6.32-25.73-5.15-9.86,1.7-15.68,10.67-19.97,18.73h0ZM561.4,547.85c-7.83,6.41-10.09,17.09-9.79,26.64.16,7.66,5.38,14.15,11.71,18.11,18.56,11.75,40.28,17.75,61.99,20.77-2.99-20.8-8.93-41.54-20.29-59.51-3.9-6.25-9.98-11.93-17.74-12.64-8.96-.67-18.75.91-25.87,6.63h0ZM394.24,615.14c-7.95,1.56-14.9,6.42-20.28,12.23-5.17,5.58-6.09,13.7-4.37,20.83,4.71,21.05,15.69,40.24,28.81,57.33,13.14-17.09,24.11-36.3,28.82-57.37,1.7-7.15.75-15.31-4.47-20.88-7.14-7.64-17.53-14.09-28.51-12.13h0ZM338.07,635.11c-7.59,11.07-7.38,25.63-4.26,38.17,5.75,20.34,16.15,39.17,28.64,56.27,10.96,15.41,22.31,30.68,35.95,43.95,15.1-14.69,27.36-31.81,39.45-48.86,10.9-15.73,19.91-32.92,25.12-51.3,3.14-12.57,3.38-27.21-4.3-38.29-6.44-8.58-18.32-6.08-27.65-6.08,2.74,7.77,3.17,16.26.95,24.2-3.65,12.6-10.46,24-16.66,35.52-4.98,8.39-8.98,17.96-16.89,24.14-3.99-2.68-6.62-6.98-9.35-10.79-7.86-13.84-16.02-27.58-22.1-42.26-4.05-9.75-4.89-20.84-1.21-30.81-9.35-.02-21.29-2.49-27.7,6.16h0Z"/>
  </g>
</svg>