<?xml version="1.0" encoding="UTF-8"?>
<svg id="Layer_2" data-name="Layer 2" xmlns="http://www.w3.org/2000/svg" viewBox="0 0 254.91 176.18">
  <defs>
    <style>
      .cls-1 {
        fill: none;
        stroke: #000;
        stroke-linecap: round;
        stroke-linejoin: round;
        stroke-width: 2px;
      }

      .cls-2 {
        stroke-width: 0px;
      }
    </style>
  </defs>
  <g id="Layer_1-2" data-name="Layer 1">
    <g>
      <path class="cls-2" d="M231.69,176.18c-.09-.47-.08-.99-.29-1.4-.92-1.9-1.56-3.92-2.5-5.82-.38-.77-.61-1.64-1.1-2.33-.49-.69-.76-1.47-1.2-2.18-1.08-1.76-2.13-3.54-3.35-5.21-1.1-1.51-2.18-3.02-3.39-4.44-.75-.89-1.64-1.66-2.33-2.58-.71-.94-1.54-1.74-2.36-2.56-.55-.55-1.18-1.02-1.77-1.53-.59-.51-1.08-1.12-1.76-1.55-.72-.45-1.29-1.15-1.98-1.67-.87-.65-1.66-1.4-2.6-1.98-1.06-.65-2.03-1.44-3.05-2.15-.68-.48-1.39-.92-2.12-1.41-1.05,2.17-2.16,4.26-3.09,6.43-.55,1.29-1.13,2.58-1.66,3.88-.6,1.49-1.15,3-1.77,4.47-.74,1.74-1.22,3.55-1.87,5.31-.29.77-.39,1.61-.63,2.4-.33,1.11-.43,2.26-.73,3.37-.21.78-.15,1.62-.29,2.42-.18,1.05-.32,2.12-.79,3.1-.48.99-1.3,1.66-2.31,2.03-.59.22-1.25.33-1.89.34-5.16.03-10.31.01-15.51.01-.2-.57.15-1.03.31-1.49,1.08-3.1,2.12-6.22,3.21-9.32.81-2.29,1.59-4.59,2.33-6.9.48-1.49.97-2.98,1.45-4.48.18-.56.32-1.14.52-1.69.08-.22.29-.39.44-.59-.06-.15-.23-.38-.18-.48.58-1.11.67-2.35.99-3.52.29-1.05.41-2.13.57-3.21.17-1.11.32-2.23.43-3.35.11-1.13.15-2.3,0-3.42-.26-1.93-.5-3.86-1.11-5.74-.54-1.69-1.25-3.29-1.97-5-.73-.19-1.43.33-2.18.31-.14,0-.29.14-.44.16-1.02.1-2.06.1-3.06.28-2.71.48-5.43.12-8.15.23-.69.03-1.37,0-2.06-.22-.65-.2-1.35.05-2.06-.24-.57-.23-1.27-.14-1.92-.25-.95-.15-1.87-.45-2.83-.57-.94-.12-1.83-.5-2.75-.7-1.54-.35-3.04-.82-4.53-1.32-1.26-.42-2.5-.92-3.74-1.4-1.71-.66-3.43-1.3-5.13-2.02-1.43-.61-2.87-1.25-4.38-1.68-.85-.24-1.62-.79-2.45-1.13-1.34-.55-2.67-1.12-4.02-1.64-.73-.28-1.42-.66-2.14-.97-1.5-.66-3.03-1.26-4.52-1.96-.88-.41-1.85-.65-2.79-1.16-.12.1-.27.23-.41.36-.04,1.2-.45,2.36-.3,3.57-.5,1.42-.18,2.89-.24,4.34-.02.55.19,1.11.23,1.67.04.59-.14,1.23.05,1.76.19.53.17,1.04.22,1.56.05.52.16,1.03.25,1.54.09.51.3.99.28,1.55-.02.46.12.99.28,1.39.19.48,0,1.08.45,1.46.03,1.7.69,3.27,1.05,4.9.31,1.41.81,2.8,1.15,4.2.35,1.46.78,2.9,1.11,4.37.24,1.07.62,2.11.9,3.18.2.76.38,1.53.6,2.29.41,1.44.74,2.9,1.19,4.33.44,1.43.7,2.92,1.13,4.36.38,1.29.69,2.59,1.05,3.88.31,1.1.66,2.18.97,3.28.32,1.14.69,2.27.89,3.43.17.98.82,1.86.61,2.96-1.23.31-2.38.91-3.7,1.12-.81.13-1.65.27-2.47.42-.86.16-1.77.04-2.66.04-.68,0-1.38.13-2.02-.03-1.47-.35-3.04-.21-4.43-.94-1.73-.04-2.52-1.43-3.45-2.53-.79-.93-1.14-2.13-1.55-3.28-.35-.95-.73-1.9-1.12-2.84-.46-1.12-.97-2.22-1.41-3.35-.44-1.13-.84-2.28-1.32-3.38-.83-1.9-1.59-3.83-2.35-5.75-.83-2.11-1.81-4.16-2.44-6.35-.2-.71-.63-1.34-.9-2.03-.8-2.04-1.62-4.07-2.42-6.1-.58-1.49-1.16-2.99-1.81-4.45-.7-1.57-1.32-3.18-2.14-4.7-.11-.2-.1-.46-.16-.81-.42.17-.82.26-1.14.46-2,1.3-3.99,2.62-5.97,3.96-.77.52-1.49,1.11-2.23,1.68-1.09.84-2.2,1.65-3.27,2.52-.86.71-1.63,1.53-2.51,2.23-2.25,1.78-4.16,3.91-6.15,5.95-1.59,1.63-3.1,3.35-4.34,5.29-.37.58-.9,1.06-1.33,1.61-.99,1.28-1.95,2.57-2.93,3.86-.39.52-.8,1.02-1.2,1.53-.7.89-1.41,1.78-2.09,2.69-.66.86-1.3,1.74-1.94,2.62-1.13,1.56-2.32,3.09-3.36,4.7-.43.67-.57,1.53-1.02,2.24-.35.56-.49,1.25-1,1.75-.09.09-.04.32-.06.56-.58.54-1.11,1.24-1.91,1.63-.66.32-1.4.43-2.03.19-1.13-.43-2.34-.68-3.39-1.31-1.86-1.12-3.81-2.08-5.62-3.29-1.38-.92-2.82-1.78-4.21-2.69-2.2-1.44-4.39-2.89-6.58-4.34-.3-.2-.59-.39-.88-.58.24-.8.46-1.55.69-2.36,1.6-.12,3.04-.86,4.63-.84.64-.44,1.38-.13,2.05-.27,1.58-.32,3.24-.22,4.75-.77,1.59-.57,3.06-1.37,3.88-2.99.63-1.24,1.04-2.53,1.3-3.91.16-.84.16-1.74.63-2.52.14-.22.08-.56.12-.86.13-.13.28-.28.43-.43.05-.16-.17-.2-.09-.46.76-2.44,1.86-4.73,3-7.01.9-1.81,1.96-3.52,3.1-5.19.65-.95,1.22-1.95,1.89-2.89.49-.68.9-1.41,1.37-2.09.48-.69,1.04-1.34,1.51-2.04.92-1.35,1.8-2.72,2.7-4.08,1.4-2.11,2.66-4.32,3.99-6.47.57-.92,1.08-1.92,1.6-2.88,1.53-2.79,3.08-5.57,4.43-8.44,1.07-2.26,2.09-4.55,2.88-6.93.12-.37.14-.78.24-1.16.1-.41.37-.61.54-.9-.08-.09-.16-.19-.21-.24.17-.73.35-1.42.48-2.12.19-1.03.58-2.02.51-3.09.38-.47.1-1.07.29-1.53.2-.49.13-.96.23-1.43.25-1.1.49-2.2.51-3.34,0-.3.4-.56.23-.91-.38-.77-.45-1.66-1.04-2.37-.47-.56-.83-1.2-1.49-1.58-.72-.41-1.39-.92-2.15-1.24-1.38-.58-3.55-.94-5.15-.02-1.33.77-2.85,1.06-4.24,1.72-.81.38-1.81.32-2.68.59-.77.24-1.54.28-2.31.21-.75-.06-1.49-.21-2.21-.48-1.24-.47-1.92-1.43-2.32-2.6-.45-1.32-.75-2.73-.48-4.09.24-1.21.2-2.48.72-3.63-.28-.48.07-1.1-.33-1.56-.43.15-.86.3-1.3.46-.09-.08-.18-.17-.3-.26-.13.15-.27.31-.29.33-1.32.4-2.5.71-3.66,1.1-1.59.54-3.16,1.14-4.76,1.69-.6.2-1.2.42-1.85.44-.56.02-1.11.17-1.67.24-.52.06-1.02,0-1.56.22-.49.2-1.1.07-1.66.26-.62.21-1.03.49-1.32,1.07-1.08,2.13-2.13,4.28-2.75,6.6-.27.99-.54,1.99-.69,3.03-.12.82-.28,1.63-.18,2.44.11.91.14,1.84.43,2.73.19.56.15,1.19.25,1.79.16.99.4,1.96.56,2.95.15.98.52,1.91.7,2.87.16.86.35,1.71.57,2.56.26.99.48,2,.77,2.98.27.91.55,1.82.71,2.74.21,1.18.67,2.28.88,3.46.21,1.2.64,2.35.94,3.54.34,1.34.46,2.73,1.01,4.02-.14,1.08.39,2.05.57,3.08.15.91.49,1.85.63,2.76.16,1.03.5,2.02.63,3.07.09.73.25,1.48.46,2.21.2.68.23,1.4.47,2.09.19.56.04,1.19.27,1.79.22.59.25,1.27.27,1.91.02.66.21,1.29.32,1.92.17,1.03.36,2.06.44,3.1.08,1.05.02,2.11.02,3.17,0,.55.08,1.11-.02,1.65-.13.68-.29,1.35-.24,2.06.05.7-.2,1.37-.3,2.04-.16,1.03-.25,2.08-.46,3.09-.3,1.39-.62,2.78-1.03,4.14-.21.71-1.23,1.59-2.12,2.14-.56.08-1.16-.15-1.66.27-.22-.08-.44-.24-.66-.24-1.52.04-2.96-.28-4.39-.76-.33-.11-.77.09-1-.35.51-1.26,1.02-2.51,1.24-3.88.15-.94.4-1.88.46-2.84.06-.97.05-1.95,0-2.92-.02-.52.16-1.04-.19-1.57-.27-.41.21-1.08-.3-1.52.06-.95-.29-1.81-.49-2.71-.44-1.97-1.03-3.88-1.67-5.78-.38-1.11-.72-2.24-1.16-3.33-.71-1.78-1.18-3.64-1.94-5.41-.5-1.18-.91-2.42-1.32-3.64-.44-1.3-.94-2.57-1.42-3.85-.39-1.06-.79-2.12-1.18-3.19-.41-1.14-.89-2.25-1.34-3.38-1.01-2.5-1.75-5.1-2.94-7.53-.2-1.46-.96-2.74-1.38-4.12-.41-1.34-.86-2.68-1.36-4-.26-.68-.35-1.46-.54-2.19-.23-.84-.21-1.78-.57-2.56-.26-.57-.09-1.17-.42-1.74-.27-.45-.12-1.12-.31-1.64-.32-.9-.31-1.87-.69-2.76-.24-.57-.22-1.25-.33-1.91H0v-1.95c3.91-1.24,7.87-2.5,11.98-3.8-.63-.29-1.18-.54-1.92-.87h-.99c.05-.28.03-.55.15-.72.72-1.04,1.31-2.16,1.89-3.28.65-1.25,1.06-2.6,1.54-3.93,1.09-3.02,2.02-6.1,3.09-9.13.68-1.92,1.27-3.87,2.01-5.76.85-2.19,1.58-4.42,2.41-6.61.87-2.31,1.6-4.66,2.4-7,.4-1.18.85-2.36,1.3-3.52.68-1.75,1.47-3.46,2.32-5.12.94-1.83,2.01-3.59,3.22-5.26.9-1.25,1.84-2.47,2.84-3.66,1.07-1.26,2.1-2.56,3.29-3.68,1.81-1.71,3.68-3.35,5.71-4.83,1.98-1.43,4-2.73,6.18-3.8,1.94-.95,3.96-1.68,6.07-2.21,1.58-.4,3.14-.7,4.77-.76.72-.03,1.43-.32,2.18-.22.56.07,1.11.2,1.67.24.55.04,1.1,0,1.65,0,.39.57,1.05.15,1.6.45.74.41,3.94.52,4.81.28,1.08-.3,2.22-.23,3.26-.71.07-.03.16-.02.24-.03.94-.08,1.88-.16,2.81-.26.48-.05.95-.16,1.42-.25.47-.08.93.02,1.44-.2.55-.24,1.26-.08,1.91-.26.85-.24,1.78-.19,2.67-.3.43-.05.86-.17,1.29-.25.39-.07.85.17,1.17-.24.03-.04.16,0,.24-.01,1.02-.08,2.06-.07,3.06-.27,2.16-.43,4.33-.17,6.5-.22,2.2-.05,4.4-.01,6.6-.01,1.06,0,2.12.05,3.17-.02.6-.04,1.16.09,1.66.29,1.97.8,3.88,1.72,5.62,2.97,1.48,1.07,2.82,2.28,4.1,3.59,1.1,1.12,2.14,2.27,3.07,3.54.78,1.07,1.69,2.07,2.69,2.94,1.44,1.25,2.93,2.48,4.87,2.92.59.56,1.4.49,2.1.75.67.24,1.38.34,2.07.53,1.82.51,3.67.93,5.49,1.43,2.05.57,4.09,1.22,6.19,1.63,1.56.31,3.06.89,4.66.99.58.48,1.32.04,1.9.32.66.32,1.31.16,1.95.18,2.07.03,4.15,0,6.22.01,1.45,0,2.87-.36,4.34-.27,1.43.09,2.88.04,4.31,0,.39,0,.79-.27,1.16-.22,1.75.2,3.52.24,5.22.86,1.03.38,2.13.56,3.19.88.26.08.53.19.78.25,3.01.77,5.93,1.83,8.85,2.84,1.47.51,2.93,1.09,4.36,1.72,1.8.78,3.54,1.67,5.28,2.56,1.16.59,2.3,1.21,3.39,1.92,1.71,1.11,3.4,2.26,5.02,3.5,1.15.89,2.16,1.95,3.23,2.94.49.46.96.96,1.44,1.43.97.95,1.82,2,2.61,3.1.45.63.98,1.22,1.52,1.78,1.25,1.27,2.22,2.76,3.46,4.04,1.05,1.09,1.96,2.31,2.98,3.45,1.15,1.29,2.26,2.62,3.4,3.92,1,1.14,1.95,2.33,2.97,3.46.97,1.09,1.8,2.3,2.71,3.43.51.64,1.05,1.27,1.61,1.87.94,1.01,1.48,2.25,2.04,3.47.34.74.48,1.58.79,2.34.37.89.52,1.82.73,2.74.11.46.34.89.31,1.41-.03.45.14.96.37,1.35.27.45-.18,1.03.34,1.39-.09,1.07.4,2.04.57,3.07.21,1.2.43,2.43.81,3.59.3.91.37,1.86.66,2.77.43,1.35.74,2.74,1.11,4.11.23.83.45,1.67.72,2.49.26.78.58,1.54.76,2.35.17.75.48,1.5.79,2.2.73,1.6,1.33,3.26,2.16,4.82.58,1.1,1.11,2.25,1.69,3.35.78,1.47,1.75,2.83,2.67,4.23.55.84,1.14,1.64,1.7,2.47.54.79,1.05,1.62,1.64,2.35,1.15,1.42,2.08,2.99,3.29,4.36.18.21.3.47.46.74v2.26c-.78.51-1.62.42-2.43.39-1.32-.04-2.49-.59-3.36-1.51-1.41-1.5-1.51-1.18-3.34-4.92-1.07-2.18-2.34-4.27-3.38-6.47-1.39-2.93-2.8-5.86-4.22-8.78-.82-1.69-1.79-3.32-2.48-5.06-.82-2.09-1.96-4.01-2.86-6.05-.85-1.93-1.78-3.83-2.64-5.76-.45-1-.83-2.02-1.27-3.09-.9,1.11-1.51,2.32-1.93,3.65-.37,1.15-.88,2.26-1.24,3.41-.36,1.16-.72,2.31-1.19,3.44-.54,1.3-.92,2.66-1.36,4-.37,1.16-.73,2.32-1.09,3.48-.4,1.31-.84,2.62-1.18,3.95-.17.66-.58,1.46-.22,2.02.4.62-.16,1.37.46,1.85-.13,1.08.41,2.04.55,3.08.18,1.36.59,2.7,1.02,4.01.17.52.3,1.06.44,1.59.15.54.18,1.14.32,1.65.31,1.16.13,2.31.21,3.46.09,1.49.02,3,.29,4.45.36,1.93.8,3.85,1.57,5.69.67,1.61,1.5,3.12,2.46,4.56.29.43.56.88.88,1.28,1.47,1.84,3.11,3.52,4.87,5.07.97.85,1.84,1.81,2.83,2.63,1.59,1.31,2.92,2.89,4.49,4.19,1.29,1.08,2.36,2.37,3.65,3.43,1.65,1.36,3.11,2.92,4.64,4.41,1.01.42,1.36,1.42,1.97,2.21.85,1.09.97,2.37.72,3.6-.31,1.52-1.26,3.1-2.27,4.39-.49.62-1.03,1.18-1.55,1.76-1.55,1.7-3.42,2.93-5.51,3.86-1.22.55-2.47.99-3.78,1.29-.68.16-1.34.43-2.04.59-.02,0-.02.09-.02.14h-4.31ZM70.46,105.45c.84-.7.86-.73.91-1.57-.49.37-.71.93-.83,1.55-.02-.02-.03-.03-.05-.05l-.21.18.08.08c.06-.07.12-.14.1-.19ZM49.22,8.46s-.03.03-.05.05c.06.07.12.14.18.21.03-.03.05-.05.08-.08-.07-.06-.14-.12-.17-.15-.45-.51-.87-.99-1.38-1.58-.34.19-.78.43-1.3.72.54.3,1.02.56,1.55.86.32,0,.7,0,1.1-.03ZM231.92,173.42s.03-.03.05-.05c-.06-.07-.12-.14-.18-.21l-.08.08c.07.06.14.12.12.03.28.95.49,1.77,1,2.41.69-.13,1.27-.24,2-.39-.55-.32-1.02-.56-1.45-.85-.47-.32-.71-.91-1.47-1.03ZM247.15,158.45s.03-.03.05-.05c-.06-.07-.12-.14-.18-.21l-.08.08c.07.06.14.12.15-.08.8,2.25,1.59,3.7,3.14,4.2-.37-1.8-1.81-2.77-3.08-3.95ZM227.9,164.74s-.03.03-.05.05c.06.07.12.14.18.21.03-.03.05-.05.08-.08-.07-.06-.14-.12-.23.1,0-.46.07-.7-.01-.88-.66-1.5-1.31-3-2.03-4.46-.34-.69-.78-1.39-1.45-1.78-.41-.23-.7-.78-1.39-.73,1.73,2.54,3.43,4.95,4.91,7.57ZM11.63,74.58c0-.07-.02-.14-.03-.21-3.37,1.08-6.75,2.15-10.38,3.31,1.76.19,3.5.06,5.16-.59,1.8-.7,3.51-1.65,5.23-2.84,0,.07,0,.15.01.22.17-.03.33-.06.5-.1,0-.05-.01-.11-.02-.16-.16.01-.32.03-.48.37ZM241.05,108.47s.03-.03.05-.05c-.06-.07-.12-.14-.18-.21-.03.03-.05.05-.08.08.07.06.14.12,0-.06,1.3,2.6,2.47,4.94,3.74,7.5.23-3.3-.84-5.69-3.54-7.26ZM23.84,46.77s-.03.03-.05.05c.06.07.12.14.18.21l.08-.08c-.07-.06-.14-.12-.23-.15.42-.56.83-1.12,1.26-1.7-.91.06-1.75.13-2.59.18-.29.02-.6-.04-.88.01-.46.09-.95.18-1.34.42-.21.13-.25.55-.38.84-.32.71-.36,1.53-.88,2.17-.1.13-.01.41.01.64-.02-.02-.03-.03-.05-.05-.07.06-.14.12-.21.18.03.03.05.05.08.08.06-.07.12-.14.15-.23.17,0,.35.05.5,0,1.42-.57,2.9-1.03,3.94-2.26.1-.12.26-.18.41-.29ZM230.9,143.23s.03-.03.05-.05c-.06-.07-.12-.14-.18-.21-.03.03-.05.05-.08.08.07.06.14.12.19-.01.15,1.93-.05,3.67-.5,5.36.48.24.91.48,1.42.38.16-.03.42-.07.49,0,.3.38.7.18,1.05.24.39.07.77.23,1.16.24.96.02,1.83.34,2.69.71.07-.07.13-.13.04-.04.56-.11.76.51,1.41.24-.74-.61-1.44-1.12-2.07-1.71-1.25-1.16-2.38-2.45-3.74-3.5-.66-.51-1.21-1.18-1.95-1.75ZM47.69,168.55s-.03.03-.05.05c.06.07.12.14.18.21.03-.03.05-.05.08-.08-.07-.06-.14-.12-.18-.15-1.34-1.1-1.42-2.72-1.82-4.21-.16-.58.19-1.11.24-1.67.11-1.21.47-2.3,1.18-3.32.57-.83,1.14-1.65,2.01-2.47h-.64c-.13,0-.26-.03-.38,0-.93.24-2.47,1.38-2.92,2.27-.79,1.57-1.56,3.16-2.28,4.76-.27.6-.38,1.28-.58,2.02,1.72.87,3.29,2,5.16,2.59ZM62.16,10.75s-.03.03-.05.05c.06.07.12.14.18.21l.08-.08c-.07-.06-.14-.12-.16-.06-.7-2.26-1.6-4.35-1.62-6.59-.15-.15-.24-.24-.41-.41-.94.08-1.89.1-2.83.2-.93.1-1.86.28-2.77.49-1.84.42-3.63,1.11-5.4,1.76.69.69,1.33,1.35,2.18,1.84,1.61.91,3.59.97,5.37,1.3,1.87.34,3.66.9,5.44,1.3ZM138.51,21.2s.03-.03.05-.05c-.06-.07-.12-.14-.18-.21-.03.03-.05.05-.08.08.07.06.14.12.18.17.08.18.14.37.23.54.27.52.56,1.03.83,1.56.71,1.39,1.39,2.81,2.13,4.19.6,1.12.83,2.32.9,3.55.06,1.09.12,2.2-.28,3.31h3.36c.31-.13.5-.18.67-.28,1.14-.65,1.82-1.58,2.15-2.89.24-.96.13-1.88.21-2.82.17-1.82-.44-3.48-1.1-5.12-.94-.05-1.82-.34-2.71-.5-1.72-.32-3.35-.91-5.04-1.32-.43-.11-.84-.27-1.32-.2ZM118,124.66l-.05.05.18.21.08-.08c-.07-.06-.14-.12-.23-.12-.04-.63-.07-1.22-.21-1.83-.25-1.07-.24-2.2-.29-3.3-.04-.8,0-1.6,0-2.38-.14-.14-.26-.26-.38-.38-.79.64-2.68-.44-3.37-1.8-.17-.51.16-1.02-.3-1.37.24-.49.39-1.07.74-1.46.36-.4.91-.61,1.39-.91.76-.19,1.43.21,2.14.43.08-1.15.2-2.25.68-3.34.36.13.67.2.95.35.31.17.57.45.93.12-1.16-1.26-2.34-2.44-4.2-2.44-.8-.63-1.53.29-2.31.09-1.49.67-3,1.35-4.11,2.6-.7.79-1.42,1.59-1.95,2.49-.51.87-1.07,1.77-1.1,2.83-.03.98-.07,1.96.22,2.94.13.43.42.78.51,1.18.34,1.4,1.34,2.35,2.21,3.39.46.55,2.5,1.44,3.31,1.78,1.66.71,3.45.64,5.18.97ZM72.04,141.3c2.02-2.02,4.1-4.1,6.36-6.36.06-.55-.12-1.41.21-2.26.17-.44,0-1,.04-1.51.04-.52.18-1.03.24-1.54.1-.81.01-1.68.31-2.41.25-.6.08-1.2.3-1.78.21-.55.2-1.19.43-1.72.35-.8.45-1.67.69-2.5.32-1.1.72-2.17,1.12-3.22.36-.93.66-1.96,1.25-2.77.69-.94,1.09-2.02,1.72-2.98.83-1.26,1.63-2.51,2.95-3.31,1.21-.74,2.49-1.32,3.93-1.62,0-.33.1-.7-.02-.99-.67-1.6-1.63-2.92-3.5-3.23-.61-.1-1.22-.24-1.95-.39,1.8-2.24,2.87-4.48.65-7.02-.84.54-1.81.76-2.69,1.16-.94.43-1.93.26-2.86.57-.06-.04-.12-.09-.17-.14-.09.08-.19.16-.22.19-2.12-.36-4.15-.82-6.1-1.46-.95,2.2-1.89,4.37-2.83,6.54,1.38.55,2.69,1.41,4.26,1.56,1.51.8,3.2.36,4.85.58-.09.2-.11.33-.19.41-.6.63-1.18,1.26-1.72,1.94-1.2,1.51-2.04,3.19-2.72,4.96-.31.8-.44,1.68-.79,2.46-.36.8-.39,1.68-.69,2.5-.33.88-.36,1.87-.54,2.82-.16.84-.08,1.73-.31,2.54-.14.53-.28,1.04-.2,1.55.09.57-.25,1.02-.28,1.55-.07,1.28-.16,2.55-.25,3.82,0,.08.03.2,0,.25-.38.47-.19,1.03-.25,1.55-.06.52-.2,1.03-.24,1.54-.11,1.19-.18,2.38-.26,3.57,0,.08.04.2,0,.25-.46.51-.16,1.12-.25,1.67-.09.56-.2,1.11-.25,1.67-.04.55,0,1.1.02,1.67-.02-.02-.03-.03-.05-.05-.07.06-.14.12-.21.18l.08.08c.06-.07.12-.14.15-.36ZM48.69,142.95s-.12-.01-.12,0c-.52,1.24-.82,2.55-1.11,3.85-.23,1.01-.4,2.01-.79,2.98-.22.54-.38,1.11-.58,1.71.53.4,1,.79,1.5,1.14,1.15.79,2.5,1.21,3.83,1.46,2.44.45,4.93.49,7.39.04.16-.03.33-.02.48-.07,1.7-.55,3.28-1.28,4.48-2.68.31-.36.86-.54,1.12-.92,1.01-1.47,2.2-2.79,3.24-4.23.81-1.12,1.73-2.15,1.93-3.65.09-.68.47-1.34.46-2.08-.01-.78.35-1.5.27-2.31-.1-1.02.42-2.02.23-3.06,0-.04-.02-.1,0-.12.47-.45.17-1.03.25-1.55.09-.56.26-1.12.24-1.67-.05-1.17.47-2.28.27-3.45,0-.04-.02-.1,0-.12.38-.47.2-1.03.26-1.54.06-.52.2-1.03.24-1.54.11-1.19.18-2.38.26-3.57,0-.08-.04-.2,0-.25.5-.6.14-1.26.27-1.94-1.51-.59-3.06-.73-4.52-1.25-1.42-.5-2.91-.8-4.36-1.19-1.62,2.47-3.23,4.94-4.92,7.52.92-.07,1.71.14,2.44-.27,1.25.19,2.46-.27,3.7-.25.07,0,.15.05.22.08-.04.04-.08.08-.13.13.16.05.31.09.46.14-.15.15-.21.21-.28.28.08.09.16.18.23.25-.91,1.02-1.39,2.29-2.03,3.47-.54,1.01-.95,2.07-1.25,3.16-.49,1.82-1.14,3.54-2.89,4.71.69.69,1.37,1.37,2.05,2.05.2.21.44.4.57.65.61,1.18,1.09,2.36,1.05,3.76-.05,1.66-.84,2.94-1.88,4.04-.8.85-1.96,1.31-3.04,1.81-.35.16-.75.31-1.13.32-1.45,0-2.92.19-4.33-.25-1.6-.5-2.97-1.28-3.7-2.95-.38-.87-.42-1.72-.5-2.62.12,0,.19.01.2,0,.05-.1.08-.22.13-.32.67-1.3,1.69-2.02,3.19-1.96.59.02,1.18,0,1.66,0,.48.25.9.4,1.24.65.37.27.67.65.91.89.14.44.25.77.34,1.04-.22.43-.41.82-.6,1.21-1.86.84-1.93.59-2.97-.44.05-.59.11-1.21.16-1.83-.87.14-.96.19-1.88,1.16v1.93c.49.53,1.05,1.13,1.57,1.69.26.05.47.05.66.12.52.19,1.01.44,1.6.43,1.15-.01,3.11-.64,4-1.37,1.03-.86,1.84-1.85,1.83-3.3,0-.22.15-.44.23-.67-.08-.2-.23-.42-.23-.64-.01-1.24-.61-2.24-1.38-3.1-.84-.93-1.94-1.49-3.13-1.91-1.45-.52-3.13-.94-4.37-.89-1.22,2.33-2.43,4.69-3.05,7.32ZM225.52,85.47c-.53.23-.89.32-1.17.52-1.53,1.06-3.04,2.15-4.43,3.39-.49.43-.98.87-1.51,1.25-1.12.8-2.23,1.61-3.27,2.51-.53.45-1.02.96-1.61,1.33-1.03.65-1.93,1.46-2.89,2.18-1.08.81-2.07,1.73-3.12,2.58-.45.37-.96.66-1.45.99.84,1.11,1.54,2.33,2.2,3.53,1.14,2.06,2.32,4.1,3.36,6.21.21.42.39.86.63,1.26.65,1.12,1.33,2.23,1.98,3.32-.46.5-1.02.38-1.49.56-1.81.67-3.67,1.15-5.51,1.69-1.28.38-2.56.78-3.86,1.12-1.22.31-2.42.68-3.66.95-.53.12-1.04.33-1.47.47-.19.56.14,1.07-.14,1.29-.07.72.41,1.17.33,1.83-.05.42-.15.91.02,1.25.27.53.17,1.04.23,1.56.06.52.2,1.03.24,1.54.11,1.19.18,2.38.26,3.57,0,.04-.02.09,0,.13.56.92.09,1.99.46,2.98.26.68-.05,1.55.3,2.29-.19,1.25.34,2.45.26,3.7-.02.24.02.48.03.71.06.01.13.03.19.04.31-.7.62-1.4.94-2.12,2.33,1.13,4.24,2.8,6.45,4.14-.07-1.74.53-3.05,1.7-4.13.64-.59,1.24-1.23,1.86-1.85-.36-.36-.67-.7-1.02-1.01-.98-.85-1.45-2.03-1.74-3.21-.33-1.39-.85-2.69-1.42-3.98-.41-.94-.98-1.8-1.57-2.65-.26-.38-.63-.89-.23-1.45.57.02,1.11,0,1.69.2.57.19,1.26,0,1.89.05.6.04,1.2.22,1.8.23.73,0,1.44.02,2.19-.19.74-.21,1.59-.04,2.4-.05,1.22-.01,2.38.25,3.55.83.29-.63.63-1.21.83-1.84.38-1.2.93-2.26,2.04-2.89,0-.26.07-.5-.01-.68-.4-.92-.51-1.92-.71-2.87-.33-1.55-1-3.02-1.09-4.63-.53-.37.08-1.09-.45-1.46-.11-1.24-.65-2.43-.55-3.71.03-.38,0-.76,0-1.14-.9-.96-1.93-1.77-3-2.53-.52-.38-.99-.88-1.44-1.49,2.03-.98,4.33-.95,6.04-2.15,1.65-4.73,3.26-9.35,4.72-14.03l.05.05c.07-.06.14-.12.21-.18l-.08-.08c-.06.07-.12.14.03.08ZM105.85,68.77c.3-.07.49-.14.68-.15.9-.07,1.68-.36,2.41-.95.47-.38.84-.8,1.24-1.25,1.16-1.31,1.51-2.89,1.14-4.45-.45-1.92-1.58-3.59-3.05-4.93-.73-.67-1.62-1.16-2.45-1.72-.66-.44-1.4-.85-2.16-.88-1.06-.04-2.12-.09-3.21.16-1.03.24-1.96.63-2.85,1.1-.93.5-1.8,1.11-2.45,2.06-.64.93-1.18,1.87-1.53,2.93-.49,1.47-.95,2.95-.76,4.44-.35.46-.6.89-.94,1.23-.68.7-1.13,1.54-1.62,2.38-.66,1.15-1.2,2.32-1.26,3.67-.65,1.04-.07,2.06.14,3.04.28,1.31.94,2.48,1.73,3.6.56.8,1.28,1.26,2.05,1.78.98.66,2.09.7,3.16.97.62.15,1.3-.06,1.93.26.15.08.46.03.58-.08.27-.24.55-.16.83-.16,1.49,0,2.81-.48,4.04-1.28,1.37-.89,2.11-2.17,2.3-3.78.03-.27.15-.53.2-.69-.08-.43-.16-.78-.2-1.13-.15-1.31-.65-2.4-1.89-2.99-.72-.34-1.46-.68-2.32-.55-.49.08-1.01.01-1.38.01-1.02.47-1.9.91-2.18,1.82.11.4.19.68.25.89.36-.43.7-.83,1.01-1.19h1.09c1.5.42,1.43,1.42,1.34,2.42-.83.88-1.65,1.71-3.05,1.22-1.46-.51-2.26-1.8-1.96-3.82.03-.03.07-.05.09-.09.05-.11.08-.22.13-.32.84-1.61,2.23-2.38,4-2.46.94-.04,1.88-.07,2.82.23,1.52.48,2.73,1.29,3.6,2.65.95,1.47.9,3.03.53,4.72.75-.11,1.4.41,2.16.27.12-.02.27.15.42.18,1.27.25,2.33.97,3.37,1.65,1.12.74,2.1,1.69,3.12,2.58.19.17.26.47.4.74-.92.8-1.75,1.55-2.61,2.27-.4.34-.82.66-1.26.93-1.67,1.02-3.83,1.72-5.64,1.85,0,.16-.04.33,0,.48.34,1.17.25,1.83.02,2.97-.28,1.37-1.18,2.27-2.18,3-.76.56-1.7,1.01-2.71,1.08-.88.06-1.78.05-2.66,0-.71-.05-1.4-.28-1.97-.74-1.16-.92-1.98-2.01-1.67-3.62.02-.12.02-.24.02-.33.87-1.56,1.05-1.86,2.31-2.03,1.06-.14,2.06.33,2.74,1.31.02.56.07,1.17-.25,1.74-.34.6-1.02.6-1.54.88-.42-.21-.84-.42-1.11-.56-.17-.41-.3-.69-.46-1.08-.2.4-.33.67-.5.99.47.57.94,1.13,1.38,1.66.2,0,.35-.04.45,0,.8.32,1.57.46,2.49.29,1.83-.35,2.8-1.04,3.49-2.81.19-.5-.13-1.09.36-1.5.04-.03.04-.18,0-.24-.23-.41-.16-.88-.28-1.28-.23-.78-.48-1.58-1.03-2.24-1.24-1.48-2.96-2.12-4.74-2.3-1.59-.16-3.23-.25-4.84.18-1.15.31-2.27.67-3.24,1.36-.38.27-.59.77-.91,1.13-1.39,1.55-1.83,3.47-2.21,5.43-.1.51.22.95.24,1.42.04.86.39,1.61.7,2.38.71,1.78,1.94,3.21,3.14,4.75-.16,1.08,0,2.24.38,3.3.53,1.47.89,3.07,2.12,4.19.43,1.06,1.41,1.56,2.32,2.02,1.38.7,2.83,1.3,4.46,1.18.67-.05,1.35,0,1.89,0,.84-.43,1.65-.72,2.29-1.21,1.08-.83,2.23-1.55,3.07-2.72,1.16-1.61,2.14-3.22,1.97-5.28-.2-2.39-2.51-4.72-4.87-4.98-1.12-.12-2.1.43-2.96,1.1-.71.56-1.24,1.28-1.56,2.24v1.55q.48.49.95.61c-.37-.71-.19-1.35.11-1.82.69-.41,1.24-.77,1.92-.66.71.11,1.1.58,1.25,1,.31,1.67-.28,2.68-1.57,3.27-2.02.33-3.43-.43-4.19-2.62-.13-2.08.36-2.07,1.39-3.98.29-.53.73-.7,1.11-1.03,1.09-.96,2.39-1.41,3.83-1.46.46-.02.93,0,1.4,0,1.7.51,2.94,1.61,3.91,3.11.34-.21.65-.38.94-.59.77-.57,1.59-1.06,2.46-1.41.73-.29,1.51-.5,2.29-.58.49-.05.94-.26,1.41-.27,1.18-.03,2.35-.01,3.6-.01,0,.72.14,1.43-.04,2.04-.15.49-.16.95-.22,1.43-.05.48-.2.94-.24,1.42-.09,1.06-.67,2.75-1.31,3.65-.41.58-.82,1.17-1.18,1.68.75.7,1.56,1.31,2.18,2.07.59.74.97,1.65.81,2.66.62.26,1.16.48,1.62.67.48-.31.93-.66,1.43-.9.49-.23,1.03-.39,1.56-.5.19-.04.53.25.62.17.26-.23.56-.3.79-.12.43.35.87.08,1.28.2.16-1.32.47-2.48.98-3.62.95-2.16,2.57-3.79,4-5.52h.57c1.25,1.31,2.67,2.46,3.41,4.18,1.3,1.38,1.33,3.26,1.88,4.94.3,0,.65.1.87-.02.76-.41,1.46-.15,2.22,0,.94.19,1.72.59,2.43,1.2,1.62,1.4,2.14,3.31,2.19,5.29.04,1.44-.54,2.82-1.79,3.84,3.94,1.64,8,2.59,12.14,3.36.07-.06.15-.17.25-.22,1.95-.9,3.42-2.28,4.24-4.28.31-.76.54-1.56.73-2.37.2-.86.27-1.66.06-2.51-.2-.81-.45-1.57-.97-2.27-.53-.72-1.1-1.41-1.6-2.13-.68-.97-1.6-1.6-2.55-2.14-.98-.56-2-1.19-3.24-1.05-.33-.37-.72-.3-1.12-.15-.37.13-.75.24-1.12.36-1.7.59-2.94,1.67-3.62,3.36-.01.04-.06.06-.04.04-.27,1.62-.01,3.07,1.09,4.26,1.02,1.1,2.32,1.45,3.82,1.23.18-.27.67-.42.6-.95-1.42.41-1.87.16-2.53-.76v-1.75c.38-.27.8-.57,1.1-.79,1.57-.21,2.51.48,3.07,1.47.06.58.16.98.13,1.37-.04.47-.19.93-.28,1.36-.7.68-1.28,1.5-2.39,1.38-1.17.66-2.22,0-3.16-.48-1.28-.64-2.24-1.72-2.79-3.1-.22-.55-.43-1.08-.56-1.67-.33-1.46.02-3.21,1.04-4.23.64-.64,1.32-1.24,1.99-1.86-.96-1.12-1.7-2.44-2.22-3.92-.45-1.31-.49-2.67-.72-4.01-.13-.73-.02-1.5-.02-2.34,1.5.11,2.93-.04,4.38.24,1.22.23,2.39.56,3.53.99,1.03.38,1.88,1.04,2.62,1.86.71-1.35,1.23-1.83,2.49-2.56.78-.45,1.57-.73,2.48-.77,1.56-.07,2.96.44,4.14,1.33.99.74,1.94,1.64,2.28,2.96.25.97.52,1.91-.01,2.87-.09.17-.08.39-.15.74-.56.38-1.22.83-1.77,1.21h-1.72c-.93-.34-1.42-.92-1.78-1.73v-1.66c.56-.7,1.26-1.05,2.14-.87.81.2.96,1,1.45,1.45-.19.39-.53.68-.16,1.05.65.05.53-.65.9-.91-.13-.46,0-.93-.17-1.44-.43-1.39-1.37-2.24-2.61-2.8-.65-.29-1.42-.65-2.09-.39-.72.28-1.48.41-2.16.94-1.44,1.11-2.26,2.3-2.39,3.96-.02.22-.16.44-.22.58.09.33.17.59.22.86.05.27.11.55.17.81.36,1.46,1.26,2.56,2.19,3.67.78.92,1.79,1.56,2.77,2.21.77.51,1.67.94,2.57,1.1,2.06.37,3.97-.13,5.94-1.23,1.92-1.07,3.18-2.58,3.77-4.15.63-1.71,1.22-3.49,1.11-5.3.3-.42.54-.79.82-1.14.86-1.05,1.63-2.16,2.15-3.42.51-1.23,1-2.46.85-3.84-.06-.54.08-1.12-.08-1.62-.42-1.26-.88-2.52-1.69-3.62-.69-.94-1.5-1.81-2.54-2.26-1.16-.49-2.42-.82-3.73-.8-.93,0-1.86,0-2.79,0-.25,0-.61-.09-.73.04-.32.36-.73.1-1.05.25-.32.15-.64.3-.95.47-.31.16-.63.32-.93.51-.37.23-.86.4-1.07.74-.46.77-1.03,1.5-1.2,2.42-.04.2-.03.41-.09.6-.5,1.54.03,2.86.93,4.04.63.82,1.52,1.2,2.6,1.39,1.04.18,1.94-.05,2.83-.4.51-.2.93-.65,1.29-.93v-1.49c-.38.44-.73.85-.98,1.14-.42.12-.68.2-.87.25-.29-.08-.56-.15-.83-.22-.26-.26-.53-.53-.72-.72-.14-.43-.25-.77-.39-1.18.46-.52.94-1.07,1.29-1.48.58-.14.97-.23,1.21-.29.5.1.88.18,1.16.23,1.35.92,2.05,2.06,1.62,3.68-.08.16-.21.37-.3.59-.54,1.26-1.71,1.9-2.86,2.21-1.1.3-2.38.23-3.51-.02-1.66-.36-2.98-1.42-4.05-2.74-.17-.21-.28-.48-.35-.74-.41-1.34-.31-2.69-.14-4.01-4.01-.23-6.89-2.49-9.53-5.27.67-.62,1.35-1.25,2.03-1.88.62-.57,1.36-1,2.04-1.49,1.5-1.07,3.79-1.74,5.56-1.89-.03-.06-.08-.12-.09-.18-.03-1.07-.09-2.15-.05-3.22.01-.32.36-.63.41-.96.06-.39.34-.57.57-.78.26-.24.61-.39.87-.65.24-.24.22-.62.69-.76.7-.22,1.3-.66,2.1-.78,1.31-.19,2.78-.34,3.86.06,1.27.48,2.43,1.12,2.63,2.67.5.55.11,1.2.23,1.7-.6.86-.88,1.85-2.13,2-.99.12-.97.28-2.61-.64-.23-.46-.42-.84-.56-1.12.11-.4.2-.7.29-1.02.25-.25.52-.52.8-.8h1.59c.29.39.63.82.99,1.3.14-1.43-.12-1.92-1.14-2.43-1.13-.56-2.32-.43-3.5-.35-.3.02-.6.19-.86.35-1.72,1.06-2.05,2.12-2.28,4.11-.07.56.17,1.03.26,1.55.19,1.07.74,2,1.53,2.65,1.27,1.05,2.82,1.59,4.49,1.7.32.02.62-.04.95.18.27.18.81.2,1.09.05.79-.44,1.72.04,2.47-.48,1.62-.2,2.83-.85,3.83-2.04,1.43-1.7,1.57-1.98,2.15-4.18.51-.49.19-1.12.24-1.67.06-.63.16-1.32-.04-1.88-.49-1.36-1.02-2.7-1.82-3.95-.59-.92-1.39-1.67-1.94-2.67.16-1.23-.29-2.44-.53-3.66-.19-.94-.55-1.92-1.09-2.71-.98-1.45-2.17-2.67-3.85-3.46-1.78-.84-3.58-.99-5.45-.92-.1,0-.19.15-.3.18-1.72.43-3.08,1.5-4.36,2.62-1.16,1.01-2.02,2.27-2.55,3.76-.18.49-.26,1.01-.43,1.47-.2.55-.07.95.02,1.46.24,1.43.92,2.59,2,3.48,1.25,1.02,2.65,1.6,4.33.99,1.39-.51,2.77-1.81,3.05-3.17.16-.77.1-1.57-.58-2.14-.07-.06-.22,0-.46,0,.11.4.2.73.29,1.04-.19.38-.38.77-.59,1.18-1.11.54-2.28.42-2.94-.68-.28-2.42.96-3.65,3.49-3.32.45.31,1.04.56,1.42,1,.89,1,1.11,2.78.56,4.03-.59,1.35-1.63,2.31-2.84,3.12-1.28.85-2.69,1.1-4.16.95-.57-.06-1.17-.15-1.7-.48-.82-.51-1.69-.93-2.13-1.9-.13-.28-.4-.65-.84-.66-.52.48-.95,1.03-1.64,1.29-.8.3-1.57.72-2.38.99-.83.28-1.72.37-2.58.48-1.2.15-2.43.04-3.72.04.14-1.18-.08-2.27.23-3.39.17-.63.11-1.38.33-2.03.19-.56.2-1.16.47-1.71.56-1.14,1.21-2.2,1.98-3.11-.74-.7-1.67-1.08-2.22-2.02-1.12-1.91-1.32-3.12-.67-4.89.53-1.44,1.36-2.79,2.8-3.66,1.3-.79,2.74-1.22,4.04-.73,1.47.54,2.18,1.46,2.2,2.94,0,.33,0,.67,0,1.07-.52.51-1.06,1.04-1.54,1.51-1.14.22-1.99-.19-2.77-.81v-1.89c.31-.22.69-.45,1.04-.72.51-.38.97.23,1.49.14.02-.75-.66-.68-.95-.99-1.78-.1-3.18.57-4.63,3.17v2.22c.1.19.19.32.25.47.51,1.24,1.42,2.13,2.56,2.76.64.35,1.38.57,2.09.77.78.22,1.62-.03,2.28-.3.82-.33,1.73-.54,2.44-1.19.65-.6,1.5-1,2.07-1.7.54-.65,1.08-1.32,1.52-2.03.72-1.15,1.27-2.38,1.26-3.79-.01-1.38-.52-2.64-1.02-3.89-.55-1.38-1.61-2.36-2.69-3.31-.66-.58-3.62-1.7-4.33-1.79-.48-.06-.94-.2-1.42-.24-.54-.04-1.09,0-1.48,0-.45-.31-.8-.52-1.12-.76-1.69-1.26-3.38-2.52-5.57-2.79-.5-.47-1.11-.2-1.67-.24-.63-.05-1.34-.18-1.88.04-.66.27-1.38.27-2.02.64-.64.37-1.36.64-1.95,1.09-1.04.79-1.83,1.76-2.29,3.05-.51,1.44-.79,2.88-.73,4.39.02.54-.06,1.11.09,1.61.26.86.34,1.79.93,2.53.33,1.68,2.53,3.11,4.26,3.13.31,0,.61.15.64.15.56-.08.87-.16,1.18-.16.58.01,1.09-.22,1.59-.45,1.56-.7,1.96-2.15,2.21-3.62.17-1.04-.36-1.96-.9-2.78-.41-.62-1.07-.96-2.01-.62.45.39.83.71,1.12.96v1.59c-.3.3-.57.57-.75.75-.37.12-.63.2-.91.3-.44-.42-1.27-.22-1.67-1.06-.34-.72-.45-1.36-.42-2.02.1-.16.17-.26.24-.36.87-1.46,2.23-1.98,3.74-1.59,1.61.42,2.22,1.69,2.86,2.98-.1.99.65,1.97,0,2.96.05,1.06-.43,1.94-1.03,2.74-.47.63-1.08,1.17-1.64,1.73-.12.12-2.01.78-2.22.76-.6-.08-1.23.22-1.83-.2-.19-.13-.55-.02-.82-.02-.12.41-.29.79-.32,1.17-.11,1.52-.82,2.78-1.57,4.05-.96,1.61-2.36,2.82-3.67,4.17-.84-.95-1.66-1.84-2.43-2.75-.36-.43-.66-.91-.97-1.37-.55-.82-.91-1.73-1.28-2.64-.07-.18-.2-.35-.23-.54-.13-.71-.23-1.42-.35-2.18-.53.12-.99.25-1.46.31-.35.04-.67-.15-1.07-.03-.33.1-.79-.07-1.15-.23-.92-.39-1.94-.76-2.48-1.6-.6-.94-1.27-1.87-1.42-3.09-.15-1.19-.26-1.19.05-3.1.19-1.18.89-2.04,1.79-2.67.87-.61,1.9-1.05,3-.36.2.12.44.17.92.34.32.48.78,1.18,1.18,1.79-.15.6-.26,1.06-.38,1.57-.32.32-.68.68-.95.95-.36.11-.62.19-.88.27-.26-.09-.56-.19-.63-.21-.5-.5-.86-.85-1.25-1.23.06-.11.14-.27.18-.36-.1-.21-.16-.35-.3-.65.42-.41.85-.84,1.26-1.24-.3,0-.67,0-1.04,0-1.03,1.03-.98,1.05-1.46,2.19-.21.5-.1.97-.16,1.46-.11.9.35,1.66.83,2.31.47.64,1.03,1.26,1.95,1.4.34.05.67.25,1.04.23.32-.01.66-.07.9.23.28-.39.7-.16,1.05-.23.35-.07.71-.13,1.03-.26.85-.34,1.74-.7,2.31-1.41.54-.66.99-1.45,1.25-2.26.31-.98.45-2.04.53-3.07.13-1.59-.23-3.14-.76-4.62-.37-1.02-.82-2.06-1.76-2.69-1.28-.85-2.53-1.8-4.15-1.92-.54-.49-1.2-.2-1.8-.24-.67-.05-1.41-.18-2.01.04-.55.2-1.14.31-1.66.58-.91.46-1.83.91-2.7,1.44-.88.54-1.71,1.18-2.56,1.77-1.31-.19-2.51.27-3.75.5-.37.07-.69.39-1.06.48-1.87.46-3.01,1.51-4.29,3.06-.25.3-.52.64-.62,1.01-.25.91-.69,1.74-.86,2.7-.22,1.25-.26,2.61.25,3.68.48,1.01,1.04,1.94,1.75,2.84,1.32,1.68,2.86,2.9,4.88,3.54,1.95.61,2.15.54,4.13-.21,1.01-.38,1.67-1.17,2.38-1.9.86-.87,1.1-2.38.73-3.61-.48-1.61-1.51-2.64-3.11-3.08-.54-.15-1.13-.15-1.62-.22q-.58.61-.57,1.16c.66-.54,1.32-.42,1.89.02.67.53.55,1.31.53,2.01-.73,1.61-1.97,1.24-3.38.83-.38-.58-.83-1.28-1.33-2.04.55-.45.33-1.07.61-1.59.32-.58.85-.89,1.16-1.34.55-.1,1.07-.08,1.48-.29.49-.25.83-.21,1.35-.03.47.17,1.01.18,1.45.5.32.24.63.5.97.71,1.18.73,1.78,1.85,2.28,3.1.45,1.14.13,2.3.23,3.45,0,.06-.13.12-.15.19-.26,1.42-1.4,2.15-2.37,3.01-.19.17-.4.34-.69.58.4.36.76.6,1.02.93.27.33.47.73.67,1.12.77,1.51,1.13,3.13,1.27,4.8.02.25-.09.57.02.75.48.79.1,1.61.27,2.48-1.36,0-2.62.06-3.88-.02-.7-.04-1.38-.36-2.08-.48-1.77-.31-3.25-1.19-4.62-2.26-.77.59-1.27,1.44-2.04,2.06-.73.58-1.57.79-2.41.93-1.53.26-2.96-.15-4.27-.98-.65-.42-1.37-.77-1.8-1.43-.84-1.3-1.54-2.65-1.31-3.9.47-1.62,1.36-2.36,2.63-2.8h1.44c1.42.69,2.13,1.67,1.75,3.17-.38,1.28-1.39,1.19-2.36,1.09-.59-.13-.98-.51-1.07-1.04-.08-.46.06-.96.13-1.64-.43.36-.71.6-.95.8v1.82c.07.07.15.12.18.19.59,1.44,1.62,2.36,3.14,2.74.22.05.39.29.53.4ZM184.17,69.76c2.27-1.64,4.77-1.85,7.3-1.61,1.28.12,2.52.62,3.77.98,1.5.44,3,.93,4.41,1.61,2.13,1.02,4.23,2.11,6.18,3.46,1.75,1.22,3.53,2.39,5.17,3.77.57.48,1.09,1.01,1.68,1.44,1.27.92,2.33,2.07,3.65,3.08-.16.28-.24.57-.43.75-.69.65-1.42,1.26-2.13,1.89s-1.4,1.29-2.14,1.87c-1.27.99-2.6,1.9-3.87,2.88-1.58,1.23-3.25,2.29-5.01,3.22-1.39.73-2.79,1.43-4.19,2.15-1.02.01-1.86.63-2.82.87-.93.23-1.87.57-2.8.88-.98.33-2.07.22-3.08.53-.12.04-.31.06-.37,0-.39-.38-.86-.19-1.3-.25-.23-.03-.46-.1-.7-.16-1.2-.27-2.27-.84-3.42-1.46-.36.67-.79,1.26-1.01,1.92-.17.53-.16,1.16-.1,1.73.15,1.35,1.04,2.35,1.94,3.52-.75.03-1.3.13-1.84.24-1.65.36-2.59.91-3.44,2.68-.11.22-.23.4-.24.66-.01.24-.1.49-.15.71.11.11.19.25.3.27,1.22.22,2.35.66,3.37,1.37.66.46,1.44.84,1.92,1.45.88,1.12,1.67,2.33,2.34,3.59,1.09,2.03,2.11,4.1,2.8,6.32.36,1.16.78,2.3,1.09,3.48.18.66.03,1.44.31,2.03.34.69.12,1.42.41,2.12.21.5.21,1.18.29,1.78.09.64.1,1.28.23,1.93.17.83.16,1.7.25,2.56.16,1.58.05,3.19.05,4.86-.26,0-.47-.02-.67,0-1.38.19-2.71-.28-4.08-.28-1.19,0-2.38-.15-3.57-.23-.04,0-.1.02-.12,0-.59-.5-1.26-.14-1.98-.28.14,1.94-.29,3.73-.51,5.61.53,0,.99-.03,1.45,0,.41.04.8.19,1.21.24.81.1,1.61-.05,2.45.22.75.24,1.6.05,2.43.26.81.21,1.69.09,2.56.25,1.29.24,2.63.21,3.95.29.17.01.39-.07.5.01.61.44,1.27.15,1.85.25.28-.56.56-1.04.77-1.54.17-.44.26-.91.38-1.36-.48-.4-.19-.94-.25-1.42-.04-.38.14-.87-.04-1.12-.42-.56-.11-1.14-.22-1.7-.1-.55-.2-1.11-.25-1.67-.1-1.19-.18-2.38-.26-3.57,0-.04.02-.1,0-.12-.44-.46-.18-1.03-.25-1.55-.08-.56-.26-1.12-.23-1.67.06-1.17-.46-2.28-.28-3.45.01-.08.03-.21,0-.25-.49-.46-.15-1.04-.24-1.55-.1-.55-.19-1.11-.25-1.67-.1-.85-.06-1.74-.29-2.55-.3-1.07-.35-2.2-.73-3.25-.11-.29-.19-.6-.25-.91-.07-.31-.06-.61-.17-.94-.43-1.26-.86-2.52-1.34-3.76-.85-2.2-2.1-4.12-3.73-5.81-.16-.16-.4-.24-.61-.36.12-.12.24-.24.35-.35,1.19-.16,2.37.05,3.58-.24,1.5-.36,2.98-.78,4.37-1.41,1.57-.72,3.14-1.46,4.57-2.44.92-.63,1.92-1.13,2.81-1.82.74-.57,1.48-1.15,2.23-1.68.99-.7,1.91-1.48,2.88-2.2,1.08-.81,2.03-1.79,3.13-2.57,1.16-.82,2.24-1.74,3.36-2.6.53-.4.96-.92,1.51-1.25,1.15-.71,2.12-1.62,3.17-2.45.55-.43,1.02-.97,1.61-1.32.93-.55,1.54-1.46,2.48-1.91-.63-.56-1.18-1.14-1.81-1.59-1.25-.91-2.45-1.88-3.63-2.88-.5-.43-.96-.92-1.52-1.24-1.07-.6-1.92-1.47-2.89-2.19-1.09-.8-2.02-1.81-3.14-2.56-1.45-.97-2.74-2.13-4.12-3.19-1.12-.87-2.23-1.76-3.4-2.56-1.54-1.05-3.11-2.06-4.74-2.95-1.02-.56-2.09-1.06-3.19-1.48-1.99-.78-3.99-1.4-6.15-1.38-.41,0-.82,0-1.37,0,.26-.6.65-.86.95-1.18.84-.88,1.56-1.86,2.14-2.92.69-1.27,1.25-2.6,1.73-3.97.74-2.13,1.33-4.3,1.71-6.53.11-.65.07-1.32.26-1.92.14-.45.17-.86.22-1.3.05-.43.2-.86.24-1.29.11-1.27.18-2.55.26-3.83,0-.08-.04-.21,0-.25.45-.37.17-.86.25-1.3.07-.4-.08-.78.15-1.21.2-.36.1-.89.14-1.41-1.76-.94-3.51-1.88-5.26-2.82-.13.4-.36.74-.33,1.06.08,1.21-.17,2.38-.28,3.57-.07.85,0,1.77-.3,2.54-.21.55,0,1.11-.22,1.55-.54,1.08-.33,2.36-.99,3.4-.31,1.88-1.02,3.63-1.8,5.34-.67,1.46-1.36,2.91-2.23,4.28-.8,1.25-1.49,2.5-2.72,3.43-1.13.85-2.7,1.71-4.14,1.97-.18.03-.34.2-.43.26.14.87.32,1.69.87,2.32.58.68,1.19,1.38,2.11,1.62.81.2,1.62.5,2.62.32-.14.3-.19.45-.26.57-.45.7-1.02,1.35-1.35,2.11-.72,1.66-.17,3.13.94,4.59ZM81.06,60.71c-.46.02-.78.02-1.11.05-.9.06-1.78.02-2.7.2-1.49.29-2.94.73-4.27,1.36-2.68,1.26-5.3,2.63-7.69,4.46-1.24.95-2.5,1.89-3.76,2.82-.95.71-1.83,1.51-2.77,2.21-1.04.77-1.98,1.66-3.06,2.38-.39.26-.78.62-1,1.12.9.71,1.8,1.16,2.97,1.21,1.46.06,2.85-.24,4.22-.57.74-.18,1.5-.54,2.11-1.01,1.2-.94,2.48-1.77,3.81-2.46,2.43-1.26,4.88-2.49,7.53-3.27,1.97-.57,3.9-1.31,6.01-1.11.29.03.59.01.89,0,.82-.02,1.59.23,2.32.53.65.27,1.38.42,1.88.98.07.08.31.01.39.01.18-.27.32-.47.44-.67.49-.76.89-1.59.71-2.48-.2-1-.41-2.02-1.21-2.8-.27-.26-.41-.66-.63-1.04.71-.13,1.34-.26,1.97-.37,1.02-.18,1.94-.67,2.54-1.51.58-.81,1.12-1.67.85-2.8-.26,0-.54.07-.75-.01-1.56-.6-3.07-1.3-4.31-2.45-1.47-1.36-2.26-3.19-3.23-4.88-1.08-1.87-1.75-3.92-2.5-5.94-.45-1.21-.85-2.48-1.02-3.75-.17-1.3-.67-2.55-.56-3.88,0-.08.04-.21,0-.25-.42-.32-.18-.78-.25-1.17-.08-.43-.25-.86-.24-1.29.06-1.58-.45-3.13-.27-4.71.01-.13.05-.29,0-.38-.51-.77-.11-1.61-.26-2.35.15-.15.24-.24.44-.44.54.09,1.17.23,1.8.29,1.36.11,2.72-.1,4.09.22.98.23,2.05-.07,3.06.28.53.18,1.1-.12,1.69.22.44.25,1.09.15,1.65.26,1.53.28,3.02.67,4.53,1.03,1.77.42,3.5.96,5.11,1.75,2.3,1.12,4.81,1.91,6.66,3.82,1.33.59,1.73,1.95,2.42,3.04.43.67.57,1.53.86,2.35,2.1-.18,3.55-1.16,4.24-3.53.07-.37.21-1.1.36-1.88,3.09,2.38,4.59,2.4,7.18.75-.45-1.31-1.48-2.37-1.44-3.85-.51-.49-.19-1.11-.24-1.67-.06-.63-.17-1.32.03-1.88.38-1.08.58-2.2.95-3.28.61-1.78,1.26-3.53,2.06-5.24.39-.83.82-1.64,1.25-2.47-1.82-1.1-3.23-2.56-4.61-4.15-.39.55-.74,1.13-1.17,1.63-1.13,1.31-1.94,2.83-2.81,4.3-1,1.68-1.9,3.43-2.46,5.32-.25.83-.58,1.64-.62,2.54-.05,1-.21,2-.32,3.05-1.05-1.07-2.15-1.95-3.39-2.69-.64-.38-1.3-.88-1.97-1.06-.78-.21-1.37-.75-2.19-.89-1-.17-2.01-.47-2.95-.83-1.33-.5-2.72-.56-4.06-.93-.72-.2-1.48-.13-2.17-.3-.44-.1-.87-.24-1.3-.18-.53.07-.94-.24-1.42-.27-1.28-.08-2.55-.17-3.83-.25-.08,0-.2.03-.25,0-.52-.39-1.12-.28-1.67-.23-.59.05-1.11-.22-1.67-.26-1.27-.11-2.55-.18-3.83-.26-.08,0-.2.04-.25,0-.46-.43-1.03-.17-1.55-.25-.56-.08-1.12-.26-1.67-.23-1.34.08-2.62-.47-3.96-.27-.04,0-.09.02-.13,0-.99-.48-2.01-.15-3.05-.27,0,.41-.03.71,0,1,.04.27.21.52.23.78.1,1.36.18,2.72.26,4.08,0,.08-.03.2,0,.25.37.47.2,1.03.26,1.55.05.52.19,1.03.24,1.54.11,1.19.18,2.38.26,3.57,0,.04-.02.09,0,.13.56.92.08,1.99.46,2.98.29.73,0,1.59.25,2.43.23.79.16,1.69.26,2.55.15,1.29.34,2.56.52,3.85.15,1.08.31,2.15.55,3.21.2.88.47,1.75.7,2.62.35,1.29.84,2.52,1.29,3.78.43,1.21,1.11,2.27,1.78,3.31.55.86,1.35,1.56,2.03,2.34.13.14.22.32.42.6ZM72.76,46.17c.1-.73-.04-1.4-.19-2.08-.16-.71-.06-1.44-.23-2.18-.21-.9-.04-1.87-.27-2.81-.16-.66-.07-1.36-.25-2.05-.18-.73-.05-1.52-.25-2.3-.19-.73-.06-1.53-.25-2.31-.19-.73-.07-1.53-.26-2.3-.18-.74-.17-1.54-.24-2.3-.12-1.34-.3-2.65-.52-3.98-.16-.96-.42-1.86-.81-2.71-.76-1.65-1.68-3.21-3.06-4.44-.16-.14-.39-.27-.43-.45-.22-.87-1.09-1.06-1.62-1.59-.56-.56-1.15-1.08-1.75-1.6-.33-.28-.71-.53-1.08-.76-1.38-.89-2.97-1.13-4.55-1.24-1.61-.11-3.23-.09-4.85.2-.67.12-1.34.24-1.98.45-2.48.85-3.46,1.5-5.08,3.3-.9,1-2.01,2.8-2.42,3.94-.03.07-.07.15-.07.22.06.94-.64,1.89,0,2.83,0,1.39.81,2.47,1.51,3.56.56.88,1.29,1.64,2.19,2.27,1.57,1.1,3.28,1.75,5.15,1.95.8.09,1.62-.05,2.44-.18,1.36-.22,2.58-.74,3.77-1.34,1.07-.53,1.86-1.43,2.46-2.47.41-.73.55-2.06.53-3.13-.03-1.28-.59-2.25-1.49-3.06-.87-.78-1.86-1.29-3.06-1.51-.6-.11-1.18-.31-1.77-.11-.59.19-1.21.27-1.77.64-.67.44-1.18.99-1.57,1.72v1.76c.24.23.52.49.79.76.12.12.22.25.25.29h1c-.52-.8-.3-1.78.19-2.28.9-.94,1.75-.23,2.52.14.21.44.4.83.56,1.14-.11.36-.21.66-.35,1.13-.42.33-.92.85-1.53,1.16-.59.29-1.28.36-1.75.48-.63-.1-1.1-.18-1.58-.25-.68-.01-.94-.69-1.48-.96-.61-.3-.77-.96-.88-1.52-.25-1.33.53-3.64,2.29-4.46.82-.38,1.6-.88,2.56-.86.55-.45,1.2-.21,1.8-.25.59-.04,1.27-.19,1.75.04.53.25,1.31-.02,1.61.71,1.27.07,1.99,1.01,2.81,1.8.74.72,1.4,1.48,1.37,2.6.69,1.84.03,4.19-1.44,5.54-.67.62-1.3,1.29-2,1.99.33.21.57.34.77.5,1.24,1.02,1.71,2.51,2.11,3.94.37,1.33.87,2.62,1.44,3.85.51,1.09,1.19,2.13,1.83,3.18.06.09.06.22.08.32-.14.14-.26.26-.38.38-1.29.13-2.53-.42-3.83-.26-.43.05-.86.04-1.31-.2-.36-.19-.98-.19-1.36,0-.61.3-1.21.18-1.81.21-.51.03-1.02-.02-1.52.01-1.22.09-2.32-.35-3.5-.72-.34.72-.85,1.4-.97,2.14-.16.92-.79,1.39-1.31,2.01-.54.63-1.22,1.07-1.97,1.37-.5.2-1.06.26-1.72.4.74.82,1.13,1.73,1.31,2.71.14.76.2,1.52-.07,2.3-.37,1.09-.83,2.14-1.32,3.2.18.12.31.23.46.29,1.88.71,3.11,2.23,4.48,3.58.62,1.34,1.99,1.94,2.99,2.9.74.72,1.53,1.46,2.44,1.94-.13.27-.24.48-.33.65-.65.13-1.27.26-1.95.4,0,.15-.06.35,0,.47.49.91.13,1.88.24,2.82-.5.47-.04,1.15-.33,1.64-.34.56-.1,1.14-.17,1.71-.04.38,0,.76-.01,1.14-.03.54.01,1.05.35,1.5,3.51-2.87,7.15-5.59,10.61-8.45-.07-.19-.08-.27-.12-.34-.56-.95-1.07-1.94-1.71-2.84-.68-.94-.94-2.11-1.76-2.95-.64-1.74-1.76-3.24-2.54-4.91-.17-.36-.42-.67-.62-1.01-.39-.68-.78-1.37-1.15-2.06-.05-.1,0-.25,0-.4.29-.11.57-.25.88-.33,1.03-.28,2.07-.51,3.09-.81.98-.29,1.91-.72,2.9-.94.59-.13,1.14-.3,1.69-.52.55-.22,1.15-.24,1.71-.48.54-.23,1.14-.32,1.71-.46,1.31-.32,2.62-.64,3.98-.97ZM119.3,11.34c-.48-.63-.83-1.2-1.28-1.66-1.4-1.43-2.78-2.89-4.37-4.13-.41-.32-.86-.58-1.29-.87-1.33-.92-2.74-1.7-4.25-2.29-1.76-.69-3.56-1.2-5.44-1.23-1.65-.03-3.32-.21-4.98.19-.76.18-1.61-.06-2.4.06-.8.12-1.59.29-2.41.21.08,1.2.22,2.31.21,3.41,0,1.11.24,2.24-.22,3.29.09.15.24.3.23.43-.17,1.75.3,3.47.06,5.03-.06.22-.12.44-.17.61-.99-.55-1.84-1.03-2.7-1.5-1.45-.8-2.97-1.43-4.56-1.84-1.71-.44-3.26-1.06-4.48-2.37-.08-.09-.18-.15-.36-.28-1.18,1.22-2.37,2.42-3.93,3.09-.1-.1-.16-.15-.32-.3-.13.21-.27.43-.38.59-.8,0-1.52,0-2.24,0-.29,0-1.46-.32-1.83-.48-1.45-.63-2.42-1.75-3.2-3.07-.59-1-.77-2.14-1.08-3.24-.86-.12-1.72-.34-2.57-.49-.94-.16-1.89-.57-2.97-.24.13.99-.07,1.99.22,3.03.21.76.38,1.52.71,2.25.46,1.01,1.07,1.9,1.89,2.64,1.37,1.23,2.52,2.66,4,3.79,1.5,1.15,3.09,2.09,4.91,2.55,1.12.28,2.24.65,3.43.61.21,0,.48-.09.62.01.53.38,1.12.17,1.68.24.6.07,1.2.19,1.8.24,1.23.1,2.47.18,3.7.26.04,0,.1-.02.13,0,.52.36,1.11.28,1.67.24.59-.05,1.12.2,1.67.26,1.27.12,2.55.18,3.83.26.08,0,.19-.03.25,0,.6.44,1.29.16,1.93.25.64.1,1.25.32,1.93.27.42-.03.86.11,1.38.19.1-.43.19-.93.32-1.42.24-.95.49-1.91.77-2.85.13-.45.39-.86.49-1.32.34-1.62.95-3.16,1.41-4.75.47-1.62,1.09-3.2,1.41-4.87.04-.2.27-.36.41-.53.25.06.42.08.55.15,1.04.55,2.07,1.13,3.11,1.68,2.43,1.28,4.87,2.54,7.3,3.81.35.18.68.4,1.02.6.89.5,1.77,1,2.7,1.52.6-.73,1.14-1.39,1.7-2.06ZM221.37,57.24c-.93-1.13-1.76-2.25-2.7-3.26-1.12-1.21-2.19-2.46-3.23-3.74-1.06-1.31-2.25-2.52-3.29-3.85-.46-.59-1.05-1.08-1.42-1.69-.42-.7-1.15-1.11-1.53-1.77-.4-.71-1.05-1.14-1.51-1.74q-.77.32-2.34.22.16-1.23.61-1.76c-2.02-1.93-4.23-3.61-6.72-5.13-.02.51-.03.92-.04,1.33,0,.3.12.68-.02.87-.37.51-.16,1.04-.23,1.56-.08.56-.26,1.12-.23,1.67.06,1.17-.46,2.28-.28,3.45.01.08.03.19,0,.25-.53.86-.11,1.76-.24,2.66.32,0,.55-.06.73.01,1.13.47,2.35.68,3.53.96,1.89.44,3.69,1.13,5.57,1.58.72.17,1.38.58,2.1.73,1.39.28,2.71.77,4.17,1.17-.41.68-.79,1.27-1.13,1.89-1.06,1.93-2.09,3.87-3.14,5.8-.9,1.66-1.78,3.32-2.71,4.96-.36.64-.82,1.23-1.19,1.77.25.2.48.36.69.54.63.53,1.19,1.16,1.88,1.59.99.63,1.85,1.42,2.8,2.1,1.13.81,2.1,1.84,3.23,2.65,1.18.86,2.35,1.73,3.44,2.7.46.41.9.86,1.43,1.15,1.07.6,1.94,1.44,2.89,2.19,1.07.85,2.18,1.61,3.41,2.19,1.56.74,3.25,1.04,4.93,1.24,1.2.14,2.42.03,3.62.03-.37-1.76-.73-3.42-1.06-5-2.62-.48-4.5-1.79-5.48-4.41-.04-.91-.42-1.94-.28-3.03.05-.41,0-.82,0-1.27-.46,0-.84-.01-1.21,0-1.11.04-2.12-.27-3.11-.76-1.34-.65-2.6-1.45-4.03-1.9-1.09-.34-2.11-.95-3.31-.9-.36-.39-1.22-.04-1.31-.98.93-.72,1.95-1.41,2.84-2.24,1.33-1.22,2.57-2.54,3.87-3.84ZM43.03,44c.36.1.86-.2,1.23.25.05.06.28.06.36,0,.44-.34.94-.21,1.42-.25.8-.07,2.14-.92,2.64-1.6.84-1.14,1.54-2.33,1.52-3.81.65-1.33.21-2.67-.13-3.93-.7-2.58-2.45-4.46-4.65-5.85-1.42-.89-3.04-1.41-4.79-1.3-.67.04-1.39-.12-2.01.07-1.14.34-2.22.88-3.07,1.77-.63.65-1.24,1.32-1.83,2.02-1.11,1.32-1.55,2.91-1.74,4.48-.19,1.62-.32,3.33.22,4.94-.49.32-1.02.56-1.4.94-1.21,1.22-2.49,2.34-3.29,3.96-.63,1.29-1.16,2.79-1.18,3.95-.01.72,0,1.44,0,2.16,0,.36.14.7.22,1.04.45,2.01,2.43,3.77,3.88,4.63,1.21.72,2.57,1.03,3.92,1.23,1.88.28,3.72-.12,5.45-.88,2.19-.97,4.34-3.23,5.09-5.82.34-1.18.19-2.21-.26-3.26-.54-1.28-1.47-2.23-2.75-2.73-.95-.38-1.95-.84-3-.22-1.22,0-2.16.68-3.16,1.25-1.05.59-1.09,1.65-1.22,2.59-.07.55.34,1.17.49,1.62.8.4,1.45.88,2.26.52-.3-.67-.59-1.31-.89-1.99.54-.46,1.01-.85,1.53-1.28.54.11,1.08.22,1.41.29.33.44.52.69.74.98v1.46c-.64,1.07-1.5,1.83-2.72,2.26-.59.21-1.14.09-1.71.15-.87.1-1.56-.33-2.16-.89-1.12-1.04-1.3-2.61-.61-4.22.59-1.39,1.58-2.47,2.81-3.21.81-.48,1.64-1.18,2.72-1.06.34-.56,1.05.02,1.43-.41-.03-.12-.02-.22-.06-.27-1.35-1.4-1.84-3.15-1.97-5.02-.05-.69.03-1.36.21-2.06.21-.81.54-1.49,1.12-2.08.58-.6,1.15-1.18,2.1-1.09.2.02,1.12-.02,1.24-.01.6.04,1.06.32,1.49.72.6.56,1.12,1.18,1.4,2.03.08.44.18.95.27,1.44-.07.17-.19.35-.2.53-.04.87-.48,1.41-1.25,1.75-.74.33-1.41.16-1.96-.17-.24-.48-.43-.87-.62-1.24.08-.14.16-.26.23-.38l-.2-.2c.52-.64,1.09-1.18,1.95-1.2-.39-.39-.77-.76-1.24-1.24-.61-.08-1.18.3-1.84.66-.82.44-.98,1.15-1.13,1.83-.16.74-.08,1.54.2,2.3.47,1.28,1.02,1.98,1.83,2.78.48.47,1.07.7,1.66,1.07ZM184.7,89.36c.13,1.27-.08,2.37.24,3.49.25.89.62,1.5,1.44,1.93,1.16.61,2.35.98,3.65.98.59,0,1.19.04,1.77-.01.68-.06,1.39-.11,2-.36.84-.34,1.76-.37,2.57-.86.34-.21.78-.36,1.17-.52,2.3-.93,3.97-1.8,5.74-2.98,2-1.33,4.04-2.59,5.92-4.1,1.2-.96,2.5-1.82,3.61-2.89.43-.42.89-.8,1.4-1.26-.1-.11-.21-.22-.32-.34-1.08-1.13-2.31-2.09-3.53-3.08-1.39-1.12-2.83-2.15-4.28-3.18-1.65-1.17-3.37-2.23-5.12-3.24-1.56-.9-3.23-1.57-4.9-2.23-.62-.24-1.29-.36-1.92-.58-.68-.24-1.4-.24-2.08-.47-.71-.24-3.47,0-4.19.25-.78.28-1.51.67-2.18,1.16-.37.27-.61.67-.71,1.1-.14.58-.22,1.19-.26,1.79-.04.66,0,1.33,0,2.11.46-.14.79-.32,1.12-.33,1.1-.04,2.2-.07,3.29,0,.57.04,1.15.27,1.69.49,1.2.48,2.43.9,3.54,1.54,1.3.75,2.67,1.33,3.96,2.07,1.29.73,2.6,1.47,3.64,2.59v.56c-.35.34-.7.79-1.15,1.08-.85.56-1.76,1.04-2.66,1.54-.93.52-1.87,1.01-2.79,1.53-1.3.73-2.7,1.25-4.04,1.88-1.17.55-2.48.51-3.68.9-.08.02-.21.04-.25,0-.37-.45-.87-.17-1.3-.25-.43-.08-.85-.18-1.42-.31ZM108.34,40.16c.09-.8-.23-1.64-.62-2.5-.68-1.5-1.96-2.45-3.09-3.52-.85-.81-4.33-2.48-5.42-2.81-2.35-.7-4.65-1.57-7.13-1.78-.5-.41-1.17-.07-1.64-.31-.38-.2-.71-.13-1.06-.2-.39-.07-.77-.22-1.16-.24-.9-.04-1.77-.44-2.68-.26-.52-.35-1.11-.29-1.67-.24-.59.05-1.12-.21-1.67-.25-.83-.06-1.67-.01-2.54-.01,0,.89-.13,1.72.04,2.47.13.57.24,1.12.2,1.68-.05.59.18,1.11.26,1.67.12.89.06,1.82.3,2.67.17.61.05,1.24.26,1.79.37.98.5,2.01.67,3.01.22,1.3.68,2.52,1.01,3.78.5,1.91,1.42,3.63,2.3,5.39.61,1.21,1.41,2.24,2.28,3.23.29.33.73.51,1.04.82.59.59,1.25.97,2.07,1.15.53.12,1.05.33,1.57.5.13-.08.27-.25.4-.24.78.06,1.3-.36,1.8-.88.59-.61,1.19-1.2,1.8-1.81-.12-.12-.22-.28-.37-.34-1.99-.88-2.94-2.68-3.89-4.44-.46-.85-.69-1.83-1.01-2.75-.37-1.07-.89-2.13-1.05-3.23-.16-1.16-.95-2.15-.81-3.35-.5-.9-.18-1.83-.21-2.68,1.22-.28,2.36-.04,3.39.26,1.65.49,3.33.93,4.97,1.45.75.24,1.47.53,2.22.75.75.22,1.5.51,2.19.82,1.86.83,3.33,2.17,4.33,4.01,1.01-1.18,2.34-1.98,2.91-3.6ZM175.33,53.19c.58.73,1.07,1.42,1.82,1.95.96.69,1.82,1.19,3.03.8.6-.19,1.22-.33,1.76-.66,1.25-.78,2.3-1.85,3.19-2.98,1.5-1.89,2.33-4.17,3.16-6.42.71-1.94,1.11-3.95,1.53-5.96.06-.31.2-.6.24-.91.05-.33-.06-.7.06-.99.31-.76.35-1.57.43-2.35.1-.93.47-1.85.28-2.81.51-.9.13-1.85.28-2.75-1.56-.61-3.02-1.19-4.74-1.86-.24-.03-.73.15-1.25.25-.92.18-1.9.08-2.8.32-.61.16-1.24.06-1.79.26-1.02.37-2.09.49-3.14.67-.95.17-1.87.42-2.78.68-2.29.66-4.53,1.48-6.64,2.65-1.03.57-1.97,1.24-2.84,2-.95.83-1.49,1.96-2.1,3.05-.37.67-.4,1.32-.36,2,.01.3.19.59.33.96.59,1.07,1.66,1.79,2.59,2.62.9-1.67,2.19-2.91,3.8-3.74,1.28-.66,2.66-1.14,4.05-1.55,1.47-.43,2.95-.83,4.42-1.28,1.47-.45,2.94-.84,4.44-.75.17.15.29.26.47.42-.11.91-.11,1.87-.37,2.76-.26.87-.4,1.77-.71,2.62-.32.89-.55,1.81-.83,2.7-.56,1.78-1.23,3.55-2.22,5.16-.52.84-1.09,1.65-1.87,2.26-.43.34-.95.57-1.43.86ZM110.41,125.69c-.11.4-.18.74-.3,1.07-.67,1.8-1.59,3.47-3.1,4.65-1.21.94-2.59,1.67-3.95,2.39-1.17.62-2.41,1.08-3.55,1.59.87,2.15,1.72,4.24,2.56,6.3.55-.15,1.01-.24,1.45-.4,1.03-.36,2.07-.7,3.09-1.11,1.91-.75,3.64-1.76,5.18-3.1.19-.17.35-.37.54-.53.16-.14.25-.39.53-.41.1,1.15.2,2.25.29,3.36,0,.08-.03.19,0,.25.46.62.44,1.42.69,2.12.27.73.57,1.46.84,2.19.28.77.76,1.46,1.13,2.19.36.7.69,1.42,1.15,2.05.9,1.23,1.61,2.58,2.59,3.75.7.84,1.37,1.71,2.06,2.57,1.17,1.47,2.37,2.91,3.6,4.33.13.15.23.33.36.48.66.74,1.14,1.63,1.98,2.23-.02-.28-.14-.52-.21-.77-.26-.99-.49-1.99-.77-2.98-.25-.91-.55-1.8-.77-2.72-.34-1.41-.88-2.78-1.16-4.2-.23-1.17-.7-2.26-.89-3.45-.11-.68-.3-1.4-.6-2.02-.77-1.63-1.31-3.35-1.87-5.05-.5-1.51-.98-3.08-.81-4.74.03-.28-.01-.58-.08-.85-.21-.88-.44-1.76-.67-2.63-.26-.99-.52-1.98-.77-2.93-.87-.24-1.4.4-2.06.59-.74.21-1.17.92-1.91,1.16-.14-.8-.27-1.51-.42-2.32-1.27-2.29-2.43-2.91-4.18-3.05ZM183.42,27.18c-1.41-.44-2.62-.79-3.81-1.19-1.08-.36-2.19-.62-3.27-.98-.63-.21-1.3-.27-1.94-.52-.66-.25-1.39-.31-2.06-.54-.64-.21-1.35-.12-1.96-.48-.19-.11-.53-.1-.74,0-1.65.73-3.46.97-5.13,1.71-2.65,1.17-4.01,1.85-5.85,3.65-.2.19-.43.35-.79.65-.14-1.95.24-3.8-.74-5.52-1.23,0-2.58-.09-3.92.02-1.35.11-2.66-.55-4.03-.19,1.76,5.02,1.84,6.92-.43,11.18,1.22,1.03,2.63,1.36,4.04,1.14.65-.32,1.16-.66,1.72-.81.6-.16.81-.91,1.53-.95-.03,2.57.92,4.44,3.69,5.31h.84c.19-1.3.87-2.37,1.43-3.48.47-.93,1.27-1.65,2.06-2.31.96-.79,5.14-2.96,6.53-3.51.55-.22,1.11-.38,1.67-.56,1.45-.47,2.9-.97,4.37-1.4.91-.27,1.85-.53,2.79-.6,1.29-.09,2.52-.45,4-.62ZM191.29,137.04c-.08-.22-.2-.41-.2-.59-.02-.93,0-1.86,0-2.79,0-.25.09-.6-.03-.74-.42-.45-.13-.97-.22-1.44-.1-.51-.19-1.03-.25-1.54-.1-.77-.05-1.58-.3-2.29-.16-.45-.03-.96-.24-1.28-.3-.45-.16-.88-.22-1.31-.02-.12-.05-.23-.08-.35-.23-.88-.44-1.76-.68-2.63-.27-.98-.44-2.02-.87-2.93-.76-1.67-1.27-3.46-2.37-4.98-.4-.55-.71-1.15-1.18-1.66-1.14-1.24-2.37-2.34-3.98-2.95-.04-.01-.06-.06-.11-.1-.53,0-1.08.02-1.63,0-.62-.03-1.1.18-1.52.62-.35.36-.66.82-1.09,1.05-.46.25-.55.76-1,1.01.27.22.52.43.77.63.57.45,1.29.78,1.7,1.35,1.04,1.43,1.88,2.99,2.39,4.71.25.86.53,1.72.87,2.55.36.87.62,1.78.85,2.68.4,1.5.93,3,.81,4.4-.28.77-.87.42-1.35.66.2.82.49,1.61.55,2.43.06.86.36,1.67.32,2.56-.04.83.19,1.67.29,2.47.6.11,1.15.22,1.71.3.6.09,1.2.19,1.8.25.57.06,1.19-.04,1.72.14.63.21,1.24.11,1.85.1.55,0,1.18.25,1.7-.31ZM40.72,132.09c-1.8-.67-2.64-2.15-2.92-3.93-.25-1.62.04-3.26.85-4.7.4-.71.41-1.35.36-1.95-.6-.22-1.07-.45-1.56-.56-.66-.14-1.22-.39-1.66-.91-.07-.09-.19-.14-.3-.18-1.3-.52-1.95-1.63-2.53-2.79-.24-.49-.46-1.03-.5-1.56-.11-1.33.33-2.46,1.51-3.18.39-.18.78-.36,1.4-.64h1.41c-.39-1.71-.77-3.37-1.15-5.02-.66-.04-1.3.18-1.93.2-1.14.04-2.04.62-3.04.97-.55.19-1.04.59-1.49.97-.49.4-.95.85-1.35,1.34-.84,1.04-1.44,2.2-1.46,3.58-.01.76-.04,1.52,0,2.28.05.75.29,1.48.46,2.21.18.83.69,1.41,1.04,2.11.75,1.5,1.97,2.56,3.24,3.54.39.3.7.67,1.03.87-.08.47-.18.86-.19,1.26-.03.76,0,1.52,0,2.28-.01,1.26-.03,2.52.76,3.62.43,2.24,2.29,3.42,3.69,4.94.04.04.19-.03.24.01,1.32.97,2.81,1.16,4.42.95-.08-.9.72-1.78.03-2.69-.02-.99.12-1.98-.35-3.04ZM128.6,165.41c-3.64-4.43-7.32-8.91-10.96-13.34-.18.04-.28.03-.34.07-1.6,1.16-3.43,1.95-5.11,2.97-1.23.75-2.58,1.29-3.96,1.97,1.09,2.68,2.16,5.32,3.28,8.08,1.43-1.61,2.8-3.14,4.18-4.7.34-.06.62.1.76.43.12.29.23.6.25.91.18,1.92,1.04,3.63,1.83,5.33.36.77.85,1.5,1.22,2.28.18.39.35.79.5,1.13.54.16,1.04-.04,1.5.3.19.14.66.14.85,0,.51-.37,1.04-.18,1.56-.22.38-.03.78.08,1.14-.02,1.44-.41,2.94-.6,4.41-1.14-.37-1.34-.74-2.67-1.12-4.05ZM215.59,144.72c-.08-.07-.18-.15-.26-.24-.89-.98-.84-1.63.04-2.62.51-.57,1.2-.79,1.8-1.19.68,0,1.37-.09,2.03.02,1.17.19,2.27.61,2.76,1.82.3.73.38,1.45.14,2.31-.29,1.03-.84,1.86-1.56,2.48-.68.59-1.59.99-2.51,1.24-.75.2-1.5.32-2.4.22,1.68,1.8,3.25,3.49,4.8,5.14.47-.2.82-.35,1.19-.5,1.56-.62,2.92-1.52,4.06-2.78,1.7-1.89,2.95-3.94,2.72-6.61,0-.04,0-.09,0-.13.1-.79-.23-1.49-.5-2.2-.67-1.75-2.02-2.97-3.34-4.19-.54-.5-1.25-.84-1.93-1.13-1.03-.43-2.15-.52-3.23-.76-1.03-.23-2.05.15-3.05.31-1.01.16-1.98.71-2.91,1.22-1.14.63-2.09,1.46-2.67,2.71-.26.55-.41,1.12-.55,1.67-.29,1.14-.04,2.28.78,3.16.76.81,1.65,1.51,2.49,2.25.14.13.34.23.52.27.59.13,1.18.3,1.77.3.63,0,1.29-.12,1.9-.31.44-.13.88-.4,1.22-.71.86-.77,1.32-1.73,1.1-2.98-.25-.32-.46-.79-.82-.98-.31-.16-.7-.71-1.22-.12.61.76.31,1.48-.13,2.16q-.88.43-2.21.17ZM222.89,155.33c.21.17.29.26.38.3,1.09.45,2.04,1.17,2.84,1.97,1.19,1.18,1.88,2.76,2.47,4.28.67,1.74,1.16,3.57,1.83,5.32.53,1.39,1.14,2.69,2.23,3.77,1,.99,2.25,1.65,3.22,2.66.7.14.96,1.01,1.82,1.02,1.82-.55,3.71-1.16,5.48-2.22-.11-.19-.32-.37-.3-.52.16-.97-.65-1.75-.52-2.71-.89-1.96-1.52-4.01-2.73-5.84-.92-1.39-2.01-2.62-3.01-3.93-.31-.41-.81-.66-1.22-1-.54-.44-1.04-.93-1.6-1.33-2.19-1.56-4.66-2.31-7.33-2.5-1.21-.08-2.31.23-3.56.72ZM30.78,65.08c2.48-.12,2.72-.04,3.54.44,1.19.71,1.9,1.69,2,3.17.24-.12.41-.21.67-.33.4,0,1.02.18,1.39-.04.55-.33,1.06-.11,1.57-.21.46-.1.92-.22,1.38-.33-.1-.17-.24-.3-.24-.43.03-.71-.3-1.32-.57-1.93-.56-1.23-1.47-2.22-2.38-3.21-.86-.94-1.96-1.43-3.04-1.9-.89-.39-1.88-.72-2.94-.58-.67.08-1.35.01-2.03.02-.21,0-.44-.04-.62.03-1.17.45-2.4.69-3.49,1.39-.65.42-1.21.91-1.65,1.48-.98,1.28-1.92,4.85-1.82,6.46.02.35.24.69.23,1.04-.05,1.37.62,2.55,1.14,3.72.45,1.01,1.2,1.91,1.95,2.74,1.09,1.2,2.23,2.37,3.56,3.33.25.18.56.27.84.39.13-.25.24-.46.41-.79-.18-.75.3-1.5.46-2.32.16-.84.52-1.57.85-2.41-.36-.33-.77-.64-1.09-1.03-.79-.95-1.56-1.93-1.88-3.15-.16-.61-.61-1.29-.33-1.85.23-.47.1-.89.25-1.29.31-1.05,1.14-1.68,1.85-2.41ZM79.94,134.04c2.74-2.46,5.58-4.43,8.34-6.38,0-.43-.08-.75.01-1.02.57-1.71.93-3.49,1.51-5.2.52-1.52.98-3.06,1.59-4.53.33-.79.87-1.5,1.37-2.23.36-.52.8-.93,1.21-1.38.21-.23.52-.37.78-.55.3-.2.6-.4.93-.62-.63-.62-1.21-1.23-1.83-1.79-.61-.55-1.29-.95-2.16-.89-.42.03-.84,0-1.01,0-.69.27-1.2.4-1.63.65-.45.26-.88.6-1.24.98-.38.39-.97.49-1.2,1.12-.17.47-.84.73-1.1,1.19-.82,1.43-1.6,2.88-2.28,4.37-.28.63-.44,1.32-.75,1.97-.3.62-.36,1.37-.55,2.05-.15.57-.38,1.12-.49,1.69-.13.67,0,1.47-.31,2.02-.37.66-.05,1.34-.41,1.99-.31.56-.26,1.34-.29,2.02-.03.69-.45,1.33-.27,2.05.03.11.03.28-.03.36-.42.61-.17,1.25-.19,2.11ZM200.21,82.72c-.49-.33-.94-.6-1.34-.92-.84-.68-1.83-1.11-2.73-1.68-1.41-.88-2.9-1.55-4.45-2.11-1.04-.37-2.14-.58-3.22-.84-1.11-.26-2.05-.18-3.03.24-1.72.72-2.6,2.17-3.26,3.8-.4.98-.35,1.96-.01,2.96.43,1.26,1.19,2.26,2.12,3.18.7.69,1.53,1.02,2.49,1.04.82.02,1.63.06,2.43-.24,1.21-.44,2.49-.73,3.68-1.23,2.6-1.08,4.98-2.56,7.31-4.21ZM89.89,37.88c-.19.75,0,1.36.15,1.99.24.92.31,1.89.6,2.8.68,2.16,1.51,4.27,2.65,6.25.7,1.22,1.5,2.28,2.85,2.83.25.1.49.25.73.38,2.22,0,2.19-.11,4.26-.72,1.36-.41,2.01-1.38,2.6-2.45.45-.82.69-2.92.52-3.82-.11-.56-.29-1.19-.65-1.62-.7-.84-1.54-1.54-2.53-2.1-1.93-1.09-3.98-1.83-6.08-2.47-.98-.3-1.98-.54-2.98-.76-.7-.15-1.42-.2-2.13-.3ZM181.27,37.79c-1.42.24-2.64.33-3.78.69-.75.23-1.52.41-2.26.64-1.63.49-3.13,1.21-4.66,1.92-1.15.53-2.17,1.27-3,2.24-.52.62-.93,1.3-.87,2.17.03.42,0,.84,0,1.27,0,1.23.54,2.31,1.13,3.33.34.58.91,1.06,1.58,1.32,1.24.49,2.5.86,3.87.77,1.08-.07,2.01-.49,2.81-1.16.75-.63,1.11-1.55,1.65-2.34.74-1.1,1.19-2.3,1.64-3.51.45-1.21.85-2.44,1.18-3.69.29-1.11.45-2.26.71-3.63ZM134.77,20.05c-.89,1.4-1.78,2.72-2.57,4.1-.86,1.49-1.48,3.11-2,4.74-.38,1.19-.72,2.42-.55,3.7.09.63.24,1.29.64,1.75.85.98,1.83,1.83,3.06,2.36,1.29.55,1.92.61,3.38.22,1.4-.38,2.58-1.14,3.52-2.17.97-1.05,1.35-2.44.99-3.83-.32-1.24-.62-2.5-1.17-3.69-.74-1.6-1.46-3.21-2.37-4.71-.43-.71-.9-1.4-1.34-2.07-.48-.12-.94-.23-1.6-.39ZM189.9,157.19c.41-.41.77-.76,1.13-1.13.85-.88,1.79-1.67,2.92-2.11.56-.22.81-.64.9-1.02.49-2.04,1.64-3.8,2.35-5.87-.09-.06-.21-.22-.36-.25-1.06-.2-2.12-.5-3.19-.54-1.24-.04-2.44-.48-3.7-.29-.08.01-.2.04-.25,0-.51-.46-1.12-.16-1.67-.25-.56-.09-1.11-.2-1.67-.25-1.19-.1-2.38-.17-3.57-.26-.08,0-.19.01-.24-.03-.44-.41-.91-.18-1.31-.18-.42,2.35-1.2,4.5-1.83,6.71,1.24,1.01,2.7,1.59,4.19,2.12.85.3,1.73.51,2.59.77,1.17.36,2.26.84,3.04,1.83.21.26.44.49.66.74ZM28.87,97.59c-.37-1-.17-2.34.4-3.57.58-1.24,1.39-2.36,2.42-3.2-.55-2.03-.93-3.98-1.09-6.04-.93.66-1.86,1.18-2.61,1.89-1.55,1.45-2.94,3.02-4.01,4.91-.85,1.51-1.22,3.1-1.42,4.73-.18,1.49.26,2.97.77,4.35.35.94.75,1.91,1.54,2.66,1.56,1.48,3.38,2.22,5.5,2.34.35.02.7.12,1.17.21.22-.46.73-.19,1.16-.2.9-.02,1.71-.32,2.45-.57-.44-1.71-.86-3.36-1.28-5-.32.17-.57.3-.88.46-.74.1-1.54,0-2.28-.31-.73-.69-1.47-1.34-1.86-2.66ZM103.63,7.4c-.39,1.31-.79,2.55-1.13,3.79-.5,1.86-1.08,3.7-1.61,5.56-.46,1.61-.8,3.27-1.46,4.79,2.15.63,4.24,1.24,6.27,1.83.42-1.01.37-2.07.56-3.09.2-1.06.54-2.1.58-3.2.01-.42.35-.83.54-1.25,2.13,1.46,4.18,2.86,6.3,4.32,1.01-1.83,2.06-3.73,3.1-5.62-1.49-.81-2.87-1.67-4.29-2.41-1.63-.86-3.23-1.78-4.88-2.59-.42-.21-.91-.32-1.26-.61-.81-.67-1.81-.94-2.72-1.49ZM72.99,47.54c-.69.13-1.19.14-1.62.32-1.6.71-3.33.91-4.98,1.43-1.38.43-2.79.85-4.21,1.17-1.21.27-2.38.7-3.52,1.04.25.52.41,1.12.77,1.57.81,1,1.19,2.23,1.92,3.27.64.92.96,2.07,1.57,3.01,1.05,1.61,1.96,3.31,2.98,5.02,1.85-1.09,3.88-1.82,5.7-2.98-1.35-1.94-2.63-3.77-3.9-5.62-.14-.21-.19-.49-.28-.72,2.47-.83,4.95-1,7.44-1.48-.1-.44-.17-.86-.28-1.27-.12-.41-.28-.81-.41-1.22-.12-.37-.22-.75-.35-1.12-.14-.42-.24-.83-.31-1.27-.06-.4-.34-.77-.51-1.14ZM204.9,64.34c.14-.18.29-.33.39-.5.62-1.1,1.25-2.18,1.88-3.27.83-1.43,1.64-2.87,2.47-4.3.69-1.19,1.33-2.4,2-3.6.1-.17.25-.32.33-.5.1-.24.14-.5.19-.69-.45-.15-.78-.28-1.13-.36-1.45-.34-2.88-.78-4.3-1.23-.94-.3-1.88-.59-2.84-.78-.59-.12-1.12-.38-1.69-.52-.62-.14-1.22-.33-1.83-.46-.87-.19-1.7-.69-2.56-.56-.63,2.07-1.23,4.05-1.83,6.02,2.52.39,5.07.66,7.53,1.43v.44c-1.43,2.02-2.84,4-4.21,5.94,1.82.96,3.66,1.92,5.61,2.95ZM203.66,110.39c-2.62.73-5.18,1.05-7.7,1.44.61,1.99,1.21,3.97,1.84,6.04,2.44-.38,4.8-1.18,7.18-1.85,2.4-.67,4.84-1.26,7.22-2.15-.79-1.54-1.45-3.11-2.37-4.51-1-1.52-1.73-3.19-2.75-4.7-.38-.55-.69-1.15-1.02-1.73-.35-.62-.7-1.24-1.05-1.86-.2.12-.33.2-.46.27-1.5.76-2.99,1.56-4.51,2.26-.47.22-.63.46-.58.84,1.59,1.85,2.88,3.83,4.2,5.95ZM249.02,166.76c-.15-.36-.27-.56-.32-.79-.06-.27-.13-.54-.2-.8-.5-1.87-1.37-3.58-2.28-5.27-.95-1.77-2.17-3.33-3.66-4.69-1.43-1.31-3.01-2.36-4.83-3.03-.51-.19-1.03-.38-1.55-.53-.5-.14-1.01-.3-1.51-.3-.58,0-1.11-.2-1.67-.26-.64-.06-1.29.12-1.93.18-.9.08-1.73.3-2.57.56-.62.2-1.2.44-1.44,1.21,1.13.26,2.21.54,3.23.89,1.76.61,3.65.99,5.16,2.21.68.11,1.11.65,1.59,1.04,1.03.83,1.98,1.76,2.78,2.83.86,1.15,1.49,2.4,2.03,3.73.83,2.04,1.58,4.1,2.02,6.26.43.45-.01,1.25.63,1.61,1.8-1.33,3.34-2.89,4.53-4.84ZM30.41,83.5q0-.87-.33-1.61c-.42-.25-.78-.5-1.16-.68-1.38-.66-2.51-1.68-3.77-2.52-1.41-.94-2.82-1.81-4.61-1.71-.58.03-1.19-.06-1.74.09-2.17.61-3.68,2.09-4.88,3.85,0,.46-.14.92.03,1.2.24.4.11.81.24,1.17.14.39.21.76.25,1.17.05.41.32.8.41,1.21.15.7.83.83,1.25,1.24.64.64,1.48.88,2.27,1.24.84.38,1.7.21,2.56.24,1.02.04,1.98-.25,2.85-.77.72-.43,1.4-.92,2.08-1.41,1.42-1.01,2.84-2.02,4.55-2.73ZM100.08,113.53c-.24-.02-.67.02-1.06-.08-1.54-.4-3.09,0-4.23,1.04-1.45,1.34-2.13,3.15-2.92,4.87-.63,1.38-1.01,2.87-1.44,4.34-.26.89-.4,1.81-.62,2.85.87-.5,1.63-.91,2.36-1.36.76-.48,1.38-1.21,2.3-1.27.83.62.65,1.76,1.41,2.35,1.83-.57,3.5-1.34,5.11-2.23,1.43-.79,2.73-1.73,3.2-3.43.06-.22.21-.42.32-.64-.46-.37-.01-.98-.25-1.37-.29-.48-.16-.95-.32-1.39-.17-.44-.34-.87-.53-1.37-.81-.93-1.75-1.82-3.31-2.3ZM178.78,122.92c.09.18.19.35.27.53.58,1.28,1.32,2.49,1.63,3.89.02.08.25.1.56.22-.13-.7-.31-1.24-.29-1.78.01-.52-.68-1-.05-1.51-.18-.18-.33-.33-.38-.38-.14-.54-.23-.97-.36-1.39-.46-1.54-1.04-3.03-1.71-4.48-.49-1.05-1.1-2.01-1.82-2.93-.76-.96-2.16-1.75-3.32-1.85-.93-.08-1.77.36-2.58.3-.39.19-.7.36-1.03.48-.62.22-1.18.54-1.59,1.04-1.35,1.65-1.51,3.61-1.39,5.63.42.27.22.8.56,1.18.71.78,1.26,1.37,2.48,2.07,1.11-.15,2.29.22,3.41-.27.92.16,1.78-.28,2.68-.26.16,0,.32-.05.47-.08.82-.17,1.61-.5,2.47-.41ZM128.55,34.37c-.07-.7.04-1.35-.2-1.8-.57-1.04.03-1.98.12-2.95.07-.71.36-1.44.76-2.08.06-.1.13-.2.16-.31.37-1.25,1.03-2.37,1.66-3.49.73-1.3,1.42-2.62,2.24-3.94-.25-.16-.43-.36-.64-.4-.77-.17-1.55-.33-2.32-.5-1.45-.32-2.83-.82-4.19-1.51-1.17,2.04-2.33,4.09-3.06,6.33-.23.7-.39,1.46-.63,2.15-.26.75-.02,1.5-.36,2.25-.26.57.02,1.34.15,2.03.14.75.34,1.46.66,2.14.22.46.53.87.69,1.13,1.61,1.22,3.31.89,4.95.94ZM77.32,78.77c.51.65.23,1.29.3,1.89.07.66-.13,1.29-.22,1.93-.08.6-.15,1.2-.28,1.79-.13.62-.19,1.26-.27,1.87.17.15.28.31.42.37.8.32,1.59.66,2.41.91,1.37.43,2.71.98,4.21.88,1.28-.08,2.36-.62,3.16-1.51.62-.68,1.11-1.51,1.51-2.4.56-1.23.55-2.31.04-3.56-.49-1.19-1.32-2.03-2.18-2.9-.69-.7-1.52-.97-2.48-1.07-1.21-.13-2.31.36-3.45.6-1.06.22-2.05.76-3.19,1.2ZM61.53,154.78c-.97.26-1.67.46-2.33.67-1.57.51-3.2.71-4.81.9-1.43.17-2.74.65-3.85,1.42-1.67,1.15-2.46,2.94-2.61,4.97-.06.81-.12,1.64.23,2.43.17.39.2.85.33,1.4.56.45,1.16,1.02,1.84,1.47.68.44,1.56.22,2.27.57.12-.23.18-.43.3-.58.72-.9,1.11-1.99,1.58-3.02.34-.75.61-1.53,1.1-2.2,1.48-2.01,2.99-4,4.47-6,.45-.6.87-1.21,1.46-2.03ZM26.88,57.85c-1.07-1-1.79-2.16-2.38-3.4-.58-1.22-.74-2.56-1.05-3.94-1.84.39-3.63.77-5.35,1.13-.23.57-.45,1.07-.63,1.58-.51,1.44-1.07,2.86-1.46,4.33-.21.78-.74,1.51-.58,2.18,1.9,1.29,3.63,2.46,5.44,3.69,1.52-2.45,3.46-4.29,6.02-5.58ZM29.86,22.95c1.09,1.7,2.16,3.36,3.24,5.04.91-.98,2.07-1.72,3.32-2.23,1.29-.52,2.69-.7,4.26-.86-.83-2.66-.82-5.33-.19-8.02-1.64-.33-3.28-.64-4.83-.8-2.3,2.06-3.92,4.5-5.8,6.86ZM76.78,77.59c.74-.29,1.54-.53,2.26-.9,1.2-.62,2.43-.99,3.78-.97.51,0,1.01-.02,1.52,0,.51.03,1.03.11,1.63.17.15-.27-.06-.7.23-1.08.28-.37-.16-2.21-.46-2.8-.42-.8-1-1.3-1.85-1.63-.29-.11-.55-.31-.74-.42-.67-.12-1.26-.27-1.86-.32-.67-.05-1.35-.05-2.03,0-.64.04-1.28.15-1.92.25-.14.02-.26.19-.4.24-1.2.36-2.39.72-3.55,1.22-.71.31-1.42.65-2.13.97-.67.3-1.32.65-2.14,1.05,3.38.26,6.38,2.02,7.67,4.22ZM107.71,155.88c2.99-1.64,6.01-3.29,9.08-4.97-1.07-1.94-2.11-3.83-3.13-5.67-1.12.81-2.14,1.61-3.21,2.31-1.07.7-2.06,1.56-3.3,2.04-.21-.9-.31-1.72-.58-2.52-.28-.83-.32-1.72-.47-2.58-.14-.83-.18-1.68-.38-2.46-1.07.33-2.14.66-3.16.98.74,1.83,1.48,3.63,2.19,5.43.02.06-.13.19-.22.31.24.05.36.07.37.08.96,2.4,1.88,4.72,2.81,7.06ZM220.75,134.26c-.1-.19-.19-.33-.23-.48-.4-1.39-.91-2.74-1.45-4.09-.48-1.19-1.22-2.12-2.31-2.83-.95-.62-1.89-1.17-3.07-1.16-1.44,0-2.87.01-4.31,0-.54,0-1.06-.01-1.52.35.33.78.63,1.57,1.01,2.33.24.47.44.92.49,1.45.02.19.15.36.21.54.39,1.1,1.09,2.01,1.98,2.71,1.18.92,2.52,1.55,4.06,1.49,1.69-.06,3.38-.2,5.13-.31ZM63.22,39.69c-.45-1.03-.84-1.93-1.24-2.82-.27-.61-.39-1.29-.66-1.88-.47-1.03-1.12-1.96-2.08-2.68-1.16-.87-2.39-1.41-3.82-1.49-.59-.03-1.29-.2-1.75.04-.6.32-1.14.12-1.7.2-.57.08-1.15.08-1.74.11.33,1.08.6,2.19,1.01,3.24.57,1.46,1.25,2.88,2.53,3.9.55.44,2.47,1.37,3.11,1.38,2.07.01,4.13,0,6.35,0ZM53.22,63.15c-1.33-1.43-2.48-2.68-3.65-3.92-1.07-1.13-2.49-1.54-3.95-1.76-1.44-.22-2.78.23-4.06.89-.83.43-1.68.84-2.52,1.25-.33.16-.68.29-1.07.45,1.26,1.34,2.43,2.59,3.59,3.84.36.4.83.63,1.26.93.73.49,1.58.49,2.37.71.63.18,1.39.19,2,0,.62-.2,1.28-.27,1.88-.66.84-.54,1.82-.88,2.76-1.28.39-.16.8-.26,1.4-.44ZM179.44,153.61c-.17,1.75.16,3.5-.27,5.22-.1.38.11.86.24,1.28.23.75.41,1.54.92,2.14,1.22,1.44,2.65,2.59,4.56,3.03,1.05.24,2.06.62,3.1.94.1-.7-.13-1.43.28-2.06,0-1.31,0-2.62,0-3.92,0-.08-.03-.16-.05-.23-.49-1.43-1.18-2.77-2.43-3.66-.56-.4-1.12-.8-1.85-1.02-1.41-.43-2.84-.89-4.11-1.68-.09-.05-.22-.03-.38-.05ZM96.27,127.37c.92,2.24,1.81,4.48,2.74,6.7.39-.09.74-.14,1.07-.27.33-.13.62-.34.94-.49,3.3-1.63,3.46-1.76,5.74-4.13.69-.71.95-1.62,1.34-2.48.52-1.14.05-2.05-.55-2.87-.6-.81-1.42-1.47-2.18-2.23-.32.54-.52,1.03-.85,1.42-.88,1.03-1.93,1.83-3.16,2.45-1.59.8-3.26,1.31-5.09,1.91ZM31.66,150.47l.22.19c1.15-.89,2.59-.88,3.88-1.34.59-.21,1.27-.18,1.91-.28.63-.09,1.26-.21,1.88-.31,0-.18-.04-.32,0-.43.37-.91.55-1.84.51-2.83-.03-.59-.02-1.18,0-1.77,0-.4-.12-.84.25-1.16-.14-.72.6-1.38.16-2.07-2.82-.26-5.37-1.02-7.4-3.08-.22.43-.45.88-.55,1.09.07.81.11,1.37.18,1.92.07.56.2,1.11.24,1.67.04.59.01,1.18,0,1.77,0,.61-.03,1.2-.22,1.8-.16.52-.02,1.1-.26,1.67-.21.5-.16,1.11-.29,1.65-.13.52-.34,1.01-.52,1.51ZM33.65,160.16c2.49,1.64,4.97,3.29,7.53,4.98.58-1.25.92-2.5,1.38-3.69.57-1.47,1.39-2.76,2.37-3.95.78-.95,1.88-1.48,3-1.97-.64-.76-1.58-.73-2.41-.88-.65-.12-1.46-.24-1.99.03-.66.34-1.43-.11-1.97.45-1.55.14-2.82.98-4.09,1.74-1.41.85-2.63,1.98-3.82,3.3ZM190.09,170.66c-.14-.29-.22-.58-.39-.78-.29-.36-.64-.67-.98-.99-1.91-1.79-4.16-2.75-6.79-2.86-.62-.03-1.2.12-1.8.25-1.54.32-3.04.72-4.11,1.99-.94,1.12-1.38,2.39-1.14,3.86h3.93c.78-.5,1.42-.91,2.03-1.3.64.04,1.23,0,1.79.12.85.2,1.57.71,2.28,1.18.61,0,1.2.02,1.79,0,1.28-.05,2.51-.25,3.38-1.46ZM75,94.61c.17.14.28.31.43.35,1.15.28,2.3.67,3.47.77,1.31.12,2.65.18,3.94-.22,1.25-.39,2.5-.77,2.97-2.21.02-.07.11-.12.11-.12.12-.67.23-1.26.33-1.85.12-.67-.19-1.26-.33-1.78-.83.09-1.65.18-2.68.29-.08-.02-.38-.12-.69-.15-.33-.04-.73.1-1-.04-.55-.29-1.16-.25-1.7-.48-.54-.23-1.06-.5-1.59-.75-.52-.24-1.05-.47-1.61-.73-.51,2.25-.9,4.55-1.65,6.92ZM91.58,11.87c0-1.89-.03-3.65,0-5.41.04-1.78-.86-3.09-1.97-4.4-.66.28-1.31-.1-1.98.28-.53.3-1.3-.14-1.89.31-1.04-.16-2.01.28-3.09.29-.08.51-.25,1-.19,1.45.05.38.11.84.26,1.14.28.56.39,1.17.8,1.71.45.59.99,1.1,1.46,1.66.49.57,1.13.91,1.82,1.1,1.59.45,3.05,1.18,4.75,1.87ZM61.06,131.11c.51-1.84,1.37-3.55,2.15-5.36h-5.12c-1.94,2.7-3.79,5.56-5.59,8.47.19.1.41.21.54.28,3.38.56,6.03-.55,8.02-3.38ZM155.76,82.66c1.26,1.28,2.7,2.02,4.2,2.72,1.39.65,2.8.6,4.05.04,1.5-.67,2.64-1.82,4.03-2.75-.37-.23-.64-.39-.9-.58-.71-.53-1.39-1.1-2.12-1.6-1.09-.75-2.32-1.2-3.64-.95-.99.19-1.91.66-2.82,1.13-1.03.52-1.74,1.43-2.79,1.98ZM152.09,61.54c-.46,1.12-1.35,2.02-1.63,3.24-.29,1.22-.68,2.43-.46,3.75.08.08.2.2.28.28.55-.15,1.07-.43,1.59-.42.84.02,1.56-.31,2.32-.54,1.81-.55,3.03-1.67,3.58-3.38.18-.56.46-1.13.32-1.77-.03-.16-.08-.39,0-.5.48-.6.13-1.27.29-2.04-.75.12-1.37.3-2,.31-1.48.03-2.86.37-4.05,1.23-.12-.09-.18-.13-.24-.17ZM158.33,105.13c0-.47.03-.85,0-1.23-.04-.39-.25-.78-.22-1.16.03-.59-.12-1.13-.28-1.67-.34-1.16-.95-2.16-2.02-2.76-1.32-.74-2.72-1.29-4.28-1.29-.19,0-.38-.11-.57-.14-.31-.05-.62-.08-1.03-.13.13.95.08,1.78.23,2.65.19,1.09.63,2.03,1.08,2.99.56,1.19,1.63,1.84,2.8,2.22.62.2,1.33.29,2.03.35.72.06,1.43.24,2.27.18ZM138.5,107.31c-.77-1.66-1.55-3.3-3.07-4.57-.69.81-1.49,1.48-1.92,2.33-.43.85-1.16,1.64-1.06,2.72-.58,1.01-.16,1.91.24,2.85.5,1.17,1.33,2.08,2.09,3.06.21.27.42.54.66.85.59-.69,1.23-1.34,1.74-2.08.65-.93,1.27-1.9,1.53-3.03.06-.28.2-.69.07-.82-.41-.41-.12-.89-.27-1.29ZM135.61,62.63c.41-.53.78-1.01,1.14-1.5.82-1.12,1.62-2.23,1.82-3.68.07-.51.24-.89.02-1.46-.18-.49-.18-1.14-.46-1.57-.83-1.24-1.77-2.41-2.69-3.63-.21.31-.34.54-.51.75-.59.77-1.2,1.53-1.78,2.3-.48.63-.72,1.4-.94,2.14-.24.81,0,1.7.32,2.38.7,1.55,1.43,3.15,3.09,4.28ZM114.94,82.71c-1.25-1.33-2.67-2.25-4.34-2.84-1.46-.52-2.77-.41-4.13.34-1.26.7-2.3,1.67-3.5,2.49.89.7,1.68,1.4,2.56,1.98.68.46,1.45.77,2.26,1.18,2.84.21,5.12-1.1,7.15-3.16ZM112.2,105.25c.87-.11,1.43-.19,2-.24.57-.05,1.15-.07,1.73-.11.04,0,.09.01.13,0,1.01-.52,2.22-.63,3-1.66.44-.58.78-1.16,1.09-1.83.67-1.47.82-2.98.91-4.53-.65-.27-1.16.11-1.7.13-1.35.05-2.59.45-3.74,1.06-1.64.86-2.55,2.27-2.7,4.15-.03.39-.2.77-.24,1.16-.04.46,0,.93-.02,1.39,0,.09-.15.18-.44.48ZM121.02,68.65c0-.44.03-.77,0-1.1-.05-.35-.23-.69-.23-1.04-.03-1.36-.65-2.5-1.27-3.66-.45-.83-1.1-1.53-1.92-1.8-.89-.29-1.81-.69-2.81-.57-.25.03-.58.09-.74-.03-.55-.45-1.09-.11-1.85-.22.56.36.46.72.45,1.04,0,1.1.23,2.16.53,3.2.36,1.24,1.13,2.19,2.31,2.8,1.7.87,3.5,1.27,5.54,1.38ZM64.69,115.69c1.45.39,2.82.78,4.19,1.13,1.36.35,2.69.84,4.05,1.05.17-.21.32-.32.36-.47.44-1.46.81-2.95,1.3-4.39.15-.44.32-.8.13-1.23-2.36-.24-4.64-.75-7.07-1.23-.96,1.67-1.97,3.41-2.97,5.14ZM74.47,4.94c-.74-.02-1.39.06-1.97-.39-.2-.15-.61-.06-.92-.04-.23.02-.47.18-.68.15-.52-.07-.94.16-1.36.36.37.77.69,1.55,1.15,2.29.85,1.37,2.12,2,3.54,2.13,2.1.2,3.91-.57,5.17-2.36.21-.29.43-.58.62-.88.61-.92.82-1.98,1.2-3.05-1.92.27-3.7.52-5.42.76-.46.35-.87.67-1.32,1.01ZM144.49,119.26c.88.04,1.4-.11,1.73-.63.54-.88,1.04-1.8.94-2.89-.04-.39-.16-.77-.25-1.16-.18-.78-1.48-2.41-2.21-2.56-1.44-.29-2.9-.54-4.34-.01-1.17.43-2.21,1.07-2.83,2.2-.3.54-.53,1.13-.84,1.8,1.58.8,3.24,1.33,4.84,2.08.14-.41.26-.78.41-1.23.29-.29.65-.65,1.01-1.01h1.4c.42.4.72.68.99.93.11.32.21.62.32.94-.35.47-.71.95-1.16,1.56ZM14.76,73.44c1.04-.7,2.21-.47,3.35-.52,1.11-.04,2.16.2,3.22.78-.45-1.42-1.19-2.46-2.21-3.31-.27-.23-.6-.4-.87-.63-1.06-.91-2.54-1.67-4.04-2.18-.52-.18-.99-.3-1.55-.16-.74,1.39-1.49,2.79-2.25,4.22,1.36.77,2.84,1.18,4.35,1.8ZM217.93,63.14c1.28.63,2.62.97,3.81,1.66.5.29,1.02.67,1.68.52.72.54,1.55.25,2.3.22.74-.04,1.47-.38,2.37-.64-.54-.54-1.01-.9-1.34-1.36-.78-1.06-1.58-2.08-2.52-3-.12-.12-.29-.22-.35-.36-.3-.77-1.02-1.15-1.49-1.75-1.66,1.3-3.87,3.64-4.46,4.73ZM234.93,83.84c-.85,0-1.77,0-2.68,0-.89,0-1.79-.11-2.67.46.73,1.7,1.46,3.41,2.17,5.06.78-.23,1.5-.42,2.28-.48.75-.06,1.45.61,2.13.21-.41-1.74-.8-3.44-1.23-5.26ZM112.4,143.17c.09-1.32-.43-2.67-.83-4-.63.34-1.28.59-1.79,1-.61.5-1.41.75-1.74,1.63-.31.81-.52,1.61-.46,2.46.03.39.25.78.22,1.16-.05.68.26,1.23.39,1.96,1.64-1.22,3.39-2.15,4.21-4.22ZM77.97,59.37c-.48-.73-.96-1.33-1.3-2-.66-1.29-1.74-1.8-3.11-1.96-1.17-.14-2.27.45-3.33.27-.31.16-.51.26-.7.36,1.1,1.54,2.12,3.17,3.91,3.89,1.58.31,2.97-.26,4.53-.56ZM111.57,26.34c.3-1.09.64-2.03.8-2.99.2-1.16-.33-2.16-1.14-2.92-.91-.86-1.94-1.58-3.06-2.48-.04.7-.43,1.14-.36,1.73.04.33.12.73-.01,1-.37.72-.15,1.36-.01,2.09.18.92.58,1.52,1.39,1.97.8.44,1.52,1.01,2.39,1.6ZM200.86,55.67c-.53,0-1.07.11-1.54-.02-2.06-.59-3.7-.1-4.93,1.41-.12.15-.17.35-.28.52-.4.61-.82,1.22-1.25,1.87.43.03.84-.04,1.16.09.93.38,1.87.47,2.86.46.61,0,1.05-.27,1.54-.59.63-.41,1.02-1,1.49-1.53.48-.55.93-1.12,1.4-1.69-.17-.19-.27-.31-.46-.51ZM69.52,109.36c.43.21.85.46,1.37.36.16-.03.38-.07.5,0,.86.53,1.82.27,2.69.19.64-.06,1.41-.3,1.88-.94.36-.49.81-.92,1.14-1.43.31-.48.53-1.02.84-1.65-.49,0-.92.12-1.22-.02-1.08-.53-2.2-.49-2.91-.47-2.34.73-3.05,2.61-4.3,3.95ZM192.85,105.97c1,1.27,1.57,2.78,2.98,3.7.93.44,2.03.38,3.08.26.75-.08,1.51-.26,2.3-.21.01-.26.02-.42.03-.68-.8-.87-1.69-1.73-2.46-2.7-.9-1.12-2.11-1.1-3.28-.89-.86.16-1.71.38-2.66.51ZM23.94,112.74c.43-2.2,1.58-3.76,2.87-5.19-1.2-.68-2.35-1.38-3.35-2.35-1-.96-1.78-2.1-2.64-3.16-.36.2-.61.33-.81.45,1.31,3.41,2.58,6.72,3.93,10.25ZM14.76,61.73c-.84,1.3-.98,2.74-1.55,3.99,2.38.72,4.48,2,6.65,3.2.16-.32.3-.59.39-.79-.6-1.35-1.21-2.56-2.14-3.64-.97-1.11-2.14-1.88-3.35-2.76ZM112.1,166.38c.46,1.47,1.55,2.26,2.41,3.17,1.15.29,2.26.56,3.44.85.16-1.27-.39-2.37-.99-3.44-.31-.56-.54-1.14-.76-1.74-.23-.62-.54-1.19-.84-1.78-1.14,1.02-2.19,1.97-3.26,2.94ZM20.98,75.39c-.53-.49-1.02-.75-1.43-.94-1.29-.63-2.58-.16-3.8.13-1.35.32-2.66.88-3.91,1.55-.3.16-.64.28-.97.4-1.02.36-1.9,1-3.03,1.74,1.15,0,2.02-.03,2.9,0,.85.03,1.73-.16,2.62.16.25-.25.56-.6.91-.9,1.13-.99,2.48-1.52,3.93-1.79.91-.17,1.84-.23,2.77-.34ZM222.04,123.46c-.08-.02-.17-.03-.25-.05-.32.72-.63,1.43-1.02,2.31,0,.16.13.59-.03.8-.37.51-.18,1.04-.22,1.56-.04.55-.2,1.2.04,1.62.27.49-.04,1.1.46,1.47-.02.91.66,1.51,1.04,2.23.43.79,1.05,1.48,1.75,2.06.31.26.64.49.97.71.14.09.32.13.61.23-1.44-2.61-2.48-5.16-3-7.93-.31-1.66-.4-3.33-.35-5.02ZM24.01,34.75c1.86.25,2.55.49,3.94,1.39.47.31.92.65,1.42,1.01.44-2.45-1.67-5.97-3.42-7.17-.65,1.6-1.29,3.17-1.94,4.76ZM190.72,168.57c.2-1.35.35-2.71.62-4.04.28-1.35.63-2.68.95-4.02.31-1.28.75-2.53,1.05-3.77-1.6.53-2.21,1.98-2.87,3.24-.67,1.29-.99,2.75-.96,4.29.03,1.52.23,2.95.93,4.29h.27ZM30.15,32.65c.09-.03.18-.05.28-.08-.17-.92.43-1.74.23-2.65-.2-.89-.24-1.81-.63-2.65-.37-.78-.78-1.54-1.24-2.43-.9,1.3-1.66,2.51-2.1,3.82,1.17,1.35,2.32,2.67,3.47,3.99ZM27.7,41.26c-1.93-.05-3.7-.45-5.3-1.69-.75,1.52-1.11,3.1-1.69,4.72.45-.13.75-.28,1.04-.28,1.56-.01,2.97-.5,4.29-1.29.6-.36,1.33-.6,1.65-1.47ZM174.53,166.25c1.36-.57,2.61-1.08,3.86-1.6,0-.26.1-.59-.02-.76-.61-.88-.48-1.87-.49-2.83,0-1.38,0-2.75,0-4.13-.06,0-.12-.02-.18-.02-1.05,3.08-2.09,6.16-3.17,9.35ZM237.62,95.03c.04-.05.09-.1.13-.15-.35-1.24-.7-2.47-1.03-3.65-.71-.11-1.31-.19-1.91-.29-.68-.12-1.25.22-1.92.37.2.6.33,1.18.57,1.71.35.77.77,1.51,1.22,2.37.35-.33.65-.61.94-.88h1.64c.08.13.22.33.35.53ZM28.47,38.69c-.44-1.25-1.63-1.31-2.26-2.04-.88,0-1.63-.77-2.69-.43-.23.64-.48,1.37-.72,2.02.36.26.62.54.94.67.8.32,1.56.7,2.46.82.68.09,1.3.34,1.85-.15-.3-.24-.63-.5-1.14-.91h1.55ZM35.06,114.06c-.59,1.44-.56,1.44-.34,2.84.1.63.43,1.08.89,1.39.71.48,1.49.87,2.26,1.26.18.09.44.01.66.01-.22-.99-.41-1.88-.58-2.64-.56-.46-1.02-.85-1.47-1.22.08-.8.36-1.44.97-2.12-.98-.05-1.69.24-2.4.47ZM31.78,67.12c-1.01,1.01-1.63,2.25-1.34,3.08.41,1.18.84,2.41,2.15,3.04.37-.88.72-1.69,1.02-2.4-.32-.36-.62-.7-.88-.99v-1.2c.5-.4.98-.79,1.47-1.19-.13-.13-.22-.22-.34-.34h-2.09ZM241.88,105.63c-.78-1.83-1.51-3.55-2.23-5.25-.82.59-1.72-.04-2.61-.05.84,1.77,1.67,3.53,2.51,5.3h2.34ZM33.34,98.22c-.24-.54.05-1.33-.64-1.55-.03-.78.07-1.48-.26-2.13-.28-.57-.07-1.32-.65-1.82-2.05,2.53-1.65,4.13-.11,5.46.46.17.76.27,1.05.38.24-.13.47-.26.6-.33ZM247.95,121.75c1.45,1.72,3.32,2.18,5.5,1.86.06-.06.18-.18.35-.35-.34-.43-.78-.82-1.01-1.31-.29-.62-.76-.83-1.34-.81-1.06.05-2.12.18-3.17.29-.1.01-.18.17-.32.31ZM16.48,92.46c.52,1.2.59,2.5,1.37,3.56,1.51-1.08,2.78-2.26,3.37-4.05-.81-.11-1.42.55-2.2.5-.83-.05-1.67-.01-2.54-.01ZM37.44,14.22c1.81.27,2.66.02,4.71-.57.75-.22,1.43-.41,1.69-1.29-1.13-.3-2.26-.61-3.28-.88-1.11.97-2.08,1.84-3.12,2.75ZM232.74,74.11c-.2-1.41-.64-2.54-1.11-3.63-1.09-2.52-1.12-2.5-1.96-3.02-.08.56.15,1.16-.17,1.55.13,2.23,1.15,3.84,3.24,5.1ZM251.3,119.87c-.73-.94-1.45-1.88-2.17-2.82-1.07.73-2.12,1.34-2.67,2.49.15.24.34.54.49.77.76-.36,1.51-.14,2.31-.16.7-.02,1.33-.38,2.04-.28ZM45.3,8.25c-1.02.79-2.22,1.3-3.22,2.16,1.06.38,2.09.34,3.11.38,1.02.04,1.88-.36,2.94-.77-1.06-.67-2.18-.88-2.83-1.77ZM133.66,114.83c-.64-1.78-2.96-3.2-4.52-3.09-.75.05-1.51-.08-2.45.13,2.43,1.03,4.67,1.99,6.97,2.96ZM31.67,158.95c.5-.36.92-.66,1.35-.97.46-.33.72-.88,1.31-1.1.43-.16.77-.56,1.33-1-1.88.01-3.37.69-4.95.86-.1.01-.18.17-.27.26v1.1c.41.29.81.56,1.23.85ZM16.03,90.91c.95.21,1.91.46,2.88.23.45-.11.93-.28,1.35-.45.34-.14.58-.4.7-.75-1.95-.02-3.81-.27-5.55-1.23.21.76.4,1.44.61,2.2ZM162.68,23.76h-3.99c.18.86.36,1.68.56,2.61,1.2-.85,2.59-1.29,3.44-2.61ZM167.6,124.21c-.81-.91-1.73-1.48-1.95-2.4-.68.68-1.4,1.4-2.05,2.05,1.18.1,2.48.22,4.01.35ZM18.14,97.45c.29.71.59,1.43.98,2.38.46-1,.82-1.78,1.16-2.53-.15-.29-.28-.53-.38-.74-.56.28-1.11.56-1.76.89ZM217.69,102.47c.6.46.95,1.16,1.7,1.45.21-.78.41-1.5.63-2.31-.89.02-1.64.3-2.33.86ZM39.75,125.23c-.68.82-.37,1.75-.46,2.57.3.53.57,1,.93,1.66.3-1.6-.68-2.84-.48-4.23ZM238.81,98.16c-.1-.59-.16-1.19-.72-1.69-.09.88-.93.97-1.4,1.54.53.21.96.38,1.37.55.25-.13.49-.26.75-.39ZM117.41,114.43c-.67.45-1.31.48-1.98.13-.01.58.45.71.63.95h1.34v-1.09ZM34.97,151.61c1.16.26,2.29.38,3.47-.63-1.31.24-2.39.44-3.47.63ZM247.65,115.04c-.12-.27-.23-.52-.42-.93v.93h.42ZM12.43,73.99c0,.07.02.15.03.22.14-.03.28-.07.41-.1l-.02-.12h-.42ZM13.32,73.69h-.08v.25h.08v-.25ZM70.18,105.91h-.08v.25h.08v-.25Z"/>
      <path class="cls-2" d="M119.71,82.57c-.1-1.42.39-2.67,1.01-3.91.63-1.26,1.19-2.55,1.59-3.91.22-.74.67-1.43,1.13-2.06.94-1.28,2.8-2.64,4.31-3.03,1.39-.35,2.65-.95,3.94-1.54.98-.44,1.97-.86,3.11-.8.21.01.5-.34.78-.21.61.29,1.3.11,1.89.34.91.34,1.85.61,2.71,1.12.83.49,1.81.73,2.73,1.06,1.4.5,2.72,1.1,3.8,2.19,1.07,1.08,1.78,2.4,2.18,3.79.35,1.19.87,2.28,1.42,3.35.83,1.62,1.07,3.32.89,5.07-.08.76-.35,1.56-.76,2.21-.91,1.45-1.44,3.05-1.96,4.64-.22.67-.82,1.09-.89,1.79-.8.78-1.54,1.64-2.5,2.24-.6-.1-.86.53-1.4.61-.45.07-.87.36-1.32.48-.84.22-1.62.57-2.4.95-1.14.54-2.28,1.12-3.61,1.1-2.47-.04-2.57.33-5.09-1.01-1.21-.64-2.52-1.1-3.82-1.48-.87-.26-1.65-.66-2.3-1.17-1.48-1.16-2.66-2.62-3.11-4.52-.19-.78-.5-1.49-.87-2.18-.54-1.01-1.03-2.03-1.31-3.13-.16-.63-.11-1.32-.15-1.98ZM123.32,75.83c0,.99-.31,1.84-.87,2.69-.71,1.09-1.34,2.28-1.18,3.69.03.29.03.59,0,.89-.15,1.49.55,2.7,1.27,3.92.2.33.28.75.52,1.04.46.55.18,1.23.45,1.85.58,1.3,1.39,2.37,2.43,3.3.64.58,2.6,1.53,3.42,1.52.7,0,1.27.31,1.76.65,2.17,1.48,4.37,1.69,6.53,1.08.57-.16,1.15-.44,1.7-.82.61-.42,1.3-.87,2.15-.92.53-.03,1.07-.26,1.56-.49,1.86-.85,2.72-1.52,3.75-3.11.42-.65.74-1.39.84-2.18.1-.76.39-1.36.78-1.96.44-.69.81-1.41,1.04-2.23.25-.91.2-1.8.21-2.7.01-1.19-.42-2.25-1.08-3.23-.4-.59-.85-1.19-.92-1.9-.16-1.69-1.02-3.05-2.15-4.17-1.16-1.16-2.64-1.85-4.31-2.13-.47-.08-1-.18-1.42-.57-.4-.37-.89-.74-1.4-.88-.49-.13-.96-.38-1.53-.33-.55.04-1.11-.19-1.67-.21-.34-.01-.69.23-1.04.22-1.01-.03-1.94.34-2.67.89-.84.63-1.76.91-2.71,1.14-1.53.37-3.42,1.55-4.22,2.81-.44.7-.84,1.43-1.26,2.14Z"/>
      <path class="cls-2" d="M131.27,72.68c1.44-1.37,3.33-2.03,4.28-1.56.23-.08.45-.25.59-.2,1.25.38,2.52.73,3.49,1.72,1.96.12,3.67.82,4.94,2.44-.09.7.87.88.84,1.63-.02.63.2,1.27.34,2.02,2.43,2.19,2.19,6.12-.11,8.02.23,1.9-.68,3.39-2.08,4.61-1.09.94-2.38,1.46-3.86,1.36-2.26,2.21-5.94,2.55-8.41.02-3.01.04-4.77-1.66-5.95-4.31v-1.43c-.98-.72-1.49-1.85-1.72-2.92-.26-1.25-.2-2.62.39-3.85.19-.41.96-1.33,1.33-1.55-.22-1.95.65-3.5,2.16-4.71,1.08-.86,2.34-1.37,3.77-1.29ZM140.15,91.44c2.86-.95,2.99-1.53,3.97-3.18,0-.42-.04-.89.01-1.34.04-.34.21-.67.32-1,.5.04.42-.5.69-.71.59-.45.74-1.14.74-1.83,0-.9-.09-1.79-.13-2.56-.37-.4-.65-.65-.87-.95-.37-.51-.9-.91-.78-1.69.17-1.1-.4-1.92-1.11-2.71-.54-.6-1.23-.89-1.95-1.3h-1.91c-.71-.67-1.29-1.37-2.31-1.6-.59-.14-1.14-.11-1.71-.13-1.01-.04-1.88.3-2.61,1.04-.28.28-.64.49-.96.72h-1.78c-2.68,1.56-3.12,2.53-3.19,5.01-1.18.8-1.68,2.08-1.71,3.41-.04,1.43.57,2.74,1.77,3.65-.2,1.01-.02,2,.51,2.72.89,1.21,2,2.26,3.73,2.35.16-.18.45-.26.77-.04.3.2.59.41.88.63.36.26.68.59,1.07.79.48.25,2.39.46,2.92.24.65-.26,1.42-.33,1.88-.97.22-.3.49-.57.75-.86.35.11.61.2,1.01.33Z"/>
      <path class="cls-1" d="M103.89,1.13c-.34-.04-.68-.12-1.02-.12-1.35-.01-2.71-.01-4.06,0-.3,0-.59.08-.89.12"/>
      <path class="cls-1" d="M253.77,123.03c.31.21,0,.42,0,.63"/>
      <path class="cls-1" d="M189.93,105.02c.13-.04.25-.08.38-.13"/>
      <path class="cls-1" d="M112.77,136.23c-.04.13-.08.25-.13.38"/>
      <path class="cls-1" d="M27.24,38.81c.13.04.25.08.38.13"/>
      <path class="cls-1" d="M24.07,46.67c-.3.04-.41.22-.38.51"/>
      <path class="cls-1" d="M12.14,73.94c.08.17.17.34.25.51"/>
      <path class="cls-1" d="M12.9,73.69c.08.17.17.34.25.51"/>
      <path class="cls-1" d="M65.57,124.3c-.17.04-.34.08-.51.13"/>
      <path class="cls-1" d="M70.01,105.66c.17.08.34.17.51.25"/>
    </g>
  </g>
</svg>