<?xml version="1.0" encoding="UTF-8"?>
<svg id="Layer_2" data-name="Layer 2" xmlns="http://www.w3.org/2000/svg" viewBox="0 0 260.76 255.78">
  <defs>
    <style>
      .cls-1 {
        fill: #63b0e1;
        stroke-width: 0px;
      }
    </style>
  </defs>
  <g id="Layer_1-2" data-name="Layer 1">
    <g>
      <path class="cls-1" d="M116.44,16.72c4.16-5.93,8.79-11.58,13.94-16.72,4.84,4.81,9.18,10.1,13.17,15.61,5.16,7.16,8.86,15.35,10.64,23.94.69,3.96-.58,7.99-2.79,11.29,1.62,1.36,3.71,2.25,5.87,2.09,2.35-.13,4.34-1.53,6.03-3.03.13,2.2.51,4.57,2.06,6.27,1.41,1.64,3.54,2.51,5.7,2.64.81-3.96,2.94-7.77,6.4-10.08,7.25-4.61,15.44-7.79,23.95-9.27,6.98-1.2,14.06-1.96,21.15-2-.35,13.19-1.86,26.84-8.23,38.69-1.76,3.17-3.39,6.63-6.46,8.81-2.08,1.59-4.61,2.44-7.13,3.08.26,1.97.97,3.95,2.5,5.31,1.75,1.68,4.29,2.11,6.64,2.23-1.52,1.65-2.96,3.61-3.08,5.92-.18,2.12.74,4.18,2.14,5.75,3.5-2.27,7.85-3.5,12.03-2.64,7.46,1.61,14.66,4.46,21.09,8.52,6.71,4.29,12.99,9.26,18.72,14.75-3.85,3.79-8.1,7.16-12.4,10.42-6.37,4.78-13.41,8.82-21.1,11.16-3.39.97-6.86,2.25-10.46,1.89-2.83-.24-5.49-1.37-7.87-2.85-1.39,1.59-2.31,3.65-2.13,5.78.13,2.3,1.56,4.24,3.08,5.89-2.35.12-4.91.55-6.66,2.25-1.53,1.36-2.24,3.34-2.48,5.31,4.04.88,7.98,2.9,10.34,6.34,4.32,6.58,7.45,13.92,9.05,21.6,1.51,7.45,2.37,15.05,2.41,22.64-5.53-.01-11.04-.57-16.52-1.28-7.95-1.05-15.81-3.12-22.92-6.81-3.05-1.64-6.35-3.13-8.57-5.84-1.84-2.13-2.84-4.8-3.52-7.48-2,.23-4.02.93-5.41,2.42-1.73,1.71-2.18,4.22-2.3,6.54-1.68-1.49-3.66-2.88-5.99-3.02-2.18-.19-4.29.71-5.91,2.09,2.31,3.43,3.57,7.69,2.7,11.78-1.6,7.09-4.36,13.95-8.31,20.11-4.43,6.82-9.66,13.16-15.41,18.95-3.74-3.64-7.06-7.67-10.29-11.73-5.02-6.37-9.27-13.42-11.71-21.14-.99-3.34-2.3-6.74-1.92-10.27.24-2.77,1.38-5.38,2.9-7.69-1.61-1.38-3.71-2.28-5.89-2.1-2.34.13-4.33,1.54-6.01,3.03-.13-2.09-.45-4.31-1.82-5.99-1.41-1.8-3.67-2.83-5.97-2.9-.77,3.96-2.93,7.74-6.36,10.05-7.27,4.62-15.46,7.8-24,9.28-6.96,1.21-14.03,1.94-21.1,2,.33-13.2,1.86-26.87,8.23-38.71,1.8-3.27,3.51-6.84,6.74-9,1.99-1.51,4.45-2.15,6.79-2.92-.14-2.19-1.17-4.33-2.95-5.69-1.72-1.36-4-1.69-6.14-1.81,1.51-1.65,2.94-3.59,3.08-5.89.18-2.13-.73-4.19-2.13-5.78-3.51,2.26-7.86,3.5-12.04,2.64-7.9-1.7-15.5-4.82-22.22-9.24-6.26-4.15-12.18-8.83-17.57-14.02,4.99-4.83,10.48-9.17,16.22-13.12,7.23-4.96,15.48-8.51,24.14-10.24,4.02-.67,8.12.57,11.48,2.74,1.4-1.58,2.31-3.63,2.14-5.75-.13-2.31-1.56-4.27-3.08-5.93,2.02-.12,4.15-.41,5.85-1.59,1.97-1.38,3.17-3.69,3.19-6.06-4.05-.74-7.9-2.88-10.25-6.25-4.7-7.12-7.94-15.17-9.45-23.53-1.23-6.83-1.98-13.76-2.03-20.7,13.46.33,27.4,1.83,39.48,8.09,3.43,1.8,7.15,3.55,9.34,6.86,1.36,1.91,2.16,4.14,2.68,6.4,2.15-.13,4.29-1,5.69-2.64,1.56-1.71,1.94-4.08,2.06-6.28,1.68,1.49,3.68,2.9,6.03,3.03,2.16.17,4.25-.72,5.87-2.09-2.3-3.43-3.57-7.69-2.7-11.78,1.77-7.98,5.09-15.61,9.79-22.35h0ZM117.26,18.94c-3.57,5.22-6.53,10.91-8.14,17.01-.9,4.04-.91,8.78,1.71,12.23,2.18,2.59,5.89,1.75,8.87,1.78-1.56-4.06-.57-8.54,1.36-12.3,1.87-3.98,4.08-7.8,6.27-11.61.89-1.26,1.76-2.64,3.04-3.53,1.31.87,2.16,2.28,3.06,3.53,2.57,4.54,5.25,9.04,7.25,13.87,1.31,3.17,1.57,6.79.37,10.04,2.07-.03,4.18.33,6.22-.14,1.92-.46,3.31-2.08,3.95-3.85,1.49-4.02,1.1-8.49-.3-12.48-1.79-5.27-4.44-10.25-7.64-14.83-3.96-5.59-7.97-11.19-12.91-15.99-5.03,4.88-9.1,10.6-13.12,16.28h0ZM120.95,43.68c-.56,2.33-.25,5,1.45,6.82,1.85,1.96,4.25,3.65,7.01,4.03,3.48.44,6.69-1.62,8.95-4.03,1.71-1.83,2.02-4.5,1.46-6.83-1.54-6.89-5.13-13.17-9.43-18.77-4.3,5.6-7.89,11.88-9.43,18.77h0ZM40.11,39.34c-.05,5.58.76,11.12,1.73,16.6,1.2,7.57,3.27,15.14,7.29,21.76,2.24,3.38,5.51,6.56,9.67,7.36,3.53.52,5.67-2.74,7.83-4.87-1.78-.9-3.44-2.06-4.67-3.62-2.58-3.22-3.65-7.26-4.94-11.07-1.08-3.89-2.7-7.72-2.74-11.81.12-.11.34-.33.46-.44,3.51,0,6.81,1.21,10.14,2.13,3.61,1.08,7.29,2.11,10.67,3.79,2.7,1.33,4.87,3.55,6.22,6.19,2.15-2.13,5.48-4.21,4.95-7.67-.85-4.21-4.24-7.49-7.84-9.69-6.14-3.47-13.02-5.48-19.98-6.62-6.21-1.07-12.46-2.07-18.78-2.02h0ZM202.41,41.27c-7.15,1.13-14.25,3.16-20.55,6.72-3.58,2.21-6.98,5.48-7.82,9.69-.53,3.46,2.78,5.57,4.97,7.67,1-1.95,2.39-3.73,4.23-4.98,3.32-2.31,7.33-3.33,11.15-4.56,3.83-1.02,7.6-2.54,11.62-2.57.12.11.35.32.47.43-.1,4.56-1.95,8.82-3.17,13.17-1.61,5.16-3.75,10.97-9.18,13.34,2.16,2.14,4.29,5.39,7.82,4.87,4.29-.82,7.62-4.14,9.87-7.65,3.56-6.04,5.61-12.82,6.79-19.67,1.09-6.08,2.1-12.21,2.04-18.4-6.13-.05-12.21.88-18.23,1.92h0ZM101.69,59.98c-3.32.12-6.61.87-9.64,2.19-3.14,1.38-5.79,3.87-7.13,7-1.46,3.24-2.26,7.13-.62,10.46,2.26,4.37,5.89,8.35,10.76,9.92,4.57,1.85,10.01-1.07,11.85-5.35,1.98-4.55-2.54-10.53-7.6-9.55-1.23.17-1.58,1.46-2.01,2.4.99-.38,2.09-.97,3.16-.53,2.14.76,1.97,4.38-.28,4.87-2.75.92-5.81-2.06-4.8-4.77.45-3.28,4.53-4.59,7.4-3.61,5.16,1.78,8.59,8.02,6.49,13.15-.86,2.2-2.87,3.59-4.77,4.86,4.53,4.23,5.11,10.71,5.11,16.48-5.89,0-12.5-.57-16.8-5.02-1.34,1.97-2.88,4.02-5.28,4.81-4.85,1.69-10.47-1.14-12.69-5.52-1.18-2.31-.91-5.46,1.09-7.26,1.18-.92,2.79-1.23,4.27-1.05,1.95.59,3.5,2.75,2.81,4.77-.47,2.22-4.18,2.42-4.96.32-.47-1.06.14-2.14.53-3.12-.7.33-1.51.53-2.05,1.12-.63.9-.57,2.09-.39,3.13.96,3.96,5.78,6.8,9.74,5.19,3.65-1.52,6.27-5.4,6.02-9.32-.54-3.62-2.62-6.92-5.39-9.33-2.79-2.32-6.1-4.69-9.96-4.42-4.58.34-9.27,2.4-11.85,6.26-2.29,3.44-3.3,7.6-3.51,11.68-2.78,3.07-5.12,6.71-5.97,10.78-.89,4.2.71,8.54,3.27,11.89,1.63,2.15,4.17,3.49,6.84,3.95,4.92,1.15,10.53.71,14.65-2.39,2.91-2.62,3.85-7.14,2.34-10.7-1.87-4.51-9.2-5.65-12.14-1.59-.87.94-.24,2.2.15,3.19.53-.96.88-2.23,2.07-2.59,1.61-.59,3.28.87,3.5,2.4-.05,1.98-2.09,3.42-4.02,3.21-1.98.07-3.29-1.73-3.87-3.37-.7-2.65,1.24-5.37,3.66-6.42,4.86-2.01,11.45-.07,13.67,4.81,1.03,2.18.65,4.63.19,6.9,6.27-.16,11.33,4.02,15.51,8.11-4.18,4.09-9.24,8.27-15.51,8.11.46,2.26.85,4.71-.18,6.89-2.25,4.96-9.04,6.91-13.91,4.7-1.98-.96-3.48-2.96-3.58-5.14,0-1.6.98-3.06,2.21-4.05,1.81-1,4.55-.52,5.5,1.42,1.18,1.85-1.11,4.43-3.14,3.69-1.2-.35-1.56-1.63-2.08-2.6-.3.92-.99,2.01-.33,2.94,2.48,3.9,8.95,3.46,11.57-.06,2.53-3.63,1.63-9.04-1.6-11.98-3.75-2.81-8.79-3.48-13.34-2.64-2.79.39-5.64,1.34-7.54,3.49-3.08,3.53-4.92,8.42-3.78,13.06.94,3.89,3.2,7.36,5.87,10.33.11,3.23.89,6.45,2.21,9.41,1.46,3.21,4.16,5.88,7.52,7.17,3.34,1.4,7.37,2.03,10.7.26,3.68-1.97,7.1-4.76,8.93-8.52.94-1.96,1.72-4.15,1.21-6.34-.71-3.07-2.88-5.9-5.88-7.12-4.63-1.94-10.71,2.46-9.75,7.42.16,1.2,1.44,1.62,2.44,1.94-.46-1.01-1.05-2.24-.39-3.3.72-1.38,2.63-1.46,3.9-.81,1.64,1.29,1.33,3.94-.23,5.19-1.53,1.63-4.22,1.1-5.87-.06-2.12-1.86-2.32-5.22-.97-7.58,2.31-4.23,7.82-6.91,12.58-5.22,2.37.79,3.9,2.84,5.23,4.79,4.31-4.45,10.92-5.02,16.81-5.01-.02,5.77-.58,12.25-5.12,16.47,1.89,1.27,3.9,2.65,4.77,4.84,2.12,5.12-1.29,11.36-6.45,13.16-2.43.76-5.68.15-6.96-2.21-.59-1.39-1.06-3.22-.01-4.51.93-1.33,2.68-2.21,4.32-1.66,2.26.47,2.46,4.08.34,4.87-1.09.45-2.19-.14-3.19-.51.42.94.79,2.22,2.02,2.39,5.06.97,9.57-5.01,7.59-9.55-1.56-3.58-5.54-6.17-9.53-5.91-4.01.6-7.6,2.95-10.12,6.03-2.1,2.56-4.13,5.59-3.86,9.03.34,4.59,2.55,9.28,6.63,11.79,3.47,2.13,7.6,3.08,11.66,3.28,4.48,3.89,10.53,7.23,16.69,5.72,4.04-1.12,8.25-3.42,9.79-7.48,1.6-4.72,1.89-10.16-.51-14.68-1.97-4.39-7.88-6.05-12.2-4.27-4.58,1.85-5.73,9.03-1.6,11.9.97.85,2.24.22,3.26-.16-.99-.51-2.29-.87-2.66-2.04-.74-1.99,1.87-4.24,3.75-3.09,1.37.64,2.08,2.16,1.97,3.61.06,2.04-1.95,3.41-3.76,3.89-2.89.47-5.67-1.75-6.5-4.38-1.52-4.57.34-10.37,4.88-12.56,2.28-1.17,4.92-.81,7.33-.32-.16-6.15,4.1-11.11,8.27-15.21,4.17,4.1,8.43,9.06,8.27,15.21,2.63-.57,5.58-.84,7.97.66,3.94,2.35,5.55,7.47,4.39,11.74-.6,2.44-2.69,4.51-5.25,4.91-1.82.26-3.58-.8-4.68-2.14-1.01-1.8-.51-4.47,1.49-5.39,1.89-1.14,4.51,1.13,3.74,3.12-.38,1.16-1.67,1.51-2.67,2.01,1.02.36,2.29,1.02,3.27.17,4.15-2.87,3-10.07-1.59-11.92-3.63-1.48-8.24-.57-10.91,2.29-2.83,3.61-3.55,8.48-2.74,12.89.39,2.79,1.34,5.67,3.58,7.58,3.59,3.03,8.58,4.84,13.31,3.72,3.96-.92,7.51-3.12,10.52-5.76,5.9-.31,12.51-2.17,15.8-7.38,2.14-3.63,3.49-8.3,1.58-12.3-2.26-4.36-5.89-8.33-10.74-9.89-4.57-1.86-10.01,1.06-11.85,5.34-1.98,4.54,2.52,10.51,7.58,9.56,1.24-.16,1.6-1.45,2.04-2.4-1.07.42-2.34,1.05-3.45.39-1.39-.71-1.48-2.57-.82-3.8,1.22-1.54,3.78-1.38,5.08,0,1.96,1.54,1.41,4.58-.08,6.23-1.97,1.81-5.15,1.96-7.46.7-4.32-2.26-7.06-7.67-5.35-12.33.8-2.34,2.89-3.84,4.89-5.15-4.53-4.23-5.11-10.7-5.11-16.48,5.89,0,12.5.57,16.8,5.02,1.34-1.97,2.87-4.01,5.26-4.8,4.85-1.71,10.49,1.12,12.71,5.51,1.14,2.23.92,5.18-.84,7.04-1.18,1.1-2.94,1.44-4.5,1.27-1.95-.6-3.51-2.77-2.81-4.78.46-2.11,3.87-2.4,4.84-.54.64,1.06.05,2.28-.4,3.3.99-.35,2.27-.74,2.44-1.93.91-4.6-4.29-8.79-8.75-7.74-4.19,1.1-7.28,5.42-7,9.65.55,3.59,2.61,6.87,5.35,9.27,2.8,2.33,6.11,4.71,9.99,4.45,4.68-.34,9.47-2.51,12.02-6.5,2.17-3.41,3.14-7.47,3.35-11.45,3.98-4.39,7.37-10.34,5.82-16.39-1.16-4.04-3.62-8.27-7.91-9.68-4.1-1.23-8.63-1.65-12.73-.21-2,.73-4.08,1.69-5.26,3.52-1.87,2.78-2.38,6.54-.88,9.58,2.08,4.25,9.12,5.2,11.98,1.26.83-.92.32-2.19-.22-3.11-.48.96-.86,2.19-2.03,2.51-2.03.72-4.3-1.85-3.13-3.69.95-1.95,3.7-2.44,5.52-1.43.94.74,1.67,1.76,2.04,2.89.68,2.65-1.26,5.36-3.68,6.41-4.86,2-11.43.07-13.65-4.81-1.04-2.18-.65-4.64-.19-6.9-6.27.16-11.33-4.02-15.51-8.11,4.18-4.09,9.24-8.27,15.51-8.11-.46-2.26-.85-4.72.18-6.89,2.31-5.07,9.37-7.02,14.26-4.52,2.77,1.42,4.41,5.36,2.14,7.89-1.39,2.34-5.43,2.11-6.61-.31-1.18-1.85,1.14-4.44,3.17-3.68,1.18.36,1.53,1.63,2.06,2.59.29-.93.99-2.02.32-2.95-2.55-3.99-9.29-3.41-11.77.37-2.26,3.63-1.35,8.79,1.79,11.66,3.75,2.83,8.82,3.5,13.38,2.66,2.77-.4,5.61-1.34,7.51-3.48,3.09-3.52,4.93-8.42,3.79-13.06-.94-3.89-3.19-7.37-5.87-10.32-.13-3.24-.89-6.46-2.22-9.42-1.41-3.09-3.96-5.7-7.16-7.02-3.31-1.43-7.28-2.21-10.68-.6-4.45,2.23-8.51,5.79-10.1,10.57-1.88,4.48,1.1,9.8,5.46,11.6,4.64,1.94,10.74-2.51,9.72-7.48-.19-1.19-1.49-1.54-2.44-1.96.43,1.04,1.06,2.26.41,3.35-.71,1.39-2.63,1.48-3.9.84-1.56-1.2-1.4-3.71,0-4.97,1.65-2,4.99-1.38,6.6.34,1.6,1.97,1.7,4.88.47,7.06-2.31,4.23-7.82,6.92-12.57,5.24-2.39-.78-3.92-2.83-5.25-4.79-4.32,4.44-10.92,5.01-16.81,5.01,0-5.78.58-12.26,5.11-16.48-1.9-1.27-3.92-2.66-4.77-4.87-2.02-4.92,1.07-10.84,5.87-12.91,2.12-.9,4.76-.67,6.58.77,1.32,1.12,1.72,3.01,1.53,4.65-.62,1.91-2.82,3.43-4.88,2.74-2.26-.48-2.44-4.12-.29-4.87,1.07-.44,2.17.15,3.16.53-.34-.7-.56-1.49-1.15-2.03-.92-.61-2.13-.55-3.18-.38-4.05.94-6.94,5.68-5.28,9.57,1.56,3.56,5.52,6.14,9.51,5.89,4.01-.59,7.61-2.94,10.12-6.01,2.1-2.57,4.14-5.59,3.88-9.04-.34-4.6-2.56-9.31-6.66-11.81-3.47-2.12-7.59-3.07-11.63-3.27-2.67-2.35-5.77-4.29-9.18-5.41-3.32-1.09-7.05-.85-10.21.63-3.02,1.28-5.93,3.39-7.08,6.53-1.62,4.73-1.89,10.18.51,14.71,1.97,4.37,7.88,6.03,12.2,4.25,4.59-1.85,5.73-9.03,1.59-11.9-.94-.83-2.19-.24-3.19.12.93.58,2.21.92,2.58,2.06.61,1.59-.89,3.25-2.46,3.43-2.02-.05-3.48-2.06-3.25-3.95-.05-2.04,1.95-3.38,3.75-3.85,2.9-.47,5.68,1.74,6.52,4.38,1.51,4.55-.34,10.32-4.84,12.54-2.29,1.18-4.95.83-7.38.34.16,6.15-4.1,11.11-8.27,15.21-4.17-4.1-8.43-9.06-8.27-15.21-2.41.49-5.06.85-7.34-.32-4.53-2.19-6.39-7.98-4.88-12.54.82-2.64,3.59-4.85,6.49-4.4,1.82.47,3.85,1.83,3.78,3.89.11,1.44-.59,2.95-1.95,3.59-1.88,1.15-4.49-1.07-3.78-3.06.33-1.17,1.61-1.54,2.59-2.01-.97-.5-2.24-1.04-3.19-.21-4.13,2.89-2.97,10.08,1.64,11.91,3.63,1.47,8.22.55,10.9-2.3,2.82-3.61,3.53-8.46,2.73-12.86-.4-2.8-1.34-5.69-3.58-7.6-3.59-3.03-8.58-4.83-13.31-3.72-3.96.92-7.51,3.12-10.52,5.76h0ZM56.13,55.06c1.01,6.97,3.01,13.95,6.93,19.91,1.32,2.02,3.47,3.68,6.01,3.75,3.41.13,7.3-.76,9.35-3.68,1.61-2.39,2.1-5.43,1.71-8.24-.54-3.06-3.38-4.93-5.97-6.27-5.56-2.98-11.78-4.6-18.02-5.47h0ZM184.34,61.86c-2.05,1.29-3.75,3.39-3.82,5.87-.13,3.35.77,7.16,3.75,9.18,2.43,1.58,5.54,2.06,8.4,1.68,3.25-.56,5.16-3.52,6.56-6.17,2.93-5.38,4.54-11.36,5.41-17.37-7.11.99-14.22,2.95-20.3,6.81h0ZM124.84,85.5c.23,4.06,2.7,7.65,5.54,10.47,2.83-2.82,5.29-6.4,5.54-10.46-.18-3.89-3.53-6.5-5.54-9.58-2,3.07-5.35,5.68-5.54,9.57ZM92.92,91.15c.81,3.61.27,7.93,3.15,10.76,3.1,2.6,7.34,3.38,11.31,3.44-.06-3.9-.85-8.08-3.52-11.11-2.88-2.81-7.28-2.27-10.95-3.08h0ZM156.89,94.22c-2.67,3.03-3.47,7.22-3.52,11.12,3.98-.06,8.27-.84,11.35-3.49,2.82-2.84,2.29-7.11,3.11-10.71-3.68.79-8.06.27-10.95,3.07h0ZM34.44,107.64c-5.51,1.76-10.69,4.41-15.46,7.61-5.68,3.87-11.38,7.8-16.26,12.64,4.89,4.85,10.61,8.78,16.3,12.66,5.24,3.5,10.97,6.39,17.1,8.06,4.2,1.01,9.08,1.09,12.79-1.37,2.87-2.07,2.03-5.88,2.03-8.88-4.38,1.63-9.16.4-13.17-1.62-3.83-1.78-7.52-3.83-11.22-5.86-1.27-.88-2.71-1.73-3.59-3,.91-1.25,2.31-2.11,3.59-2.98,4.52-2.48,9.02-5.03,13.82-6.99,3.32-1.37,7.14-1.72,10.57-.5-.04-2.12.39-4.31-.23-6.38-.56-1.77-2.16-3.01-3.89-3.61-3.98-1.41-8.41-1.09-12.37.21h0ZM211.87,108.54c-2.87,2.06-2.04,5.88-2.04,8.88,2.37-.79,4.94-1.01,7.38-.46,4.37,1.02,8.27,3.31,12.22,5.33,2.9,1.67,6.24,2.97,8.38,5.6-.9,1.26-2.32,2.11-3.59,2.98-4.62,2.53-9.22,5.15-14.12,7.11-3.25,1.29-6.94,1.56-10.27.38,0,3-.83,6.83,2.05,8.89,3.7,2.45,8.57,2.37,12.76,1.37,6.78-1.85,13.06-5.18,18.75-9.19,5.14-3.52,10.23-7.17,14.66-11.54-4.9-4.84-10.6-8.77-16.29-12.65-5.25-3.51-11-6.41-17.14-8.08-4.19-1.01-9.06-1.08-12.75,1.38h0ZM25.38,127.89c5.43,4.03,11.5,7.39,18.15,9.03,2.45.66,5.31.78,7.43-.81,2.2-1.73,3.98-4.15,4.57-6.89.65-3.54-1.51-6.88-4.06-9.17-1.86-1.67-4.56-1.97-6.94-1.42-7.03,1.51-13.44,5.03-19.15,9.25h0ZM209.03,120.28c-2.32,2.21-4.31,5.26-3.87,8.56.39,2.71,2.11,5.08,4.13,6.9,1.85,1.65,4.55,1.95,6.91,1.41,7.04-1.51,13.46-5.03,19.16-9.26-5.79-4.28-12.31-7.86-19.47-9.31-2.4-.52-5.09-.03-6.87,1.7h0ZM77.41,127.89c3.13,1.96,5.8,5.26,9.77,5.43,4.13-.24,7.78-2.65,10.66-5.43-2.88-2.78-6.54-5.21-10.69-5.43-3.96.19-6.61,3.47-9.75,5.43ZM162.92,127.89c2.77,2.7,6.25,4.97,10.2,5.42,4.18.13,6.99-3.39,10.23-5.42-3.13-1.96-5.8-5.25-9.76-5.43-4.14.23-7.79,2.65-10.67,5.43ZM96.06,153.89c-2.86,2.83-2.33,7.13-3.14,10.75,3.67-.8,8.04-.28,10.93-3.06,2.69-3.04,3.48-7.22,3.54-11.12-3.98.04-8.24.83-11.33,3.44h0ZM153.37,150.45c.05,3.89.84,8.07,3.51,11.1,2.88,2.82,7.28,2.29,10.96,3.08-.81-3.6-.28-7.89-3.12-10.72-3.09-2.63-7.37-3.41-11.35-3.47h0ZM124.84,170.27c.18,3.89,3.53,6.5,5.54,9.58,2.01-3.08,5.37-5.69,5.54-9.59-.25-4.05-2.71-7.63-5.54-10.45-2.83,2.82-5.29,6.41-5.54,10.46ZM48.93,178.39c-3.54,6.02-5.6,12.79-6.77,19.63-1.09,6.09-2.1,12.22-2.05,18.42,5.69.04,11.34-.75,16.94-1.7,7.7-1.17,15.41-3.2,22.15-7.14,3.45-2.2,6.71-5.41,7.51-9.5.52-3.46-2.79-5.56-4.97-7.67-.97,1.85-2.26,3.57-3.98,4.81-3.35,2.43-7.47,3.47-11.37,4.73-3.84,1.02-7.62,2.54-11.65,2.57-.12-.11-.35-.33-.47-.44.02-3.86,1.51-7.47,2.53-11.15,1.23-3.74,2.28-7.63,4.52-10.93,1.31-1.93,3.19-3.39,5.29-4.43-2.16-2.13-4.28-5.38-7.8-4.87-4.3.81-7.65,4.15-9.9,7.67h0ZM194.13,175.59c3.05,1.42,5.43,3.99,6.78,7.01,2.04,4.52,3.32,9.33,4.74,14.07.54,1.75.75,3.58.83,5.41-.11.11-.33.34-.45.46-1.87-.08-3.75-.28-5.54-.82-4.71-1.35-9.46-2.58-13.98-4.48-3.22-1.33-6-3.7-7.51-6.81-2.17,2.11-5.49,4.2-4.97,7.66.83,4.21,4.22,7.49,7.8,9.69,5.67,3.22,12.01,5.19,18.43,6.37,6.74,1.18,13.51,2.35,20.38,2.3.06-6.74-1.14-13.39-2.34-20-1.2-6.29-3.21-12.5-6.48-18.06-2.24-3.51-5.57-6.83-9.85-7.66-3.54-.54-5.69,2.73-7.85,4.87h0ZM61.55,183.32c-2.95,5.39-4.56,11.38-5.42,17.41,7.11-.99,14.23-2.95,20.3-6.81,2.05-1.29,3.74-3.39,3.81-5.86.13-3.35-.77-7.17-3.74-9.18-2.44-1.59-5.55-2.07-8.42-1.69-3.23.56-5.13,3.49-6.53,6.13h0ZM183.72,179.28c-2.56,2.1-3.3,5.6-3.21,8.72.05,2.51,1.76,4.63,3.83,5.93,6.08,3.84,13.18,5.81,20.29,6.8-.98-6.81-2.92-13.59-6.64-19.48-1.28-2.04-3.27-3.9-5.8-4.14-2.93-.22-6.14.3-8.47,2.17h0ZM129.02,201.3c-2.6.51-4.88,2.1-6.64,4-1.69,1.83-1.99,4.48-1.43,6.81,1.54,6.89,5.13,13.17,9.43,18.76,4.3-5.6,7.89-11.88,9.43-18.77.56-2.34.25-5.01-1.46-6.83-2.34-2.5-5.74-4.61-9.33-3.97h0ZM110.64,207.84c-2.48,3.62-2.42,8.39-1.39,12.49,1.88,6.66,5.29,12.82,9.37,18.41,3.59,5.04,7.3,10.04,11.76,14.38,4.94-4.81,8.95-10.41,12.91-15.99,3.57-5.15,6.52-10.77,8.22-16.79,1.03-4.11,1.11-8.91-1.41-12.53-2.11-2.81-6-1.99-9.05-1.99.9,2.54,1.03,5.32.31,7.92-1.19,4.12-3.42,7.86-5.45,11.62-1.63,2.75-2.94,5.88-5.53,7.9-1.31-.88-2.16-2.28-3.06-3.53-2.57-4.53-5.24-9.02-7.23-13.83-1.32-3.19-1.6-6.82-.4-10.08-3.06,0-6.97-.81-9.06,2.01h0Z"/>
      <path class="cls-1" d="M127.65,103.38c3.44-.78,7.05.07,10.05,1.8,2.66,1.54,5.89,1.8,8.47,3.51,2.61,1.64,4.5,4.25,5.41,7.15.56,1.89,1.28,3.75,2.28,5.47,1.43,2.52,2.11,5.48,1.67,8.35-.43,3.61-3.04,6.45-3.85,9.96-1.2,4.4-4.86,7.99-9.34,9.16-3.55.78-6.42,3.32-10.07,3.76-3.19.5-6.43-.37-9.18-1.94-2.58-1.5-5.69-1.78-8.22-3.36-1.8-1.09-3.32-2.62-4.38-4.41-1.43-2.33-1.73-5.12-3.1-7.47-1.31-2.28-2.33-4.81-2.27-7.47-.06-2.67.97-5.21,2.29-7.5,1.5-2.64,1.77-5.81,3.61-8.28,1.88-2.77,4.96-4.53,8.19-5.36,2.97-.76,5.42-2.79,8.45-3.37h0ZM126.86,105.44c-2.53.39-4.11,2.85-6.7,2.9-4.19.77-7.72,3.97-9.24,7.81-.68,1.44-.3,3.24-1.47,4.46-3.31,4.24-3.2,10.7.21,14.84.83.95.6,2.29,1.01,3.41,1.19,3.91,4.53,7.18,8.51,8.35,1.16.39,2.56.18,3.53,1.02,4.23,3.32,10.78,3.4,15.08.17,1.36-1.22,3.37-.77,4.93-1.59,4.04-1.69,7.28-5.49,7.75-9.85.07-1.26,1.2-2.06,1.73-3.13,2.03-3.61,2.03-8.29,0-11.9-.53-1.07-1.65-1.86-1.73-3.11-.6-5.39-5.35-10.06-10.85-10.66-1.07-.03-1.79-.87-2.65-1.37-2.95-1.91-6.76-2.18-10.13-1.37h0Z"/>
      <path class="cls-1" d="M123.56,112c1.77-1.54,3.91-2.9,6.39-2.84,2.74-.25,5.29,1.02,7.22,2.84,5.1-.3,9.72,4.25,9.42,9.25,1.74,1.78,3.05,4.1,2.91,6.65.15,2.56-1.19,4.85-2.91,6.66.3,5.02-4.4,9.6-9.53,9.21-3.35,3.87-10.07,3.8-13.43-.03-5.13.42-9.84-4.27-9.43-9.28-3.92-3.27-3.92-9.86,0-13.12-.4-5.02,4.26-9.61,9.36-9.33h0ZM124.47,113.83c-4.71-.9-9.34,3.64-8.42,8.25-3.96,2.61-3.95,9,0,11.61-.92,4.62,3.71,9.16,8.42,8.25,2.66,3.88,9.17,3.88,11.83,0,4.7.9,9.33-3.64,8.41-8.25,3.96-2.61,3.96-9,0-11.61.92-4.62-3.72-9.16-8.42-8.25-2.66-3.88-9.17-3.88-11.83,0h0Z"/>
    </g>
  </g>
</svg>