<?xml version="1.0" encoding="UTF-8"?>
<svg id="Layer_2" data-name="Layer 2" xmlns="http://www.w3.org/2000/svg" viewBox="0 0 532.22 522.01">
  <defs>
    <style>
      .cls-1 {
        fill: #de0a84;
        stroke-width: 0px;
      }
    </style>
  </defs>
  <g id="Layer_1-2" data-name="Layer 1">
    <path class="cls-1" d="M264.17,1.19c.77-1.14,2.46-1.76,3.43-.47,6.09,6.78,12.36,13.41,18.63,20.04,2.88,3.14,5.95,6.13,8.62,9.45,9.13-7.71,18.26-15.42,27.7-22.75,1.08-.95,2.04.35,2.46,1.25,5.35,10.11,10.86,20.14,16,30.36,7.81-3.44,15.53-7.07,23.34-10.47,2.77,7.9,5.85,15.68,8.79,23.53,11.09-3.68,22.3-7,33.47-10.44.98-.44,2.5-.3,2.42,1.1,1.34,11.66,2.28,23.36,3.13,35.07,12.91-.98,25.89-.92,38.81-1.88,1.24.01,3.08-.47,3.7.95.23,1.19.06,2.42,0,3.62-.93,12.38-.9,24.82-1.85,37.2,12.04.83,24.09,1.74,36.08,3.12,1.22.1,1.11,1.46.79,2.29-3.49,10.98-6.94,21.97-10.63,32.89,8.03,2.86,16.01,5.83,24.05,8.67-3.7,7.55-7.19,15.19-10.76,22.81,9.49,4.58,18.81,9.49,28.2,14.28,1.45.88,3.32,1.32,4.36,2.71.03,1.2-1.12,1.98-1.76,2.9-7.06,8.61-14.4,17.01-21.76,25.38,2.97,2.27,5.64,4.88,8.43,7.36,7,6.3,13.89,12.74,21.09,18.83.98.71,1.94,2.16.79,3.17-3.17,3.01-6.65,5.7-9.82,8.7-6.86,6.05-13.41,12.46-20.49,18.28,7.85,8.94,15.69,17.89,23.17,27.13,1.01,1.07-.31,2.04-1.25,2.46-10.31,5.25-20.53,10.65-30.95,15.69,3.57,7.62,7.08,15.26,10.76,22.82-8.05,2.82-16.06,5.76-24.07,8.7,3.76,10.88,7.14,21.89,10.65,32.85.44.96.27,2.41-1.12,2.34-11.88,1.31-23.82,2.26-35.75,3.06.93,12.36.91,24.78,1.84,37.15.05,1.23.23,2.48-.01,3.7-.64,1.38-2.44.92-3.66.93-12.93-.97-25.92-.91-38.85-1.88-.88,11.87-1.76,23.75-3.23,35.56-.26,1.24-1.74.77-2.6.53-11.07-3.43-22.19-6.7-33.18-10.36-2.98,7.86-5.99,15.7-8.86,23.6-7.72-3.6-15.51-7.05-23.27-10.55-4.68,9.32-9.68,18.47-14.57,27.68-.7,1.26-1.27,2.61-2.15,3.77-.37.66-1.25.58-1.76.16-9.43-7.34-18.57-15.04-27.68-22.74-2.36,2.97-5.08,5.64-7.65,8.43-6.31,6.74-12.75,13.37-18.84,20.3-.64.62-1.26,1.49-2.24,1.54-.98-.07-1.59-.93-2.22-1.55-6.07-6.91-12.49-13.51-18.77-20.23-2.59-2.82-5.33-5.5-7.71-8.49-9.12,7.7-18.25,15.41-27.69,22.75-1.1.96-2.06-.36-2.48-1.27-5.35-10.11-10.86-20.13-15.99-30.35-7.76,3.5-15.55,6.94-23.26,10.56-2.91-7.89-5.88-15.76-8.88-23.61-11.09,3.7-22.3,7-33.47,10.45-1,.44-2.5.27-2.4-1.12-1.31-11.64-2.32-23.32-3.09-35.01-12.48.86-25,.88-37.47,1.75-1.39.05-2.8.27-4.18.02-1.45-.62-.94-2.43-.96-3.65.98-12.66.93-25.39,1.91-38.05-11.93-.81-23.86-1.75-35.75-3.06-.66-.03-1.5-.45-1.35-1.22.21-1.55.85-3.01,1.29-4.5,3.15-9.84,6.19-19.71,9.58-29.47-8.01-2.93-16.02-5.87-24.07-8.7,3.68-7.57,7.19-15.21,10.76-22.82-9.81-4.74-19.44-9.82-29.14-14.76-1.09-.58-2.27-1.04-3.19-1.87-.52-.52-.11-1.25.26-1.7,7.45-9.16,15.23-18.07,23.03-26.94-3.05-2.34-5.8-5.03-8.67-7.57-6.86-6.17-13.6-12.48-20.65-18.44-.63-.62-1.46-1.22-1.55-2.15.06-.95.9-1.55,1.53-2.16,7.09-5.99,13.85-12.32,20.75-18.52,2.85-2.52,5.56-5.19,8.59-7.5-7.86-8.95-15.72-17.91-23.2-27.18-.97-1.07.37-2,1.29-2.41,10.3-5.25,20.53-10.65,30.95-15.69-3.57-7.59-7.03-15.24-10.76-22.76,8.01-2.96,16.07-5.79,24.07-8.77-3.75-10.77-7.06-21.67-10.57-32.51-.31-.9-.69-2.45.69-2.61,11.99-1.38,24.04-2.29,36.09-3.12-.95-13.14-1-26.34-1.95-39.48-.35-1.48.94-2.7,2.43-2.35,13.38.95,26.82.97,40.2,1.93.78-10.82,1.65-21.64,2.83-32.43.16-1.18.1-2.42.56-3.54.58-.8,1.67-.28,2.45-.12,11.05,3.44,22.17,6.69,33.15,10.36,3-7.86,6-15.71,8.87-23.61,7.72,3.6,15.51,7.05,23.28,10.55,4.87-9.71,10.11-19.24,15.19-28.85.54-.99.99-2.06,1.8-2.88.51-.47,1.24-.09,1.69.26,9.34,7.32,18.43,14.94,27.48,22.61,8.62-9.93,18.11-19.11,26.76-29.02h0ZM256.41,12.28c-5.26,5.77-11,11.11-15.97,17.13-4.41,5.25-8.43,10.97-10.6,17.48-2.19,6.27-2.75,13.35-.14,19.58,2.19,5.17,6,10.08,11.55,12.01.86.36,1.78.05,2.64-.18-2.97-5.29-6.41-10.66-6.85-16.85-.79-6.91,2.47-13.37,5.73-19.26,3.66-6.62,8.96-12.12,13.95-17.77,3.1-3.34,5.97-6.91,9.43-9.92,5.36,4.93,9.93,10.61,14.8,15.99,5.53,6.05,9.94,13.09,12.88,20.69,1.75,4.56,1.99,9.63.69,14.33-1.18,4.62-3.87,8.63-6.12,12.79.85.23,1.77.55,2.64.18,2.21-.81,4.26-2.06,5.97-3.66,4.52-4.5,7.32-10.7,7.32-17.05.04-7.74-3-15.21-7.31-21.58-4.19-6.09-9.23-11.58-14.43-16.85-5.63-5.73-10.97-11.73-16.44-17.6-3.26,3.49-6.46,7.03-9.72,10.53h0ZM209.06,9.36c-5.91,9.99-11.25,20.3-16.22,30.77,2.66,1.81,5.27,3.67,7.96,5.43,2.78-8.33,6.84-16.16,10.8-23.98,6.73,5.75,13.51,11.51,19.38,18.13,1.71-2.67,3.42-5.35,5.13-8.04-8.68-7.81-17.59-15.4-27.05-22.31h0ZM296.14,31.7c1.71,2.64,3.42,5.29,5.07,7.97,5.99-6.52,12.67-12.37,19.44-18.1,3.97,7.83,8.03,15.66,10.8,23.98,2.69-1.76,5.3-3.63,7.96-5.43-4.97-10.47-10.31-20.78-16.22-30.77-9.45,6.93-18.4,14.5-27.05,22.34h0ZM257.78,31.82c-.54,5.4,2.58,10.21,3.15,15.47.32,2.62.16,5.34-.71,7.86-1,3.04-3.21,5.49-4.5,8.41-1.5,3.28-3.12,6.58-3.81,10.14-.52,2.55.58,5.14,2.42,6.92.22-3.04.29-6.22,1.78-8.98,1.91-3.63,5.66-6.71,9.99-6.67,3.9-.07,7.33,2.47,9.38,5.56,2.03,2.97,2.22,6.64,2.43,10.1,1.84-1.79,2.95-4.39,2.42-6.93-.69-3.56-2.32-6.84-3.81-10.13-1.29-2.9-3.48-5.34-4.48-8.37-.89-2.54-1.05-5.28-.72-7.93.58-5.24,3.68-10.04,3.15-15.43-.48-5.71-4.4-10.34-8.36-14.23-3.93,3.91-7.87,8.51-8.34,14.23h0ZM204.46,41.83c-.45,2.4-.95,5.11.36,7.34,1.06,1.78,2.4,3.39,3.63,5.05,3.13,4.07,5.7,8.73,6.48,13.82.72,5.49-1.11,10.86-2.28,16.17,4.76-.3,9.27,1.93,12.58,5.16.97-1.51,1.87-3.07,2.97-4.5,1.74-2.27,4.26-3.74,6.57-5.38-2.47-3.54-5.35-6.85-7.18-10.77-1.42-2.98-1.59-6.32-1.64-9.55-.04-4.43.74-8.87,2.36-13.01.77-1.93.51-4.14-.51-5.92-1.18-2.08-2.63-4.01-4.39-5.65-3.67-3.48-7.42-6.86-11.16-10.26-2.86,5.71-6.15,11.3-7.79,17.51h0ZM308.86,34.57c-1.84,1.72-3.37,3.75-4.55,5.95-.98,1.83-1.06,4.04-.25,5.95,2.28,5.9,2.75,12.39,1.79,18.6-1.1,5.59-5.22,9.85-8.36,14.42,1.61,1.13,3.28,2.2,4.77,3.48,2.05,1.76,3.32,4.17,4.76,6.39,3.3-3.22,7.82-5.46,12.57-5.16-.96-4.06-2.08-8.12-2.43-12.29-.4-6.26,2.53-12.2,6.21-17.13,1.63-2.35,3.82-4.45,4.71-7.21.43-2.69-.09-5.45-.97-8-1.8-5.32-4.59-10.23-7.12-15.23-3.74,3.39-7.49,6.77-11.15,10.24h0ZM242.68,46.66c-2.74,6.51-3.62,13.84-2.13,20.75.9,4.22,3.39,7.97,6.53,10.92,1.23,1.14,2.83,1.77,4.46,2.14-.83-1.84-1.47-3.8-1.43-5.84-.04-3.9,1.79-7.47,3.46-10.91,1.87-3.79,4.39-7.49,4.61-11.81.05-2.49-.42-4.95-.7-7.42-.46-3.94-1.92-7.77-1.58-11.77,0-1.97,1.05-3.79.85-5.77-5.55,5.91-11,12.16-14.08,19.71h0ZM275.49,26.95c-.2,1.67.58,3.2.76,4.83.34,2.64,0,5.3-.61,7.87-.79,3.42-1.18,6.91-1.54,10.39-.32,2.97.61,5.89,1.9,8.54,2,4,4.35,7.89,5.61,12.19.94,3.21.58,6.7-.9,9.7,1.63-.37,3.24-1,4.47-2.15,3.14-2.96,5.63-6.7,6.53-10.92,1.84-8.5.04-17.52-4.23-25.06-3.11-5.74-7.56-10.6-11.98-15.39h0ZM168.88,30.7c-2.29,6.11-4.68,12.19-6.72,18.39-2.76,8.51-4.44,17.66-2.62,26.53,1.38,7,5.84,13.33,12.01,17.09,3.77,2.25,8.55,3.32,12.78,1.73-3.93-3.48-8.42-6.45-11.55-10.7-3.34-4.57-4.56-10.33-4.35-15.88.34-8.71,2.42-17.29,5.44-25.47,8.29,4,16.34,8.72,22.98,15.08,4.34,4.19,7.48,9.78,7.8,15.83.18,4.41-.45,8.8-.76,13.19,1.45-.8,2.98-1.57,4.04-2.87,3.32-3.66,4.59-8.7,4.43-13.51-.01-5.74-2.21-11.35-5.75-15.88-5.27-6.81-12.68-11.68-20.37-15.51-5.71-2.82-11.55-5.4-17.36-8.01h0ZM338.07,43.19c-5.88,3.8-11.32,8.56-14.82,14.62-3.09,5.34-4.07,11.76-2.9,17.78.93,4.5,3.58,8.98,8.01,10.9-.31-4.39-.95-8.78-.76-13.19.32-6.17,3.59-11.86,8.06-16.08,6.62-6.22,14.54-10.94,22.77-14.81,3.06,8.62,5.32,17.61,5.41,26.78.05,6-1.86,12.15-6.05,16.63-3.01,3.17-6.57,5.76-9.86,8.63,3.68,1.38,7.8.75,11.27-.92,4.55-2.26,8.24-6.04,10.73-10.38,3.76-6.71,4.07-14.69,3.04-22.12-1.56-10.54-5.97-20.36-9.59-30.32-8.54,3.93-17.35,7.45-25.3,12.49h0ZM122.05,78.02c3.14.71,6.28,1.42,9.42,2.13-.6-8.75.03-17.52.63-26.26,8.47,2.74,16.97,5.52,24.96,9.45.58-3.12,1.12-6.24,1.69-9.35-11.07-3.96-22.28-7.54-33.67-10.52-1.69,11.45-2.54,23-3.03,34.55h0ZM373.5,53.98c.57,3.12,1.11,6.24,1.69,9.35,7.99-3.93,16.5-6.71,24.97-9.45.59,8.73,1.23,17.5.62,26.26,3.14-.71,6.28-1.42,9.43-2.13-.51-11.55-1.35-23.1-3.04-34.55-11.38,2.97-22.6,6.55-33.67,10.52h0ZM171,70.52c1.06,6.57,3.4,13.38,8.59,17.93,3.31,2.92,7.58,5.59,12.24,4.85-1.16-1.48-2.51-2.86-3.3-4.58-1.97-4.36-1.32-9.27-1.03-13.87,3.24,2.7,6.68,5.44,8.71,9.19,1.12,1.97,1.27,4.25,1.5,6.44.49.53.88-.33,1.27-.57,3.34-3.43,4.05-8.45,3.97-12.99-.41-7.15-4.24-13.68-8.9-19.02-5.12-5.68-11.94-9.57-18.98-12.53-3.24,7.93-5.38,16.59-4.07,25.16h0ZM336.15,60.34c-3.95,5.33-7.17,11.66-6.86,18.41.2,4.31,1.25,9.08,4.85,11.92.1-.05.29-.15.39-.21.24-2.09.35-4.25,1.36-6.15,1.98-3.91,5.57-6.68,8.85-9.5.29,4.29.83,8.78-.62,12.94-.71,2.14-2.3,3.81-3.69,5.54,4.64.74,8.92-1.91,12.22-4.83,5.18-4.53,7.53-11.3,8.6-17.85,1.34-8.6-.8-17.29-4.06-25.25-8.02,3.35-15.78,8.01-21.02,14.98h0ZM133.13,71.01c-.07,2.64.28,5.3,1.14,7.8.66,1.86,2.14,3.39,3.98,4.15,4.11,1.8,7.81,4.43,10.95,7.57,2.24,2.28,4.46,4.73,5.58,7.76,1.54,4.05,1.86,8.4,2.69,12.61,2.3-.37,4.59-.88,6.94-.87,2.36.05,4.64.73,6.94,1.24-.04-4.58,1.6-9.28,5.15-12.39-3.53-2.14-7.13-4.2-10.34-6.79-3.83-3.17-6.06-7.78-7.32-12.46-1.02-3.56-1.12-7.3-2.03-10.88-.65-2.49-2.95-4.05-4.97-5.45-5.65-3.29-12.05-4.98-18.22-7.04-.19,4.91-.4,9.83-.49,14.75h0ZM382.19,62.31c-2.1,1.03-4.01,2.44-5.57,4.16-1.09,1.25-1.37,2.93-1.65,4.5-.56,3.37-.88,6.79-1.97,10.05-1.32,4.28-3.58,8.43-7.17,11.29-3.15,2.48-6.65,4.5-10.08,6.58,3.55,3.1,5.18,7.8,5.15,12.38,2.43-.53,4.85-1.27,7.36-1.24,2.2.06,4.36.52,6.52.87,1.1-5.48,1.24-11.45,4.62-16.19,3.58-4.7,8.2-8.72,13.61-11.29,1.63-.7,3.29-1.57,4.22-3.13,1.36-2.25,1.66-4.94,1.88-7.5.03-5.51-.28-11.03-.47-16.54-5.55,1.84-11.22,3.41-16.45,6.05h0ZM263.03,68.4c-3.5,1.95-6.31,5.42-6.69,9.43-.33,2.99.82,5.98,2.71,8.3,2.86,3.56,5.4,7.4,7.04,11.66,1.23-2.75,2.55-5.47,4.33-7.93,1.86-2.85,4.61-5.29,5.29-8.75,1.3-5.39-2.37-10.91-7.31-13.08-1.74-.71-3.76-.53-5.38.38h0ZM79.25,77.68c.34,7.95.9,15.89,1.06,23.85.09,6.71.47,13.45,1.6,20.09.97,5.7,2.86,11.31,5.98,16.24,2.93,4.74,7.19,8.82,12.48,10.94,5.2,2.06,11.32,2.85,16.54.43.9-.35,1.36-1.21,1.8-1.99-3.94-1.2-8.04-2.05-11.76-3.85-3.53-1.68-6.68-4.14-9.01-7.23-2.49-3.25-3.87-7.13-5.2-10.93-2.27-6.46-3.05-13.29-3.45-20.08-.32-6.15-1.07-12.29-.82-18.45,7.34-.21,14.67.62,22,1.05,8.44.44,16.79,2.42,24.47,5.9,4.63,2.15,8.46,5.84,10.84,10.27,2.16,3.89,3.09,8.25,4.41,12.45.8-.43,1.68-.88,2.03-1.76,2.69-5.65,1.53-12.32-1.16-17.76-3.87-7.57-11.71-12.32-19.71-14.85-9.87-2.97-20.31-3.13-30.55-3.36-7.19-.21-14.36-.67-21.54-.97h0ZM430.54,78.67c-8.25.12-16.56.44-24.67,2.04-7.14,1.48-14.13,4.44-19.51,9.37-5.53,5.08-8.59,12.79-7.65,20.19.55,2.21.86,5.17,3.38,6.08,1.26-4.09,2.18-8.33,4.23-12.14,2.03-3.87,5.11-7.22,8.93-9.46,3.77-2.15,7.94-3.49,12.1-4.7,7.67-2.21,15.72-2.36,23.63-2.93,4.26-.21,8.53-.67,12.8-.41.22,7.22-.62,14.43-1.07,21.63-.43,7.87-2.3,15.65-5.5,22.88-2.01,4.68-5.6,8.69-10.09,11.22-4.18,2.46-8.99,3.43-13.58,4.82.44.78.89,1.64,1.79,1.98,2.15.94,4.49,1.49,6.85,1.52,6.57-.05,13.12-2.64,17.72-7.27,5.54-5.56,8.73-13.02,10.2-20.57,1.36-7.19,1.75-14.53,1.85-21.83.17-7.81.71-15.61,1.05-23.41-7.49.31-14.97.8-22.47,1h0ZM189.8,87.2c.89,2.04,2.2,4.17,4.37,5.07-.13-.91-.28-1.8-.44-2.7.55.75,1.11,1.49,1.7,2.2.75-1.99.29-4.19-.4-6.14-1.12-2.89-3.62-4.88-5.88-6.9-.11,2.82-.43,5.76.64,8.46h0ZM336.99,86.26c-.49,1.77-.95,3.75-.11,5.49.54-.72,1.08-1.45,1.62-2.17-.16.9-.31,1.8-.43,2.7,1.87-.75,3.03-2.48,3.96-4.15,1.52-2.9,1.19-6.25,1.06-9.4-2.43,2.15-5.12,4.34-6.11,7.53h0ZM234.49,84.04c-2.49,1.19-4.38,3.38-5.35,5.9-1.84,4.34-1.74,9.49.53,13.66,2.54,4.83,7.77,8.09,13.24,8.63,4.58.42,9.32-2.97,9.84-7.54.32-3.95-1.84-8.27-5.69-9.8-2.29-.98-5.38-.32-6.75,1.8-.58,1.47-.53,3.48.93,4.45.62-1.05,1.11-2.58,2.6-2.61,2.42-.36,3.7,3.03,2.02,4.55-1.53,1.22-3.79.83-5.39-.06-2.79-1.45-4.49-5.16-2.8-7.99,1.66-2.27,4.86-3.25,7.6-2.66,5.35,1.35,9.72,6.01,10.27,11.47.57,3.96-1.57,8.21-5.31,9.89-2.75,1.37-5.92.84-8.88.94.65,2.74-.12,5.56-1.59,7.91-2.18,3.63-3.79,7.6-4.52,11.75-.02.49-.49.72-.81,1.03-2.76-3.06-5.16-6.47-8.44-9.05-2.48-2-4.94-4.34-5.77-7.5-1.65.65-3.24,1.41-4.88,2.08-3.12,1.09-6.62.07-9.15-1.89-.38,3.09-2.05,6.22-4.99,7.63-1.67.69-3.38,1.28-5.05,1.94,1.65,2.85,1.63,6.23,1.31,9.39-.47,4.09.34,8.16.54,12.24-.24,0-.71,0-.94-.01-3.71-2.5-7.84-4.35-12.2-5.42-2.68-.63-5.18-2.12-6.66-4.45-2.1,2.01-3.98,4.5-6.85,5.48-3.36,1.23-7.35.32-9.91-2.12-3.11-2.97-4.59-7.49-3.78-11.68.48-2.61,1.48-5.41,3.88-6.89,1.85-1.14,4.44-1.93,6.44-.67,3.76,2.28,3.59,8.7-.42,10.63-2.42,1.12-4.93-2.5-2.92-4.26,1.02-1.18,2.64-.46,3.9-.13.34-1.62-.98-2.95-2.29-3.68-2.2-.71-4.69.6-5.86,2.47-3.09,5.09.68,12.87,6.8,13.41,3.4.41,6.87-1.24,8.82-3.97,2.79-3.92,4-9.04,2.72-13.71-1.47-5.75-6.51-10.35-12.37-11.62-4.29-.84-8.45,1.33-11.72,3.86-4.31,3.41-6.46,8.84-6.69,14.17-.41,5.2.04,11.17,4.02,15.07,3.42,3.78,7.11,7.54,11.84,9.73,2.68,1.3,5.65,1.88,8.6,2.19,11.24,1.12,22.48,2.36,33.71,3.55,1.92-8.7,5.13-17.05,7.48-25.63,7.84,4.44,16.12,8.12,23.75,12.92,7.01-8.49,13.93-17.05,20.99-25.5,1.85-2.26,3.6-4.65,4.62-7.39,1.98-5.06,1.88-10.6,1.53-15.92-.06-4.06-2.47-7.68-5.23-10.52-3.05-3.07-6.53-5.95-10.78-7.24-4.57-1.48-9.66-.83-13.95,1.2h0ZM276.9,86.6c-3.94,3.18-7.83,7.06-8.93,12.13-.57,6.51-.88,13.45,2.11,19.48,1.82,3.63,4.69,6.59,7.24,9.72,5.88,7.16,11.74,14.32,17.62,21.48,7.63-4.81,15.91-8.49,23.75-12.93,2.35,8.58,5.56,16.94,7.48,25.63,9.08-.98,18.16-1.93,27.24-2.9,4.69-.56,9.59-.56,14.02-2.37,5.54-2.23,9.71-6.63,13.58-10.95,1.51-1.56,2.26-3.66,2.83-5.69.99-4.49.78-9.23-.31-13.67-1.59-6.33-7.05-11.35-13.43-12.93-3.46-.79-6.99.52-9.85,2.39-5.02,3.23-7.95,9.33-7.06,15.19.54,3.45,1.97,6.93,4.6,9.37,3.04,2.77,8.15,3.26,11.47.69,2.89-2.39,4.48-6.44,3.42-10.07-.54-1.9-1.99-3.58-3.95-4.13-2.35-1.1-5.37,1.17-4.98,3.64,1.25-.33,2.89-1.05,3.91.14,1.96,1.75-.45,5.31-2.87,4.27-4.08-1.88-4.27-8.37-.48-10.65,1.99-1.26,4.57-.48,6.43.66,2.41,1.49,3.41,4.3,3.89,6.92.81,4.18-.67,8.69-3.76,11.65-2.57,2.46-6.59,3.37-9.96,2.12-2.86-.98-4.73-3.46-6.82-5.47-.79,1.07-1.64,2.12-2.8,2.83-2.26,1.5-5.04,1.79-7.53,2.73-3.04,1.02-5.85,2.56-8.51,4.31-.24,0-.72.01-.96.02.15-3.46.8-6.91.66-10.38-.25-3.75-.85-7.81,1.19-11.22-2.42-1.12-5.29-1.51-7.2-3.47-1.66-1.63-2.55-3.86-2.85-6.11-2.53,1.95-6.02,2.98-9.14,1.89-1.64-.67-3.24-1.43-4.89-2.08-.84,3.15-3.29,5.49-5.77,7.5-3.26,2.57-5.68,5.95-8.39,9.02-.38-.28-.88-.5-.87-1.03-.74-4.26-2.44-8.3-4.68-12.01-1.39-2.28-2.03-5-1.43-7.62-2.7-.1-5.52.35-8.11-.61-3.57-1.25-6.05-4.79-6.15-8.48-.22-5.22,3.14-10.2,7.94-12.35,3.27-1.87,8.11-1.17,10.16,2.09,2.16,4.37-2.95,9.77-7.55,8.25-2.46-.81-1.84-4.98.77-5.03,1.69-.25,2.42,1.43,3.04,2.62.94-.66,1.33-1.7,1.25-2.81.19-2.8-3.26-4.22-5.66-3.82-4.67.83-7.5,5.8-7.1,10.2.53,4.56,5.25,7.94,9.82,7.52,4.16-.4,8.16-2.39,10.98-5.42,5.03-5.3,5.42-14.05,1.1-19.87-2.3-2.93-6.11-4.15-9.69-4.73-5.31-.86-10.75,1.05-14.83,4.38h0ZM209.4,88.23c-5.24,1.02-9.61,4.61-12.45,8.93-5.21-1.1-10.98-.56-15.44,2.45-3.04,2.09-5.89,5-6.46,8.75-1.21,7.28,3.72,14.77,10.69,17.27,4.3,1.57,9.3,1.15,13.27-1.1,4.46-2.6,5.17-9.34,1.67-12.98-1.8-1.91-4.43-2.79-6.98-3.21-2.48-.38-4.83,1.49-5.68,3.68-.57,1.82,1.05,3.26,2.37,4.23.22-1.09.25-2.35,1.14-3.17.89-.85,2.24-.33,3.15.22,1.52.88.92,3.09-.06,4.15-3.91,2.59-10.29-.74-9.78-5.49.34-2.92,3.21-4.86,5.99-5.27,4.14-.59,8.65.62,11.64,3.57.04-4.22,2.37-8.32,5.86-10.73,2.37-1.65,6.02-2.09,8.24.04,3.26,3.23,1.06,9.55-3.44,10.34-1.2-.16-2.58-.81-2.98-2-.08-1.19.43-2.66,1.62-3.17,1.39-.35,2.54.69,3.6,1.39.2-1.58.3-3.63-1.28-4.58-2.23-1.1-5.46-.71-6.92,1.44-1.39,2-2.57,4.3-2.5,6.77.03,5.17,5.71,9.64,10.86,8.11,4.09-1.2,7.65-4.09,9.59-7.82,3.46-6.57,1.68-15.49-4.41-19.99-3.19-2.43-7.52-2.56-11.33-1.82h0ZM311.83,89.83c-5.65,3.94-7.81,11.69-5.63,18.05,1.56,4.73,5.63,8.54,10.47,9.97,5.17,1.57,10.89-2.92,10.91-8.11.06-2.47-1.11-4.76-2.49-6.75-1.45-2.14-4.64-2.54-6.88-1.47-1.63.93-1.53,3.01-1.33,4.61,1.06-.71,2.18-1.74,3.58-1.4,1.21.48,1.71,1.98,1.64,3.18-.43,1.19-1.8,1.87-3.01,1.99-4.48-.81-6.66-7.11-3.41-10.34,2.32-2.21,6.12-1.64,8.51.15,3.32,2.45,5.55,6.43,5.58,10.55,2.52-2.51,6.18-3.72,9.72-3.72,2.43-.03,5.01.76,6.63,2.62,1.27,1.41,1.69,3.52.91,5.26-1.39,3.22-5.64,4.86-8.88,3.37-1.03-.42-1.34-1.6-1.49-2.57-.33-1.74,1.84-2.7,3.3-2.53,1.53.48,1.64,2.27,1.88,3.58,1.32-.97,2.93-2.41,2.38-4.22-.85-2.18-3.19-4.06-5.68-3.68-2.65.42-5.4,1.37-7.19,3.43-3.27,3.69-2.49,10.21,1.88,12.76,3.96,2.25,8.97,2.67,13.27,1.1,6.95-2.49,11.87-9.95,10.69-17.23-.56-3.77-3.42-6.71-6.48-8.8-4.46-3.01-10.23-3.54-15.42-2.44-2.85-4.33-7.24-7.92-12.48-8.94-3.68-.69-7.84-.62-11,1.62h0ZM90.67,88.87c.02,5.33.53,11.11,4.02,15.46,2.79,3.57,7.2,5.19,11.05,7.36,3.15,1.85,6,4.35,7.69,7.59,1.58,2.86,1.78,6.19,2.97,9.2,1.35,3.43,2.58,6.97,4.73,10.01,1.5,2.09,4.07,3.15,6.63,3.17-1.91-2.26-4.12-4.43-5.09-7.29-1.4-3.97-1.02-8.95,2.16-12.01,3.13-3.09,8.17-3.46,12.2-2.09,2.92.95,5.13,3.11,7.44,4.99.05-2.97-1.63-5.82-4.31-7.21-4.76-2.57-9.92-4.42-15.22-5.58-5.25-1.32-9.27-5.41-11.72-10-1.9-3.65-3.78-7.58-7.3-10.01-4.39-3.1-10.01-3.54-15.25-3.58h0ZM425.32,93.23c-4.22,3.48-5.48,9.03-8.88,13.12-1.65,2.06-3.72,3.81-6.12,4.98-2.86,1.44-6.13,1.65-9.09,2.77-3.5,1.33-7.12,2.53-10.22,4.65-2.13,1.46-3.21,3.99-3.22,6.5,2.3-1.87,4.5-4.03,7.41-4.98,4.04-1.38,9.1-1.02,12.24,2.08,3.18,3.07,3.56,8.05,2.16,12.02-.97,2.85-3.17,5.02-5.08,7.28,3.03.05,5.94-1.6,7.36-4.24,2.61-4.66,4.51-9.72,5.68-14.91.97-3.57,3.27-6.72,6.23-8.97,4.16-3.33,9.82-4.57,13.37-8.7,3.85-4.37,4.44-10.43,4.45-15.97-5.64.02-11.82.59-16.26,4.36h0ZM104.06,89.01c1.18,1.43,3.03,1.98,4.4,3.19,3.5,2.76,5.33,6.9,8.13,10.25,1.74,2.07,3.25,4.41,5.49,6.03,4.32,2.99,9.74,3.63,14.51,5.69,4.32,1.51,8.27,4.59,9.69,9.01.92-1.29,1.55-2.79,1.64-4.37.17-4.44-.87-9-3.43-12.71-4.87-7.14-12.55-12.2-20.93-14.53-6.32-1.88-12.95-2.26-19.51-2.55h0ZM408.26,91.68c-7.77,2.25-14.88,6.86-19.7,13.28-3.14,4.04-4.55,9.23-4.18,14.27.21,1.36.6,2.82,1.66,3.8.97-2.71,2.8-5.13,5.27-6.69,5.15-3.31,11.45-4.04,16.91-6.68,3.35-1.57,5.39-4.72,7.64-7.47,2.7-3.29,4.51-7.31,7.94-10,1.37-1.21,3.22-1.75,4.4-3.18-6.71.28-13.49.69-19.94,2.67h0ZM90.81,102.01c.31,10.46,1.67,21.46,7.88,30.29,4.02,5.59,9.52,10.8,16.56,12.25,3.44.59,7.38,1.12,10.37-1.1-1.29-.57-2.62-1.1-3.75-1.94-3.59-2.56-5.21-6.8-6.61-10.76-1.61-4.41-2.5-9.41-6.13-12.76-3.1-2.62-6.34-5.09-9.8-7.23-2.69-1.7-5.22-3.82-6.78-6.6-.42-.83-1.05-1.52-1.74-2.14h0ZM438.21,106.32c-2.74,3.36-6.84,5.14-10.2,7.78-2.81,2.2-6.02,4.21-7.62,7.5-2.27,4.49-3.12,9.52-5.34,14.03-1.6,3.59-4.61,6.58-8.45,7.8,1.33.87,2.85,1.53,4.47,1.6,4.53.17,9.18-.86,12.97-3.36,6.24-4.1,10.98-10.24,13.64-17.12,2.86-7.17,3.47-14.93,3.77-22.55-1.45,1.15-2.02,2.97-3.24,4.31h0ZM228.73,106.26c-1.61,3.81-4.61,7.33-4.42,11.67.11,2.71,1.05,5.55,3.16,7.4,2.16,1.95,4.28,3.92,6.47,5.84.93-2.08,1.55-4.3,2.65-6.31,2.93-4.41,1.67-10.98-2.61-14.13-1.76-1.48-3.49-2.98-5.25-4.46h0ZM297.75,111.18c-3.02,2.44-4.1,6.64-3.48,10.33.24,1.82,1.51,3.24,2.16,4.92.62,1.59,1.22,3.18,1.91,4.75,2.08-1.87,4.15-3.76,6.22-5.64,3.08-2.62,4-7.12,3-10.88-1.06-2.92-2.72-5.58-4.03-8.39-1.93,1.63-3.85,3.28-5.78,4.91h0ZM250.49,136.3c-5.28,6.55-11.09,12.77-15.28,20.09-3.23,5.54-6.1,11.74-5.53,18.29-3.83-4.46-9.45-6.9-15.04-8.53-9.34-2.89-19.19-3.22-28.85-4.35-7.72-.74-15.41-1.75-23.14-2.31.71,8.62,1.84,17.2,2.7,25.81.85,7.35,1.26,14.79,3.19,21.98,1.73,6.56,4.15,13.43,9.59,17.95-6.67-.56-12.98,2.25-18.63,5.42-7.46,4.1-13.79,9.8-20.47,14.98-6.38,5.14-12.95,10.09-19.22,15.36,6.27,5.27,12.83,10.21,19.21,15.35,6.68,5.17,13.02,10.87,20.48,14.98,5.65,3.17,11.96,5.97,18.63,5.42-3.08,2.59-5.34,6-6.86,9.67-3.02,7.28-4.43,15.09-5.13,22.89-1.11,11.07-2.53,22.1-3.48,33.18,7.89-.61,15.74-1.61,23.61-2.37,8.91-1.04,17.98-1.38,26.66-3.81,6.16-1.67,12.51-4.08,16.74-9.01-.59,6.79,2.49,13.16,5.87,18.87,3.58,6.14,8.35,11.48,12.85,16.98,5.94,7.1,11.67,14.38,17.73,21.37,7.1-8.25,13.85-16.78,20.83-25.12,4.21-4.95,8.21-10.13,11.25-15.86,2.72-4.96,4.86-10.5,4.37-16.22,2.64,3.03,6.13,5.24,9.88,6.74,7.3,2.9,15.11,4.3,22.92,4.98,11.41,1.11,22.79,2.5,34.21,3.46-.98-11.2-2.4-22.35-3.52-33.54-.65-7.13-1.93-14.25-4.47-20.98-1.56-4.23-3.95-8.26-7.47-11.21,7.39.58,14.25-2.83,20.39-6.45,6.28-3.7,11.75-8.53,17.48-12.98,6.79-5.47,13.76-10.74,20.44-16.33-7.04-5.88-14.38-11.43-21.53-17.19-5.69-4.47-11.2-9.23-17.56-12.8-5.82-3.32-12.32-6.33-19.24-5.76,4.94-4.08,7.4-10.17,9.1-16.11,2.55-8.61,2.89-17.62,3.97-26.47.77-7.72,1.81-15.42,2.41-23.15-8.66.67-17.27,1.77-25.92,2.61-7.77.87-15.65,1.27-23.23,3.27-6.54,1.69-13.35,4.08-17.86,9.29.56-6.54-2.29-12.71-5.51-18.24-4.19-7.33-10.02-13.57-15.31-20.13-5.23-6.26-10.27-12.68-15.63-18.82-5.37,6.15-10.4,12.58-15.64,18.83h0ZM44.38,122.62c3.01,11.17,6.68,22.17,10.72,33.03,3.18-.56,6.36-1.09,9.53-1.65-4-7.84-6.84-16.18-9.63-24.49,8.9-.58,17.84-1.21,26.77-.62-.72-3.08-1.44-6.16-2.16-9.24-11.78.48-23.55,1.33-35.22,2.96h0ZM452.65,119.66c-.72,3.08-1.45,6.16-2.17,9.24,8.92-.59,17.86.03,26.76.61-2.8,8.31-5.63,16.65-9.63,24.49,3.18.56,6.36,1.1,9.54,1.65,4.04-10.86,7.71-21.86,10.72-33.03-11.67-1.63-23.45-2.48-35.22-2.96h0ZM130.48,122.41c-2.33.33-4.49,1.88-5.23,4.1-1.27,3.86-.79,8.42,1.84,11.64,1.93,2.41,4.96,3.76,8.02,4.1,4.59.51,9.14,1.51,13.38,3.34-1.18-2.76-2.15-5.61-2.68-8.56-.73-3.38-.58-7.11-2.68-10.06-2.63-4.04-8.03-5.56-12.65-4.56h0ZM391.59,124.41c-2.6,1.88-4.07,4.94-4.42,8.04-.52,4.5-1.54,8.97-3.4,13.14,4.24-1.83,8.8-2.82,13.4-3.34,3.05-.34,6.06-1.69,7.99-4.09,2.57-3.13,3.07-7.52,1.97-11.3-.58-1.99-2.22-3.61-4.24-4.18-3.77-1.06-8.11-.64-11.3,1.73h0ZM180.51,132.99c-.43,3.88,1.85,7.65,5,9.87,1.53,1.16,3.53,1.24,5.24,2.04,1.52.67,3.03,1.36,4.59,1.95.12-2.96.23-5.92.34-8.88.08-2.67-1.28-5.18-3.08-7.11-2.97-3.22-7.65-3.65-11.55-5.22-.22,2.44-.35,4.89-.54,7.34h0ZM342.56,128.65c-3.67,1.97-6.39,6.04-5.96,10.23.12,2.66.21,5.31.31,7.97,2.7-1.01,5.23-2.43,8.07-3.08,4.32-1.81,7.38-6.57,6.74-11.2-.18-2.31-.3-4.62-.52-6.92-2.87,1.02-5.85,1.8-8.64,3.01h0ZM57.42,131c1.87,5.43,3.48,11,6.16,16.12,1.1,2.14,2.59,4.1,4.46,5.65,1.93,1.35,4.42,1.4,6.68,1.8,5.46.66,11.01,1.99,15.58,5.12,4.81,3.32,7.45,8.66,10.57,13.38,3.16-3.48,7.96-5.08,12.62-5.05-.55-2.39-1.3-4.78-1.26-7.26.06-2.15.53-4.25.88-6.36-4.3-.79-8.74-1.12-12.87-2.64-2.99-1.07-5.42-3.15-7.68-5.27-3.29-3.12-6.04-6.81-7.92-10.91-1.69-4.17-6.79-4.86-10.79-5.04-5.48.01-10.96.28-16.43.47h0ZM451.86,131.64c-1.91.65-3.48,2.12-4.25,3.95-2.66,5.78-7.01,10.73-12.22,14.45-4.8,3.14-10.76,3.29-16.25,4.36.37,2.25.89,4.5.88,6.79-.06,2.33-.75,4.57-1.27,6.83,4.67-.04,9.46,1.57,12.62,5.05,2.31-3.63,4.49-7.39,7.37-10.63,4.68-5,11.7-6.99,18.36-7.81,2.4-.43,5.05-.44,7.12-1.86,1.86-1.55,3.35-3.51,4.44-5.64,2.69-5.12,4.3-10.69,6.17-16.13-4.86-.18-9.72-.38-14.58-.47-2.84-.1-5.7.22-8.4,1.11h0ZM214.61,138.95c-2.39,7.77-4.7,15.56-6.83,23.41,3.54,1.04,7.08,2.11,10.63,3.14.53-4.12,1.24-8.23,2.22-12.27,3.61,2.18,7.06,4.6,10.42,7.14,1.73-3.2,3.49-6.39,5.23-9.59-7.15-4.09-14.41-7.96-21.68-11.83h0ZM295.97,150.78c1.74,3.2,3.5,6.39,5.24,9.59,3.36-2.53,6.8-4.99,10.45-7.12.94,4.04,1.68,8.13,2.2,12.25,3.55-1.04,7.09-2.1,10.63-3.15-2.13-7.84-4.43-15.63-6.82-23.4-7.27,3.86-14.54,7.74-21.68,11.83h0ZM125.43,147.18c-4.34,2.08-7.53,6.03-9.15,10.43-.71,1.94-.84,4.08-.31,6.07,1.31,4.73,4.84,8.87,9.48,10.79,3.64,1.54,7.85,1.64,11.59.36,2.84-.97,5.68-2.49,7.3-5.07,2-3.06,1.96-7.43-.52-10.21-2.16-2.31-5.44-3.7-8.66-3.36-2.09.22-4.2,1.29-5.18,3.18-.6,1.2-1.05,2.74-.26,3.96.83,1.11,2.04,2.22,3.56,1.89-.28-1.17-1.03-2.6-.04-3.63,1.15-1.56,3.75-.92,4.47.73.56,1,.1,2.21-.64,3-2.59,2.88-8.01,2.68-10.14-.63-1.29-1.95-.5-4.49.66-6.31,1.51-2.36,4.37-3.34,7.04-3.81,4.27-.8,8.89.66,11.92,3.71,2.49,2.52,3.4,6.45,2.14,9.75-1.01,2.8-3.53,4.64-5.57,6.68,1.08.77,2.16,1.6,2.87,2.73,1.53,2.23,1.84,4.98,2.81,7.45,1.04,2.97,2.63,5.72,4.38,8.34,0,.23.01.68.02.91-4.16-.19-8.31-.98-12.48-.52-3.22.31-6.67.36-9.56-1.28-.69,1.63-1.28,3.31-1.98,4.94-1.43,2.9-4.64,4.55-7.79,4.92,1.99,2.48,3.04,5.91,1.92,8.97-.68,1.6-1.45,3.17-2.12,4.78,3.57.9,6.02,3.74,8.29,6.4,2.35,2.74,5.4,4.77,8.09,7.16.82.38,0,1.18-.57,1.19-3.31.56-6.51,1.63-9.51,3.11-3.2,1.76-6.69,3.88-10.53,2.87-.03,1.9.09,3.82-.08,5.72-.32,3.11-2.39,5.97-5.27,7.3-4.94,2.3-11.14.26-14.49-3.76-1.95-2.4-3.67-5.5-2.88-8.66.52-2.01,1.73-4.21,3.95-4.73,4.33-1.07,8.85,3.57,7.46,7.74-.81,2.41-5.03,1.83-5.14-.71-.29-1.68,1.44-2.41,2.67-3.03-.67-.93-1.73-1.32-2.86-1.23-2.68-.2-4.11,2.84-3.96,5.09.71,6.24,9.48,9.71,14.46,5.81,2.75-2.02,4.14-5.58,3.57-8.89-.63-3.76-2.54-7.34-5.43-9.91-5.42-4.93-14.35-5.31-20.27-1.05-3.09,2.37-4.32,6.28-4.86,9.94-.8,5.64,1.73,11.24,5.59,15.32,3.39,3.8,7.79,7.55,13.21,7.69,5.42.34,11.07.44,16.23-1.5,4.28-1.55,7.64-4.67,11.13-7.42,7.46-5.9,14.93-11.79,22.4-17.67-4.87-7.51-8.65-15.62-13.17-23.32,8.75-2.3,17.27-5.45,26.13-7.33-1.05-9.39-2.08-18.77-3.11-28.15-.47-4.4-.62-8.98-2.59-13.05-2.52-5.39-7.12-9.43-11.62-13.23-2.93-1.97-6.57-2.67-10.08-2.74-4.25-.03-8.67.34-12.52,2.27h0ZM382.72,148.93c-3.87,3.36-7.71,6.99-9.96,11.64-1.33,2.63-1.91,5.55-2.23,8.45-1.15,11.02-2.4,22.04-3.62,33.06,8.87,1.88,17.38,5.03,26.14,7.33-4.53,7.69-8.29,15.82-13.18,23.3,9.2,7.25,18.38,14.53,27.59,21.78,5,4.02,11.67,5.26,17.99,5.01,2.86-.2,5.88.11,8.56-1.1,4.15-1.66,7.33-4.93,10.11-8.26,3.27-3.95,5.09-9.19,4.25-14.28-.62-3.73-2.02-7.73-5.38-9.9-4.74-2.99-11.09-3.4-16.14-.9-5.08,2.44-8.51,7.66-9.08,13.13-.43,4.49,3.02,9.14,7.68,9.65,4.02.32,8.42-1.79,9.99-5.57,1-2.25.34-5.25-1.8-6.62-1.5-.59-3.57-.54-4.56.9,1.07.61,2.65,1.11,2.66,2.58.34,2.34-3.05,3.58-4.6,1.99-1.28-1.48-.9-3.73.02-5.3,1.47-2.75,5.27-4.43,8.16-2.76,2.16,1.52,3.15,4.37,2.81,6.9-1.17,5.81-6.63,10.54-12.73,10.7-3.76.18-7.57-1.91-9.16-5.29-1.4-2.7-.86-5.8-.96-8.71-2.57.56-5.25.03-7.5-1.26-3.77-2.17-7.85-3.92-12.17-4.66-.65,0-1.1-.4-1.42-.89,2.69-2.35,5.66-4.39,8.09-7.01,2.45-2.79,4.93-5.97,8.76-6.92-.65-1.6-1.42-3.16-2.1-4.75-1.14-3.07-.09-6.53,1.91-9.01-3.16-.37-6.36-2.03-7.79-4.93-.7-1.63-1.29-3.29-1.97-4.93-2.89,1.62-6.33,1.6-9.54,1.28-4.18-.46-8.34.33-12.5.53,0-.24.02-.71.02-.94,1.77-2.6,3.34-5.35,4.38-8.31.97-2.47,1.27-5.21,2.81-7.44.72-1.12,1.79-1.95,2.87-2.73-1.88-1.88-4.13-3.55-5.29-6-1.71-3.53-.77-8,2.09-10.68,4.31-4.21,11.49-4.79,16.61-1.72,2.38,1.58,3.92,4.64,3.22,7.44-1.66,4.58-9.28,4.81-11.32.45-1.03-2.34,2.5-4.7,4.31-2.85,1.26.98.57,2.62.19,3.86,1.65.38,3.02-.95,3.77-2.24.75-2.28-.75-4.86-2.84-5.92-5.2-2.67-12.78.96-13.34,6.83-.43,3.34,1.24,6.76,4.03,8.67,4,2.75,9.23,3.94,14,2.67,5.85-1.44,10.53-6.37,11.84-12.11.87-4.31-1.45-8.5-4.14-11.74-3.59-4.22-9.24-6.2-14.72-6.36-5.15-.34-11,.18-14.84,3.94h0ZM57.53,157.03c-8.99,2-17.52,5.51-26.17,8.56,3.01,6.41,5.91,12.88,9.29,19.12,4.23,7.69,9.75,15.06,17.44,19.72,5.75,3.49,12.88,4.65,19.49,3.26,4.43-.97,8.77-3.56,10.66-7.75-3.71.3-7.42.66-11.14.79-4.68.16-9.39-1.12-13.32-3.62-3.85-2.39-6.92-5.76-9.72-9.24-4.29-5.36-7.77-11.29-10.77-17.43,8.78-3,17.96-5.22,27.3-5.3,6.1-.04,12.37,1.81,16.92,5.91,3.24,2.96,5.89,6.45,8.82,9.7,1.5-3.83.68-8.13-1.25-11.66-3.25-5.69-8.84-10.05-15.19-11.96-7.25-2.15-15.04-1.65-22.37-.09h0ZM456.11,156.24c-7.52,1.16-14.43,5.63-18.44,11.98-2.29,3.69-3.38,8.37-1.76,12.53,2.55-2.87,4.96-5.86,7.65-8.61,3.14-3.17,7.25-5.39,11.65-6.33,5.35-1.16,10.88-.62,16.24.16,5.97.91,11.8,2.54,17.51,4.46-3.69,7.61-8.19,14.91-13.96,21.17-3.62,3.96-8.24,7.25-13.57,8.49-5.73,1.35-11.62.16-17.39-.16,1.89,4.21,6.24,6.78,10.66,7.76,6.71,1.41,13.95.19,19.75-3.43,6.79-4.2,11.89-10.54,15.86-17.27,4-6.9,7.18-14.21,10.58-21.4-4.43-1.62-8.85-3.22-13.3-4.78-10.01-3.56-20.78-6.35-31.48-4.57h0ZM221.28,164.82c.98,2.98,4.4,3.77,6.62,5.61.24-2.88,2.15-5.9.55-8.69-1.63-2.46-4.31-3.99-6.63-5.74-.47,2.89-1.24,5.91-.54,8.82h0ZM303.99,161.45c-1.9,2.81.11,6.02.37,8.98,2.22-1.84,5.65-2.63,6.62-5.61.71-2.91-.13-5.9-.49-8.8-2.33,1.59-4.78,3.18-6.5,5.43h0ZM46.31,171.67c3.42,7.87,8.17,15.48,15.28,20.63,5.68,4.05,12.52,7.3,19.73,6.66,4.17-.32,8.86-1.45,11.35-5.04-2.04-.23-4.15-.29-6.06-1.11-4.28-1.84-7.29-5.55-10.25-8.95,4.37-.27,8.94-.81,13.17.62,2.18.7,3.88,2.26,5.65,3.62.4-2.38-.19-4.82-1.29-6.94-2.71-5.09-7.37-9.12-12.86-11.14-5.36-2.03-11.17-3.04-16.92-2.66-6.14.36-12.11,2.08-17.81,4.31h0ZM442.01,176.1c-2.98,3.24-5.69,7.44-4.95,12,1.76-1.36,3.45-2.92,5.63-3.62,4.24-1.43,8.82-.9,13.21-.61-2.88,3.22-5.7,6.73-9.69,8.68-1.95.99-4.16,1.1-6.28,1.33-.05.1-.14.28-.19.38,3.12,3.78,8.42,4.72,13.12,4.77,6.54-.01,12.61-3.05,17.8-6.74,7.11-5.15,11.86-12.76,15.28-20.63-8.11-3.2-16.97-5.3-25.74-3.99-6.67,1.05-13.56,3.34-18.19,8.42h0ZM101.6,178c-3.06,4.38-3.61,10.03-2.48,15.12-4.37,2.77-8,7.01-9.08,12.1-.73,3.65-.69,7.8,1.63,10.93,3.55,4.9,10.18,7.14,16.13,6.07,5.95-.94,11.08-5.6,12.54-11.33,1.24-5.1-3.56-10.47-8.83-10.19-2.58.1-4.98,1.34-6.99,2.87-1.72,1.57-1.94,4.34-.94,6.35.97,1.58,3.07,1.47,4.69,1.28-.72-1.04-1.78-2.15-1.43-3.53.52-1.18,2.04-1.67,3.26-1.59,1.19.45,1.89,1.78,2,2.97-.84,4.38-7.24,6.5-10.53,3.33-2.26-2.27-1.68-6,.15-8.35,2.5-3.27,6.56-5.45,10.75-5.48-2.56-2.47-3.79-6.06-3.79-9.54-.03-2.4.78-4.93,2.69-6.52,1.43-1.23,3.57-1.64,5.34-.88,3.25,1.34,4.93,5.44,3.49,8.62-.56,1.32-2.29,1.68-3.59,1.53-1.19-.5-1.77-1.96-1.67-3.17.47-1.53,2.32-1.65,3.66-1.88-.99-1.3-2.46-2.89-4.31-2.33-2.22.83-4.13,3.12-3.75,5.55.43,2.61,1.4,5.31,3.5,7.07,3.77,3.21,10.42,2.43,13.01-1.86,2.29-3.89,2.71-8.79,1.11-13-2.54-6.83-10.15-11.65-17.57-10.49-3.84.55-6.83,3.36-8.96,6.36h0ZM406.2,178.32c-3.71,4.85-4.05,11.9-.8,17.06,2.87,4.38,10.06,4.79,13.56.93,1.63-1.75,2.41-4.1,2.79-6.4.36-2.43-1.54-4.71-3.76-5.53-1.86-.56-3.32,1.03-4.31,2.33,1.1.21,2.38.24,3.22,1.1.88.87.34,2.22-.22,3.11-.9,1.5-3.19.88-4.24-.1-2.47-3.7.49-9.56,5.08-9.59,3.08,0,5.32,2.79,5.85,5.56.74,4.15-.5,8.75-3.58,11.76,4.51.05,8.95,2.55,11.31,6.32,1.51,2.44,1.58,6.12-.93,7.96-3.13,2.25-8,.77-9.64-2.59-.9-1.47.12-3.51,1.61-4.15,1.23-.11,2.74.4,3.28,1.57.36,1.36-.67,2.49-1.41,3.5,1.71.36,4.07.26,4.86-1.58.82-2.15.45-5.02-1.62-6.39-2.03-1.37-4.38-2.53-6.91-2.48-5.29,0-9.88,5.6-8.3,10.67,1.18,3.88,3.98,7.28,7.61,9.22,6.74,3.65,16.1,1.93,20.75-4.17,2.49-3.16,2.58-7.46,1.81-11.22-1.08-5.08-4.71-9.31-9.08-12.07,1.22-5.43.46-11.52-3.12-15.99-1.98-2.49-4.56-4.79-7.82-5.41-6.07-1.2-12.45,1.75-16.01,6.59h0ZM128.16,177.51c.97,2.74,1.8,5.53,2.93,8.22,1.93,3.75,6.18,6.54,10.55,6.12,2.71-.12,5.43-.19,8.14-.31-1.04-2.65-2.49-5.14-3.15-7.92-1.85-4.23-6.72-7.23-11.44-6.59-2.34.17-4.69.31-7.03.49h0ZM385.16,185.15c-.66,2.22-1.89,4.23-2.68,6.4,2.71.12,5.43.19,8.15.31,4.05.4,7.94-2.01,10.06-5.27,1.51-2.87,2.3-6.05,3.38-9.09-3.08-.13-6.15-.52-9.23-.52-4.45.5-8.73,3.79-9.68,8.18h0ZM80.33,185.47c2.05,2.22,4.1,4.68,7.05,5.78,1.98.68,4.21,1.12,6.25.39-.74-.58-1.5-1.13-2.26-1.68.92.16,1.84.31,2.77.43-.82-1.93-2.7-3.12-4.53-4.02-2.9-1.35-6.18-1.02-9.28-.9h0ZM443.01,186.22c-1.97.89-4.01,2.15-4.9,4.18.92-.12,1.84-.27,2.76-.43-.76.54-1.52,1.09-2.25,1.67,1.92.71,4.04.31,5.95-.28,3.09-1.04,5.23-3.58,7.35-5.89-2.98-.11-6.09-.43-8.91.74h0ZM9.6,205c7.05,9.27,14.79,18.01,22.75,26.53,2.73-1.69,5.49-3.32,8.18-5.06-6.77-5.72-12.59-12.4-18.48-18.97,7.97-3.91,15.96-7.88,24.45-10.6-1.78-2.65-3.7-5.2-5.54-7.81-10.68,4.87-21.18,10.11-31.37,15.91h0ZM485.74,196.9c8.49,2.71,16.47,6.71,24.45,10.59-5.84,6.64-11.8,13.19-18.45,19.07,2.74,1.61,5.43,3.33,8.16,4.97,7.96-8.51,15.7-17.26,22.75-26.53-10.19-5.8-20.7-11.04-31.37-15.91-1.84,2.61-3.75,5.17-5.54,7.81h0ZM41.99,200.67c-6.04,1.69-11.53,4.75-17.13,7.46,3.45,3.67,6.9,7.34,10.44,10.93,1.75,1.8,3.82,3.3,6.06,4.46,1.89.97,4.17,1.03,6.13.22,5.98-2.22,12.57-2.67,18.86-1.74,5.73,1.06,10.06,5.16,14.77,8.2,1.09-1.6,2.21-3.2,3.49-4.66,1.79-2.03,4.26-3.28,6.53-4.69-3.29-3.25-5.56-7.67-5.26-12.34-4,.92-7.99,1.95-12.09,2.35-4.81.44-9.56-1.12-13.71-3.4-3.46-1.81-6.35-4.46-9.66-6.49-2.53-1.55-5.71-.92-8.45-.32h0ZM477.69,203.84c-5.12,3.88-11.22,7.17-17.86,7.1-4.59-.17-9.03-1.43-13.48-2.42.31,4.67-1.97,9.09-5.26,12.33,2.28,1.42,4.75,2.67,6.54,4.7,1.29,1.46,2.38,3.08,3.53,4.66,4.66-3.08,9.01-7.11,14.7-8.2,6.44-.97,13.17-.45,19.28,1.86,1.95.74,4.2.51,6.02-.48,2.12-1.15,4.11-2.58,5.78-4.31,3.54-3.6,7-7.28,10.47-10.96-5.2-2.52-10.3-5.32-15.84-7.08-2.43-.79-5.03-1.19-7.57-.91-2.44.56-4.3,2.34-6.3,3.71h0ZM141.72,210.44c3.94,7.14,7.89,14.26,12.06,21.27,3.26-1.71,6.51-3.43,9.78-5.13-2.59-3.27-5.01-6.67-7.27-10.18,4.1-1.06,8.31-1.68,12.51-2.22-1.06-3.48-2.15-6.95-3.21-10.43-7.99,2.09-15.93,4.35-23.86,6.69h0ZM363.46,214.17c4.2.56,8.42,1.14,12.52,2.24-2.29,3.48-4.69,6.89-7.28,10.16,3.27,1.7,6.52,3.43,9.78,5.13,4.16-7.01,8.11-14.13,12.05-21.27-7.92-2.35-15.86-4.61-23.86-6.7-1.07,3.48-2.15,6.95-3.21,10.43h0ZM159.2,217.47c1.52,2.34,3.21,4.7,5.48,6.39,2.86,1.84,6.12-.12,9.14-.37-1.87-2.18-2.68-5.53-5.71-6.5-2.94-.7-5.98.1-8.91.48h0ZM358.44,223.48c3.01.26,6.27,2.21,9.14.37,2.3-1.68,3.91-4.1,5.54-6.37-2.96-.39-6.02-1.19-8.98-.49-3.02.97-3.83,4.31-5.69,6.49h0ZM116.95,220.34c-2.97,1.05-5.7,2.66-8.56,3.96,1.68,1.88,3.35,3.77,5.02,5.66,2.5,2.97,6.79,4.03,10.57,3.41,1.85-.25,3.3-1.5,5.01-2.13,1.61-.61,3.23-1.18,4.81-1.86-1.9-2.04-3.82-4.06-5.74-6.1-2.66-3.03-7.26-3.94-11.1-2.95h0ZM404.18,223.31c-1.91,2.02-3.82,4.04-5.72,6.07,2.11.96,4.39,1.54,6.44,2.62,4.5,2.87,11.2,1.63,14.41-2.58,1.5-1.73,3.08-3.41,4.54-5.17-2.88-1.22-5.57-2.88-8.53-3.91-3.85-1-8.47-.09-11.14,2.97h0ZM36.97,230.7c-6.22,4.12-11.81,9.06-17.2,14.16-5.84,5.52-11.95,10.76-17.93,16.12,3.63,3.26,7.32,6.47,10.96,9.73,6.44,5.69,12.41,11.88,19.29,17.07,5.49,4.28,11.66,7.9,18.51,9.59,5.89,1.55,12.37,1.52,18-.97,5.05-2.24,9.83-5.98,11.57-11.32.25-.77-.1-1.54-.27-2.27-5.4,2.91-10.86,6.29-17.17,6.72-6.94.78-13.44-2.33-19.37-5.47-6.96-3.66-12.73-9.03-18.66-14.06-3.33-2.96-6.86-5.71-9.85-9.02,5.02-5.26,10.81-9.74,16.3-14.51,6.18-5.44,13.37-9.77,21.14-12.66,4.62-1.69,9.77-1.93,14.53-.67,4.72,1.16,8.82,3.8,13.07,6.01.23-.84.56-1.75.18-2.61-.83-2.15-2.09-4.15-3.71-5.82-4.58-4.43-10.89-7.18-17.36-7.19-7.9-.05-15.53,2.92-22.03,7.16h0ZM463.64,225.56c-5.04,2.24-9.82,5.97-11.56,11.31-.26.76.09,1.54.27,2.28,3.25-1.69,6.38-3.63,9.8-4.96,4.75-1.87,10.08-2.41,15.07-1.19,4.32,1.12,8.35,3.13,12.25,5.23,6.62,3.58,12.14,8.71,17.83,13.53,3.4,3.03,7.03,5.84,10.08,9.22-2.68,2.98-5.82,5.49-8.83,8.13-3.3,2.87-6.62,5.71-10,8.48-5.44,4.45-11.69,7.9-18.27,10.44-4.71,1.8-10,2.08-14.88.79-4.71-1.16-8.82-3.8-13.06-6.01-.24.84-.56,1.74-.18,2.59.83,2.16,2.09,4.17,3.72,5.84,4.59,4.43,10.91,7.18,17.38,7.18,7.79.04,15.31-2.87,21.76-7.01,6.4-4.2,12.14-9.29,17.66-14.53,5.77-5.44,11.81-10.61,17.71-15.91-3.65-3.27-7.33-6.48-10.98-9.74-6.42-5.68-12.39-11.87-19.26-17.05-5.48-4.27-11.65-7.89-18.49-9.59-5.91-1.55-12.41-1.53-18.04.97h0ZM44.14,239.56c-6.23,3.09-11.48,7.66-16.6,12.23,1.7.19,3.27-.57,4.94-.75,2.65-.32,5.33,0,7.92.58,3.52.78,7.11,1.18,10.69,1.53,3.01.31,6-.6,8.69-1.86,4.08-1.97,8.04-4.27,12.44-5.51,3.27-.93,6.83-.56,9.88.89-.42-2.06-1.51-3.96-3.14-5.33-2.86-2.61-6.32-4.68-10.19-5.46-8.32-1.72-17.14-.18-24.63,3.67h0ZM463.46,235.89c-4.3.88-8.11,3.31-11.11,6.38-1.17,1.22-1.82,2.79-2.2,4.4,1.86-.8,3.84-1.43,5.9-1.4,3.85-.05,7.4,1.63,10.79,3.22,3.4,1.57,6.61,3.68,10.35,4.43,3.03.67,6.12-.06,9.15-.35,4.32-.44,8.53-2.04,12.93-1.58,1.85.08,3.57,1,5.44.8-4.71-4.17-9.47-8.4-15.07-11.42-7.83-4.42-17.28-6.34-26.18-4.48h0ZM64.83,250.78c-2.95,1.26-5.44,3.42-8.53,4.39-2.58.87-5.37,1.02-8.06.71-5.35-.57-10.24-3.62-15.74-3.09-5.82.47-10.53,4.32-14.5,8.2,3.67,3.54,7.83,7.05,13.04,8,4.5.89,8.9-.8,13.14-2.08,3.83-1.07,7.99-1.42,11.83-.21,3.24.94,5.81,3.2,8.87,4.51,3.34,1.45,6.68,3.03,10.29,3.72,2.6.51,5.25-.57,7.07-2.38-3.1-.22-6.35-.28-9.16-1.75-3.7-1.88-6.84-5.56-6.8-9.81-.07-3.7,2.38-6.98,5.37-9,3.07-2.15,6.95-2.37,10.58-2.57-1.82-1.81-4.46-2.89-7.06-2.38-3.64.68-7,2.28-10.36,3.75h0ZM450.01,249.41c3.09.22,6.32.28,9.13,1.74,3.71,1.87,6.86,5.55,6.83,9.81.06,4.03-2.78,7.55-6.19,9.51-2.94,1.74-6.45,1.86-9.77,2.07,1.81,1.8,4.45,2.88,7.05,2.38,3.64-.68,7-2.28,10.36-3.74,3.14-1.35,5.79-3.69,9.14-4.58,4.38-1.29,9.09-.58,13.35.84,3.79,1.27,7.9,2.37,11.91,1.42,4.95-1.11,8.93-4.47,12.45-7.89-3.98-3.86-8.67-7.71-14.49-8.18-5.67-.54-10.7,2.7-16.24,3.14-3.69.39-7.53-.3-10.73-2.17-4.58-2.86-9.58-5.11-14.81-6.55-2.84-.84-5.96.13-7.98,2.2h0ZM69.65,258.2c-.91,1.7-.92,3.82-.01,5.53,2.01,3.71,5.87,6.69,10.26,6.88,3.03.19,5.96-1.06,8.27-2.91,3.53-2.74,7.37-5.1,11.58-6.7-4.2-1.66-8.09-3.99-11.62-6.76-2.3-1.85-5.22-3.08-8.22-2.89-4.38.19-8.23,3.15-10.25,6.85h0ZM444.38,254.05c-3.62,2.8-7.53,5.29-11.87,6.89,2.69,1.19,5.38,2.4,7.8,4.06,3.14,1.94,5.82,4.91,9.67,5.47,5.36.98,10.68-2.55,12.86-7.23.73-1.71.55-3.71-.38-5.31-1.99-3.42-5.53-6.17-9.61-6.55-3.06-.32-6.11.81-8.47,2.67h0ZM101.04,262.75c-4.08.7-7.53,3.28-10.32,6.17-2.81,2.85-5.32,6.15-6.39,10.03-1.26,4.33-.56,9.06,1.42,13.08,1.21,2.43,3.43,4.28,6,5.23,4.45,1.81,9.71,1.71,13.98-.53,4.91-2.5,8.22-7.62,8.77-12.98.4-4.32-2.75-8.77-7.17-9.57-4.17-.6-8.87,1.57-10.51,5.5-1,2.25-.34,5.26,1.81,6.62,1.5.58,3.56.53,4.56-.9-1.22-.62-2.93-1.33-2.66-2.98.05-2.3,3.6-3.13,4.85-1.28,1.01,1.63.54,3.77-.45,5.3-1.55,2.58-5.23,4.06-8,2.45-2.28-1.64-3.27-4.73-2.69-7.4,1.36-5.28,6.14-9.59,11.72-10.13,4.03-.55,8.34,1.55,10.06,5.21,1.39,2.7.86,5.81.96,8.72,3.43-.86,6.73.67,9.58,2.38,3.26,1.73,6.79,2.97,10.44,3.6.53,0,.76.49,1.05.84-3.04,2.61-6.41,4.91-8.99,8-2.11,2.51-4.52,5.06-7.86,5.9.66,1.61,1.44,3.18,2.12,4.78,1.12,3.06.07,6.5-1.93,8.98,3.16.37,6.37,2.02,7.79,4.93.71,1.64,1.26,3.34,2.03,4.96,2.99-1.8,6.62-1.56,9.96-1.28,4.02.39,8.02-.38,12.02-.56,0,.24-.01.71-.02.95-2.55,3.6-4.41,7.65-5.51,11.9-.65,2.64-2.16,5.12-4.55,6.57,2.05,2.06,4.58,3.9,5.58,6.72,1.26,3.31.33,7.23-2.17,9.75-3.02,3.03-7.61,4.48-11.87,3.7-2.67-.47-5.54-1.46-7.06-3.82-1.16-1.82-1.95-4.36-.66-6.32,2.34-3.7,8.94-3.51,10.85.48,1.06,2.36-2.56,4.74-4.34,2.83-1.24-1.01-.48-2.62-.18-3.87-1.76-.28-3.31,1.17-3.88,2.68-.36,2.07.84,4.25,2.64,5.33,5.18,3.04,13.1-.63,13.68-6.62.44-3.36-1.24-6.8-4.06-8.71-4-2.74-9.23-3.91-13.99-2.65-5.84,1.44-10.52,6.38-11.83,12.11-.86,4.2,1.35,8.29,3.93,11.49,3.57,4.37,9.32,6.45,14.9,6.61,5.16.34,11.03-.18,14.89-3.95,3.86-3.36,7.7-6.99,9.94-11.64,1.33-2.62,1.91-5.53,2.23-8.42,1.14-11.04,2.41-22.06,3.62-33.09-8.87-1.88-17.38-5.03-26.13-7.33,4.53-7.69,8.28-15.82,13.18-23.3-8.75-6.94-17.56-13.81-26.26-20.79-2.4-1.9-5.01-3.63-7.96-4.58-5.5-1.85-11.43-1.55-17.13-1.13h0ZM414.07,263.88c-2.93.95-5.53,2.66-7.92,4.55-8.72,6.98-17.53,13.86-26.29,20.8,4.9,7.49,8.65,15.61,13.18,23.3-8.75,2.3-17.27,5.45-26.14,7.33,1.3,11.51,2.53,23.04,3.81,34.55.64,6.3,4.45,11.78,9.09,15.98,2.15,1.84,4.04,4.14,6.78,5.16,4.47,1.87,9.49,1.68,14.21,1.08,5.5-.75,10.64-3.91,13.42-8.67,1.66-2.71,2.91-5.9,2.21-9.1-1.19-5.22-5.15-9.79-10.28-11.65-3.61-1.35-7.71-1.28-11.31.04-2.7.97-5.38,2.47-6.92,4.93-2,3.07-1.96,7.44.53,10.23,2.17,2.31,5.46,3.7,8.69,3.34,2.08-.23,4.19-1.32,5.16-3.21.59-1.19,1.03-2.73.24-3.94-.83-1.11-2.03-2.2-3.55-1.9.31,1.23,1.05,2.82-.14,3.84-1.23,1.36-3.64.62-4.31-.94-.49-.92-.15-2.02.48-2.77,2.7-3.39,9.22-2.83,10.77,1.38.69,2.79-.84,5.86-3.22,7.43-4.96,2.97-11.82,2.55-16.18-1.31-2.96-2.49-4.22-6.77-2.83-10.38,1-2.81,3.53-4.65,5.58-6.71-1.09-.78-2.16-1.61-2.88-2.74-1.57-2.31-1.86-5.15-2.89-7.69-1.03-2.89-2.59-5.54-4.29-8.09,0-.23,0-.68,0-.91,3.84.16,7.66.9,11.52.6,3.54-.33,7.33-.57,10.56,1.2.64-1.65,1.25-3.31,1.94-4.93,1.43-2.89,4.63-4.54,7.79-4.91-1.44-1.84-2.42-4.07-2.38-6.41-.02-2.68,1.7-4.91,2.57-7.35-3.46-.87-5.89-3.58-8.08-6.16-2.55-3.05-5.97-5.19-8.83-7.91.44-.35.9-.72,1.51-.75,3.87-.68,7.58-2.12,10.99-4.03,2.55-1.58,5.61-2.6,8.64-1.88-.04-3.71-.46-7.98,2.44-10.88,4.29-4.77,12.32-3.59,16.53.67,2.4,2.52,4.57,5.97,3.76,9.56-.52,2.12-1.88,4.48-4.28,4.83-4.03.72-7.99-3.24-7.32-7.16.15-.94.8-1.85,1.78-2.08,1.66-.55,3.84.76,3.54,2.61-.04,1.45-1.6,1.94-2.66,2.55.99,1.43,3.05,1.48,4.55.9,2.15-1.36,2.81-4.38,1.81-6.63-1.57-3.77-5.95-5.88-9.97-5.57-4.66.5-8.13,5.13-7.71,9.63.41,4.09,2.43,8.03,5.54,10.79,5.41,4.93,14.33,5.31,20.25,1.06,2.99-2.25,4.21-6,4.82-9.5.86-5.2-1.07-10.53-4.45-14.52-3.26-3.89-7.23-7.7-12.41-8.77-5.8-.47-11.83-.78-17.43,1.1h0ZM45.46,269.44c-4.03.45-7.95,1.89-12.05,1.55-2,0-3.85-1.03-5.87-.83,6.12,5.52,12.6,10.95,20.44,13.95,6.54,2.57,13.86,3.37,20.77,1.96,4.32-.88,8.15-3.32,11.17-6.42,1.16-1.21,1.8-2.78,2.18-4.37-1.86.81-3.85,1.43-5.91,1.4-4.14.04-7.91-1.87-11.55-3.59-3.72-1.81-7.41-4.13-11.68-4.33-2.52-.04-5.01.4-7.51.68h0ZM475.56,269.46c-5.59,1.91-10.46,5.59-16.29,6.9-3.06.71-6.3.25-9.12-1.07.47,2.76,2.4,4.94,4.62,6.56,3.47,2.94,7.98,4.48,12.51,4.79,7.34.65,14.78-1.04,21.25-4.45,6.05-3.08,11.17-7.55,16.18-12.01-2.04-.2-3.91.84-5.94.83-4.07.32-7.96-1.1-11.96-1.56-3.72-.4-7.61-1.28-11.26.01h0ZM113.17,292.26c-1.58,1.81-3.19,3.59-4.77,5.4,2.72,1.24,5.34,2.72,8.13,3.81,4.04,1.26,9,.25,11.75-3.05,1.84-1.95,3.68-3.9,5.51-5.86-2.63-1.13-5.43-1.9-7.89-3.39-4.28-1.72-9.82-.53-12.73,3.08h0ZM404.91,289.95c-2.06,1.07-4.31,1.68-6.44,2.59,1.79,2,3.67,3.92,5.5,5.88,2.75,3.3,7.71,4.32,11.75,3.06,2.8-1.09,5.42-2.57,8.14-3.83-2.07-2.24-3.97-4.64-6.14-6.78-3.52-2.77-8.96-3.41-12.81-.92h0ZM32.28,290.52c-7.96,8.46-15.65,17.2-22.68,26.43,10.19,5.8,20.7,11.03,31.37,15.91,1.84-2.61,3.75-5.17,5.54-7.8-8.49-2.73-16.48-6.7-24.46-10.61,5.88-6.58,11.74-13.24,18.49-18.99-2.76-1.61-5.41-3.53-8.26-4.94ZM141.72,311.52c7.92,2.34,15.86,4.61,23.86,6.7,1.07-3.48,2.15-6.96,3.21-10.44-4.2-.5-8.37-1.23-12.49-2.15,2.18-3.57,4.68-6.94,7.26-10.24-3.27-1.7-6.53-3.43-9.79-5.13-4.15,7.02-8.11,14.14-12.05,21.27h0ZM368.69,295.38c2.6,3.29,5.06,6.68,7.28,10.22-4.12.96-8.31,1.66-12.51,2.17,1.05,3.49,2.14,6.96,3.21,10.44,7.99-2.09,15.94-4.36,23.86-6.7-3.93-7.13-7.9-14.25-12.05-21.27-3.27,1.7-6.52,3.44-9.79,5.13h0ZM491.74,295.41c6.66,5.86,12.61,12.43,18.46,19.06-7.98,3.92-16.01,7.83-24.47,10.65,1.88,2.56,3.7,5.17,5.56,7.74,10.68-4.87,21.18-10.11,31.37-15.91-7.05-9.27-14.79-18.01-22.75-26.53-2.73,1.65-5.42,3.36-8.17,4.98ZM66.42,299.94c-6.19.92-12.67.52-18.57-1.61-1.84-.76-3.96-.98-5.83-.18-2.83,1.25-5.31,3.21-7.4,5.44-3.29,3.37-6.52,6.81-9.75,10.24,3.55,1.73,7.06,3.56,10.68,5.14,4.01,1.68,8.29,3.39,12.75,2.85,2.44-.57,4.29-2.36,6.3-3.72,5.12-3.88,11.23-7.16,17.87-7.08,4.58.18,9.01,1.43,13.45,2.42-.31-4.67,1.97-9.09,5.26-12.34-1.54-.95-3.12-1.84-4.57-2.91-2.32-1.71-3.82-4.19-5.5-6.45-4.65,3.08-9,7.1-14.68,8.2h0ZM451.14,291.75c-1.12,1.59-2.22,3.2-3.52,4.67-1.79,2.02-4.25,3.26-6.53,4.68,3.29,3.24,5.56,7.67,5.26,12.34,4.3-.97,8.6-2.16,13.03-2.42,6.7-.22,12.92,3.03,18.09,6.93,1.99,1.36,3.83,3.1,6.2,3.8,3.05.49,6.17-.21,9.04-1.23,5.11-1.77,9.85-4.36,14.69-6.7-3.85-4.04-7.61-8.16-11.61-12.05-2.24-1.82-4.69-3.8-7.68-4.12-2.47-.17-4.64,1.24-6.99,1.68-4.96,1.22-10.19,1.37-15.24.62-5.71-1.08-10.04-5.15-14.73-8.2h0ZM164.96,297.94c-2.5,1.6-4.08,4.22-5.85,6.52,2.97.43,6.05,1.21,9.02.51,3.01-.97,3.82-4.32,5.69-6.49-2.93-.23-6.01-2.11-8.86-.54h0ZM358.44,298.47c1.87,2.18,2.68,5.53,5.72,6.5,2.96.7,6.01-.12,8.97-.48-1.26-1.89-2.68-3.7-4.25-5.34-1.19-1.27-2.95-2.04-4.72-1.82-1.93.26-3.77.94-5.71,1.15h0ZM91.86,305.52c-2.5,3.16-2.6,7.47-1.82,11.23,1.08,5.08,4.71,9.31,9.08,12.08-1.16,5.22-.54,11.02,2.7,15.44,2.12,2.87,5.03,5.53,8.74,6.05,7.91,1.25,16.05-4.33,18.02-11.86,1.06-3.95.47-8.36-1.71-11.85-2.86-4.41-10.07-4.82-13.57-.96-1.63,1.75-2.4,4.09-2.79,6.39-.38,2.43,1.53,4.73,3.76,5.56,1.85.55,3.31-1.03,4.31-2.33-1.32-.22-3.14-.34-3.65-1.83-.13-1.21.45-2.68,1.63-3.21,1.11-.18,2.4.1,3.23.88,2.41,3.54-.2,9.14-4.54,9.61-3.16.33-5.69-2.43-6.29-5.25-.89-4.23.37-8.96,3.51-12.05-4.41-.04-8.71-2.43-11.13-6.03-1.61-2.38-1.87-6.02.48-8.03,3.06-2.54,8.2-1.1,9.9,2.35.92,1.48-.11,3.54-1.62,4.18-1.23.09-2.76-.41-3.27-1.6-.35-1.37.7-2.48,1.43-3.52-1.52-.16-3.39-.32-4.47.97-1.01,1.35-.93,3.23-.51,4.78.58,1.84,2.43,2.78,4.05,3.61,2.37,1.23,5.34,1.56,7.82.43,3.55-1.6,6.14-5.6,5.19-9.48-.92-3.67-3.39-6.92-6.57-9.02-6.77-4.5-16.97-3-21.91,3.46h0ZM420.85,300.79c-4.21,1.8-7.51,5.5-8.81,9.81-1.56,5.05,3,10.62,8.27,10.65,2.52.06,4.86-1.09,6.89-2.44,2.18-1.43,2.59-4.56,1.5-6.75-.95-1.6-3.08-1.5-4.69-1.3.71,1.03,1.77,2.16,1.42,3.53-.36.94-1.44,1.35-2.35,1.57-1.71.41-2.78-1.54-2.92-2.92.84-4.39,7.24-6.52,10.53-3.34,2.26,2.27,1.68,6.01-.15,8.36-2.5,3.26-6.56,5.44-10.75,5.47,2.68,2.59,3.91,6.38,3.79,10.02-.07,2.44-1.08,5.02-3.2,6.43-1.5,1.02-3.55,1.16-5.16.34-2.95-1.46-4.44-5.18-3.25-8.22.45-1.49,2.31-1.95,3.7-1.76,1.2.5,1.77,1.99,1.66,3.2-.5,1.5-2.33,1.62-3.65,1.84,1,1.31,2.48,2.91,4.35,2.32,2.2-.85,4.09-3.13,3.71-5.55-.45-2.8-1.57-5.72-3.99-7.44-4.02-2.92-10.63-1.72-12.86,2.82-1.89,3.68-2.29,8.11-.92,12.01,2.39,7.05,10.17,12.1,17.74,10.9,3.82-.56,6.79-3.35,8.92-6.33,3.08-4.38,3.63-10.05,2.51-15.16,4.38-2.77,8-7,9.08-12.09.74-3.67.69-7.83-1.63-10.96-4.31-5.93-13.04-7.9-19.74-4.98h0ZM57.54,317.86c-7.12,4.51-12.37,11.34-16.42,18.54-3.6,6.49-6.59,13.26-9.76,19.96,6.47,2.33,12.91,4.78,19.49,6.81,8.56,2.6,17.77,4.12,26.65,2.27,6.89-1.4,13.09-5.62,16.9-11.42,2.41-3.75,3.6-8.56,1.94-12.82-2.93,3.24-5.58,6.73-8.82,9.69-4.45,3.99-10.51,5.87-16.47,5.91-9.5,0-18.83-2.26-27.76-5.29,3.93-8.09,8.76-15.86,15.1-22.35,4.31-4.39,10.11-7.59,16.4-7.9,4.49-.18,8.96.44,13.43.75-1.89-4.2-6.23-6.77-10.65-7.75-6.82-1.44-14.19-.14-20.04,3.59h0ZM454.2,314.39c-4.25,1.05-8.36,3.59-10.18,7.64,6.48-.37,13.24-1.8,19.54.47,4.56,1.56,8.47,4.59,11.65,8.11,5.66,6.22,10.14,13.42,13.73,20.96-6.17,2.03-12.46,3.8-18.94,4.64-4.77.61-9.66.99-14.4.02-4.56-.88-8.83-3.14-12.06-6.42-2.69-2.74-5.09-5.73-7.64-8.59-.53,1.76-1.03,3.58-.72,5.43.66,6.37,5.26,11.64,10.49,15.11,7.1,4.62,16.08,5.13,24.3,4.01,10.74-1.53,20.76-5.86,30.91-9.41-2.71-5.8-5.37-11.61-8.31-17.3-3.98-7.63-9.07-14.97-16.2-20.09-6.25-4.61-14.57-6.39-22.18-4.58h0ZM60.84,330.23c-6.71,5.13-11.23,12.48-14.53,20.07,8.11,3.18,16.97,5.3,25.74,3.98,6.67-1.04,13.57-3.35,18.19-8.42,2.98-3.24,5.68-7.44,4.93-12-1.49,1.12-2.87,2.43-4.6,3.2-4.45,1.97-9.49,1.33-14.22,1.04,2.69-3.11,5.42-6.37,9.09-8.4,2.19-1.26,4.76-1.43,7.22-1.66-2.5-3.59-7.19-4.72-11.36-5.04-7.53-.66-14.65,2.87-20.48,7.23h0ZM439.76,327.68c.05.1.13.29.18.39,2.13.23,4.33.34,6.27,1.33,3.99,1.94,6.83,5.46,9.71,8.69-4.38.29-8.96.82-13.2-.61-2.19-.7-3.88-2.26-5.64-3.62-.5,2.95.52,5.93,2.13,8.4,1.79,2.73,4.05,5.19,6.8,7.01,3.84,2.56,8.36,3.94,12.89,4.8,9.16,1.72,18.54-.4,27.06-3.77-3.27-7.49-7.7-14.74-14.28-19.87-5.64-4.27-12.47-7.79-19.79-7.48-4.38.2-9.22,1.23-12.12,4.74h0ZM87.7,330.59c-3.1,1.04-5.24,3.58-7.37,5.89,3.1.12,6.38.44,9.28-.9,1.82-.91,3.71-2.1,4.52-4.02-.92.12-1.85.27-2.77.42.75-.53,1.5-1.07,2.24-1.62-1.9-.8-4.03-.34-5.92.23ZM438.63,330.32c.73.57,1.49,1.12,2.25,1.67-.92-.16-1.84-.31-2.76-.43.77,1.84,2.53,2.99,4.25,3.89,2.95,1.48,6.35,1.16,9.55,1.03-2.12-2.31-4.26-4.85-7.36-5.89-1.9-.59-4.01-1-5.93-.28h0ZM131.76,335.06c-1.72,2.9-2.4,6.26-3.6,9.38,2.49.2,4.99.34,7.48.52,3.96.42,7.8-1.81,10.06-4.9,1.18-1.5,1.27-3.48,2.09-5.15.71-1.52,1.38-3.05,2.07-4.57-2.89,0-5.78-.17-8.67-.26-3.77-.23-7.32,2.01-9.41,4.97h0ZM382.48,330.41c.77,2.08,1.91,4.01,2.6,6.12,1.05,5.21,6.65,9.1,12,8.4,2.34-.18,4.69-.29,7.03-.51-1.06-2.81-1.84-5.72-3.08-8.46-2.01-3.61-6.16-6.28-10.44-5.86-2.71.12-5.41.19-8.11.31h0ZM100.88,348.9c-2.31,3.63-4.5,7.4-7.38,10.64-3.21,3.46-7.68,5.48-12.22,6.67-3.64,1-7.45,1.11-11.11,1.99-1.54.35-2.76,1.39-3.76,2.54-1.96,2.08-3.2,4.68-4.34,7.25-1.84,4.22-3.17,8.62-4.65,12.96,5.47.19,10.94.46,16.41.47,2.65-.13,5.41-.45,7.79-1.67,1.5-.79,2.53-2.19,3.19-3.7,2.35-5.07,6.08-9.43,10.45-12.95,4.91-4.24,11.75-4.42,17.86-5.55-.34-2.12-.82-4.22-.88-6.37-.04-2.47.72-4.86,1.26-7.25-4.67.04-9.46-1.57-12.62-5.05h0ZM418.76,353.94c.54,2.39,1.3,4.78,1.26,7.26-.06,2.14-.53,4.25-.89,6.36,5.49,1.06,11.46,1.21,16.26,4.36,5.42,3.85,9.83,9.07,12.54,15.09,1.75,3.46,6.06,4.07,9.58,4.39,5.78.1,11.55-.26,17.33-.44-2.1-6.05-3.82-12.33-7.18-17.87-1.42-1.98-3-4.23-5.54-4.87-3.66-.91-7.49-1-11.13-2-4.76-1.24-9.45-3.41-12.67-7.16-2.66-3.15-4.75-6.7-6.94-10.16-3.16,3.48-7.96,5.08-12.62,5.05h0ZM221.28,357.13c-.71,2.91.11,5.91.51,8.82,2.36-1.7,4.99-3.27,6.65-5.7,1.63-2.79-.3-5.83-.54-8.71-2.22,1.83-5.64,2.62-6.62,5.6h0ZM304.36,351.53c-.21,1.74-.78,3.41-1.11,5.13-.36,1.76.26,3.63,1.57,4.87,1.72,1.66,3.66,3.09,5.66,4.4.38-2.91,1.22-5.91.49-8.82-.99-2.96-4.4-3.75-6.62-5.59h0ZM207.78,359.6c2.13,7.84,4.44,15.63,6.82,23.4,7.27-3.84,14.49-7.76,21.67-11.78-1.68-3.25-3.5-6.41-5.22-9.63-3.36,2.54-6.81,4.96-10.42,7.14-.98-4.05-1.69-8.14-2.22-12.27-3.55,1.03-7.09,2.11-10.63,3.15h0ZM313.84,356.45c-.53,4.12-1.24,8.23-2.22,12.27-3.61-2.18-7.07-4.6-10.42-7.14-1.73,3.21-3.5,6.4-5.23,9.6,7.15,4.07,14.41,7.96,21.68,11.82,2.39-7.77,4.69-15.56,6.83-23.4-3.55-1.05-7.09-2.11-10.64-3.15h0ZM177.44,362.87c-4.5.47-9.19.61-13.36,2.55-5.59,2.53-9.79,7.13-13.69,11.65-2.93,4.62-2.9,10.35-2.25,15.58.63,4.87,3.13,9.56,7.22,12.47,3.14,2.21,7.02,4.09,10.99,3.27,4.93-1.09,9.3-4.51,11.4-9.04,2.66-5.51,1.49-12.36-2.39-17.03-2.85-3.41-8.41-4.41-12.12-1.79-3.29,2.5-5.03,7.2-3.38,11.07.89,2.25,3.4,3.89,5.88,3.51,1.56-.54,3.09-2.09,2.75-3.83-1.19.27-2.66,1.02-3.72.03-1.59-1.16-.89-3.73.82-4.4,1.03-.52,2.24-.04,3.04.68,2.88,2.55,2.69,7.83-.67,9.91-2,1.28-4.6.5-6.46-.65-2.4-1.49-3.4-4.31-3.88-6.93-.8-4.17.68-8.67,3.77-11.63,2.57-2.46,6.58-3.37,9.96-2.13,2.86.99,4.73,3.46,6.82,5.47.79-1.07,1.63-2.12,2.79-2.82,2.27-1.5,5.05-1.8,7.56-2.74,3.03-1.02,5.84-2.57,8.5-4.3.24-.01.71-.02.96-.02-.17,3.77-.92,7.53-.6,11.32.31,3.45.61,7.18-1.24,10.3,1.67.68,3.38,1.26,5.04,1.95,2.95,1.4,4.63,4.54,5.01,7.64,1.87-1.41,4.15-2.38,6.54-2.33,2.73-.02,4.99,1.66,7.48,2.52.84-3.15,3.28-5.49,5.76-7.49,3.28-2.57,5.69-6,8.45-9.05.32.29.78.52.81,1.01.75,4.27,2.44,8.33,4.69,12.05,1.39,2.27,2.03,5,1.43,7.63,2.95.09,6.11-.43,8.86.93,3.61,1.62,5.76,5.63,5.38,9.46-.39,5.79-5.12,10.89-10.88,12.01-2.77.34-6.1-.79-7.36-3.38-1.76-4.36,3.22-9.4,7.71-7.92,2.44.81,1.82,4.95-.77,5.03-1.7.27-2.44-1.42-3.06-2.61-1.46.97-1.52,2.99-.92,4.47,1.39,2.11,4.48,2.77,6.78,1.77,5.11-2.09,7.54-9.32,4.02-13.71-2.06-2.71-5.72-4.1-9.11-3.52-3.71.61-7.25,2.39-9.84,5.09-5.24,5.29-5.71,14.24-1.28,20.14,2.31,2.91,6.11,4.1,9.68,4.69,5.19.82,10.52-.98,14.55-4.18,4.05-3.22,8.04-7.15,9.18-12.32.5-5.93.83-12.14-1.36-17.8-1.54-4.08-4.6-7.33-7.35-10.65-6.1-7.4-12.16-14.83-18.26-22.24-7.63,4.8-15.91,8.48-23.76,12.93-2.35-8.59-5.56-16.94-7.48-25.64-9.54,1.02-19.09,2.03-28.64,3.04h0ZM326.17,359.83c-1.92,8.7-5.13,17.05-7.48,25.64-7.84-4.45-16.12-8.13-23.76-12.93-7.45,9.11-14.96,18.18-22.4,27.31-4.83,5.88-5.35,13.83-4.76,21.06.01,6.31,4.95,11.17,9.65,14.86,4.34,3.39,10.2,5.02,15.67,3.72,3.32-.71,6.77-2.12,8.7-5.01,3.06-4.65,3.48-10.89.94-15.84-1.66-3.33-4.6-5.98-8.04-7.48-2.53-1.12-5.4-1.86-8.16-1.22-3.69.78-6.88,3.99-7.06,7.78-.11,3.8,2,7.86,5.71,9.34,2.29.98,5.34.33,6.75-1.75.61-1.47.55-3.51-.91-4.49-.63,1.2-1.37,2.89-3.08,2.61-2.58-.09-3.19-4.22-.74-5.03,4.25-1.38,9,3.06,7.9,7.31-.52,2.18-2.79,3.39-4.84,3.88-2.86.7-5.7-.63-7.98-2.21-3.6-2.44-5.78-6.74-5.63-11.02.12-3.55,2.43-6.97,5.8-8.31,2.66-1.15,5.63-.65,8.45-.75-.61-2.63.04-5.37,1.44-7.64,2.16-3.6,3.85-7.51,4.58-11.64.03-.59.42-1.03.78-1.46,2.38,2.44,4.32,5.26,6.82,7.58,2.91,2.59,6.51,5,7.47,8.99,1.69-.59,3.28-1.4,4.93-2.06,3.12-1.09,6.61-.06,9.14,1.9.3-2.26,1.19-4.48,2.85-6.11,1.91-1.97,4.79-2.36,7.21-3.49-1.68-2.82-1.63-6.19-1.31-9.34.47-4.1-.34-8.18-.54-12.27.25,0,.75.03,1,.04,2.64,1.74,5.43,3.26,8.45,4.28,2.5.94,5.28,1.24,7.55,2.73,1.16.71,2.02,1.76,2.81,2.84,2.19-2.11,4.19-4.74,7.27-5.62,3.83-1.21,8.22.32,10.61,3.44,3.47,4.21,3.75,10.42,1.06,15.08-1.28,2.09-3.67,3.42-6.13,3.6-2.65.21-4.82-2.17-5.18-4.6-.48-2.6.63-5.83,3.35-6.78,2.33-.69,4.44,2.61,2.66,4.31-1.02,1.24-2.69.55-3.96.19-.35,1.74,1.18,3.28,2.72,3.83,2.48.39,5.01-1.26,5.91-3.51,1.65-3.89-.1-8.59-3.4-11.09-3.74-2.62-9.31-1.59-12.14,1.86-2.75,3.37-4.14,7.83-3.7,12.13.64,6.85,6.38,12.76,13.23,13.98,3.72.58,7.29-1.15,10.27-3.17,4.22-2.9,6.83-7.68,7.47-12.65.65-5.23.69-10.97-2.26-15.59-2.44-2.88-5.04-5.67-7.98-8.09-3.66-3.04-8.22-5.03-13.01-5.48-11.56-1.2-23.13-2.43-34.69-3.67h0ZM44.38,399.34c11.67,1.64,23.44,2.48,35.22,2.97.72-3.08,1.45-6.16,2.17-9.25-8.92.59-17.86-.03-26.77-.61,2.8-8.31,5.63-16.65,9.63-24.49-3.18-.57-6.36-1.1-9.53-1.65-4.04,10.86-7.71,21.86-10.72,33.03h0ZM467.62,367.96c4,7.84,6.84,16.18,9.63,24.49-8.9.58-17.84,1.2-26.76.61.72,3.08,1.45,6.16,2.17,9.25,11.77-.49,23.55-1.33,35.22-2.97-3.01-11.18-6.68-22.17-10.72-33.03-3.18.56-6.36,1.09-9.54,1.65h0ZM92.85,378c-5.45,5.18-8.71,12.23-10.36,19.42-1.45,6.66-1.92,13.48-2.13,20.28-.1,8.87-.71,17.73-1.11,26.59,8.88-.38,17.75-.98,26.63-1.08,6.52-.16,13.05-.59,19.46-1.76,7.51-1.4,14.9-4.4,20.54-9.57,5.53-5.07,8.59-12.77,7.66-20.17-.54-2.24-.87-5.16-3.36-6.12-1.19,3.75-2.04,7.64-3.78,11.21-2.3,4.87-6.25,9-11.18,11.37-7.73,3.56-16.18,5.58-24.7,6.04-7.35.45-14.7,1.27-22.07,1.05-.26-4.2.21-8.39.42-12.59.59-8.17.79-16.5,3.35-24.37,1.37-4.17,2.78-8.44,5.37-12.06,2.37-3.29,5.65-5.91,9.33-7.66,3.72-1.81,7.82-2.66,11.76-3.86-.98-2.44-3.94-2.76-6.21-3.3-7.1-.87-14.51,1.74-19.64,6.58h0ZM413.56,374.71c3.72,1.13,7.56,1.95,11.11,3.56,5.2,2.28,9.61,6.32,12.04,11.4,2.17,4.64,3.79,9.54,4.82,14.55,1.13,5.63,1.32,11.38,1.76,17.09.24,4.64.78,9.28.51,13.94-4.13.25-8.25-.18-12.37-.39-8.59-.6-17.33-.77-25.6-3.4-4.14-1.33-8.37-2.68-11.97-5.16-3.29-2.26-5.92-5.38-7.71-8.9-1.93-3.73-2.84-7.84-4.06-11.81-.81.4-1.68.85-2.03,1.73-1.36,2.95-1.88,6.27-1.38,9.49.65,5.48,3.19,10.74,7.22,14.61,5.32,5.12,12.38,8.19,19.59,9.74,8.69,1.79,17.6,2,26.44,2.16,7.03.21,14.04.67,21.06.96-.35-7.95-.9-15.89-1.06-23.85-.08-6.4-.44-12.81-1.44-19.14-1.22-7.94-4.19-15.84-9.71-21.89-5.16-5.71-13.23-8.92-20.98-7.99-2.28.54-5.29.85-6.26,3.31h0ZM190.74,377.06c-1.7.79-3.7.88-5.22,2.04-3.15,2.21-5.44,5.98-5.01,9.87.19,2.45.32,4.9.54,7.35,2.77-.96,5.61-1.76,8.33-2.86,3.32-1.62,5.85-4.93,6.28-8.56.01-3.26-.22-6.52-.32-9.78-1.55.59-3.08,1.28-4.59,1.95h0ZM336.92,375.11c-.13,2.95-.24,5.91-.34,8.87-.08,2.68,1.28,5.2,3.09,7.14,2.98,3.2,7.64,3.65,11.56,5.2.18-2.31.32-4.62.5-6.92.7-5.24-3.27-10.71-8.57-11.73-2.15-.67-4.11-1.8-6.23-2.55h0ZM135.1,379.7c-3.17.34-6.3,1.8-8.21,4.36-2.4,3.11-2.83,7.37-1.75,11.05.58,1.99,2.24,3.61,4.28,4.17,3.75,1.04,8.07.62,11.23-1.73,2.61-1.88,4.09-4.95,4.44-8.06.53-4.5,1.55-8.96,3.4-13.12-4.24,1.83-8.8,2.82-13.39,3.34h0ZM383.77,376.37c1.87,4.17,2.88,8.64,3.41,13.15.35,3.09,1.83,6.15,4.42,8.02,3.17,2.36,7.52,2.79,11.28,1.73,2.02-.57,3.66-2.18,4.24-4.15,1.09-3.7.65-7.97-1.77-11.09-1.92-2.54-5.04-3.99-8.2-4.33-4.59-.52-9.14-1.52-13.38-3.34h0ZM98.86,389.4c-6.35,8.87-7.76,19.99-8.06,30.55.68-.63,1.31-1.31,1.73-2.13,1.5-2.68,3.91-4.76,6.49-6.42,3.65-2.27,7.1-4.84,10.33-7.65,4.08-4.08,4.65-10.05,6.85-15.1,1.53-4.39,4.58-8.61,9.28-10.05-2.36-2.21-5.96-1.78-8.93-1.41-7.51.98-13.46,6.4-17.69,12.21h0ZM406.92,378.65c2.81,1.01,5.27,2.88,6.85,5.39,3.22,5.02,3.98,11.07,6.64,16.33,1.59,3.27,4.79,5.26,7.58,7.46,3.36,2.66,7.46,4.44,10.21,7.8,1.23,1.34,1.79,3.16,3.25,4.32-.29-6.9-.77-13.89-3.02-20.48-2.47-7.6-7.4-14.49-14.13-19.02-4.1-2.75-9.23-3.92-14.15-3.41-1.08.31-2.81.53-3.22,1.6h0ZM122.8,381.83c-2.22,1.64-3.28,4.28-4.4,6.68-1.37,3.17-2.66,6.4-3.38,9.78-.8,3.9-3.09,7.45-6.27,9.92-4.21,3.49-10.04,4.7-13.65,8.94-3.84,4.36-4.42,10.41-4.43,15.94,5.23-.03,10.85-.47,15.25-3.57,3.53-2.43,5.41-6.38,7.32-10.03,1.95-3.56,4.7-6.86,8.43-8.73,2.91-1.55,6.29-1.75,9.35-2.9,3.5-1.32,7.11-2.53,10.22-4.64,2.14-1.46,3.23-4,3.24-6.51-2.31,1.88-4.51,4.04-7.42,4.98-4.04,1.38-9.09,1.01-12.23-2.08-3.18-3.08-3.56-8.05-2.15-12.02.97-2.86,3.17-5.02,5.08-7.28-1.75.09-3.55.44-4.96,1.52h0ZM404.5,380.31c1.91,2.26,4.1,4.41,5.08,7.26,1.42,3.97,1.03,8.97-2.15,12.05-3.14,3.09-8.2,3.46-12.24,2.08-2.9-.95-5.1-3.11-7.4-4.98.01,2.49,1.08,5.02,3.21,6.48,2.98,2.05,6.47,3.22,9.84,4.52,3.4,1.33,7.21,1.49,10.38,3.38,3.93,2.18,6.63,5.93,8.57,9.83,1.72,3.41,3.77,6.9,7.14,8.99,4.32,2.75,9.65,3.14,14.66,3.18-.04-4.93-.43-10.16-3.26-14.4-2.06-3.2-5.47-5.19-8.84-6.83-5.37-2.43-10.43-6.55-11.95-12.39-1.18-5.19-3.07-10.25-5.69-14.92-1.41-2.64-4.32-4.28-7.35-4.23h0ZM227.7,396.41c-3.1,2.62-4.02,7.14-3,10.91,1.06,2.9,2.71,5.56,4.02,8.36,1.93-1.63,3.84-3.28,5.77-4.91,3.03-2.45,4.11-6.67,3.48-10.36-.25-1.82-1.53-3.24-2.17-4.91-.61-1.58-1.21-3.17-1.9-4.72-2.08,1.87-4.15,3.75-6.21,5.63h0ZM298.34,390.78c-1.16,2.57-1.93,5.31-3.45,7.71-1.77,4.21-.56,9.66,3.14,12.52,1.84,1.55,3.66,3.12,5.49,4.68,1.62-3.82,4.61-7.35,4.42-11.69-.11-2.71-1.05-5.53-3.16-7.38-2.15-1.96-4.3-3.9-6.45-5.85h0ZM185.07,396.59c-6.61,2.71-11.19,9.96-10.03,17.01.57,3.76,3.43,6.68,6.49,8.77,4.46,3.01,10.22,3.54,15.42,2.44,2.84,4.32,7.21,7.9,12.44,8.93,3.58.67,7.62.65,10.75-1.42,4.9-3.23,7.33-9.35,6.62-15.02-.6-6.24-5.51-11.8-11.71-13.3-5.19-1.21-10.65,3.49-10.38,8.65.06,2.33,1.19,4.46,2.5,6.35,1.46,2.14,4.67,2.52,6.9,1.43,1.59-.95,1.49-3,1.29-4.58-1.06.7-2.21,1.74-3.6,1.39-1.2-.51-1.72-2-1.62-3.2.68-1.6,3-2.56,4.53-1.45,3.53,1.85,4.77,7.29,1.65,10.03-2.36,1.98-5.97,1.36-8.29-.37-3.32-2.46-5.54-6.43-5.56-10.54-2.65,2.62-6.52,3.84-10.23,3.71-2.38-.07-4.87-.98-6.35-2.87-1.11-1.4-1.42-3.37-.69-5,1.39-3.21,5.61-4.85,8.85-3.38,1.05.41,1.37,1.6,1.52,2.59.32,1.74-1.86,2.69-3.31,2.53-1.52-.5-1.65-2.28-1.87-3.58-1.33.97-2.95,2.42-2.37,4.25.85,2.17,3.19,4.03,5.66,3.66,2.86-.45,5.86-1.55,7.6-3.94,3.03-4.03,1.65-10.66-3.16-12.72-4.05-1.9-8.92-2.11-13.06-.37h0ZM333.28,397.42c-3.7,2.12-4.85,7.11-3.17,10.83,1.03,2.33,3.26,3.96,5.69,4.71,1.75.54,3.77,1.15,5.5.21,1.4-.79,2.71-2.06,3.04-3.67.17-1.68-1.27-2.86-2.48-3.78-.23,1.3-.35,3.12-1.9,3.58-1.23.09-2.7-.47-3.23-1.62-.17-1.11.12-2.42.97-3.21,3.64-2.28,9.27.28,9.73,4.53.32,3.08-2.47,5.53-5.33,6.14-4.32.88-9.16-.35-12.31-3.44-.06,4.42-2.59,8.77-6.43,11.08-2.48,1.5-6.25,1.56-8.13-.9-2.29-3.06-.79-7.82,2.61-9.44,1.5-.9,3.61.1,4.26,1.58.09,1.2-.42,2.66-1.6,3.2-1.41.36-2.56-.69-3.62-1.39-.2,1.58-.31,3.63,1.29,4.58,2.24,1.09,5.46.7,6.92-1.45,1.37-1.99,2.55-4.27,2.49-6.74-.01-5.17-5.69-9.66-10.85-8.14-4.38,1.27-8.16,4.5-10,8.62-2.94,6.48-1.05,14.89,4.81,19.21,3.21,2.44,7.58,2.54,11.41,1.79,5.19-1.05,9.53-4.62,12.35-8.91,5.2,1.1,10.98.57,15.44-2.45,3.04-2.09,5.89-5.01,6.46-8.76,1.2-7.28-3.72-14.77-10.69-17.26-4.29-1.56-9.28-1.15-13.24,1.08h0ZM146.22,398.92c-.76,1.97-1.84,3.85-3.45,5.27-3.01,2.74-7.04,3.94-10.83,5.24-3.98,1.27-8.31,2.3-11.36,5.3-1.65,1.75-3.1,3.66-4.58,5.55-2.45,3.08-4.18,6.74-7.3,9.28-1.41,1.32-3.39,1.88-4.64,3.38,4.68-.25,9.38-.4,14-1.27,7.39-1.29,14.64-4.15,20.31-9.05,4.51-3.87,8.51-8.89,9.27-14.89.39-2.93.82-6.46-1.42-8.81h0ZM384.44,406.28c.26,3.76,1.66,7.4,3.92,10.45,3.24,4.37,7.52,7.98,12.38,10.52,8.39,4.44,18.09,5.4,27.47,5.7-1.18-1.44-3.04-1.98-4.41-3.19-3.42-2.69-5.24-6.71-7.93-10-2.25-2.76-4.3-5.92-7.66-7.48-5.46-2.63-11.75-3.36-16.9-6.68-2.53-1.57-4.29-4.06-5.35-6.77-1.65,2.11-1.87,4.89-1.51,7.45h0ZM164.42,411.93c-2.35,0-4.64-.5-6.94-.87-1.11,5.48-1.25,11.47-4.64,16.2-3.79,4.97-8.75,9.16-14.55,11.71-1.86.76-3.37,2.3-4.02,4.18-.91,2.64-1.23,5.44-1.13,8.22.09,4.77.29,9.54.48,14.31,6.47-2.2,13.29-3.87,19.07-7.61,1.69-1.29,3.59-2.7,4.11-4.87.88-3.43,1-7.01,1.92-10.44,1.12-4.32,2.99-8.61,6.23-11.81,3.39-3.22,7.6-5.43,11.54-7.92-3.55-3.09-5.17-7.8-5.14-12.36-2.29.5-4.58,1.18-6.93,1.24h0ZM360.91,410.69c.04,4.58-1.6,9.28-5.15,12.38,3.7,2.26,7.52,4.39,10.82,7.21,4.97,4.47,7.05,11.14,7.9,17.52.45,2.4.46,5.02,1.76,7.18,1.69,2.19,4.08,3.79,6.59,4.98,5.05,2.46,10.49,3.98,15.82,5.74.18-5.67.55-11.35.45-17.02-.32-3.45-.97-7.68-4.5-9.39-6.12-2.65-11.43-6.97-15.35-12.28-3.21-4.71-3.37-10.56-4.45-15.94-2.16.35-4.31.81-6.49.87-2.52.03-4.96-.71-7.39-1.24ZM266.11,424.18c-1.19,2.89-2.66,5.68-4.49,8.23-1.84,2.71-4.43,5.11-5.08,8.44-1.31,5.39,2.35,10.92,7.3,13.1,1.73.7,3.76.52,5.38-.38,3.63-2.02,6.53-5.72,6.72-9.91.19-2.97-1.08-5.84-2.96-8.09-2.81-3.47-5.19-7.27-6.87-11.38h0ZM173.04,428.44c-4.45,2.22-8.06,5.88-10.55,10.1-3.87,6.67-4.24,14.7-3.23,22.15,1.52,10.63,5.98,20.53,9.62,30.57,8.45-3.89,17.16-7.38,25.05-12.33,6.32-4.06,12.2-9.21,15.67-15.9,2.6-5.02,3.34-10.87,2.35-16.39-.89-4.6-3.54-9.21-8.06-11.17.31,4.38.94,8.77.77,13.17-.32,6.18-3.59,11.87-8.07,16.1-6.6,6.22-14.54,10.9-22.73,14.82-2.88-7.9-4.94-16.14-5.38-24.54-.31-5.16.49-10.52,3.15-15.04,3.01-5.21,8.28-8.53,12.7-12.47-3.69-1.38-7.82-.75-11.29.92h0ZM347.93,427.52c3.39,2.95,7.06,5.6,10.12,8.91,4.13,4.55,5.91,10.76,5.8,16.78-.19,9.01-2.35,17.91-5.45,26.36-6.41-3.11-12.67-6.59-18.25-10.99-4.9-3.77-9.47-8.39-11.43-14.31-2.13-6.09-.71-12.55-.34-18.79-5.02,2.2-7.72,7.57-8.3,12.71-.74,6.04.67,12.3,4.06,17.41,4.29,6.52,10.67,11.45,17.45,15.3,7.03,3.92,14.48,7.03,21.8,10.37,2.34-6.26,4.79-12.48,6.86-18.83,2.67-8.37,4.26-17.37,2.48-26.08-1.38-6.99-5.83-13.33-12-17.1-3.77-2.25-8.56-3.32-12.8-1.73h0ZM179.11,433.94c-5.09,4.78-7.3,11.71-8.23,18.39-1.06,8.29,1.07,16.6,4.19,24.26,8.84-3.67,17.38-9.06,22.57-17.18,3.44-5.18,5.95-11.32,5.22-17.61-.37-3.95-1.58-8.35-5.11-10.69-.24,2.41-.41,4.93-1.68,7.07-2.07,3.6-5.4,6.29-8.58,8.92-.27-4.29-.82-8.77.64-12.92.71-2.14,2.31-3.8,3.69-5.53-4.89-.75-9.32,2.16-12.72,5.29h0ZM340.42,428.65c1.38,1.73,2.98,3.39,3.69,5.53,1.46,4.15.92,8.64.64,12.93-3.17-2.63-6.5-5.31-8.56-8.91-1.28-2.15-1.45-4.67-1.69-7.09-3.66,2.45-4.82,7.05-5.14,11.15-.66,7.27,2.83,14.15,7.16,19.82,5.24,6.72,12.83,11.23,20.67,14.52,3.25-7.95,5.4-16.63,4.06-25.22-1.06-6.55-3.4-13.33-8.58-17.87-3.31-2.92-7.58-5.59-12.24-4.85ZM190.06,434.14c-1.36,2.84-1.03,6.04-.9,9.08,2.26-2.02,4.76-4.02,5.88-6.91.69-1.95,1.15-4.14.4-6.14-.59.71-1.15,1.45-1.7,2.2.16-.9.31-1.8.44-2.7-1.97.8-3.19,2.66-4.11,4.46h0ZM338.08,429.68c.12.9.27,1.8.44,2.71-.56-.75-1.12-1.49-1.71-2.21-.74,2-.29,4.19.41,6.14,1.12,2.88,3.62,4.89,5.88,6.9.11-2.93.44-6.01-.78-8.78-.9-1.92-2.18-3.9-4.24-4.76h0ZM212.65,437.75c.97,4.06,2.09,8.12,2.44,12.29.37,5.59-1.99,10.97-5.07,15.54-1.85,2.87-4.46,5.3-5.77,8.49-.65,2.92.05,5.98,1.03,8.76,1.8,5.15,4.51,9.92,6.96,14.79,2.56-2.28,5.08-4.6,7.61-6.92,2.61-2.44,5.43-4.77,7.28-7.85,1.46-2.04,2.16-4.75,1.15-7.13-2.34-5.97-2.85-12.54-1.87-18.83,1.11-5.59,5.22-9.85,8.36-14.43-1.62-1.13-3.27-2.2-4.77-3.48-2.06-1.76-3.32-4.17-4.77-6.4-3.31,3.22-7.82,5.46-12.58,5.16h0ZM307.03,432.6c-1.45,2.22-2.72,4.64-4.77,6.4-1.5,1.28-3.16,2.35-4.77,3.48,3.14,4.57,7.25,8.84,8.36,14.42.83,5.38.59,10.95-.96,16.18-.7,2.28-1.98,4.64-1.1,7.06,1.12,3.09,3.35,5.69,5.76,7.91,3.45,3.24,6.95,6.41,10.45,9.59,2.67-5.29,5.65-10.49,7.42-16.16.69-2.29,1.06-4.75.67-7.11-.92-2.75-3.08-4.84-4.71-7.19-3.68-4.93-6.61-10.87-6.21-17.13.34-4.17,1.47-8.23,2.43-12.29-4.76.3-9.27-1.93-12.58-5.16h0ZM251.91,448.25c.69,3.56,2.32,6.86,3.81,10.15,1.37,3.09,3.77,5.69,4.68,8.99,1.35,4.4.55,9.12-.96,13.38-1.24,3.63-2.29,7.55-1.34,11.38,1.12,4.86,4.56,8.76,8.03,12.22,3.95-3.9,7.88-8.52,8.35-14.24.54-5.55-2.76-10.48-3.21-15.91-.4-3.62.3-7.38,2.22-10.51,2.9-4.48,5.18-9.37,6.66-14.48.87-2.8-.1-5.88-2.23-7.88-.22,3.03-.28,6.21-1.77,8.96-1.9,3.64-5.67,6.73-10.01,6.69-4,.06-7.51-2.6-9.53-5.8-1.91-2.93-2.06-6.49-2.27-9.85-1.84,1.78-2.94,4.36-2.43,6.91h0ZM122.04,443.94c.5,11.55,1.36,23.1,3.03,34.54,11.39-2.96,22.6-6.55,33.68-10.51-.57-3.12-1.11-6.24-1.69-9.35-7.99,3.93-16.5,6.71-24.96,9.45-.59-8.74-1.23-17.5-.63-26.25-3.14.71-6.28,1.41-9.43,2.13h0ZM245.69,445.03c-2.48,2.7-4.38,5.94-5.14,9.52-1.8,8.35-.11,17.22,4.02,24.68,3.13,5.9,7.67,10.89,12.2,15.78.19-1.98-.85-3.8-.85-5.76-.35-4.03,1.12-7.87,1.58-11.82.41-3.65,1.31-7.46-.02-11.03-1.98-5.6-5.86-10.46-7.1-16.33-.64-2.9-.12-5.93,1.16-8.58-2.33.43-4.39,1.75-5.86,3.55h0ZM280.71,441.48c.83,1.85,1.47,3.81,1.42,5.85.04,3.75-1.66,7.2-3.27,10.51-1.61,3.34-3.75,6.5-4.53,10.17-.68,2.98.06,6.01.36,8.99.45,4.24,2.09,8.36,1.61,12.67-.09,1.81-1.02,3.49-.81,5.34,3.63-3.99,7.37-7.94,10.25-12.5,5.42-8.15,8.07-18.33,5.96-27.96-.9-4.22-3.38-7.96-6.52-10.91-1.24-1.15-2.84-1.78-4.47-2.15h0ZM400.78,441.81c.6,8.75-.03,17.52-.62,26.25-8.47-2.74-16.97-5.52-24.97-9.45-.58,3.12-1.12,6.24-1.69,9.36,11.07,3.96,22.28,7.55,33.68,10.51,1.67-11.45,2.53-23,3.03-34.54-3.14-.71-6.29-1.42-9.43-2.13h0ZM241.26,443.46c-6.05,2.12-10.07,7.69-12.1,13.45-2.87,8.65-.26,18.07,4.16,25.75,4.11,6.95,9.62,12.98,15.23,18.79,6.04,6.09,11.74,12.49,17.57,18.76,6.47-7.01,12.89-14.07,19.6-20.86,6.23-6.7,12.48-13.73,15.93-22.25,2.73-6.72,3.78-14.48,1.01-21.35-2.16-5.29-6.02-10.33-11.68-12.29-.86-.36-1.77-.04-2.61.19,2.03,3.74,4.41,7.35,5.72,11.42,1.67,4.97,1.65,10.47-.18,15.4-1.54,4.04-3.5,7.92-5.8,11.6-3.45,5.57-8.05,10.31-12.36,15.23-3.17,3.42-6.09,7.07-9.63,10.14-1.44-1.33-2.9-2.63-4.18-4.1-4.15-4.61-8.33-9.18-12.35-13.9-4.73-5.46-8.4-11.76-11.06-18.42-1.83-4.62-2.11-9.79-.79-14.57,1.18-4.62,3.87-8.65,6.13-12.81-.84-.23-1.76-.55-2.61-.19h0ZM192.84,481.83c4.97,10.47,10.31,20.78,16.22,30.78,9.45-6.92,18.36-14.51,27.05-22.32-1.71-2.68-3.41-5.37-5.13-8.04-5.87,6.62-12.65,12.36-19.36,18.13-3.98-7.82-8.04-15.66-10.81-23.98-2.69,1.75-5.3,3.63-7.96,5.43h0ZM331.46,476.39c-2.79,8.32-6.83,16.17-10.82,23.99-6.75-5.74-13.44-11.58-19.42-18.1-1.65,2.69-3.39,5.33-5.07,8,8.68,7.81,17.59,15.4,27.05,22.32,5.91-9.99,11.25-20.3,16.22-30.77-2.66-1.81-5.27-3.67-7.95-5.43h0Z"/>
  </g>
</svg>