<?xml version="1.0" encoding="UTF-8"?>
<svg id="Layer_2" data-name="Layer 2" xmlns="http://www.w3.org/2000/svg" viewBox="0 0 2540.56 2491.82">
  <defs>
    <style>
      .cls-1 {
        fill: #0a0a0a;
        stroke-width: 0px;
      }
    </style>
  </defs>
  <g id="Layer_2-2" data-name="Layer 2">
    <g>
      <path class="cls-1" d="M1261.02,5.68c3.68-5.44,11.75-8.4,16.39-2.26,29.08,32.37,59.01,64.02,88.92,95.68,13.77,14.98,28.4,29.25,41.13,45.13,43.56-36.8,87.15-73.59,132.22-108.6,5.17-4.55,9.73,1.67,11.75,5.98,25.56,48.28,51.85,96.16,76.38,144.93,37.27-16.42,74.11-33.77,111.43-49.99,13.24,37.69,27.93,74.87,41.94,112.3,52.94-17.55,106.44-33.42,159.76-49.82,4.7-2.09,11.93-1.41,11.53,5.26,6.38,55.67,10.89,111.53,14.94,167.42,61.63-4.67,123.6-4.37,185.25-8.98,5.9.06,14.7-2.26,17.67,4.54,1.11,5.7.27,11.55.02,17.29-4.46,59.1-4.28,118.47-8.83,177.56,57.49,3.96,115,8.31,172.24,14.87,5.81.48,5.28,6.96,3.77,10.94-16.65,52.41-33.14,104.86-50.72,156.99,38.31,13.63,76.44,27.83,114.8,41.38-17.65,36.03-34.32,72.52-51.37,108.86,45.29,21.88,89.81,45.28,134.59,68.17,6.92,4.18,15.87,6.31,20.82,12.96.15,5.74-5.36,9.46-8.4,13.83-33.72,41.12-68.72,81.2-103.87,121.17,14.17,10.83,26.91,23.31,40.24,35.12,33.43,30.09,66.31,60.8,100.67,89.9,4.68,3.37,9.27,10.31,3.77,15.14-15.12,14.37-31.73,27.2-46.89,41.55-32.77,28.9-64.02,59.5-97.79,87.24,37.47,42.67,74.91,85.38,110.58,129.5,4.84,5.09-1.46,9.74-5.98,11.75-49.2,25.05-98.01,50.84-147.74,74.91,17.03,36.36,33.81,72.83,51.35,108.95-38.42,13.48-76.64,27.51-114.89,41.51,17.96,51.94,34.1,104.47,50.86,156.79,2.11,4.57,1.29,11.5-5.34,11.16-56.73,6.24-113.69,10.78-170.64,14.59,4.44,59.01,4.35,118.29,8.78,177.32.22,5.85,1.11,11.83-.05,17.65-3.06,6.61-11.66,4.37-17.47,4.46-61.74-4.64-123.75-4.35-185.45-8.98-4.21,56.65-8.38,113.36-15.41,169.75-1.24,5.94-8.29,3.67-12.39,2.54-52.83-16.37-105.9-31.99-158.38-49.45-14.21,37.52-28.6,74.96-42.28,112.67-36.85-17.2-74.03-33.66-111.09-50.37-22.35,44.47-46.2,88.19-69.57,132.13-3.35,6.01-6.05,12.44-10.24,18.01-1.75,3.14-5.99,2.79-8.42.74-45.03-35.02-88.62-71.79-132.13-108.56-11.28,14.17-24.25,26.92-36.54,40.25-30.11,32.19-60.88,63.81-89.92,96.91-3.06,2.96-6.03,7.13-10.71,7.35-4.66-.34-7.6-4.46-10.62-7.39-28.96-32.99-59.62-64.5-89.61-96.57-12.37-13.44-25.45-26.24-36.8-40.53-43.54,36.77-87.13,73.56-132.18,108.58-5.26,4.58-9.82-1.72-11.84-6.05-25.54-48.24-51.83-96.1-76.33-144.86-37.05,16.72-74.25,33.11-111.03,50.39-13.88-37.67-28.07-75.22-42.41-112.71-52.92,17.64-106.46,33.42-159.78,49.86-4.77,2.11-11.91,1.27-11.44-5.37-6.27-55.58-11.09-111.34-14.77-167.14-59.55,4.09-119.32,4.22-178.87,8.37-6.63.26-13.35,1.31-19.93.11-6.92-2.96-4.5-11.61-4.59-17.42,4.68-60.45,4.45-121.19,9.11-181.65-56.95-3.89-113.91-8.37-170.64-14.61-3.17-.13-7.18-2.13-6.43-5.83.98-7.41,4.04-14.35,6.14-21.46,15.03-46.98,29.57-94.08,45.73-140.68-38.24-14-76.46-28.03-114.88-41.51,17.56-36.12,34.32-72.59,51.35-108.95-46.82-22.64-92.8-46.89-139.12-70.48-5.19-2.79-10.84-4.98-15.23-8.94-2.46-2.46-.51-5.98,1.26-8.13,35.58-43.73,72.7-86.25,109.94-128.61-14.57-11.15-27.67-24.01-41.37-36.14-32.77-29.47-64.91-59.59-98.59-88.01-2.99-2.94-6.98-5.81-7.38-10.25.27-4.52,4.3-7.41,7.29-10.33,33.83-28.57,66.13-58.82,99.03-88.42,13.59-12.05,26.56-24.76,41.01-35.82-37.51-42.73-75.04-85.51-110.74-129.74-4.61-5.11,1.78-9.54,6.14-11.5,49.19-25.05,98.02-50.84,147.74-74.89-17.05-36.25-33.57-72.76-51.35-108.66,38.22-14.11,76.71-27.62,114.91-41.84-17.89-51.41-33.72-103.45-50.44-155.2-1.46-4.29-3.3-11.68,3.28-12.44,57.24-6.59,114.77-10.94,172.28-14.9-4.52-62.74-4.79-125.71-9.33-188.45-1.69-7.05,4.48-12.87,11.59-11.2,63.89,4.52,128.03,4.61,191.9,9.21,3.72-51.64,7.87-103.29,13.52-154.79.78-5.63.47-11.54,2.68-16.89,2.75-3.8,7.96-1.33,11.71-.59,52.76,16.42,105.84,31.92,158.23,49.47,14.3-37.51,28.62-75,42.32-112.71,36.85,17.18,74.02,33.67,111.12,50.36,23.26-46.36,48.24-91.86,72.5-137.72,2.59-4.72,4.74-9.85,8.58-13.77,2.42-2.26,5.92-.41,8.09,1.26,44.58,34.92,87.97,71.33,131.18,107.91,41.17-47.39,86.46-91.21,127.76-138.54ZM1223.95,58.61c-25.09,27.53-52.5,53.04-76.22,81.79-21.04,25.07-40.24,52.36-50.61,83.46-10.44,29.92-13.13,63.72-.69,93.46,10.44,24.66,28.64,48.13,55.12,57.32,4.12,1.74,8.51.24,12.59-.85-14.19-25.27-30.6-50.87-32.7-80.44-3.79-32.99,11.77-63.81,27.34-91.92,17.47-31.59,42.77-57.84,66.58-84.83,14.79-15.96,28.49-32.99,45.01-47.34,25.58,23.51,47.38,50.65,70.64,76.31,26.42,28.9,47.46,62.47,61.5,98.77,8.36,21.75,9.49,45.99,3.3,68.41-5.63,22.03-18.47,41.21-29.22,61.04,4.06,1.08,8.44,2.61,12.59.85,10.53-3.89,20.35-9.83,28.49-17.48,21.57-21.48,34.92-51.08,34.94-81.37.18-36.95-14.3-72.59-34.9-103.01-20.02-29.08-44.05-55.26-68.86-80.44-26.87-27.35-52.35-55.97-78.48-84-15.56,16.68-30.86,33.57-46.4,50.28ZM997.93,44.67c-28.2,47.69-53.7,96.9-77.42,146.87,12.68,8.63,25.16,17.53,37.98,25.94,13.26-39.75,32.63-77.13,51.57-114.49,32.12,27.46,64.47,54.95,92.52,86.55,8.18-12.76,16.34-25.55,24.48-38.36-41.44-37.29-83.98-73.52-129.12-106.51ZM1413.64,151.33c8.18,12.62,16.34,25.25,24.21,38.06,28.6-31.12,60.5-59.06,92.8-86.39,18.93,37.36,38.33,74.74,51.57,114.49,12.82-8.42,25.3-17.31,37.98-25.94-23.72-49.97-49.22-99.18-77.42-146.87-45.11,33.06-87.81,69.2-129.14,106.66ZM1230.5,151.88c-2.57,25.77,12.32,48.73,15.05,73.83,1.53,12.52.76,25.49-3.41,37.51-4.77,14.53-15.3,26.22-21.46,40.15-7.14,15.67-14.9,31.42-18.18,48.41-2.48,12.16,2.79,24.53,11.57,33.04,1.06-14.51,1.37-29.69,8.49-42.86,9.13-17.31,27.02-32.03,47.71-31.86,18.6-.33,35.01,11.79,44.78,26.53,9.71,14.18,10.62,31.68,11.59,48.19,8.8-8.53,14.06-20.94,11.57-33.1-3.3-16.97-11.06-32.67-18.18-48.34-6.14-13.86-16.63-25.51-21.4-39.97-4.26-12.12-5.03-25.19-3.46-37.84,2.75-25.01,17.58-47.93,15.05-73.66-2.31-27.27-21.02-49.34-39.93-67.93-18.78,18.68-37.56,40.64-39.82,67.91ZM975.99,199.65c-2.13,11.46-4.55,24.38,1.7,35.04,5.06,8.52,11.44,16.17,17.34,24.12,14.94,19.42,27.2,41.66,30.95,65.95,3.46,26.22-5.3,51.86-10.89,77.17,22.7-1.44,44.23,9.22,60.04,24.62,4.61-7.22,8.93-14.66,14.17-21.46,8.29-10.83,20.35-17.83,31.35-25.68-11.77-16.9-25.56-32.69-34.27-51.41-6.78-14.22-7.6-30.16-7.82-45.6-.2-21.16,3.55-42.34,11.26-62.1,3.66-9.2,2.44-19.75-2.42-28.28-5.61-9.91-12.55-19.15-20.95-26.96-17.52-16.59-35.43-32.75-53.27-48.98-13.66,27.25-29.37,53.95-37.18,83.57ZM1474.32,165.02c-8.78,8.2-16.07,17.88-21.71,28.38-4.66,8.72-5.05,19.29-1.2,28.38,10.88,28.17,13.13,59.15,8.54,88.79-5.26,26.67-24.9,47.04-39.89,68.85,7.69,5.4,15.65,10.52,22.79,16.63,9.8,8.4,15.85,19.9,22.74,30.51,15.76-15.39,37.32-26.05,60.02-24.62-4.59-19.4-9.95-38.77-11.6-58.69-1.91-29.9,12.08-58.24,29.66-81.79,7.76-11.24,18.25-21.22,22.48-34.42,2.04-12.83-.43-26.01-4.64-38.21-8.58-25.4-21.93-48.84-33.99-72.72-17.84,16.17-35.74,32.33-53.23,48.9ZM1158.44,222.73c-13.08,31.08-17.27,66.06-10.17,99.07,4.28,20.16,16.18,38.04,31.19,52.13,5.88,5.44,13.5,8.44,21.28,10.2-3.95-8.79-7-18.16-6.81-27.88-.18-18.64,8.53-35.66,16.54-52.06,8.93-18.07,20.95-35.73,21.99-56.39.25-11.87-1.99-23.64-3.33-35.41-2.21-18.79-9.18-37.08-7.56-56.19.02-9.42,5.01-18.09,4.06-27.56-26.47,28.23-52.5,58.06-67.2,94.08ZM1315.07,128.65c-.95,7.96,2.77,15.29,3.61,23.05,1.6,12.59-.04,25.31-2.9,37.58-3.75,16.33-5.63,32.99-7.34,49.6-1.53,14.16,2.9,28.12,9.07,40.75,9.56,19.09,20.77,37.64,26.78,58.2,4.5,15.33,2.75,31.99-4.32,46.3,7.78-1.76,15.45-4.79,21.35-10.24,14.98-14.11,26.87-31.97,31.15-52.13,8.76-40.57.2-83.63-20.2-119.64-14.85-27.4-36.09-50.6-57.2-73.46ZM806.14,146.55c-10.93,29.17-22.33,58.19-32.06,87.77-13.17,40.6-21.2,84.29-12.53,126.63,6.61,33.4,27.87,63.63,57.31,81.59,18,10.72,40.79,15.85,61.01,8.26-18.74-16.6-40.17-30.8-55.12-51.08-15.96-21.81-21.79-49.32-20.75-75.81,1.6-41.6,11.57-82.55,25.96-121.58,39.55,19.09,77.99,41.62,109.7,71.97,20.73,19.99,35.69,46.69,37.23,75.55.86,21.05-2.15,42.02-3.64,62.98,6.92-3.83,14.23-7.48,19.29-13.7,15.87-17.46,21.9-41.53,21.15-64.5-.07-27.42-10.53-54.19-27.45-75.8-25.18-32.51-60.52-55.74-97.24-74.05-27.27-13.46-55.11-25.77-82.87-38.23ZM1613.79,206.16c-28.05,18.14-54.03,40.84-70.72,69.78-14.76,25.47-19.44,56.15-13.83,84.86,4.43,21.48,17.07,42.86,38.22,52.04-1.48-20.96-4.52-41.93-3.63-62.96,1.53-29.44,17.12-56.61,38.46-76.77,31.59-29.68,69.41-52.23,108.7-70.7,14.59,41.13,25.38,84.07,25.81,127.82.22,28.64-8.87,58.02-28.87,79.37-14.39,15.11-31.37,27.51-47.09,41.19,17.56,6.59,37.25,3.59,53.79-4.39,21.73-10.81,39.35-28.83,51.21-49.54,17.94-32.01,19.42-70.13,14.5-105.57-7.43-50.32-28.49-97.21-45.76-144.74-40.77,18.77-82.83,35.56-120.78,59.61ZM582.6,372.41c14.99,3.39,29.97,6.76,44.98,10.16-2.88-41.78.16-83.63,2.99-125.33,40.42,13.09,81.01,26.36,119.16,45.11,2.75-14.87,5.34-29.77,8.05-44.65-52.83-18.92-106.35-36.01-160.71-50.21-8.07,54.65-12.11,109.79-14.48,164.92ZM1782.92,257.69c2.71,14.88,5.3,29.77,8.05,44.65,38.16-18.75,78.75-32.01,119.18-45.11,2.82,41.69,5.85,83.55,2.97,125.33,14.99-3.37,29.99-6.76,45-10.16-2.42-55.15-6.43-110.27-14.5-164.92-54.34,14.18-107.88,31.29-160.71,50.21ZM816.28,336.63c5.05,31.38,16.23,63.85,41.01,85.59,15.78,13.94,36.2,26.68,58.42,23.14-5.56-7.07-11.99-13.63-15.74-21.88-9.38-20.81-6.28-44.23-4.9-66.22,15.47,12.9,31.88,25.99,41.59,43.86,5.34,9.4,6.05,20.27,7.18,30.75,2.35,2.54,4.19-1.57,6.05-2.72,15.92-16.35,19.31-40.32,18.93-62-1.97-34.14-20.26-65.32-42.5-90.81-24.45-27.1-57-45.69-90.61-59.8-15.47,37.83-25.69,79.18-19.44,120.08ZM1604.63,288.05c-18.87,25.42-34.23,55.67-32.77,87.9.95,20.57,5.99,43.32,23.17,56.89.46-.24,1.37-.72,1.84-.98,1.13-9.96,1.66-20.29,6.47-29.36,9.47-18.65,26.58-31.9,42.26-45.36,1.4,20.5,3.97,41.92-2.97,61.78-3.39,10.22-10.97,18.18-17.62,26.44,22.15,3.52,42.57-9.13,58.33-23.07,24.74-21.64,35.96-53.95,41.04-85.22,6.41-41.03-3.84-82.55-19.38-120.51-38.26,16-75.31,38.22-100.36,71.5ZM635.48,338.96c-.33,12.59,1.35,25.29,5.45,37.22,3.13,8.9,10.22,16.16,19.02,19.81,19.6,8.61,37.27,21.14,52.26,36.14,10.71,10.9,21.31,22.57,26.65,37.03,7.36,19.31,8.89,40.08,12.84,60.17,10.97-1.78,21.93-4.2,33.12-4.15,11.28.26,22.17,3.5,33.12,5.93-.18-21.88,7.63-44.32,24.56-59.13-16.83-10.22-34.05-20.05-49.37-32.42-18.29-15.14-28.91-37.16-34.92-59.47-4.86-17.01-5.34-34.84-9.71-51.93-3.08-11.9-14.08-19.33-23.72-26.03-26.96-15.7-57.51-23.75-86.97-33.59-.91,23.46-1.93,46.93-2.33,70.41ZM1824.38,297.45c-10.02,4.92-19.15,11.66-26.6,19.87-5.21,5.98-6.52,14.01-7.87,21.49-2.66,16.07-4.19,32.4-9.38,47.95-6.3,20.44-17.09,40.23-34.21,53.87-15.05,11.85-31.75,21.46-48.11,31.4,16.94,14.79,24.74,37.23,24.57,59.09,11.59-2.55,23.14-6.05,35.14-5.91,10.49.28,20.79,2.46,31.13,4.15,5.23-26.14,5.94-54.67,22.04-77.26,17.11-22.45,39.15-41.62,64.98-53.89,7.76-3.35,15.72-7.5,20.15-14.92,6.5-10.72,7.94-23.59,8.96-35.79.13-26.31-1.35-52.63-2.26-78.93-26.47,8.76-53.58,16.28-78.53,28.9ZM1255.57,326.48c-16.69,9.31-30.1,25.86-31.92,45-1.58,14.29,3.92,28.56,12.95,39.62,13.66,16.98,25.78,35.31,33.61,55.65,5.89-13.11,12.19-26.11,20.66-37.86,8.89-13.59,21.99-25.27,25.25-41.75,6.21-25.72-11.29-52.06-34.88-62.46-8.29-3.39-17.96-2.53-25.67,1.8ZM378.31,370.78c1.64,37.95,4.3,75.87,5.06,113.86.42,32.05,2.26,64.21,7.63,95.88,4.65,27.22,13.63,53.99,28.53,77.54,14.01,22.62,34.32,42.12,59.55,52.24,24.83,9.85,54.05,13.61,78.97,2.06,4.3-1.65,6.49-5.78,8.58-9.5-18.82-5.72-38.36-9.78-56.14-18.4-16.83-8.03-31.9-19.75-43.03-34.51-11.88-15.49-18.45-34.03-24.81-52.17-10.82-30.84-14.54-63.43-16.49-95.84-1.53-29.34-5.12-58.67-3.9-88.09,35.05-1,70.03,2.94,105.02,5.02,40.28,2.11,80.17,11.57,116.81,28.16,22.08,10.27,40.39,27.86,51.75,49.04,10.3,18.55,14.74,39.4,21.04,59.41,3.81-2.05,8-4.2,9.69-8.42,12.82-26.98,7.29-58.82-5.52-84.76-18.49-36.12-55.91-58.82-94.07-70.87-47.11-14.2-96.97-14.96-145.83-16.03-34.3-1-68.55-3.19-102.83-4.63ZM2055.17,375.54c-39.4.56-79.03,2.09-117.74,9.76-34.1,7.05-67.46,21.18-93.11,44.75-26.41,24.23-41.02,61.04-36.52,96.36,2.64,10.57,4.1,24.66,16.14,29.02,6.01-19.53,10.42-39.78,20.2-57.96,9.69-18.46,24.41-34.47,42.63-45.17,17.98-10.24,37.91-16.68,57.77-22.45,36.62-10.57,75.02-11.28,112.82-14,20.35-1.02,40.7-3.2,61.1-1.98,1.04,34.47-2.97,68.87-5.12,103.25-2.04,37.58-10.98,74.7-26.27,109.21-9.58,22.35-26.72,41.47-48.16,53.54-19.93,11.72-42.9,16.39-64.84,23.01,2.08,3.7,4.26,7.81,8.56,9.46,10.24,4.48,21.42,7.11,32.68,7.26,31.35-.22,62.63-12.59,84.58-34.71,26.45-26.53,41.66-62.13,48.68-98.18,6.5-34.34,8.34-69.35,8.83-104.19.79-37.29,3.39-74.5,5.01-111.75-35.74,1.5-71.45,3.83-107.24,4.76ZM905.99,416.23c4.23,9.76,10.51,19.9,20.88,24.22-.6-4.33-1.33-8.61-2.08-12.9,2.64,3.57,5.3,7.09,8.11,10.52,3.59-9.52,1.4-20-1.93-29.29-5.34-13.79-17.27-23.31-28.05-32.94-.53,13.46-2.06,27.5,3.06,40.38ZM1608.64,411.77c-2.33,8.46-4.54,17.92-.51,26.22,2.57-3.43,5.15-6.91,7.74-10.37-.76,4.28-1.47,8.57-2.04,12.88,8.91-3.59,14.47-11.83,18.91-19.82,7.25-13.85,5.7-29.83,5.06-44.86-11.6,10.24-24.43,20.74-29.16,35.94ZM1119.33,401.18c-11.88,5.68-20.93,16.14-25.54,28.18-8.78,20.74-8.29,45.28,2.51,65.21,12.13,23.07,37.07,38.62,63.21,41.21,21.86,2.02,44.5-14.18,46.96-35.99,1.55-18.87-8.76-39.47-27.16-46.8-10.95-4.67-25.67-1.54-32.23,8.59-2.77,7-2.55,16.61,4.43,21.22,2.95-5,5.32-12.31,12.41-12.48,11.55-1.74,17.67,14.48,9.64,21.71-7.29,5.81-18.11,3.98-25.72-.31-13.3-6.92-21.42-24.64-13.37-38.12,7.94-10.83,23.21-15.53,36.29-12.7,25.54,6.44,46.4,28.7,49.04,54.73,2.7,18.9-7.49,39.17-25.36,47.23-13.15,6.55-28.26,4.02-42.41,4.48,3.1,13.07-.57,26.55-7.58,37.77-10.4,17.31-18.09,36.27-21.59,56.11-.11,2.35-2.35,3.46-3.88,4.92-13.19-14.59-24.65-30.9-40.28-43.19-11.86-9.57-23.59-20.72-27.56-35.79-7.87,3.09-15.47,6.74-23.3,9.92-14.9,5.22-31.61.33-43.67-9-1.8,14.74-9.8,29.71-23.83,36.4-7.96,3.28-16.12,6.09-24.12,9.24,7.87,13.61,7.78,29.72,6.23,44.84-2.22,19.52,1.62,38.95,2.57,58.41-1.13-.02-3.37-.04-4.48-.06-17.69-11.92-37.43-20.77-58.26-25.88-12.79-3.02-24.74-10.11-31.77-21.25-10.02,9.61-18.98,21.47-32.72,26.16-16.05,5.85-35.09,1.54-47.31-10.11-14.85-14.16-21.93-35.77-18.05-55.76,2.31-12.46,7.07-25.81,18.54-32.9,8.85-5.46,21.19-9.2,30.73-3.18,17.96,10.87,17.14,41.55-2.02,50.73-11.57,5.37-23.52-11.92-13.92-20.33,4.88-5.63,12.61-2.2,18.6-.63,1.64-7.72-4.7-14.09-10.95-17.59-10.49-3.39-22.41,2.87-27.95,11.77-14.77,24.31,3.23,61.43,32.48,64.02,16.23,1.96,32.81-5.9,42.1-18.97,13.32-18.72,19.09-43.17,12.97-65.45-7.01-27.44-31.06-49.41-59.04-55.47-20.48-4-40.35,6.37-55.93,18.44-20.57,16.29-30.86,42.21-31.95,67.63-1.95,24.84.2,53.33,19.18,71.92,16.32,18.05,33.96,35.97,56.51,46.45,12.79,6.22,26.96,8.96,41.06,10.46,53.67,5.35,107.3,11.26,160.93,16.94,9.16-41.52,24.47-81.39,35.69-122.36,37.44,21.2,76.97,38.77,113.37,61.69,33.46-40.54,66.51-81.38,100.19-121.74,8.82-10.77,17.18-22.2,22.06-35.27,9.45-24.16,8.96-50.58,7.29-75.99-.29-19.37-11.77-36.64-24.96-50.23-14.56-14.64-31.19-28.38-51.46-34.55-21.83-7.05-46.11-3.98-66.6,5.72ZM1321.77,413.4c-18.82,15.2-37.36,33.71-42.61,57.91-2.71,31.08-4.21,64.19,10.07,93.01,8.67,17.33,22.39,31.44,34.54,46.4,28.05,34.17,56.05,68.37,84.13,102.53,36.41-22.94,75.96-40.51,113.38-61.71,11.22,40.97,26.54,80.85,35.69,122.36,43.34-4.66,86.68-9.22,130.03-13.85,22.41-2.68,45.76-2.65,66.91-11.33,26.43-10.66,46.33-31.64,64.83-52.28,7.2-7.46,10.77-17.48,13.52-27.18,4.74-21.42,3.72-44.04-1.49-65.26-7.6-30.21-33.63-54.2-64.09-61.74-16.54-3.75-33.39,2.48-47.02,11.42-23.94,15.42-37.93,44.56-33.68,72.51,2.59,16.46,9.38,33.1,21.95,44.71,14.52,13.22,38.89,15.54,54.74,3.28,13.79-11.39,21.4-30.73,16.34-48.05-2.57-9.05-9.51-17.07-18.87-19.73-11.21-5.26-25.63,5.59-23.77,17.38,5.99-1.59,13.79-5,18.67.69,9.35,8.33-2.17,25.34-13.68,20.4-19.47-8.96-20.4-39.97-2.31-50.86,9.49-6,21.81-2.3,30.68,3.13,11.49,7.11,16.27,20.51,18.56,33.01,3.86,19.94-3.19,41.47-17.96,55.62-12.28,11.72-31.44,16.07-47.55,10.11-13.66-4.7-22.57-16.53-32.54-26.1-3.77,5.09-7.85,10.14-13.37,13.5-10.8,7.14-24.06,8.55-35.96,13.03-14.5,4.89-27.91,12.24-40.61,20.55-1.15.02-3.44.07-4.59.09.73-16.53,3.81-32.97,3.15-49.56-1.2-17.9-4.08-37.3,5.7-53.58-11.53-5.35-25.25-7.22-34.39-16.57-7.92-7.78-12.17-18.42-13.61-29.16-12.06,9.31-28.75,14.22-43.63,9.03-7.82-3.2-15.45-6.83-23.32-9.94-4.01,15.05-15.72,26.21-27.56,35.79-15.56,12.25-27.09,28.38-40.06,43.06-1.8-1.35-4.19-2.39-4.17-4.94-3.55-20.33-11.66-39.64-22.33-57.34-6.65-10.87-9.71-23.88-6.81-36.38-12.9-.48-26.36,1.69-38.69-2.91-17.03-5.98-28.89-22.85-29.38-40.47-1.04-24.9,14.99-48.69,37.91-58.95,15.59-8.92,38.71-5.57,48.51,9.98,10.33,20.85-14.06,46.64-36.03,39.36-11.75-3.87-8.78-23.79,3.68-24.03,8.05-1.21,11.55,6.81,14.52,12.51,4.5-3.16,6.36-8.13,5.96-13.42.89-13.35-15.54-20.14-27.03-18.25-22.28,3.94-35.8,27.71-33.9,48.71,2.53,21.75,25.07,37.88,46.89,35.91,19.87-1.89,38.95-11.4,52.41-25.86,23.99-25.31,25.89-67.06,5.26-94.84-10.98-14.01-29.18-19.79-46.27-22.59-25.34-4.09-51.32,5-70.77,20.89ZM999.57,421.14c-24.99,4.89-45.85,21.99-59.41,42.62-24.85-5.26-52.39-2.69-73.72,11.7-14.52,9.96-28.13,23.87-30.84,41.77-5.77,34.77,17.74,70.52,51.01,82.42,20.51,7.48,44.41,5.48,63.34-5.27,21.28-12.39,24.68-44.6,7.98-61.95-8.58-9.11-21.13-13.33-33.3-15.31-11.86-1.8-23.06,7.13-27.11,17.55-2.73,8.68,4.99,15.55,11.33,20.21,1.04-5.18,1.17-11.24,5.43-15.11,4.23-4.05,10.71-1.57,15.03,1.04,7.25,4.2,4.37,14.73-.29,19.79-18.67,12.35-49.1-3.55-46.69-26.21,1.62-13.92,15.3-23.18,28.58-25.14,19.75-2.82,41.3,2.98,55.58,17.03.2-20.14,11.29-39.71,27.98-51.23,11.31-7.87,28.73-9.98,39.31.17,15.54,15.42,5.05,45.58-16.41,49.37-5.72-.74-12.31-3.89-14.21-9.55-.4-5.69,2.04-12.72,7.74-15.14,6.65-1.67,12.12,3.31,17.18,6.63.96-7.54,1.44-17.31-6.12-21.85-10.66-5.26-26.05-3.41-33.01,6.85-6.63,9.53-12.26,20.51-11.93,32.34.13,24.68,27.27,46.04,51.85,38.71,19.53-5.72,36.51-19.53,45.8-37.33,16.54-31.38,8-73.96-21.04-95.4-15.21-11.61-35.91-12.2-54.07-8.7ZM1488.51,428.82c-26.98,18.81-37.27,55.78-26.87,86.14,7.45,22.59,26.89,40.77,49.99,47.58,24.68,7.48,51.99-13.94,52.06-38.73.29-11.79-5.3-22.72-11.88-32.23-6.92-10.22-22.15-12.11-32.84-7-7.8,4.44-7.32,14.39-6.34,22,5.06-3.37,10.4-8.31,17.09-6.68,5.79,2.31,8.18,9.46,7.85,15.16-2.04,5.66-8.6,8.92-14.37,9.5-21.39-3.89-31.79-33.96-16.27-49.34,11.06-10.55,29.22-7.85,40.64.71,15.87,11.7,26.47,30.71,26.65,50.35,12.04-11.98,29.48-17.77,46.42-17.77,11.62-.13,23.9,3.65,31.66,12.5,6.05,6.72,8.05,16.81,4.35,25.1-6.65,15.36-26.94,23.2-42.41,16.07-4.92-2-6.41-7.63-7.1-12.28-1.57-8.29,8.8-12.87,15.76-12.09,7.29,2.3,7.85,10.85,8.96,17.07,6.32-4.65,14.01-11.5,11.35-20.16-4.06-10.43-15.23-19.37-27.09-17.59-12.66,2.02-25.76,6.54-34.32,16.37-15.61,17.61-11.88,48.75,8.98,60.89,18.91,10.74,42.83,12.75,63.34,5.27,33.19-11.87,56.67-47.51,51.03-82.23-2.66-18-16.34-32.01-30.95-42.01-21.31-14.36-48.84-16.92-73.63-11.66-13.61-20.68-34.54-37.79-59.57-42.66-17.58-3.29-37.44-2.96-52.5,7.72ZM432.8,424.21c.09,25.46,2.55,53.04,19.2,73.79,13.3,17.02,34.36,24.79,52.74,35.12,15.05,8.81,28.66,20.77,36.71,36.25,7.56,13.65,8.51,29.55,14.17,43.91,6.43,16.35,12.3,33.27,22.57,47.77,7.14,9.98,19.44,15.05,31.64,15.12-9.13-10.81-19.66-21.14-24.28-34.8-6.7-18.94-4.88-42.71,10.33-57.32,14.92-14.77,39-16.53,58.24-10,13.92,4.52,24.5,14.85,35.52,23.84.22-14.18-7.76-27.8-20.57-34.41-22.72-12.27-47.35-21.12-72.65-26.64-25.07-6.32-44.25-25.81-55.95-47.75-9.09-17.42-18.05-36.19-34.87-47.8-20.95-14.79-47.77-16.92-72.78-17.07ZM2030.27,445.04c-20.15,16.59-26.18,43.12-42.39,62.65-7.87,9.83-17.76,18.2-29.22,23.75-13.63,6.87-29.24,7.87-43.41,13.24-16.71,6.33-33.99,12.09-48.8,22.18-10.18,6.98-15.3,19.07-15.38,31.01,10.97-8.94,21.48-19.25,35.36-23.77,19.29-6.61,43.45-4.85,58.42,9.94,15.18,14.66,17,38.45,10.29,57.39-4.63,13.61-15.14,23.94-24.25,34.73,14.48.22,28.37-7.64,35.12-20.25,12.46-22.24,21.51-46.38,27.11-71.15,4.63-17.05,15.59-32.08,29.75-42.8,19.88-15.9,46.87-21.81,63.8-41.53,18.4-20.84,21.2-49.8,21.24-76.22-26.91.09-56.42,2.8-77.64,20.83ZM496.72,424.88c5.61,6.83,14.48,9.46,21.02,15.22,16.69,13.18,25.45,32.92,38.82,48.93,8.31,9.89,15.52,21.07,26.21,28.77,20.64,14.29,46.51,17.35,69.28,27.18,20.64,7.2,39.48,21.9,46.24,43,4.39-6.18,7.41-13.31,7.81-20.88.8-21.2-4.17-42.97-16.36-60.69-23.26-34.1-59.93-58.24-99.9-69.37-30.17-8.98-61.83-10.81-93.11-12.16ZM1948.82,437.64c-37.09,10.72-71.01,32.73-94.04,63.39-14.99,19.29-21.71,44.06-19.93,68.11.98,6.5,2.86,13.46,7.92,18.14,4.61-12.96,13.37-24.47,25.18-31.92,24.56-15.81,54.65-19.27,80.7-31.88,16-7.48,25.74-22.55,36.47-35.66,12.9-15.7,21.55-34.88,37.89-47.73,6.52-5.77,15.39-8.37,21.02-15.2-32.01,1.35-64.4,3.3-95.2,12.76ZM433.47,486.92c1.46,49.91,7.98,102.44,37.6,144.59,19.18,26.66,45.45,51.54,79.04,58.46,16.41,2.83,35.25,5.35,49.51-5.24-6.17-2.72-12.5-5.26-17.91-9.28-17.14-12.24-24.85-32.47-31.55-51.37-7.67-21.05-11.95-44.93-29.26-60.91-14.79-12.5-30.26-24.29-46.76-34.51-12.84-8.13-24.92-18.23-32.37-31.51-2.02-3.94-5.01-7.26-8.29-10.22ZM2091.8,507.49c-13.1,16.03-32.66,24.53-48.69,37.16-13.39,10.52-28.73,20.09-36.38,35.8-10.82,21.42-14.88,45.43-25.5,66.97-7.63,17.14-22.01,31.4-40.35,37.23,6.36,4.15,13.59,7.28,21.33,7.63,21.62.8,43.81-4.09,61.9-16.05,29.77-19.59,52.43-48.9,65.13-81.7,13.66-34.23,16.58-71.27,18-107.62-6.94,5.5-9.62,14.16-15.45,20.57ZM1091.82,507.25c-7.69,18.2-21.99,35.01-21.08,55.69.51,12.94,4.99,26.48,15.1,35.31,10.29,9.29,20.44,18.72,30.88,27.86,4.46-9.94,7.4-20.51,12.64-30.12,13.99-21.07,7.96-52.43-12.48-67.43-8.38-7.08-16.67-14.24-25.05-21.31ZM1421.31,530.72c-14.43,11.66-19.57,31.71-16.63,49.3,1.13,8.7,7.23,15.46,10.31,23.47,2.97,7.57,5.81,15.2,9.11,22.66,9.93-8.94,19.8-17.94,29.71-26.9,14.72-12.51,19.11-33.99,14.3-51.95-5.08-13.92-12.97-26.64-19.22-40.03-9.22,7.78-18.36,15.68-27.58,23.46ZM1195.69,650.6c-25.21,31.29-52.94,60.97-72.94,95.92-15.43,26.46-29.11,56.02-26.38,87.29-18.29-21.31-45.12-32.96-71.77-40.71-44.58-13.79-91.6-15.35-137.7-20.75-36.85-3.52-73.58-8.33-110.47-11.02,3.41,41.14,8.76,82.11,12.9,123.19,4.08,35.07,6.03,70.61,15.21,104.9,8.25,31.33,19.82,64.11,45.8,85.68-31.86-2.65-61.96,10.72-88.95,25.86-35.6,19.59-65.84,46.8-97.72,71.5-30.46,24.55-61.81,48.15-91.74,73.31,29.93,25.14,61.24,48.73,91.69,73.29,31.88,24.7,62.14,51.9,97.77,71.52,26.98,15.11,57.09,28.51,88.95,25.86-14.72,12.35-25.47,28.66-32.75,46.17-14.41,34.73-21.15,72.02-24.5,109.25-5.32,52.82-12.08,105.51-16.63,158.39,37.64-2.89,75.13-7.67,112.71-11.31,42.54-4.98,85.84-6.59,127.28-18.2,29.42-7.96,59.7-19.46,79.9-43.01-2.8,32.4,11.88,62.81,28,90.07,17.11,29.31,39.86,54.82,61.34,81.05,28.36,33.88,55.69,68.63,84.64,101.99,33.9-39.36,66.13-80.09,99.43-119.93,20.08-23.63,39.17-48.34,53.72-75.71,12.97-23.68,23.21-50.11,20.84-77.44,12.61,14.46,29.28,25.03,47.16,32.17,34.83,13.85,72.14,20.53,109.43,23.78,54.47,5.29,108.81,11.94,163.32,16.53-4.68-53.45-11.44-106.71-16.82-160.09-3.08-34.04-9.22-68.04-21.35-100.16-7.45-20.2-18.87-39.43-35.67-53.52,35.27,2.78,68-13.53,97.35-30.77,30-17.68,56.11-40.71,83.42-61.96,32.41-26.12,65.69-51.25,97.59-77.96-33.61-28.08-68.62-54.56-102.75-82.05-27.16-21.35-53.47-44.08-83.83-61.12-27.8-15.84-58.82-30.23-91.83-27.49,23.56-19.46,35.34-48.54,43.43-76.92,12.19-41.08,13.81-84.09,18.96-126.34,3.68-36.86,8.62-73.61,11.5-110.53-41.32,3.22-82.45,8.44-123.71,12.44-37.09,4.16-74.69,6.07-110.91,15.63-31.24,8.05-63.74,19.47-85.27,44.36,2.66-31.21-10.93-60.67-26.32-87.09-20.02-35.01-47.82-64.76-73.07-96.09-24.98-29.86-49.02-60.52-74.62-89.86-25.63,29.34-49.66,60.04-74.67,89.9ZM211.86,585.32c14.39,53.34,31.9,105.84,51.17,157.68,15.16-2.65,30.35-5.22,45.51-7.89-19.11-37.43-32.63-77.24-45.98-116.89,42.5-2.79,85.18-5.77,127.77-2.94-3.44-14.72-6.89-29.42-10.33-44.12-56.22,2.31-112.42,6.35-168.14,14.15ZM2160.74,571.17c-3.46,14.7-6.92,29.4-10.35,44.12,42.59-2.83,85.26.15,127.76,2.92-13.37,39.66-26.87,79.48-45.98,116.91,15.16,2.67,30.35,5.24,45.52,7.89,19.29-51.84,36.78-104.34,51.17-157.68-55.71-7.8-111.92-11.84-168.11-14.15ZM622.84,584.34c-11.11,1.58-21.42,8.96-24.96,19.59-6.08,18.42-3.79,40.18,8.8,55.54,9.22,11.51,23.68,17.96,38.29,19.57,21.9,2.44,43.61,7.22,63.87,15.94-5.63-13.16-10.24-26.78-12.81-40.84-3.5-16.14-2.75-33.95-12.81-48.01-12.57-19.27-38.31-26.53-60.37-21.79ZM1869.25,593.87c-12.4,8.96-19.44,23.59-21.11,38.38-2.5,21.5-7.36,42.84-16.25,62.71,20.26-8.72,42.01-13.48,63.96-15.94,14.54-1.61,28.95-8.07,38.15-19.5,12.28-14.92,14.67-35.91,9.4-53.95-2.75-9.48-10.59-17.22-20.24-19.94-17.98-5.07-38.73-3.05-53.92,8.24ZM861.65,634.8c-2.06,18.52,8.85,36.53,23.88,47.1,7.29,5.52,16.87,5.94,25.01,9.76,7.25,3.22,14.48,6.48,21.93,9.33.58-14.13,1.11-28.27,1.62-42.4.38-12.74-6.12-24.75-14.7-33.92-14.19-15.38-36.51-17.42-55.14-24.92-1.07,11.65-1.68,23.35-2.59,35.05ZM1635.21,614.11c-17.51,9.39-30.5,28.81-28.47,48.82.58,12.68.98,25.36,1.49,38.03,12.9-4.81,24.98-11.61,38.53-14.7,20.6-8.63,35.21-31.34,32.17-53.48-.88-11.02-1.44-22.05-2.46-33.05-13.72,4.87-27.91,8.57-41.26,14.37ZM274.09,625.32c8.94,25.94,16.59,52.49,29.42,76.93,5.26,10.2,12.37,19.59,21.31,26.96,9.22,6.44,21.08,6.68,31.88,8.57,26.05,3.16,52.54,9.51,74.38,24.42,22.94,15.85,35.58,41.34,50.44,63.89,15.1-16.61,37.98-24.26,60.26-24.09-2.62-11.42-6.21-22.84-6.03-34.64.29-10.24,2.55-20.29,4.21-30.38-20.53-3.78-41.72-5.37-61.43-12.59-14.28-5.09-25.85-15.05-36.67-25.18-15.72-14.89-28.84-32.53-37.8-52.1-8.09-19.91-32.43-23.2-51.52-24.05-26.16.06-52.3,1.34-78.44,2.26ZM2156.93,628.36c-9.13,3.09-16.6,10.11-20.31,18.85-12.68,27.6-33.48,51.23-58.31,69-22.9,15-51.37,15.7-77.55,20.81,1.77,10.74,4.26,21.46,4.21,32.4-.29,11.12-3.57,21.81-6.05,32.58,22.31-.17,45.18,7.48,60.26,24.09,11.04-17.33,21.42-35.27,35.16-50.73,22.35-23.86,55.83-33.36,87.64-37.27,11.46-2.07,24.1-2.09,33.99-8.9,8.87-7.4,15.98-16.74,21.21-26.9,12.84-24.46,20.53-51.01,29.44-76.98-23.21-.87-46.4-1.81-69.61-2.25-13.55-.47-27.23,1.03-40.08,5.29ZM1024.42,663.28c-11.42,37.08-22.44,74.29-32.59,111.73,16.92,4.96,33.81,10.05,50.74,15.01,2.51-19.68,5.92-39.27,10.6-58.59,17.25,10.42,33.72,21.96,49.75,34.08,8.27-15.28,16.67-30.51,24.98-45.77-34.12-19.51-68.79-38.01-103.49-56.46ZM1412.8,719.74c8.31,15.27,16.72,30.49,24.99,45.79,16.05-12.09,32.46-23.83,49.86-33.99,4.48,19.29,8.03,38.82,10.49,58.48,16.93-4.96,33.83-10.03,50.74-15.03-10.15-37.42-21.17-74.61-32.57-111.71-34.72,18.44-69.39,36.95-103.51,56.46ZM598.74,702.55c-20.71,9.92-35.96,28.77-43.7,49.8-3.39,9.24-3.99,19.46-1.46,28.96,6.27,22.6,23.12,42.36,45.23,51.5,17.36,7.37,37.49,7.83,55.33,1.72,13.55-4.63,27.13-11.87,34.87-24.18,9.53-14.62,9.35-35.45-2.48-48.76-10.33-11.05-25.98-17.68-41.32-16.04-9.96,1.04-20.04,6.17-24.72,15.18-2.88,5.72-5.03,13.07-1.26,18.92,3.95,5.29,9.73,10.59,17,9.03-1.33-5.57-4.94-12.4-.2-17.33,5.5-7.46,17.91-4.38,21.33,3.48,2.66,4.79.46,10.55-3.04,14.3-12.35,13.73-38.24,12.81-48.42-3.02-6.16-9.33-2.37-21.44,3.17-30.14,7.23-11.27,20.86-15.96,33.59-18.2,20.4-3.83,42.46,3.14,56.89,17.73,11.88,12.05,16.25,30.77,10.2,46.54-4.83,13.37-16.83,22.14-26.6,31.88,5.14,3.69,10.29,7.65,13.72,13.02,7.31,10.65,8.76,23.77,13.39,35.55,4.97,14.2,12.55,27.31,20.93,39.8.02,1.08.07,3.26.11,4.35-19.86-.89-39.66-4.68-59.57-2.5-15.39,1.46-31.84,1.72-45.65-6.13-3.3,7.78-6.12,15.79-9.44,23.57-6.81,13.83-22.13,21.72-37.18,23.49,9.51,11.83,14.5,28.23,9.18,42.84-3.26,7.65-6.94,15.13-10.11,22.84,17.03,4.31,28.75,17.85,39.57,30.53,11.24,13.09,25.78,22.77,38.62,34.18,3.9,1.8.02,5.63-2.73,5.7-15.78,2.69-31.08,7.78-45.38,14.85-15.28,8.42-31.95,18.51-50.28,13.72-.15,9.09.44,18.22-.38,27.32-1.53,14.83-11.39,28.49-25.16,34.86-23.57,10.96-53.16,1.26-69.17-17.94-9.29-11.48-17.51-26.24-13.75-41.34,2.46-9.59,8.27-20.11,18.84-22.56,20.66-5.11,42.23,17.03,35.61,36.95-3.88,11.49-24.03,8.72-24.52-3.37-1.37-8,6.87-11.52,12.75-14.44-3.21-4.42-8.27-6.29-13.66-5.85-12.81-.96-19.64,13.57-18.91,24.29,3.39,29.79,45.27,46.34,69.04,27.75,13.13-9.64,19.78-26.62,17.05-42.43-3.01-17.94-12.13-35.05-25.94-47.3-25.87-23.52-68.48-25.33-96.77-5-14.77,11.29-20.62,29.98-23.21,47.47-3.83,26.92,8.25,53.65,26.69,73.11,16.16,18.13,37.2,36.05,63.05,36.69,25.89,1.63,52.83,2.11,77.46-7.15,20.42-7.39,36.49-22.27,53.14-35.43,35.63-28.16,71.26-56.3,106.93-84.37-23.24-35.84-41.28-74.55-62.88-111.32,41.77-11,82.43-26.03,124.75-35.01-4.99-44.8-9.93-89.59-14.85-134.39-2.26-21.01-2.97-42.86-12.37-62.28-12.04-25.73-34.01-45.01-55.47-63.15-14.01-9.39-31.37-12.74-48.11-13.09-20.31-.13-41.37,1.61-59.75,10.83ZM1826.89,710.93c-18.45,16.05-36.8,33.38-47.53,55.56-6.34,12.57-9.13,26.49-10.66,40.34-5.48,52.62-11.46,105.2-17.27,157.81,42.32,8.98,82.98,24.01,124.77,35.01-21.64,36.71-39.57,75.5-62.92,111.24,43.92,34.62,87.75,69.37,131.69,103.99,23.88,19.18,55.69,25.09,85.87,23.92,13.66-.95,28.07.52,40.86-5.24,19.82-7.91,34.98-23.51,48.28-39.45,15.61-18.86,24.32-43.86,20.29-68.15-2.95-17.79-9.62-36.9-25.69-47.27-22.64-14.25-52.96-16.22-77.06-4.31-24.23,11.66-40.64,36.56-43.32,62.67-2.06,21.42,14.43,43.62,36.67,46.06,19.2,1.52,40.2-8.55,47.71-26.57,4.79-10.72,1.62-25.07-8.6-31.62-7.14-2.83-17.03-2.56-21.77,4.28,5.12,2.91,12.66,5.28,12.72,12.31,1.62,11.17-14.56,17.07-21.95,9.5-6.11-7.07-4.3-17.81.09-25.32,7-13.11,25.18-21.14,38.95-13.17,10.29,7.26,15.05,20.85,13.42,32.94-5.59,27.74-31.66,50.3-60.75,51.08-17.94.87-36.14-9.13-43.72-25.26-6.68-12.88-4.1-27.69-4.57-41.56-12.26,2.68-25.07.16-35.8-6-18-10.35-37.45-18.72-58.09-22.23-3.08-.02-5.23-1.89-6.79-4.24,12.84-11.2,27.03-20.96,38.64-33.47,11.71-13.31,23.55-28.48,41.83-33.03-3.12-7.65-6.8-15.07-10.04-22.66-5.45-14.66-.45-31.15,9.11-43.01-15.08-1.79-30.37-9.67-37.18-23.53-3.33-7.76-6.16-15.72-9.38-23.55-13.81,7.74-30.2,7.63-45.56,6.13-19.95-2.18-39.79,1.58-59.68,2.52.02-1.13.09-3.37.11-4.5,8.43-12.41,15.94-25.53,20.89-39.68,4.63-11.79,6.05-24.88,13.39-35.53,3.44-5.37,8.56-9.33,13.72-13.01-8.96-8.98-19.73-16.96-25.23-28.62-8.18-16.85-3.66-38.19,10-51,20.55-20.09,54.85-22.88,79.3-8.22,11.37,7.52,18.71,22.16,15.39,35.51-7.92,21.88-44.29,22.97-54.05,2.15-4.92-11.15,11.93-22.42,20.55-13.61,6.03,4.7,2.7,12.53.91,18.44,7.87,1.8,14.41-4.54,17.98-10.7,3.57-10.9-3.59-23.18-13.55-28.27-24.81-12.76-60.99,4.59-63.69,32.6-2.06,15.92,5.92,32.28,19.24,41.39,19.11,13.13,44.07,18.81,66.84,12.76,27.93-6.85,50.28-30.4,56.51-57.81,4.14-20.59-6.9-40.58-19.76-56.06-17.12-20.16-44.1-29.59-70.28-30.37-24.56-1.61-52.52.87-70.86,18.81ZM274.62,749.57c-42.9,9.53-83.63,26.32-124.91,40.86,14.39,30.6,28.22,61.5,44.34,91.26,20.17,36.73,46.53,71.89,83.23,94.12,27.45,16.68,61.5,22.18,93.02,15.55,21.13-4.65,41.86-16.98,50.88-37.01-17.71,1.41-35.41,3.15-53.16,3.78-22.35.74-44.83-5.35-63.58-17.29-18.38-11.4-33.03-27.49-46.38-44.1-20.46-25.58-37.07-53.91-51.41-83.18,41.92-14.31,85.73-24.9,130.34-25.32,29.13-.21,59.04,8.66,80.79,28.21,15.47,14.11,28.13,30.81,42.12,46.3,7.14-18.26,3.24-38.82-5.98-55.65-15.52-27.16-42.19-47.99-72.52-57.11-34.63-10.26-71.81-7.87-106.77-.43ZM2177.26,745.79c-35.91,5.56-68.88,26.86-88.04,57.17-10.93,17.63-16.14,39.96-8.4,59.8,12.19-13.68,23.66-27.96,36.52-41.08,14.99-15.14,34.59-25.75,55.6-30.21,25.54-5.53,51.94-2.96,77.53.74,28.51,4.33,56.31,12.14,83.56,21.29-17.6,36.32-39.08,71.15-66.66,101.07-17.27,18.9-39.31,34.6-64.8,40.53-27.33,6.46-55.45.77-83-.76,9,20.08,29.77,32.36,50.9,37.03,32.02,6.72,66.6.89,94.29-16.35,32.39-20.03,56.75-50.3,75.73-82.46,19.08-32.93,34.25-67.85,50.52-102.14-21.13-7.72-42.26-15.38-63.47-22.81-47.78-16.98-99.21-30.31-150.27-21.83ZM1056.26,786.75c4.66,14.22,21.02,18.01,31.61,26.79,1.13-13.74,10.24-28.14,2.62-41.47-7.78-11.75-20.55-19.05-31.63-27.42-2.24,13.81-5.9,28.21-2.6,42.1ZM1451.09,770.67c-9.07,13.41.51,28.73,1.75,42.88,10.6-8.79,26.96-12.55,31.61-26.77,3.41-13.87-.6-28.16-2.33-42.01-11.11,7.59-22.84,15.18-31.04,25.9ZM221.08,819.46c16.32,37.55,39.02,73.89,72.96,98.49,27.09,19.35,59.77,34.86,94.16,31.79,19.89-1.52,42.3-6.94,54.18-24.07-9.73-1.11-19.8-1.37-28.91-5.31-20.42-8.78-34.78-26.49-48.93-42.71,20.86-1.3,42.66-3.87,62.85,2.96,10.42,3.33,18.53,10.77,26.98,17.29,1.93-11.35-.91-22.99-6.14-33.12-12.95-24.29-35.18-43.53-61.37-53.17-25.6-9.7-53.32-14.5-80.79-12.7-29.33,1.74-57.82,9.94-85,20.55ZM2109.95,840.6c-14.23,15.48-27.16,35.51-23.61,57.3,8.42-6.48,16.49-13.92,26.89-17.27,20.26-6.84,42.12-4.32,63.07-2.91-13.73,15.35-27.23,32.11-46.25,41.42-9.29,4.72-19.85,5.24-30,6.35-.22.46-.68,1.35-.93,1.81,14.9,18.05,40.19,22.51,62.61,22.79,31.24-.07,60.21-14.57,84.96-32.17,33.94-24.59,56.62-60.93,72.94-98.46-38.71-15.27-81.03-25.31-122.87-19.03-31.86,4.99-64.74,15.96-86.82,40.17ZM484.97,849.69c-14.63,20.9-17.23,47.87-11.86,72.19-20.88,13.23-38.2,33.47-43.36,57.76-3.5,17.44-3.28,37.23,7.78,52.19,16.96,23.38,48.6,34.1,77,28.96,28.42-4.5,52.9-26.72,59.86-54.08,5.9-24.33-17-49.97-42.17-48.64-12.33.48-23.79,6.39-33.35,13.68-8.23,7.5-9.27,20.74-4.48,30.29,4.61,7.52,14.65,7.02,22.37,6.09-3.46-4.98-8.49-10.28-6.81-16.86,2.48-5.65,9.73-7.96,15.58-7.61,5.68,2.15,9.02,8.48,9.53,14.18-4.03,20.89-34.58,31.05-50.26,15.89-10.8-10.83-8.03-28.66.71-39.86,11.93-15.59,31.3-26.01,51.32-26.16-12.21-11.81-18.09-28.92-18.11-45.52-.13-11.44,3.73-23.53,12.82-31.14,6.83-5.87,17.05-7.81,25.48-4.22,15.52,6.42,23.52,25.97,16.67,41.13-2.66,6.3-10.93,8.03-17.16,7.28-5.7-2.39-8.43-9.37-7.98-15.11,2.22-7.3,11.09-7.89,17.45-8.96-4.74-6.22-11.73-13.79-20.57-11.11-10.62,3.96-19.71,14.87-17.91,26.49,2.04,12.44,6.67,25.33,16.72,33.75,17.98,15.31,49.75,11.61,62.1-8.87,10.91-18.57,12.95-41.98,5.32-62.06-12.11-32.6-48.46-55.63-83.89-50.06-18.33,2.63-32.59,16.04-42.79,30.38ZM1939,851.19c-17.73,23.14-19.35,56.82-3.81,81.42,13.7,20.92,48.02,22.88,64.71,4.46,7.76-8.37,11.49-19.57,13.32-30.57,1.73-11.59-7.36-22.49-17.93-26.42-8.87-2.66-15.85,4.91-20.58,11.11,5.26,1.02,11.37,1.15,15.37,5.26,4.19,4.15,1.62,10.59-1.05,14.85-4.32,7.14-15.21,4.22-20.26-.48-11.77-17.64,2.35-45.64,24.25-45.78,14.68-.04,25.41,13.31,27.91,26.53,3.55,19.83-2.4,41.75-17.07,56.15,21.55.26,42.72,12.16,53.98,30.16,7.23,11.64,7.52,29.2-4.43,37.99-14.96,10.74-38.17,3.68-46.02-12.35-4.28-7.02.58-16.75,7.69-19.81,5.86-.52,13.08,1.92,15.66,7.5,1.73,6.48-3.18,11.9-6.74,16.7,8.16,1.7,19.44,1.24,23.21-7.55,3.9-10.28,2.13-23.98-7.74-30.48-9.71-6.55-20.91-12.09-32.97-11.83-25.27,0-47.15,26.73-39.61,50.93,5.65,18.53,19.02,34.73,36.35,43.99,32.17,17.4,76.84,9.22,99.06-19.9,11.88-15.09,12.31-35.6,8.63-53.56-5.17-24.25-22.48-44.43-43.32-57.63,5.83-25.94,2.2-54.99-14.87-76.31-9.47-11.87-21.77-22.88-37.33-25.83-28.96-5.72-59.44,8.35-76.4,31.44ZM611.76,847.36c4.63,13.07,8.58,26.42,13.99,39.23,9.2,17.9,29.51,31.21,50.37,29.23,12.93-.56,25.9-.93,38.84-1.5-4.97-12.63-11.88-24.53-15.03-37.82-8.85-20.2-32.06-34.51-54.63-31.46-11.17.8-22.37,1.48-33.54,2.33ZM1838.57,883.79c-3.17,10.61-9,20.18-12.79,30.55,12.95.55,25.94.91,38.91,1.48,19.31,1.9,37.89-9.59,48.04-25.16,7.23-13.7,11-28.88,16.12-43.4-14.72-.61-29.38-2.5-44.07-2.5-21.22,2.41-41.66,18.09-46.2,39.04ZM383.47,885.35c9.8,10.61,19.57,22.33,33.65,27.57,9.45,3.25,20.11,5.35,29.82,1.87-3.53-2.78-7.14-5.41-10.77-8,4.39.74,8.8,1.48,13.21,2.07-3.9-9.2-12.9-14.88-21.62-19.2-13.83-6.44-29.49-4.89-44.3-4.3ZM2114.72,888.9c-9.42,4.26-19.16,10.24-23.39,19.96,4.39-.59,8.78-1.31,13.19-2.04-3.64,2.57-7.27,5.2-10.73,7.96,9.18,3.41,19.29,1.48,28.38-1.33,14.77-4.98,24.97-17.11,35.07-28.1-14.21-.52-29.09-2.07-42.52,3.54ZM45.83,978.58c33.65,44.23,70.59,85.98,108.61,126.63,13.01-8.07,26.23-15.83,39.06-24.16-32.3-27.32-60.12-59.19-88.21-90.53,38.04-18.68,76.2-37.62,116.72-50.62-8.51-12.63-17.65-24.83-26.43-37.27-50.97,23.27-101.11,48.27-149.76,75.96ZM2318.7,939.89c40.55,12.96,78.61,32.03,116.7,50.56-27.86,31.68-56.35,62.98-88.08,91.03,13.1,7.7,25.94,15.88,38.96,23.72,38.02-40.64,74.93-82.39,108.61-126.63-48.62-27.68-98.79-52.69-149.76-75.96-8.78,12.44-17.91,24.66-26.43,37.27ZM200.44,957.88c-28.82,8.09-55.05,22.66-81.76,35.62,16.49,17.5,32.95,35.05,49.84,52.19,8.36,8.61,18.24,15.77,28.95,21.31,9,4.63,19.91,4.94,29.26,1.07,28.55-10.59,59.99-12.73,90.05-8.31,27.33,5.06,48,24.65,70.52,39.14,5.21-7.66,10.53-15.27,16.67-22.23,8.56-9.68,20.33-15.64,31.19-22.4-15.7-15.5-26.56-36.62-25.1-58.89-19.09,4.37-38.15,9.33-57.73,11.24-22.97,2.09-45.62-5.35-65.44-16.24-16.52-8.64-30.29-21.31-46.11-30.99-12.1-7.4-27.27-4.39-40.35-1.52ZM2280.24,973.03c-24.46,18.53-53.56,34.21-85.27,33.91-21.9-.83-43.1-6.81-64.33-11.55,1.46,22.27-9.4,43.39-25.1,58.87,10.87,6.8,22.66,12.74,31.22,22.44,6.16,6.98,11.37,14.68,16.83,22.23,22.26-14.68,43.01-33.95,70.19-39.12,30.75-4.63,62.88-2.15,92.01,8.87,9.33,3.54,20.04,2.44,28.73-2.31,10.11-5.5,19.6-12.31,27.58-20.57,16.91-17.18,33.41-34.77,49.97-52.3-24.83-12.05-49.17-25.4-75.6-33.82-11.59-3.76-23.99-5.7-36.14-4.35-11.66,2.65-20.53,11.18-30.08,17.7ZM676.51,1004.52c18.8,34.06,37.67,68.07,57.55,101.53,15.56-8.15,31.08-16.39,46.67-24.51-12.37-15.61-23.92-31.86-34.72-48.58,19.58-5.07,39.66-8.02,59.7-10.62-5.05-16.61-10.25-33.18-15.32-49.77-38.15,9.96-76.06,20.77-113.89,31.94ZM1734.99,1022.35c20.04,2.66,40.19,5.46,59.75,10.7-10.93,16.61-22.37,32.9-34.76,48.49,15.59,8.11,31.1,16.35,46.69,24.51,19.84-33.46,38.73-67.47,57.53-101.51-37.8-11.2-75.73-22.01-113.89-31.99-5.1,16.62-10.26,33.19-15.32,49.8ZM759.92,1038.07c7.25,11.16,15.32,22.42,26.16,30.49,13.66,8.79,29.22-.58,43.63-1.78-8.94-10.39-12.79-26.4-27.27-31.01-14.04-3.33-28.53.48-42.52,2.3ZM1711.03,1066.78c14.39,1.22,29.95,10.57,43.63,1.76,10.98-8.03,18.65-19.55,26.43-30.43-14.12-1.84-28.73-5.69-42.87-2.33-14.43,4.63-18.29,20.59-27.18,30.99ZM558.28,1051.79c-14.19,5-27.22,12.68-40.86,18.9,8.01,8.98,15.99,17.98,23.95,27.01,11.93,14.2,32.43,19.22,50.44,16.29,8.85-1.18,15.74-7.18,23.9-10.16,7.67-2.89,15.41-5.65,22.95-8.87-9.09-9.72-18.25-19.4-27.38-29.1-12.72-14.46-34.65-18.79-52.99-14.07ZM1929.35,1065.97c-9.11,9.66-18.22,19.29-27.29,28.99,10.06,4.56,20.95,7.33,30.75,12.5,21.48,13.72,53.47,7.79,68.77-12.3,7.16-8.26,14.68-16.27,21.66-24.68-13.77-5.83-26.58-13.76-40.73-18.66-18.4-4.78-40.42-.41-53.16,14.16ZM176.5,1101.22c-29.69,19.66-56.38,43.23-82.1,67.58-27.87,26.36-57.04,51.35-85.6,76.96,17.34,15.57,34.92,30.9,52.3,46.43,30.72,27.14,59.24,56.73,92.09,81.48,26.21,20.42,55.65,37.73,88.35,45.8,28.13,7.39,59.06,7.26,85.91-4.62,24.1-10.67,46.93-28.55,55.25-54.05,1.17-3.68-.47-7.33-1.31-10.85-25.76,13.9-51.83,30.01-81.96,32.07-33.14,3.7-64.14-11.11-92.45-26.09-33.23-17.47-60.77-43.1-89.06-67.13-15.9-14.11-32.77-27.25-47-43.04,23.96-25.1,51.61-46.47,77.79-69.26,29.51-25.99,63.83-46.66,100.92-60.43,22.06-8.09,46.64-9.2,69.37-3.2,22.52,5.52,42.12,18.12,62.39,28.7,1.11-4.02,2.66-8.37.84-12.44-3.97-10.27-9.98-19.83-17.71-27.77-21.86-21.14-51.99-34.29-82.85-34.34-37.69-.24-74.14,13.96-105.17,34.18ZM2213.2,1076.72c-24.08,10.68-46.87,28.51-55.19,54-1.22,3.65.45,7.33,1.31,10.87,15.52-8.07,30.44-17.33,46.8-23.7,22.68-8.94,48.13-11.52,71.96-5.68,20.62,5.35,39.86,14.92,58.48,24.96,31.62,17.1,57.97,41.58,85.09,64.59,16.25,14.46,33.54,27.86,48.13,44.01-12.77,14.24-27.8,26.2-42.15,38.82-15.76,13.68-31.59,27.27-47.75,40.47-25.98,21.22-55.78,37.73-87.2,49.82-22.5,8.61-47.73,9.93-71.05,3.76-22.5-5.52-42.08-18.12-62.32-28.68-1.13,4-2.68,8.29-.87,12.37,3.97,10.31,10,19.92,17.78,27.9,21.9,21.16,52.08,34.27,82.98,34.29,37.18.18,73.1-13.68,103.85-33.44,30.57-20.05,57.93-44.34,84.31-69.37,27.56-25.99,56.36-50.64,84.56-75.94-17.4-15.59-35.01-30.94-52.41-46.51-30.66-27.1-59.15-56.65-91.94-81.38-26.18-20.4-55.62-37.68-88.28-45.8-28.2-7.41-59.22-7.3-86.11,4.63ZM210.72,1143.52c-29.73,14.74-54.8,36.55-79.26,58.38,8.12.89,15.63-2.71,23.57-3.57,12.64-1.52,25.45.02,37.82,2.78,16.78,3.74,33.92,5.61,51.03,7.29,14.39,1.48,28.62-2.85,41.48-8.87,19.46-9.4,38.38-20.4,59.37-26.29,15.63-4.42,32.59-2.69,47.18,4.24-2.02-9.85-7.21-18.92-15.01-25.45-13.66-12.48-30.17-22.33-48.62-26.05-39.71-8.21-81.83-.85-117.57,17.53ZM2212.33,1126.02c-20.51,4.19-38.69,15.81-53.03,30.46-5.6,5.81-8.71,13.33-10.51,21.01,8.87-3.83,18.34-6.83,28.16-6.68,18.4-.26,35.32,7.76,51.52,15.35,16.23,7.5,31.57,17.56,49.4,21.16,14.48,3.18,29.22-.3,43.7-1.68,20.62-2.11,40.7-9.76,61.7-7.54,8.82.39,17.03,4.76,25.98,3.8-22.5-19.92-45.21-40.1-71.92-54.49-37.38-21.12-82.49-30.27-124.99-21.39ZM309.47,1197.08c-14.1,6.02-25.98,16.31-40.72,20.96-12.31,4.16-25.61,4.89-38.49,3.39-25.52-2.74-48.88-17.29-75.13-14.77-27.78,2.24-50.26,20.62-69.21,39.12,17.52,16.88,37.38,33.67,62.27,38.17,21.48,4.24,42.5-3.8,62.7-9.93,18.27-5.11,38.16-6.76,56.47-.98,15.45,4.5,27.73,15.29,42.36,21.55,15.94,6.94,31.9,14.48,49.13,17.74,12.41,2.44,25.07-2.72,33.76-11.35-14.81-1.05-30.31-1.34-43.74-8.35-17.65-8.98-32.63-26.55-32.44-46.84-.33-17.67,11.35-33.31,25.65-42.97,14.65-10.26,33.16-11.33,50.52-12.27-8.67-8.63-21.28-13.79-33.68-11.35-17.36,3.24-33.43,10.87-49.46,17.88ZM2148.11,1190.56c14.74,1.05,30.19,1.33,43.59,8.29,17.71,8.92,32.75,26.51,32.59,46.84.31,19.22-13.28,36.06-29.53,45.41-14.03,8.31-30.77,8.89-46.64,9.89,8.65,8.61,21.24,13.77,33.63,11.37,17.36-3.24,33.41-10.87,49.44-17.87,15.01-6.44,27.62-17.61,43.63-21.88,20.93-6.15,43.39-2.76,63.72,4.02,18.11,6.04,37.71,11.33,56.84,6.76,23.65-5.29,42.63-21.35,59.44-37.67-19.02-18.41-41.41-36.81-69.19-39.05-27.07-2.59-51.08,12.9-77.53,15.01-17.63,1.87-35.94-1.41-51.21-10.38-21.86-13.63-45.74-24.37-70.68-31.25-13.57-4-28.43.61-38.09,10.5ZM332.48,1232.49c-4.34,8.13-4.39,18.22-.06,26.4,9.6,17.72,28.02,31.94,48.97,32.85,14.45.92,28.47-5.06,39.48-13.91,16.83-13.07,35.2-24.36,55.27-31.99-20.04-7.94-38.6-19.05-55.47-32.25-10.97-8.81-24.9-14.71-39.26-13.81-20.91.93-39.28,15.05-48.93,32.71ZM2121.23,1212.7c-17.3,13.37-35.96,25.27-56.64,32.9,12.84,5.66,25.67,11.46,37.25,19.4,14.99,9.28,27.78,23.46,46.15,26.09,25.59,4.7,50.99-12.16,61.37-34.53,3.5-8.17,2.62-17.72-1.81-25.36-9.51-16.33-26.38-29.47-45.87-31.25-14.61-1.54-29.15,3.87-40.44,12.74ZM482.31,1254.21c-19.47,3.35-35.96,15.64-49.24,29.45-13.43,13.59-25.41,29.36-30.51,47.88-6.03,20.68-2.66,43.23,6.78,62.43,5.76,11.59,16.38,20.44,28.62,24.97,21.22,8.65,46.34,8.15,66.71-2.53,23.45-11.92,39.26-36.38,41.86-61.96,1.91-20.63-13.15-41.88-34.21-45.66-19.91-2.85-42.34,7.5-50.19,26.25-4.77,10.72-1.6,25.1,8.65,31.62,7.16,2.79,17.01,2.53,21.75-4.3-5.81-2.94-13.99-6.35-12.72-14.24.25-10.96,17.18-14.92,23.17-6.11,4.81,7.78,2.59,17.98-2.17,25.29-7.4,12.31-24.98,19.4-38.17,11.68-10.86-7.81-15.63-22.57-12.86-35.3,6.47-25.2,29.31-45.77,55.96-48.34,19.22-2.61,39.82,7.4,48.04,24.88,6.65,12.9,4.1,27.73,4.57,41.62,16.38-4.11,32.13,3.2,45.74,11.37,15.54,8.26,32.41,14.2,49.84,17.2,2.55,0,3.64,2.33,5.03,4.02-14.52,12.46-30.59,23.45-42.9,38.19-10.09,11.98-21.59,24.16-37.51,28.18,3.15,7.7,6.85,15.16,10.11,22.82,5.34,14.61.33,31.05-9.2,42.88,15.1,1.77,30.39,9.66,37.2,23.51,3.39,7.81,6.03,15.92,9.67,23.66,14.25-8.59,31.61-7.46,47.55-6.09,19.2,1.85,38.26-1.83,57.38-2.68-.02,1.13-.07,3.41-.09,4.54-12.15,17.2-21.06,36.51-26.29,56.82-3.08,12.61-10.29,24.42-21.71,31.34,9.78,9.83,21.88,18.6,26.65,32.06,6.01,15.78,1.58,34.53-10.37,46.53-14.41,14.48-36.31,21.4-56.64,17.64-12.75-2.26-26.45-6.96-33.7-18.24-5.54-8.7-9.33-20.81-3.17-30.15,11.15-17.68,42.68-16.74,51.81,2.29,5.08,11.27-12.21,22.64-20.73,13.51-5.9-4.83-2.28-12.51-.84-18.47-8.38-1.33-15.81,5.59-18.51,12.81-1.71,9.87,3.99,20.29,12.59,25.42,24.72,14.5,62.52-3.03,65.31-31.58,2.1-16.03-5.94-32.44-19.38-41.58-19.11-13.07-44.05-18.68-66.77-12.65-27.89,6.89-50.24,30.44-56.45,57.82-4.12,20.07,6.45,39.56,18.74,54.86,17.05,20.84,44.49,30.77,71.14,31.56,24.63,1.63,52.67-.85,71.07-18.85,18.42-16.05,36.76-33.38,47.47-55.54,6.34-12.52,9.11-26.4,10.66-40.19,5.46-52.69,11.49-105.29,17.27-157.94-42.32-8.98-82.98-24.01-124.75-35.01,21.62-36.7,39.53-75.5,62.92-111.21-41.77-33.12-83.8-65.91-125.37-99.22-11.46-9.07-23.9-17.31-38-21.86-26.27-8.85-54.54-7.41-81.78-5.39ZM1976.55,1259.62c-14.01,4.55-26.4,12.72-37.8,21.74-41.63,33.34-83.69,66.15-125.48,99.29,23.37,35.73,41.28,74.53,62.92,111.23-41.79,11-82.45,26.03-124.77,35.01,6.19,54.95,12.06,109.97,18.2,164.92,3.06,30.09,21.26,56.21,43.39,76.29,10.26,8.76,19.29,19.76,32.35,24.62,21.33,8.92,45.29,8,67.82,5.15,26.25-3.57,50.81-18.68,64.07-41.38,7.91-12.92,13.9-28.18,10.55-43.42-5.68-24.92-24.59-46.73-49.09-55.6-17.25-6.44-36.78-6.13-53.98.19-12.88,4.63-25.67,11.77-33.03,23.51-9.53,14.64-9.35,35.51,2.55,48.84,10.37,11.05,26.07,17.68,41.46,15.96,9.93-1.11,19.98-6.28,24.61-15.3,2.82-5.7,4.9-13.01,1.15-18.79-3.95-5.29-9.69-10.51-16.94-9.09,1.48,5.89,5.03,13.46-.67,18.31-5.89,6.51-17.38,2.96-20.57-4.5-2.35-4.37-.73-9.63,2.31-13.24,12.9-16.2,44.01-13.52,51.43,6.59,3.3,13.33-4.01,27.96-15.36,35.49-23.66,14.16-56.42,12.15-77.22-6.24-14.12-11.88-20.13-32.34-13.52-49.56,4.79-13.43,16.85-22.2,26.65-32.01-5.19-3.7-10.33-7.7-13.77-13.09-7.51-11.03-8.89-24.58-13.81-36.69-4.9-13.79-12.37-26.46-20.49-38.6,0-1.08-.04-3.26-.04-4.35,18.34.76,36.58,4.28,54.98,2.85,16.92-1.57,34.99-2.7,50.39,5.74,3.04-7.87,5.96-15.79,9.27-23.55,6.83-13.81,22.1-21.68,37.18-23.45-6.88-8.76-11.55-19.44-11.35-30.62-.11-12.78,8.13-23.42,12.26-35.07-16.51-4.15-28.13-17.07-38.59-29.42-12.15-14.55-28.49-24.77-42.15-37.77,2.1-1.67,4.32-3.44,7.2-3.59,18.49-3.24,36.18-10.11,52.48-19.22,12.19-7.52,26.78-12.4,41.26-8.96-.18-17.72-2.19-38.1,11.64-51.92,20.46-22.79,58.8-17.16,78.9,3.19,11.47,12.02,21.82,28.51,17.96,45.62-2.46,10.13-8.98,21.37-20.44,23.07-19.24,3.43-38.15-15.46-34.96-34.19.71-4.5,3.81-8.83,8.51-9.91,7.94-2.63,18.31,3.63,16.92,12.48-.18,6.94-7.65,9.27-12.72,12.18,4.72,6.83,14.56,7.07,21.73,4.3,10.24-6.5,13.43-20.92,8.65-31.64-7.49-17.98-28.42-28.05-47.58-26.59-22.26,2.37-38.82,24.51-36.8,45.95,1.95,19.53,11.62,38.32,26.43,51.52,25.83,23.51,68.4,25.33,96.68,5.06,14.26-10.76,20.11-28.62,22.99-45.36,4.12-24.83-5.1-50.27-21.26-69.33-15.54-18.55-34.49-36.77-59.26-41.88-27.69-2.26-56.49-3.72-83.2,5.24ZM217,1286.18c-19.22,2.15-37.96,9.04-57.53,7.41-9.55-.02-18.38-4.92-28-3.96,29.22,26.36,60.15,52.26,97.59,66.59,31.21,12.27,66.16,16.11,99.16,9.35,20.62-4.2,38.91-15.85,53.3-30.64,5.54-5.76,8.58-13.26,10.4-20.88-8.89,3.85-18.38,6.81-28.2,6.68-19.77.21-37.75-8.94-55.14-17.12-17.76-8.63-35.36-19.72-55.74-20.68-12.02-.21-23.92,1.93-35.85,3.24ZM2270.09,1286.24c-26.69,9.14-49.95,26.66-77.77,32.93-14.61,3.37-30.06,1.19-43.52-5.11,2.24,13.18,11.44,23.59,22.06,31.31,16.57,14.05,38.07,21.38,59.73,22.87,35.03,3.09,70.57-4.98,101.45-21.26,28.88-14.68,53.3-36.06,77.22-57.35-9.73-.96-18.66,4.03-28.36,3.98-19.42,1.52-38-5.26-57.07-7.44-17.78-1.91-36.33-6.13-53.73.06ZM540.24,1395.1c-7.56,8.64-15.23,17.16-22.79,25.79,12.99,5.93,25.47,13,38.8,18.2,19.29,6.02,42.94,1.2,56.09-14.55,8.76-9.33,17.56-18.62,26.32-27.97-12.57-5.39-25.92-9.09-37.67-16.2-20.44-8.2-46.87-2.55-60.75,14.72ZM1932.84,1384.08c-9.82,5.09-20.58,8.04-30.75,12.35,8.54,9.55,17.54,18.7,26.27,28.09,13.15,15.75,36.78,20.6,56.07,14.59,13.35-5.22,25.87-12.26,38.86-18.27-9.89-10.68-18.93-22.16-29.29-32.38-16.8-13.24-42.79-16.29-61.17-4.39ZM154.1,1386.81c-38.02,40.39-74.71,82.09-108.26,126.18,48.62,27.68,98.79,52.67,149.74,75.94,8.8-12.44,17.89-24.66,26.45-37.25-40.55-13.03-78.68-31.97-116.75-50.65,28.09-31.42,56.02-63.21,88.26-90.66-13.19-7.7-25.83-16.86-39.44-23.56ZM676.51,1487.02c37.8,11.18,75.73,21.99,113.89,31.97,5.1-16.62,10.27-33.21,15.32-49.82-20.04-2.41-39.97-5.85-59.63-10.28,10.42-17.05,22.32-33.14,34.67-48.89-15.61-8.11-31.15-16.37-46.73-24.51-19.82,33.49-38.73,67.48-57.51,101.53ZM1759.95,1410c12.4,15.71,24.14,31.9,34.77,48.8-19.69,4.59-39.67,7.94-59.73,10.37,5.03,16.64,10.22,33.21,15.32,49.82,38.15-9.98,76.09-20.81,113.89-31.97-18.78-34.05-37.69-68.04-57.51-101.53-15.61,8.13-31.13,16.4-46.73,24.51ZM2347.3,1410.11c31.79,27.99,60.21,59.35,88.12,90.99-38.11,18.72-76.42,37.36-116.83,50.86,8.96,12.22,17.65,24.66,26.54,36.97,50.97-23.25,101.11-48.28,149.76-75.96-33.65-44.23-70.59-85.96-108.61-126.63-13.02,7.87-25.87,16.03-38.98,23.77ZM317.05,1431.75c-29.57,4.37-60.48,2.47-88.66-7.7-8.78-3.61-18.89-4.66-27.82-.85-13.52,5.98-25.34,15.31-35.34,25.99-15.72,16.09-31.12,32.49-46.56,48.86,16.94,8.28,33.68,16.98,50.99,24.53,19.16,8.01,39.59,16.16,60.88,13.61,11.64-2.74,20.49-11.26,30.06-17.76,24.43-18.51,53.59-34.19,85.29-33.82,21.84.85,42.99,6.81,64.18,11.57-1.46-22.29,9.4-43.4,25.1-58.89-7.34-4.54-14.9-8.76-21.81-13.87-11.09-8.14-18.25-20.01-26.25-30.79-22.21,14.68-42.94,33.9-70.06,39.12ZM2153.5,1392.64c-5.37,7.59-10.62,15.29-16.81,22.29-8.56,9.63-20.31,15.57-31.15,22.33,15.7,15.48,26.56,36.62,25.1,58.91,20.53-4.65,41.06-10.29,62.18-11.53,31.99-1.06,61.66,14.48,86.35,33.08,9.51,6.5,18.27,14.79,29.6,18.16,14.56,2.33,29.46-.98,43.16-5.85,24.37-8.46,47.02-20.79,70.13-31.99-18.38-19.27-36.31-38.97-55.43-57.54-10.71-8.69-22.37-18.15-36.67-19.68-11.77-.83-22.13,5.9-33.39,8.01-23.7,5.8-48.64,6.52-72.76,2.94-27.25-5.14-47.93-24.56-70.32-39.12ZM787.43,1422.2c-11.95,7.66-19.49,20.14-27.93,31.1,14.17,2.07,28.86,5.78,43.08,2.43,14.39-4.65,18.22-20.61,27.14-30.97-14.01-1.11-28.69-10.07-42.28-2.57ZM1711,1424.76c8.93,10.39,12.79,26.42,27.29,31.01,14.12,3.35,28.69-.58,42.83-2.28-6.03-9.04-12.79-17.64-20.3-25.51-5.7-6.05-14.1-9.76-22.55-8.7-9.2,1.24-18,4.48-27.27,5.48ZM438.48,1458.38c-11.93,15.09-12.39,35.64-8.69,53.63,5.17,24.25,22.46,44.45,43.32,57.65-5.52,24.9-2.59,52.6,12.9,73.68,10.11,13.68,24.01,26.4,41.72,28.9,37.78,5.98,76.6-20.68,86.02-56.62,5.06-18.86,2.26-39.9-8.16-56.56-13.66-21.03-48.06-23.01-64.78-4.57-7.76,8.33-11.46,19.51-13.3,30.48-1.82,11.61,7.31,22.59,17.94,26.55,8.85,2.61,15.81-4.94,20.55-11.14-6.32-1.06-14.99-1.63-17.4-8.72-.62-5.78,2.17-12.79,7.8-15.31,5.3-.85,11.44.5,15.41,4.2,11.51,16.92-.95,43.63-21.68,45.86-15.1,1.59-27.14-11.59-30.02-25.07-4.23-20.18,1.75-42.78,16.74-57.5-21.04-.21-41.59-11.61-53.12-28.79-7.67-11.37-8.91-28.73,2.31-38.34,14.63-12.11,39.13-5.24,47.24,11.2,4.37,7.05-.53,16.92-7.71,19.96-5.88.41-13.17-1.98-15.61-7.63-1.66-6.56,3.35-11.85,6.83-16.81-7.27-.76-16.18-1.54-21.35,4.65-4.81,6.46-4.46,15.4-2.44,22.81,2.75,8.78,11.6,13.29,19.31,17.24,11.33,5.87,25.48,7.46,37.31,2.04,16.96-7.63,29.29-26.74,24.79-45.23-4.39-17.52-16.16-33.03-31.35-43.06-32.32-21.46-81.01-14.31-104.57,16.51ZM2008.93,1435.83c-20.09,8.59-35.83,26.27-42.06,46.82-7.45,24.11,14.3,50.71,39.48,50.84,12.02.3,23.19-5.2,32.9-11.66,10.42-6.81,12.35-21.77,7.14-32.22-4.55-7.62-14.68-7.16-22.39-6.2,3.37,4.94,8.44,10.31,6.76,16.83-1.71,4.5-6.85,6.44-11.21,7.48-8.16,1.98-13.26-7.33-13.92-13.96,3.99-20.94,34.57-31.11,50.28-15.96,10.8,10.82,8.02,28.68-.73,39.9-11.93,15.57-31.31,25.95-51.3,26.12,12.77,12.37,18.65,30.47,18.07,47.82-.33,11.66-5.17,23.94-15.28,30.68-7.14,4.86-16.94,5.55-24.63,1.62-14.08-6.96-21.21-24.75-15.49-39.23,2.15-7.09,11.02-9.33,17.67-8.39,5.72,2.41,8.47,9.48,7.94,15.27-2.4,7.14-11.11,7.72-17.43,8.79,4.77,6.26,11.86,13.87,20.77,11.07,10.51-4.07,19.53-14.94,17.71-26.51-2.17-13.36-7.49-27.32-19.06-35.52-19.18-13.92-50.73-8.22-61.37,13.46-9.02,17.55-10.93,38.69-4.41,57.35,11.4,33.64,48.53,57.76,84.69,52.01,18.22-2.65,32.42-15.98,42.59-30.2,14.72-20.92,17.33-47.97,11.97-72.37,20.89-13.2,38.18-33.42,43.34-57.69,3.53-17.5,3.31-37.36-7.8-52.34-20.59-28.29-62.23-37.69-94.22-23.79ZM274.66,1517.31c-34.01,21.53-59.04,54.15-78.37,88.51-17.18,30.97-31.48,63.32-46.58,95.3,30.9,11.11,61.61,22.8,93.03,32.52,40.86,12.42,84.82,19.68,127.23,10.85,32.88-6.7,62.47-26.84,80.65-54.49,11.51-17.9,17.18-40.84,9.27-61.22-13.97,15.47-26.65,32.14-42.08,46.27-21.22,19.05-50.19,28.03-78.63,28.21-45.34.02-89.88-10.81-132.49-25.25,18.76-38.6,41.83-75.7,72.1-106.7,20.55-20.94,48.24-36.21,78.28-37.69,21.42-.85,42.77,2.11,64.12,3.56-9.02-20.03-29.75-32.34-50.86-37.01-32.54-6.89-67.73-.69-95.66,17.13ZM2168.12,1500.72c-20.28,5.01-39.9,17.16-48.59,36.47,30.95-1.78,63.21-8.61,93.27,2.22,21.79,7.46,40.41,21.9,55.6,38.71,27.03,29.7,48.4,64.04,65.56,100.05-29.47,9.67-59.5,18.14-90.39,22.16-22.75,2.92-46.09,4.74-68.72.11-21.77-4.22-42.13-15.01-57.56-30.64-12.83-13.09-24.32-27.36-36.45-41.01-2.55,8.4-4.94,17.09-3.46,25.94,3.15,30.42,25.1,55.56,50.08,72.13,33.88,22.05,76.78,24.48,115.99,19.15,51.28-7.31,99.08-27.96,147.54-44.9-12.93-27.67-25.65-55.44-39.66-82.6-19.02-36.42-43.3-71.48-77.35-95.92-29.84-21.99-69.55-30.51-105.86-21.88ZM290.43,1576.33c-32.04,24.51-53.63,59.56-69.35,95.79,38.73,15.2,81.03,25.3,122.89,18.99,31.86-4.98,64.78-15.99,86.84-40.21,14.21-15.46,27.13-35.51,23.54-57.26-7.12,5.33-13.68,11.61-21.95,15.27-21.26,9.42-45.32,6.33-67.88,4.98,12.84-14.83,25.85-30.42,43.39-40.1,10.44-6.02,22.7-6.81,34.47-7.92-11.91-17.16-34.3-22.55-54.21-24.07-35.94-3.13-69.95,13.72-97.75,34.53ZM2099.18,1564.17c.22.48.64,1.39.84,1.87,10.16,1.11,20.68,1.61,29.95,6.33,19.06,9.27,32.59,26.08,46.34,41.47-20.93,1.39-42.79,3.91-63.03-2.92-10.44-3.35-18.51-10.8-26.93-17.29-2.4,14.07,2.5,28.29,10.17,40.08,8.54,13.01,19.31,24.77,32.46,33.45,18.34,12.24,39.9,18.81,61.52,22.92,43.72,8.22,88.52-1.93,129.16-18.01-15.61-35.73-36.76-70.35-68.17-94.84-26.91-20.4-59.53-37.17-94.46-35.71-20.93.94-44.03,5.87-57.84,22.64ZM418.63,1578.07c-14.81,4.96-25.03,17.11-35.16,28.12,14.81.59,30.46,2.11,44.32-4.31,8.69-4.33,17.69-10.02,21.59-19.2-4.41.57-8.82,1.28-13.21,2.02,3.59-2.54,7.16-5.13,10.71-7.74-9.05-3.83-19.22-1.61-28.25,1.11ZM2093.79,1576.77c3.48,2.74,7.09,5.37,10.76,7.96-4.41-.76-8.8-1.48-13.19-2.04,3.66,8.79,12.1,14.27,20.28,18.59,14.1,7.07,30.33,5.54,45.61,4.91-10.13-11.01-20.35-23.14-35.14-28.1-9.07-2.8-19.15-4.76-28.31-1.33ZM628.96,1599.39c-8.2,13.83-11.46,29.88-17.2,44.77,11.88.96,23.81,1.63,35.72,2.5,18.89,2.02,37.22-8.66,48-23.38,5.65-7.18,6.07-16.59,9.97-24.57,3.37-7.24,6.61-14.55,9.87-21.81-13.81.04-27.6-.8-41.41-1.24-17.98-1.11-34.94,9.61-44.94,23.73ZM1825.78,1577.22c3.66,9.92,9.11,19.14,12.39,29.2,4.99,24.86,31.75,43.45,57.29,40.08,11.17-.87,22.39-1.37,33.56-2.44-5.05-13.4-8.76-27.31-14.68-40.36-9.58-17.22-29.42-29.99-49.84-27.99-12.93.56-25.83.91-38.73,1.5ZM481.53,1665.45c-11.04,17.35-21.46,35.31-35.21,50.8-15.3,16.5-36.67,26.16-58.33,31.84-17.36,4.78-35.56,5.28-53.03,9.52-7.34,1.65-13.17,6.63-17.93,12.13-9.36,9.94-15.27,22.34-20.73,34.62-8.76,20.13-15.12,41.14-22.21,61.87,26.09.91,52.21,2.19,78.33,2.26,12.64-.63,25.81-2.15,37.18-7.96,7.14-3.76,12.08-10.44,15.21-17.64,11.24-24.18,29.02-45.03,49.88-61.82,23.44-20.23,56.09-21.12,85.24-26.49-1.62-10.11-3.9-20.16-4.19-30.43-.18-11.81,3.44-23.2,6.03-34.62-22.28.17-45.16-7.48-60.24-24.09ZM1998.95,1689.54c2.59,11.42,6.21,22.84,6.03,34.66-.31,10.23-2.53,20.27-4.23,30.34,26.2,5.07,54.69,5.78,77.6,20.81,25.85,18.38,46.93,43.29,59.86,72.02,8.36,16.5,28.93,19.44,45.71,20.94,27.58.5,55.14-1.24,82.72-2.08-10.02-28.9-18.22-58.87-34.25-85.29-6.8-9.43-14.34-20.2-26.43-23.26-17.49-4.33-35.76-4.79-53.14-9.57-22.7-5.9-45.1-16.29-60.48-34.17-12.68-15.04-22.68-31.97-33.12-48.49-15.1,16.61-37.98,24.27-60.26,24.09ZM1056.26,1704.74c-3.37,13.9.51,28.23,2.44,42.08,11.26-8.11,23.83-15.61,31.72-27.22,7.76-13.33-1.44-27.82-2.57-41.58-10.6,8.74-26.92,12.52-31.59,26.73ZM1452.84,1678c-1,8.31-3.7,16.29-5.28,24.51-1.73,8.4,1.26,17.31,7.49,23.27,8.2,7.92,17.47,14.75,27.02,21,1.8-13.87,5.81-28.22,2.35-42.1-4.72-14.15-21.02-17.92-31.59-26.68ZM991.84,1716.55c10.15,37.43,21.19,74.61,32.57,111.71,34.72-18.33,69.19-37.05,103.42-56.23-8-15.49-16.69-30.62-24.9-45.99-16.03,12.11-32.5,23.66-49.75,34.06-4.68-19.31-8.07-38.88-10.6-58.56-16.94,4.94-33.83,10.05-50.74,15.03ZM1498.13,1701.52c-2.53,19.68-5.92,39.28-10.6,58.58-17.22-10.42-33.74-21.94-49.75-34.1-8.27,15.31-16.69,30.53-24.96,45.84,34.12,19.44,68.77,38,103.49,56.41,11.39-37.07,22.39-74.28,32.59-111.71-16.94-5-33.84-10.07-50.77-15.03ZM847.02,1732.17c-21.48,2.24-43.87,2.91-63.76,12.18-26.67,12.07-46.71,34.05-65.36,55.63-14.01,22.07-13.83,49.41-10.73,74.35,3.02,23.23,14.96,45.63,34.45,59.52,14.99,10.57,33.52,19.53,52.48,15.61,23.54-5.22,44.4-21.55,54.43-43.17,12.68-26.31,7.09-59.02-11.4-81.31-13.61-16.26-40.13-21.07-57.84-8.54-15.7,11.93-23.99,34.36-16.14,52.86,4.26,10.72,16.25,18.55,28.05,16.77,7.45-2.57,14.77-9.96,13.15-18.29-5.7,1.31-12.7,4.85-17.76.15-7.58-5.52-4.26-17.81,3.9-21.01,4.92-2.48,10.71-.19,14.5,3.24,13.77,12.18,12.84,37.36-3.19,47.32-9.53,6.11-21.95,2.37-30.86-3.11-11.48-7.13-16.25-20.57-18.54-33.07-3.81-19.9,3.24-41.39,17.98-55.5,12.26-11.74,31.39-16.07,47.53-10.15,13.66,4.72,22.59,16.53,32.57,26.12,3.75-5.09,7.8-10.14,13.3-13.48,10.82-7.16,24.1-8.57,36.07-13.07,14.48-4.87,27.89-12.26,40.59-20.52,1.13-.05,3.41-.09,4.57-.11-.8,18.01-4.39,35.94-2.88,54.02,1.46,16.46,2.93,34.25-5.94,49.15,7.96,3.24,16.12,6,24.07,9.31,14.08,6.66,22.11,21.66,23.9,36.45,8.91-6.75,19.82-11.36,31.24-11.14,13.02-.11,23.83,7.94,35.72,12.03,4.01-15.04,15.67-26.19,27.51-35.75,15.67-12.28,27.14-28.62,40.35-43.2,1.51,1.37,3.7,2.48,3.86,4.8,3.57,20.37,11.64,39.78,22.37,57.54,6.65,10.85,9.71,23.87,6.83,36.43,14.1.45,29.18-2.05,42.3,4.43,17.23,7.75,27.49,26.86,25.7,45.17-1.86,27.66-24.43,51.99-51.94,57.34-13.21,1.63-29.11-3.76-35.12-16.13-8.4-20.81,15.39-44.86,36.8-37.79,11.64,3.89,8.71,23.63-3.66,24.01-8.11,1.29-11.64-6.76-14.59-12.48-6.98,4.64-7.27,14.29-4.41,21.32,6.63,10.09,21.39,13.2,32.37,8.43,24.39-9.96,36-44.47,19.18-65.45-9.84-12.96-27.29-19.55-43.48-16.79-17.71,2.91-34.63,11.4-46.98,24.29-24.99,25.25-27.27,67.98-6.12,96.16,11.04,13.88,29.15,19.59,46.2,22.38,24.76,3.93,50.22-4.66,69.44-19.96,19.31-15.35,38.4-34.12,43.83-58.83,2.41-28.29,3.97-57.93-6.5-84.98-7.36-19.48-21.97-34.97-35.07-50.85-29.11-35.33-58.06-70.78-87.15-106.14-36.43,22.9-75.95,40.49-113.4,61.71-11.22-40.99-26.54-80.87-35.69-122.38-45.56,4.89-91.14,9.7-136.72,14.53ZM1556.97,1717.64c-9.15,41.52-24.48,81.39-35.69,122.38-37.42-21.22-76.97-38.79-113.4-61.71-35.58,43.5-71.43,86.79-106.92,130.37-23.06,28.08-25.56,66-22.7,100.51.06,30.14,23.61,53.34,46.07,70.93,20.73,16.18,48.71,23.97,74.78,17.75,15.87-3.41,32.32-10.11,41.55-23.92,14.59-22.18,16.63-51.97,4.48-75.63-7.94-15.9-21.97-28.55-38.4-35.69-12.08-5.33-25.76-8.89-38.95-5.83-17.61,3.74-32.84,19.07-33.7,37.12-.51,18.16,9.55,37.53,27.27,44.6,10.91,4.7,25.5,1.58,32.22-8.37,2.9-7.02,2.64-16.76-4.35-21.42-2.99,5.73-6.56,13.79-14.68,12.48-12.32-.43-15.21-20.14-3.55-24.03,20.31-6.59,42.94,14.59,37.73,34.88-2.48,10.42-13.32,16.16-23.12,18.53-13.66,3.33-27.2-3-38.11-10.57-17.18-11.63-27.58-32.15-26.87-52.59.56-16.96,11.58-33.27,27.71-39.66,12.7-5.48,26.89-3.11,40.35-3.58-2.9-12.57.2-25.62,6.87-36.49,10.29-17.2,18.38-35.86,21.88-55.56.13-2.83,2.02-4.94,3.73-6.98,11.35,11.64,20.62,25.1,32.54,36.2,13.88,12.38,31.08,23.86,35.67,42.91,8.05-2.8,15.65-6.68,23.54-9.83,14.88-5.2,31.57-.3,43.63,9.05,1.42-10.77,5.7-21.38,13.59-29.15,9.13-9.41,22.88-11.26,34.41-16.64-8.01-13.48-7.78-29.55-6.27-44.58,2.22-19.57-1.62-39.05-2.57-58.56,1.2.04,3.57.13,4.75.17,12.59,8.31,25.94,15.57,40.33,20.44,11.95,4.5,25.21,5.91,36.05,13.03,5.52,3.37,9.63,8.41,13.39,13.54,10.47-10.09,19.98-22.61,34.68-26.81,18.29-5.79,39.22,1.54,50.64,16.44,16.58,20.11,17.89,49.74,5.05,72-6.1,9.98-17.51,16.34-29.24,17.2-12.64,1-23.03-10.37-24.72-21.95-2.28-12.41,3.02-27.85,15.98-32.36,11.13-3.28,21.18,12.46,12.68,20.55-4.86,5.92-12.82,2.61-18.89.91-1.68,8.29,5.61,15.64,12.97,18.29,11.84,1.87,23.92-6,28.2-16.75,7.87-18.55-.46-41.01-16.23-52.93-17.85-12.53-44.45-7.57-57.97,8.87-13.11,16.07-19.78,37.36-17.65,57.89,3.06,32.68,30.46,60.89,63.16,66.72,17.76,2.78,34.81-5.48,49-15.11,20.15-13.83,32.59-36.66,35.67-60.37,3.08-24.98,3.31-52.36-10.78-74.43-11.66-13.77-24.07-27.08-38.09-38.6-17.49-14.53-39.24-24.03-62.12-26.18-55.2-5.74-110.41-11.59-165.59-17.51ZM211.86,1906.22c55.71,7.83,111.91,11.85,168.11,14.18,3.46-14.72,6.9-29.42,10.35-44.14-42.59,2.83-85.26-.16-127.77-2.91,13.37-39.67,26.87-79.48,45.98-116.91-15.16-2.7-30.35-5.24-45.51-7.9-19.27,51.84-36.78,104.34-51.17,157.68ZM2232.17,1756.43c19.11,37.43,32.64,77.24,45.98,116.91-42.5,2.76-85.17,5.74-127.76,2.91,3.44,14.7,6.9,29.42,10.35,44.14,56.2-2.32,112.4-6.34,168.11-14.18-14.39-53.35-31.88-105.84-51.17-157.68-15.16,2.65-30.35,5.2-45.52,7.9ZM443.22,1804.36c-26,24.74-41.57,58.37-49.44,92.68-6.94,31.79-9.18,64.37-10.18,96.79-.46,42.36-3.41,84.64-5.3,126.93,42.37-1.8,84.71-4.67,127.12-5.15,31.1-.76,62.3-2.83,92.91-8.4,35.85-6.7,71.12-21.01,98.04-45.69,26.38-24.2,41.02-60.98,36.56-96.27-2.6-10.67-4.17-24.62-16.05-29.2-5.7,17.92-9.73,36.49-18.03,53.51-10.97,23.25-29.82,42.97-53.36,54.26-36.92,17-77.22,26.64-117.9,28.81-35.09,2.13-70.19,6.05-105.35,5.02-1.24-20.05.98-40.06,2.02-60.09,2.84-39.01,3.77-78.75,16.01-116.34,6.54-19.92,13.26-40.3,25.63-57.56,11.29-15.72,26.96-28.2,44.56-36.58,17.78-8.65,37.31-12.68,56.16-18.42-4.66-11.66-18.82-13.18-29.64-15.74-33.88-4.16-69.24,8.31-93.76,31.42ZM1974.12,1788.68c17.76,5.41,36.09,9.29,53.05,16.99,24.81,10.89,45.87,30.18,57.48,54.4,10.38,22.16,18.07,45.56,22.99,69.46,5.41,26.88,6.3,54.34,8.38,81.59,1.13,22.16,3.7,44.32,2.44,66.55-19.71,1.17-39.37-.85-59.04-1.85-40.99-2.87-82.73-3.68-122.2-16.22-19.75-6.35-39.97-12.81-57.13-24.62-15.69-10.81-28.24-25.7-36.78-42.47-9.22-17.79-13.55-37.43-19.38-56.39-3.88,1.9-8.02,4.07-9.71,8.24-6.49,14.08-8.96,29.95-6.58,45.28,3.08,26.18,15.21,51.28,34.45,69.74,25.41,24.42,59.1,39.08,93.53,46.49,41.46,8.55,84.03,9.57,126.23,10.33,33.55,1.02,67.02,3.18,100.54,4.57-1.66-37.94-4.3-75.85-5.06-113.84-.4-30.55-2.1-61.15-6.87-91.35-5.83-37.91-20-75.63-46.33-104.51-24.65-27.27-63.14-42.6-100.16-38.16-10.89,2.56-25.23,4.04-29.86,15.79ZM910.52,1799.9c-8.11,3.79-17.67,4.2-24.94,9.72-15.05,10.55-25.98,28.55-23.92,47.11.89,11.68,1.55,23.38,2.57,35.07,13.23-4.58,26.78-8.39,39.77-13.66,15.83-7.72,27.91-23.55,29.98-40.88.06-15.57-1.05-31.14-1.53-46.69-7.42,2.81-14.68,6.09-21.93,9.33ZM1608.27,1790.57c-.6,14.1-1.13,28.21-1.64,42.32-.4,12.79,6.12,24.84,14.74,34.06,14.23,15.28,36.49,17.44,55.16,24.83.87-11.03,1.55-22.05,2.39-33.05,3.35-24.99-15.63-51.13-40.9-56-10.26-3.22-19.64-8.59-29.75-12.16ZM644.9,1812.51c-15.12,1.64-30.08,8.6-39.2,20.79-11.46,14.85-13.5,35.16-8.36,52.75,2.75,9.51,10.71,17.24,20.42,19.92,17.89,4.98,38.51,2.94,53.61-8.27,12.46-8.96,19.53-23.63,21.2-38.49,2.51-21.48,7.38-42.79,16.25-62.65-20.26,8.72-42.01,13.48-63.92,15.94ZM1831.9,1796.6c8.92,19.9,13.75,41.25,16.27,62.78,1.66,14.77,8.74,29.36,21.11,38.3,15.14,11.26,35.89,13.31,53.85,8.24,9.62-2.7,17.47-10.39,20.24-19.81,5.19-17.66,3.08-38.06-8.45-52.93-9.16-12.13-24.05-19.05-39.13-20.66-21.9-2.46-43.63-7.26-63.89-15.92ZM471.93,1858.81c-30.3,42.33-37.02,95.44-38.46,145.83,3.26-3,6.23-6.26,8.25-10.18,7.18-12.8,18.67-22.7,30.97-30.63,17.4-10.83,33.9-23.1,49.31-36.5,19.46-19.49,22.21-47.97,32.72-72.09,7.29-20.96,21.86-41.1,44.29-47.97-11.26-10.55-28.47-8.5-42.63-6.74-35.83,4.66-64.23,30.54-84.45,58.28ZM1942.44,1807.47c13.39,4.83,25.16,13.77,32.68,25.75,15.38,23.94,19,52.84,31.68,77.96,7.6,15.61,22.88,25.11,36.2,35.62,16.03,12.68,35.63,21.18,48.75,37.23,5.85,6.4,8.54,15.09,15.5,20.6-1.4-32.92-3.66-66.28-14.43-97.75-11.81-36.27-35.32-69.17-67.47-90.79-19.55-13.11-44.07-18.72-67.53-16.27-5.17,1.49-13.41,2.55-15.38,7.66ZM586.17,1822.65c-10.6,7.85-15.67,20.42-21.02,31.9-6.52,15.14-12.7,30.53-16.12,46.69-3.84,18.64-14.74,35.55-29.91,47.34-20.09,16.66-47.91,22.44-65.18,42.67-18.33,20.83-21.08,49.69-21.15,76.07,24.98-.13,51.81-2.26,72.78-17.05,16.85-11.62,25.83-30.44,34.94-47.89,9.33-16.99,22.43-32.75,40.22-41.65,13.9-7.39,30.04-8.33,44.65-13.86,16.69-6.3,33.94-12.09,48.77-22.13,10.2-6.98,15.41-19.09,15.47-31.08-11.02,8.96-21.52,19.27-35.43,23.79-19.27,6.57-43.41,4.83-58.37-9.95-15.16-14.68-17-38.45-10.26-57.39,4.63-13.63,15.12-23.94,24.25-34.73-8.33.41-16.94,2.11-23.66,7.26ZM1930.89,1815.39c9.11,10.77,19.58,21.05,24.23,34.64,6.76,18.96,4.92,42.8-10.26,57.5-14.99,14.77-39.15,16.53-58.44,9.92-13.85-4.54-24.36-14.83-35.34-23.77.06,11.9,5.17,23.94,15.3,30.95,14.23,9.79,30.88,15.39,46.96,21.57,16.21,6.37,34.41,7.11,49.57,16.13,18.74,10.4,31.64,28.29,40.93,46.91,8.2,16.28,18,32.94,34.1,42.9,20.62,13.15,46.05,15,69.99,15.18-.18-23.51-2.06-48.52-15.54-68.74-9.84-15.27-26.11-24.77-42.19-32.62-25.63-11.61-49.81-31.27-57.04-59.13-5.65-24.79-14.67-48.95-27.16-71.24-6.74-12.59-20.64-20.42-35.09-20.2ZM1086.94,1892.26c-14.79,12.52-19.2,34.08-14.3,52.1,5.08,13.85,12.92,26.55,19.18,39.92,9.2-7.79,18.33-15.65,27.56-23.44,14.48-11.7,19.62-31.82,16.63-49.46-1.18-8.69-7.29-15.46-10.35-23.44-2.93-7.54-5.77-15.15-9.05-22.55-9.91,8.94-19.8,17.9-29.66,26.86ZM1424.13,1865.4c-5.54,12.27-9.22,25.34-16.47,36.82-8.47,20.09-2.69,46.12,15.01,59.76,8.76,7.4,17.45,14.9,26.23,22.34,7.71-18.24,22.01-35.08,21.08-55.78-.53-12.92-4.99-26.42-15.07-35.21-10.24-9.35-20.51-18.63-30.77-27.92ZM883.45,1893.11c-31.57,12.96-53.41,47.54-47.86,81.18,2.73,17.94,16.38,31.91,30.97,41.86,21.31,14.35,48.79,16.89,73.6,11.63,13.57,20.64,34.41,37.71,59.39,42.63,17.11,3.19,36.36,3.11,51.32-6.78,23.37-15.42,34.99-44.65,31.61-71.68-2.86-29.81-26.31-56.34-55.89-63.5-24.78-5.77-50.86,16.66-49.55,41.3.29,11.11,5.7,21.31,11.93,30.31,6.98,10.2,22.3,12.05,32.94,6.81,7.6-4.52,7.12-14.33,6.16-21.86-5.05,3.33-10.53,8.29-17.18,6.63-5.74-2.43-8.2-9.57-7.74-15.26,3.24-7.66,14.32-12.2,21.62-6.94,16.87,8.83,22.79,34.79,7.89,47.88-11.28,9.44-28.51,6.5-39.59-1.76-15.83-11.72-26.45-30.7-26.56-50.3-12.64,12.53-31.1,18.31-48.82,17.73-11.37-.33-23.23-4.66-30.33-13.72-5.28-6.66-6.76-16.09-3.28-23.85,6.63-15.31,26.8-23.14,42.25-16.12,5.01,1.96,6.52,7.63,7.25,12.37,1.51,8.29-8.87,12.84-15.81,12.09-7.27-2.39-7.87-10.89-8.93-17.09-6.36,4.65-14.1,11.55-11.31,20.29,4.08,10.35,15.21,19.22,27.03,17.46,13.66-2.13,27.96-7.39,36.29-18.81,14.48-19.24,7.89-50.87-15.08-60.74-19.31-9.07-42.59-10.07-62.34-1.76ZM1590.93,1897.06c-17.67,10.14-23.17,33.92-15.12,51.71,4.9,11.12,15.54,18.92,27.14,22.46,8.33,2.57,18,5.51,26.25,1.01,6.7-3.78,12.95-9.85,14.5-17.53.82-8.02-6.05-13.63-11.84-18.04-1.09,6.22-1.68,14.89-9.09,17.11-5.85.43-12.9-2.22-15.43-7.72-.82-5.31.55-11.57,4.63-15.33,17.38-10.88,44.25,1.36,46.45,21.63,1.53,14.68-11.77,26.42-25.43,29.29-20.62,4.22-43.72-1.68-58.77-16.4-.27,21.12-12.37,41.84-30.69,52.88-11.86,7.16-29.84,7.46-38.8-4.3-10.91-14.63-3.79-37.32,12.46-45.08,7.18-4.29,17.25.5,20.35,7.56.44,5.72-2,12.72-7.63,15.29-6.72,1.71-12.23-3.27-17.29-6.62-.95,7.53-1.46,17.35,6.17,21.88,10.68,5.22,26.07,3.35,33.01-6.94,6.56-9.5,12.17-20.4,11.88-32.17-.07-24.7-27.16-46.1-51.77-38.84-20.93,6.07-38.95,21.48-47.73,41.14-14.03,30.94-4.99,71.09,22.94,91.68,15.34,11.66,36.2,12.11,54.47,8.55,24.79-5.03,45.47-22.03,58.95-42.54,24.83,5.26,52.39,2.72,73.72-11.69,14.52-9.98,28.13-23.9,30.86-41.8,5.74-34.77-17.76-70.5-51.01-82.4-20.46-7.46-44.28-5.48-63.19,5.17ZM697.97,1904.24c-3.61,9.39-8.8,18.37-16.47,25.18-14.36,13.09-33.59,18.81-51.7,25.03-19,6.06-39.66,10.96-54.25,25.31-7.87,8.33-14.79,17.49-21.86,26.47-11.68,14.7-19.97,32.18-34.83,44.3-6.72,6.3-16.18,8.96-22.15,16.13,22.32-1.2,44.78-1.89,66.82-6.07,35.27-6.15,69.88-19.79,96.97-43.21,21.53-18.49,40.62-42.43,44.23-71.08,1.86-13.99,3.9-30.86-6.76-42.06ZM1835.11,1939.36c1.26,17.96,7.94,35.34,18.71,49.86,15.45,20.86,35.89,38.1,59.08,50.22,40.06,21.2,86.35,25.77,131.11,27.22-5.63-6.85-14.52-9.43-21.04-15.22-16.32-12.83-24.99-32.02-37.87-47.72-10.75-13.16-20.53-28.25-36.58-35.71-26.05-12.57-56.11-16.04-80.65-31.88-12.1-7.5-20.49-19.4-25.54-32.34-7.89,10.07-8.91,23.35-7.23,35.56ZM784.84,1966.35c-11.2.04-22.17-2.39-33.14-4.13-5.3,26.16-5.96,54.76-22.13,77.35-18.09,23.73-41.79,43.73-69.46,55.91-8.89,3.65-16.07,10.96-19.2,19.94-4.35,12.59-5.88,25.99-5.39,39.25.44,22.79,1.4,45.56,2.28,68.32,30.9-10.48,63.45-18.46,91.03-36.31,8.09-6.17,17.14-12.91,19.64-23.23,4.21-16.39,4.79-33.45,9.16-49.82,5.34-20.62,14.25-41.08,29.73-56.39,16.18-15.38,36.27-25.9,55.09-37.8-16.96-14.74-24.68-37.21-24.52-59.01-10.93,2.41-21.84,5.63-33.1,5.91ZM1722.78,1960.44c.18,21.85-7.63,44.29-24.57,59.1,17.65,10.78,35.89,20.96,51.65,34.41,23.72,21.33,33.63,53.17,37.71,83.61,2.15,11.48,2.2,23.94,8.38,34.27,8.09,10.44,19.46,18.07,31.44,23.75,24.12,11.73,50.08,19.01,75.51,27.42.84-27.07,2.64-54.16,2.13-81.24-1.53-16.49-4.61-36.68-21.5-44.82-29.22-12.64-54.56-33.29-73.25-58.63-15.34-22.46-16.07-50.41-21.24-76.11-10.29,1.68-20.55,3.85-30.99,4.15-12.04.15-23.66-3.37-35.27-5.91ZM1270.29,2024.8c-5.68,13.81-12.68,27.09-21.42,39.29-8.78,12.95-21.15,24.37-24.25,40.27-6.25,25.75,11.24,52.13,34.87,62.52,8.27,3.35,17.94,2.48,25.67-1.83,17.34-9.66,31.15-27.29,32.08-47.3.91-14.16-5.15-27.86-14.15-38.62-13.41-16.55-24.76-34.71-32.81-54.34ZM826.01,2045.16c-21.22,10.59-38.49,28.09-50.37,48.19-18.45,31.86-20.22,70.15-15.43,105.73,7.25,50.73,28.53,98.01,45.94,145.92,40.35-18.58,81.92-35.21,119.58-58.85,30.15-19.36,58.26-43.95,74.8-75.88,12.39-23.94,15.96-51.88,11.22-78.24-4.23-21.94-16.92-43.97-38.49-53.3,1.49,20.92,4.5,41.86,3.66,62.89-1.55,29.48-17.14,56.65-38.51,76.83-31.52,29.7-69.39,52.02-108.52,70.74-13.73-37.69-23.59-77.05-25.67-117.13-1.46-24.62,2.33-50.21,15.05-71.8,14.36-24.88,39.51-40.71,60.61-59.52-17.6-6.61-37.31-3.57-53.87,4.41ZM1660.83,2040.74c16.16,14.06,33.72,26.75,48.29,42.51,19.71,21.74,28.22,51.38,27.67,80.11-.93,43.03-11.2,85.48-26.03,125.84-30.59-14.83-60.48-31.47-87.13-52.47-23.37-17.98-45.2-40.03-54.54-68.33-10.17-29.05-3.39-59.93-1.64-89.7-23.96,10.5-36.84,36.12-39.62,60.67-3.55,28.81,3.19,58.71,19.38,83.09,20.46,31.12,50.93,54.65,83.32,73.03,33.54,18.7,69.1,33.56,104.04,49.5,11.18-29.86,22.88-59.56,32.75-89.88,12.75-39.95,20.35-82.9,11.86-124.47-6.61-33.38-27.84-63.61-57.26-81.62-18-10.76-40.84-15.85-61.08-8.28ZM855,2071.4c-24.3,22.83-34.87,55.91-39.28,87.79-5.06,39.58,5.1,79.26,20.02,115.82,42.21-17.53,82.94-43.23,107.75-82,16.41-24.73,28.4-54.04,24.9-84.05-1.77-18.85-7.52-39.84-24.37-51.03-1.15,11.5-1.95,23.53-8.02,33.77-9.89,17.18-25.76,30.03-40.95,42.56-1.28-20.48-3.92-41.86,3.04-61.67,3.41-10.22,11.02-18.16,17.63-26.42-23.32-3.59-44.5,10.33-60.7,25.25ZM1625.01,2046.16c6.61,8.26,14.21,16.18,17.6,26.4,6.98,19.81,4.37,41.23,3.04,61.72-15.12-12.57-31.02-25.34-40.88-42.52-6.12-10.26-6.94-22.31-8.07-33.86-17.49,11.68-22.99,33.67-24.54,53.22-3.17,34.68,13.52,67.56,34.19,94.59,25.03,32.1,61.23,53.62,98.65,69.31,15.5-37.93,25.76-79.39,19.4-120.39-5.05-31.29-16.25-63.63-40.97-85.31-15.79-13.96-36.2-26.66-58.42-23.16ZM907.24,2072.38c-6.5,13.55-4.9,28.83-4.32,43.34,10.8-9.64,22.72-19.18,28.09-32.97,3.3-9.29,5.5-19.77,1.9-29.29-2.81,3.39-5.48,6.93-8.11,10.5.75-4.31,1.48-8.59,2.08-12.9-9.42,3.83-15.25,12.72-19.64,21.31ZM1613.84,2051.05c.57,4.3,1.31,8.61,2.1,12.96-2.66-3.59-5.34-7.13-8.18-10.55-3.52,9.54-1.37,20,1.97,29.29,5.34,13.76,17.27,23.33,28.07,32.94.53-14.01,2.11-28.68-3.7-41.91-4.32-9.17-10.42-18.61-20.26-22.74ZM1015.07,2089.61c4.61,19.4,9.98,38.77,11.64,58.69,1.79,26.69-9.49,52.35-24.21,74.18-8.85,13.7-21.31,25.32-27.52,40.53-3.1,13.94.24,28.53,4.92,41.82,8.58,24.57,21.55,47.34,33.21,70.59,12.21-10.89,24.27-21.98,36.34-33.05,12.44-11.67,25.9-22.75,34.74-37.47,6.96-9.76,10.29-22.68,5.48-34.03-11.15-28.48-13.59-59.85-8.94-89.88,5.28-26.68,24.94-47.02,39.91-68.87-7.71-5.38-15.63-10.5-22.77-16.6-9.82-8.39-15.85-19.92-22.77-30.53-15.79,15.39-37.31,26.05-60.04,24.62ZM1465.61,2064.99c-6.91,10.6-12.97,22.16-22.79,30.55-7.14,6.09-15.07,11.2-22.75,16.6,14.99,21.81,34.63,42.18,39.89,68.85,3.97,25.66,2.81,52.25-4.59,77.22-3.35,10.87-9.44,22.14-5.23,33.71,5.37,14.75,16.01,27.16,27.51,37.77,16.45,15.46,33.19,30.6,49.9,45.77,12.73-25.27,26.96-50.06,35.41-77.13,3.28-10.94,5.08-22.66,3.19-33.94-4.37-13.14-14.72-23.12-22.48-34.34-17.58-23.55-31.57-51.89-29.64-81.77,1.64-19.92,7.01-39.27,11.62-58.67-22.72,1.44-44.25-9.22-60.04-24.62ZM1202.47,2139.73c3.31,17.01,11.06,32.75,18.2,48.45,6.56,14.75,17.98,27.14,22.32,42.89,6.43,21,2.64,43.53-4.59,63.87-5.94,17.33-10.95,36.05-6.41,54.32,5.34,23.22,21.77,41.8,38.35,58.32,18.87-18.63,37.62-40.69,39.88-67.98,2.57-26.5-13.17-50.03-15.32-75.96-1.91-17.27,1.44-35.21,10.58-50.19,13.85-21.38,24.74-44.73,31.79-69.11,4.17-13.37-.49-28.08-10.64-37.6-1.06,14.48-1.35,29.64-8.47,42.78-9.09,17.38-27.05,32.11-47.77,31.94-19.09.31-35.83-12.4-45.49-27.7-9.11-14.01-9.84-30.97-10.84-47.02-8.78,8.48-14.04,20.83-11.6,32.99ZM582.58,2119.13c2.37,55.13,6.49,110.25,14.45,164.9,54.38-14.11,107.9-31.27,160.76-50.19-2.73-14.88-5.3-29.77-8.05-44.65-38.15,18.75-78.75,32.02-119.16,45.1-2.84-41.7-5.87-83.55-2.99-125.32-15.01,3.39-29.99,6.74-45,10.15ZM1172.79,2124.35c-11.84,12.87-20.91,28.36-24.54,45.43-8.58,39.86-.51,82.2,19.18,117.8,14.94,28.16,36.62,51.98,58.24,75.31.93-9.46-4.06-18.12-4.06-27.49-1.66-19.22,5.37-37.56,7.56-56.41,1.97-17.44,6.25-35.62-.09-52.67-9.47-26.71-27.98-49.91-33.87-77.94-3.04-13.84-.58-28.3,5.54-40.97-11.13,2.04-20.95,8.33-27.96,16.94ZM1339.97,2107.41c3.94,8.81,7,18.18,6.8,27.93.18,17.89-7.93,34.36-15.61,50.15-7.67,15.96-17.91,31.03-21.61,48.54-3.26,14.22.31,28.68,1.71,42.92,2.17,20.22,9.96,39.93,7.69,60.5-.42,8.65-4.88,16.68-3.88,25.47,17.32-19.05,35.18-37.89,48.91-59.68,25.89-38.92,38.53-87.5,28.46-133.47-4.28-20.14-16.14-37.99-31.13-52.08-5.9-5.48-13.57-8.5-21.35-10.26ZM1913.13,2108.98c2.88,41.77-.16,83.64-2.97,125.32-40.44-13.09-81.03-26.35-119.18-45.1-2.75,14.88-5.34,29.77-8.05,44.67,52.85,18.9,106.37,36.03,160.76,50.17,7.98-54.65,12.08-109.77,14.45-164.9-15.01-3.39-30.02-6.78-45-10.15ZM1151.66,2116.85c-28.86,10.11-48.08,36.73-57.75,64.21-13.72,41.28-1.24,86.27,19.87,122.93,19.64,33.16,45.93,61.95,72.69,89.68,28.82,29.08,56.02,59.61,83.89,89.55,30.88-33.47,61.52-67.15,93.56-99.58,29.73-31.96,59.57-65.52,76.06-106.23,13.04-32.07,18.03-69.11,4.81-101.93-10.33-25.23-28.76-49.32-55.74-58.65-4.12-1.74-8.44-.19-12.48.9,9.67,17.87,21.06,35.07,27.29,54.52,7.96,23.72,7.9,49.99-.84,73.52-7.36,19.27-16.72,37.81-27.71,55.37-16.49,26.57-38.42,49.23-58.99,72.72-15.12,16.31-29.09,33.75-45.96,48.41-6.85-6.33-13.84-12.55-19.93-19.57-19.8-21.99-39.77-43.82-58.95-66.33-22.57-26.07-40.1-56.12-52.78-87.94-8.73-22.03-10.09-46.73-3.79-69.57,5.63-22.07,18.47-41.27,29.24-61.13-4.03-1.09-8.38-2.61-12.48-.9ZM920.52,2300c23.72,50,49.22,99.21,77.44,146.92,45.1-33.05,87.66-69.26,129.1-106.53-8.14-12.81-16.28-25.64-24.5-38.36-28,31.59-60.39,59.02-92.43,86.54-19.02-37.34-38.37-74.74-51.61-114.49-12.86,8.35-25.29,17.31-38,25.92ZM1582.24,2274.05c-13.33,39.73-32.61,77.18-51.66,114.51-32.21-27.42-64.16-55.28-92.71-86.42-7.87,12.85-16.18,25.44-24.21,38.21,41.44,37.29,83.98,73.52,129.1,106.53,28.22-47.71,53.72-96.9,77.44-146.89-12.68-8.63-25.16-17.5-37.95-25.94Z"/>
      <path class="cls-1" d="M1203.83,715.08c19.84-28.33,41.95-55.27,66.53-79.79,23.12,22.96,43.83,48.21,62.88,74.52,24.63,34.19,42.28,73.25,50.79,114.3,3.3,18.88-2.79,38.14-13.3,53.91,7.71,6.51,17.69,10.76,28.02,9.96,11.2-.61,20.73-7.31,28.78-14.44.6,10.51,2.42,21.81,9.82,29.95,6.72,7.83,16.92,11.98,27.2,12.61,3.88-18.92,14.03-37.11,30.53-48.14,34.63-21.99,73.69-37.17,114.33-44.25,33.32-5.74,67.13-9.35,100.98-9.55-1.66,62.96-8.89,128.13-39.29,184.69-8.38,15.13-16.2,31.64-30.84,42.04-9.95,7.59-22.02,11.63-34.05,14.72,1.22,9.38,4.61,18.86,11.93,25.36,8.33,8.02,20.48,10.09,31.7,10.66-7.27,7.89-14.12,17.22-14.72,28.25-.84,10.14,3.52,19.94,10.2,27.47,16.72-10.85,37.47-16.72,57.42-12.62,35.6,7.7,69.97,21.27,100.65,40.67,32.03,20.48,61.99,44.19,89.34,70.39-18.36,18.09-38.67,34.16-59.21,49.75-30.42,22.84-64.03,42.08-100.74,53.28-16.2,4.63-32.74,10.74-49.93,9-13.52-1.14-26.23-6.55-37.58-13.59-6.65,7.59-11.02,17.42-10.15,27.59.64,10.96,7.47,20.25,14.72,28.12-11.24.57-23.43,2.63-31.77,10.72-7.3,6.5-10.71,15.96-11.82,25.36,19.29,4.2,38.09,13.85,49.35,30.27,20.62,31.4,35.58,66.46,43.21,103.1,7.21,35.55,11.31,71.83,11.51,108.08-26.41-.06-52.72-2.71-78.86-6.09-37.93-5-75.49-14.9-109.43-32.53-14.55-7.83-30.31-14.92-40.92-27.9-8.78-10.17-13.57-22.91-16.81-35.7-9.56,1.11-19.18,4.46-25.81,11.57-8.27,8.18-10.42,20.14-10.97,31.21-8.01-7.09-17.45-13.77-28.58-14.42-10.4-.9-20.48,3.37-28.22,9.98,11.02,16.38,17.02,36.69,12.88,56.24-7.63,33.86-20.8,66.61-39.68,95.98-21.17,32.55-46.09,62.83-73.56,90.46-17.85-17.37-33.68-36.59-49.13-56.01-23.94-30.4-44.25-64.04-55.91-100.91-4.72-15.92-11-32.16-9.16-49.01,1.13-13.22,6.6-25.66,13.83-36.73-7.69-6.59-17.73-10.87-28.11-10.03-11.17.63-20.66,7.33-28.68,14.44-.6-9.96-2.17-20.55-8.67-28.6-6.74-8.59-17.54-13.53-28.49-13.83-3.66,18.9-13.99,36.97-30.37,47.99-34.68,22.05-73.82,37.22-114.55,44.29-33.23,5.76-66.98,9.27-100.74,9.57,1.57-63,8.87-128.24,39.29-184.8,8.58-15.63,16.76-32.64,32.19-42.97,9.51-7.2,21.24-10.28,32.39-13.96-.69-10.44-5.59-20.68-14.06-27.14-8.23-6.48-19.11-8.05-29.31-8.64,7.23-7.87,14.05-17.16,14.72-28.12.86-10.16-3.5-20.01-10.15-27.59-16.76,10.81-37.51,16.72-57.49,12.61-37.73-8.11-73.98-22.99-106.08-44.12-29.88-19.81-58.13-42.15-83.89-66.94,23.83-23.07,50.04-43.76,77.42-62.65,34.52-23.7,73.89-40.64,115.22-48.86,19.18-3.18,38.78,2.73,54.78,13.07,6.67-7.53,11.02-17.33,10.2-27.43-.6-11.05-7.45-20.4-14.72-28.29,9.64-.56,19.82-1.96,27.93-7.59,9.42-6.57,15.12-17.63,15.25-28.92-19.31-3.51-37.71-13.75-48.93-29.82-22.44-34.01-37.91-72.39-45.12-112.31-5.85-32.6-9.47-65.68-9.71-98.79,64.25,1.59,130.78,8.72,188.47,38.6,16.36,8.59,34.14,16.96,44.6,32.77,6.47,9.13,10.33,19.74,12.79,30.55,10.26-.63,20.46-4.76,27.18-12.59,7.43-8.14,9.24-19.46,9.85-29.97,8.04,7.13,17.56,13.83,28.77,14.44,10.33.8,20.31-3.46,28.02-9.96-11-16.39-17.03-36.7-12.88-56.23,8.45-38.08,24.3-74.52,46.71-106.71ZM1207.75,725.72c-17.03,24.9-31.19,52.06-38.86,81.2-4.28,19.29-4.35,41.91,8.18,58.36,10.4,12.35,28.11,8.35,42.34,8.48-7.45-19.4-2.73-40.75,6.48-58.71,8.93-18.98,19.46-37.21,29.91-55.43,4.26-6,8.38-12.61,14.52-16.83,6.23,4.13,10.33,10.87,14.63,16.85,12.28,21.66,25.08,43.17,34.59,66.2,6.25,15.15,7.51,32.4,1.79,47.93,9.87-.13,19.93,1.59,29.68-.67,9.18-2.2,15.81-9.94,18.87-18.4,7.11-19.2,5.23-40.53-1.44-59.56-8.53-25.18-21.19-48.93-36.45-70.8-18.89-26.66-38.04-53.41-61.63-76.33-24.01,23.31-43.43,50.58-62.61,77.72ZM1225.33,843.78c-2.68,11.13-1.18,23.85,6.94,32.57,8.82,9.37,20.28,17.42,33.46,19.24,16.6,2.09,31.92-7.74,42.7-19.22,8.16-8.72,9.62-21.46,6.96-32.62-7.36-32.9-24.5-62.89-45.03-89.59-20.53,26.71-37.67,56.69-45.03,89.62ZM839.46,823.09c-.25,26.62,3.61,53.06,8.25,79.24,5.72,36.12,15.59,72.26,34.78,103.89,10.69,16.13,26.29,31.33,46.18,35.12,16.87,2.48,27.07-13.07,37.36-23.27-8.49-4.31-16.43-9.85-22.3-17.29-12.3-15.35-17.4-34.67-23.57-52.86-5.17-18.58-12.9-36.84-13.08-56.37.55-.52,1.64-1.59,2.19-2.11,16.74-.02,32.5,5.79,48.4,10.18,17.25,5.17,34.78,10.06,50.95,18.09,12.9,6.35,23.23,16.94,29.71,29.53,10.26-10.16,26.16-20.1,23.61-36.63-4.04-20.11-20.26-35.77-37.42-46.27-29.29-16.55-62.16-26.18-95.38-31.62-29.62-5.13-59.5-9.87-89.67-9.63ZM1614.21,832.27c-34.12,5.41-68,15.07-98.08,32.1-17.11,10.53-33.34,26.14-37.33,46.25-2.55,16.53,13.28,26.6,23.74,36.63,4.76-9.31,11.42-17.79,20.17-23.79,15.85-11.01,34.99-15.9,53.21-21.75,18.27-4.89,36.27-12.13,55.49-12.27.56.52,1.66,1.54,2.22,2.07-.46,21.77-9.31,42.12-15.14,62.86-7.67,24.64-17.91,52.37-43.81,63.7,10.29,10.2,20.46,25.72,37.31,23.27,20.46-3.92,36.38-19.77,47.11-36.51,16.98-28.82,26.8-61.22,32.39-93.9,5.19-29.01,10.04-58.28,9.76-87.84-29.27-.22-58.29,4.22-87.04,9.18ZM1133.41,921.6c-15.83.59-31.55,4.15-46.03,10.44-14.99,6.59-27.65,18.48-34.03,33.42-6.96,15.48-10.78,34.05-2.97,49.95,10.78,20.88,28.13,39.88,51.35,47.36,21.81,8.83,47.78-5.11,56.58-25.53,9.44-21.71-12.13-50.25-36.29-45.58-5.85.8-7.56,6.96-9.6,11.46,4.73-1.82,9.96-4.61,15.1-2.52,10.22,3.64,9.38,20.92-1.35,23.25-13.12,4.41-27.73-9.83-22.9-22.77,2.15-15.68,21.62-21.92,35.32-17.24,24.65,8.5,40.99,38.3,30.97,62.76-4.1,10.48-13.68,17.13-22.79,23.2,21.64,20.18,24.39,51.11,24.41,78.68-28.11-.04-59.66-2.72-80.21-23.94-6.41,9.39-13.77,19.19-25.19,22.94-23.17,8.07-49.99-5.42-60.57-26.36-5.63-11.05-4.35-26.08,5.19-34.64,5.61-4.41,13.34-5.87,20.38-5.02,9.29,2.83,16.69,13.14,13.39,22.75-2.26,10.61-19.95,11.55-23.7,1.52-2.22-5.07.66-10.22,2.51-14.88-3.35,1.57-7.23,2.54-9.8,5.33-3.02,4.31-2.7,9.98-1.88,14.92,4.56,18.92,27.6,32.47,46.47,24.77,17.4-7.27,29.93-25.79,28.75-44.47-2.59-17.29-12.5-33.03-25.74-44.54-13.32-11.09-29.11-22.38-47.56-21.1-21.86,1.61-44.23,11.48-56.58,29.88-10.95,16.44-15.76,36.29-16.74,55.74-13.26,14.66-24.46,32.03-28.49,51.45-4.27,20.07,3.37,40.75,15.59,56.76,7.78,10.26,19.89,16.68,32.63,18.85,23.5,5.5,50.26,3.39,69.92-11.42,13.88-12.52,18.38-34.07,11.19-51.1-8.95-21.53-43.92-26.95-57.93-7.61-4.14,4.48-1.15,10.48.71,15.24,2.51-4.59,4.21-10.63,9.89-12.35,7.69-2.82,15.68,4.13,16.69,11.44-.25,9.46-9.96,16.33-19.2,15.3-9.44.33-15.72-8.26-18.45-16.11-3.32-12.66,5.92-25.64,17.49-30.65,23.19-9.61,54.65-.35,65.23,22.95,4.94,10.39,3.08,22.12.89,32.92,29.93-.76,54.07,19.2,74.03,38.71-19.95,19.51-44.1,39.47-74.03,38.71,2.2,10.79,4.06,22.49-.86,32.9-10.75,23.68-43.14,32.97-66.42,22.42-9.44-4.57-16.63-14.12-17.11-24.55,0-7.63,4.7-14.63,10.55-19.33,8.65-4.79,21.71-2.46,26.25,6.8,5.63,8.81-5.3,21.14-14.99,17.63-5.72-1.69-7.45-7.78-9.93-12.41-1.42,4.39-4.74,9.59-1.57,14.02,11.84,18.64,42.7,16.5,55.23-.28,12.08-17.35,7.8-43.14-7.65-57.18-17.89-13.39-41.95-16.63-63.67-12.59-13.3,1.87-26.94,6.41-35.98,16.66-14.72,16.83-23.48,40.21-18.02,62.35,4.5,18.55,15.28,35.14,28.04,49.32.51,15.44,4.23,30.78,10.55,44.91,6.97,15.33,19.87,28.09,35.92,34.21,15.96,6.69,35.16,9.67,51.08,1.26,17.56-9.39,33.88-22.7,42.65-40.69,4.48-9.35,8.23-19.83,5.76-30.25-3.37-14.66-13.77-28.14-28.07-33.99-22.08-9.28-51.12,11.74-46.56,35.4.76,5.72,6.85,7.72,11.67,9.26-2.2-4.83-4.99-10.7-1.87-15.76,3.46-6.57,12.57-6.96,18.6-3.85,7.85,6.15,6.34,18.81-1.09,24.77-7.32,7.76-20.15,5.24-28-.31-10.13-8.89-11.08-24.9-4.65-36.16,11.04-20.18,37.35-32.99,60.06-24.92,11.33,3.76,18.6,13.55,24.98,22.88,20.55-21.22,52.12-23.95,80.25-23.91-.11,27.56-2.79,58.48-24.45,78.64,9.04,6.05,18.62,12.65,22.75,23.09,10.11,24.42-6.16,54.21-30.77,62.83-11.59,3.65-27.11.7-33.23-10.55-2.82-6.63-5.06-15.35-.05-21.55,4.45-6.33,12.77-10.57,20.6-7.91,10.78,2.22,11.73,19.48,1.6,23.24-5.19,2.16-10.44-.65-15.21-2.43,2.02,4.5,3.75,10.61,9.62,11.41,24.14,4.63,45.69-23.9,36.25-45.57-7.45-17.1-26.43-29.43-45.51-28.19-19.13,2.87-36.29,14.07-48.29,28.77-10.02,12.22-19.71,26.66-18.44,43.1,1.64,21.9,12.19,44.32,31.63,56.28,16.56,10.18,36.27,14.72,55.65,15.66,21.37,18.57,50.26,34.49,79.68,27.29,19.27-5.33,39.39-16.33,46.73-35.71,7.65-22.55,9-48.49-2.44-70.09-9.38-20.94-37.62-28.88-58.26-20.37-21.88,8.85-27.36,43.1-7.64,56.8,4.61,4.07,10.7,1.05,15.58-.74-4.74-2.43-10.95-4.13-12.68-9.72-3.55-9.5,8.91-20.22,17.92-14.77,6.52,3.05,9.91,10.29,9.38,17.21.29,9.76-9.31,16.28-17.96,18.55-13.79,2.22-27.07-8.33-31.04-20.9-7.27-21.83,1.62-49.49,23.3-59.97,10.86-5.57,23.5-3.87,34.99-1.52-.77-29.36,19.58-53.04,39.46-72.61,19.89,19.57,40.26,43.25,39.46,72.61,12.55-2.74,26.65-4.02,38.04,3.13,18.82,11.2,26.47,35.68,20.97,56.04-2.86,11.64-12.84,21.53-25.05,23.42-8.71,1.26-17.07-3.83-22.35-10.22-4.81-8.57-2.42-21.33,7.09-25.75,9.02-5.44,21.53,5.41,17.83,14.9-1.8,5.55-7.98,7.22-12.73,9.59,4.86,1.74,10.95,4.85,15.59.82,19.82-13.68,14.34-48.05-7.58-56.88-17.34-7.07-39.33-2.7-52.1,10.91-13.53,17.25-16.96,40.49-13.06,61.54,1.88,13.31,6.39,27.08,17.07,36.19,17.14,14.46,40.97,23.09,63.54,17.77,18.89-4.41,35.85-14.9,50.22-27.49,28.15-1.5,59.7-10.35,75.44-35.23,10.2-17.33,16.67-39.64,7.54-58.71-10.8-20.79-28.11-39.75-51.28-47.21-21.81-8.88-47.78,5.06-56.58,25.48-9.47,21.66,12.02,50.19,36.16,45.63,5.9-.78,7.65-6.94,9.73-11.46-5.12,2.02-11.17,5-16.47,1.84-6.63-3.39-7.05-12.26-3.93-18.13,5.81-7.35,18.05-6.59,24.23-.02,9.35,7.35,6.74,21.85-.4,29.75-9.42,8.63-24.59,9.35-35.62,3.32-20.6-10.8-33.7-36.6-25.52-58.87,3.82-11.16,13.79-18.33,23.35-24.59-21.64-20.18-24.39-51.1-24.41-78.68,28.11.04,59.66,2.72,80.21,23.95,6.41-9.38,13.7-19.16,25.1-22.9,23.17-8.16,50.08,5.33,60.66,26.31,5.43,10.64,4.39,24.75-4.03,33.62-5.61,5.26-14.03,6.89-21.5,6.07-9.33-2.85-16.76-13.22-13.39-22.83,2.19-10.07,18.49-11.48,23.12-2.59,3.06,5.06.22,10.9-1.9,15.74,4.74-1.65,10.82-3.54,11.64-9.22,4.35-21.98-20.48-41.94-41.79-36.94-20.01,5.24-34.74,25.86-33.41,46.06,2.64,17.16,12.46,32.79,25.56,44.25,13.37,11.13,29.18,22.46,47.67,21.23,22.35-1.63,45.2-11.96,57.4-31.03,10.37-16.27,15.01-35.64,15.98-54.65,18.98-20.94,35.16-49.38,27.76-78.26-5.52-19.29-17.29-39.49-37.78-46.19-19.55-5.89-41.19-7.87-60.77-1-9.53,3.48-19.47,8.09-25.12,16.81-8.92,13.25-11.35,31.23-4.19,45.73,9.93,20.27,43.54,24.83,57.18,6,3.95-4.41,1.55-10.44-1.06-14.83-2.31,4.57-4.1,10.44-9.69,12-9.67,3.42-20.53-8.85-14.94-17.61,4.54-9.33,17.64-11.66,26.34-6.81,4.48,3.52,7.96,8.42,9.73,13.81,3.26,12.66-6.03,25.6-17.58,30.6-23.19,9.56-54.58.32-65.18-22.95-4.97-10.41-3.1-22.13-.89-32.94-29.93.76-54.07-19.2-74.02-38.71,19.95-19.5,44.1-39.47,74.02-38.71-2.2-10.81-4.08-22.51.86-32.88,11.02-24.2,44.72-33.53,68.06-21.57,13.21,6.78,21.06,25.57,10.2,37.64-6.65,11.16-25.92,10.07-31.55-1.48-5.63-8.85,5.43-21.18,15.14-17.55,5.61,1.74,7.29,7.76,9.82,12.35,1.4-4.42,4.72-9.66,1.51-14.07-12.19-19.07-44.36-16.29-56.18,1.79-10.77,17.33-6.43,41.96,8.56,55.65,17.89,13.5,42.08,16.72,63.85,12.68,13.24-1.89,26.78-6.41,35.83-16.59,14.74-16.81,23.55-40.21,18.11-62.35-4.5-18.55-15.21-35.16-28.02-49.28-.6-15.46-4.23-30.86-10.6-44.99-6.72-14.77-18.89-27.23-34.16-33.51-15.81-6.83-34.76-10.55-50.99-2.87-21.24,10.63-40.62,27.66-48.2,50.45-8.96,21.37,5.27,46.79,26.07,55.39,22.15,9.26,51.26-11.96,46.42-35.69-.89-5.67-7.09-7.33-11.64-9.35,2.04,4.96,5.06,10.81,1.98,16-3.41,6.65-12.57,7.07-18.62,4-7.43-5.74-6.67-17.7,0-23.74,7.87-9.57,23.83-6.57,31.5,1.61,7.65,9.42,8.11,23.31,2.26,33.71-11.04,20.2-37.31,33.05-60.01,25.03-11.39-3.74-18.69-13.53-25.07-22.88-20.6,21.18-52.12,23.9-80.23,23.92.04-27.57,2.75-58.52,24.41-78.68-9.09-6.07-18.73-12.72-22.79-23.24-9.66-23.49,5.12-51.74,28-61.63,10.11-4.31,22.72-3.18,31.41,3.68,6.3,5.37,8.2,14.39,7.29,22.2-2.95,9.13-13.48,16.35-23.28,13.07-10.8-2.31-11.64-19.66-1.38-23.27,5.12-2.11,10.35.7,15.1,2.52-1.64-3.33-2.66-7.13-5.5-9.67-4.41-2.89-10.17-2.61-15.16-1.8-19.31,4.47-33.15,27.13-25.21,45.68,7.45,17.01,26.34,29.29,45.38,28.1,19.16-2.83,36.32-14.03,48.31-28.68,10.04-12.27,19.77-26.68,18.51-43.17-1.64-21.96-12.24-44.45-31.77-56.39-16.56-10.11-36.23-14.64-55.53-15.59-12.73-11.24-27.54-20.49-43.83-25.81-15.87-5.18-33.65-4.07-48.73,3-14.43,6.12-28.29,16.18-33.79,31.19-7.71,22.57-9.04,48.58,2.42,70.22,9.4,20.88,37.6,28.79,58.24,20.31,21.91-8.85,27.36-43.12,7.6-56.82-4.5-3.94-10.46-1.16-15.21.56,4.43,2.76,10.55,4.37,12.3,9.83,2.92,7.57-4.24,15.51-11.73,16.39-9.65-.24-16.59-9.83-15.52-18.87-.22-9.72,9.33-16.13,17.91-18.4,13.83-2.26,27.11,8.31,31.1,20.92,7.2,21.74-1.6,49.28-23.1,59.85-10.93,5.65-23.65,3.96-35.21,1.61.78,29.36-19.58,53.04-39.46,72.61-19.89-19.57-40.24-43.25-39.46-72.61-11.51,2.33-24.14,4.04-35.03-1.55-21.64-10.46-30.51-38.08-23.28-59.87,3.92-12.59,17.16-23.13,30.97-21,8.67,2.24,18.4,8.74,18.05,18.59.51,6.85-2.81,14.07-9.31,17.13-8.96,5.48-21.44-5.09-18.02-14.59,1.58-5.59,7.67-7.33,12.37-9.59-4.61-2.41-10.71-4.95-15.25-1-19.73,13.79-14.17,48.12,7.83,56.87,17.34,7,39.26,2.61,52.03-11,13.44-17.23,16.87-40.39,13.02-61.39-1.91-13.36-6.38-27.18-17.09-36.3-17.14-14.46-40.97-23.07-63.54-17.77-18.89,4.41-35.87,14.89-50.21,27.49ZM915.91,898.1c4.81,33.29,14.37,66.58,33.1,95.03,6.32,9.64,16.56,17.59,28.67,17.9,16.29.61,34.85-3.65,44.61-17.57,7.69-11.39,10.02-25.94,8.18-39.32-2.59-14.59-16.14-23.51-28.51-29.95-26.56-14.22-56.22-21.96-86.04-26.09ZM1527.93,930.59c-9.8,6.15-17.91,16.17-18.25,28.01-.62,15.98,3.68,34.2,17.89,43.82,11.62,7.56,26.45,9.85,40.1,8.04,15.5-2.67,24.61-16.81,31.33-29.44,14.01-25.66,21.66-54.21,25.81-82.91-33.94,4.72-67.88,14.09-96.88,32.49ZM1243.93,1043.42c1.11,19.4,12.88,36.54,26.43,49.99,13.52-13.46,25.27-30.55,26.43-49.93-.84-18.59-16.87-31.05-26.43-45.73-9.55,14.65-25.54,27.12-26.43,45.67ZM1091.56,1070.39c3.88,17.22,1.31,37.86,15.05,51.34,14.79,12.42,35.05,16.14,54.01,16.4-.27-18.62-4.06-38.56-16.78-53.04-13.74-13.43-34.76-10.85-52.27-14.7ZM1396.92,1085.05c-12.75,14.48-16.58,34.45-16.78,53.09,19.02-.29,39.46-4,54.2-16.64,13.48-13.55,10.95-33.96,14.83-51.11-17.56,3.78-38.49,1.31-52.26,14.66ZM812.37,1149.11c-26.29,8.39-51.03,21.03-73.8,36.34-27.11,18.48-54.34,37.23-77.64,60.32,23.36,23.14,50.63,41.92,77.81,60.45,25.03,16.7,52.36,30.51,81.61,38.47,20.04,4.83,43.36,5.22,61.03-6.55,13.68-9.88,9.71-28.08,9.71-42.39-20.93,7.79-43.74,1.93-62.87-7.74-18.29-8.5-35.92-18.27-53.54-27.99-6.07-4.21-12.92-8.24-17.14-14.31,4.36-5.98,11.04-10.09,17.16-14.22,21.59-11.83,43.07-24.03,65.95-33.36,15.85-6.56,34.07-8.19,50.44-2.37-.18-10.13,1.86-20.55-1.09-30.46-2.66-8.46-10.33-14.37-18.58-17.22-19-6.72-40.13-5.18-59.06,1.02ZM1659.35,1153.4c-13.7,9.83-9.73,28.07-9.73,42.38,11.31-3.76,23.57-4.83,35.25-2.2,20.86,4.85,39.49,15.79,58.31,25.44,13.86,7.96,29.77,14.16,40.02,26.75-4.3,6.02-11.06,10.07-17.16,14.24-22.04,12.07-43.99,24.6-67.42,33.95-15.5,6.15-33.15,7.43-49,1.8-.02,14.31-3.97,32.58,9.78,42.43,17.65,11.69,40.92,11.33,60.92,6.52,32.37-8.83,62.32-24.75,89.52-43.86,24.52-16.81,48.82-34.21,69.97-55.08-23.37-23.12-50.59-41.88-77.75-60.39-25.07-16.77-52.5-30.59-81.83-38.56-20-4.82-43.25-5.15-60.88,6.57ZM769.16,1245.77c25.94,19.23,54.89,35.27,86.62,43.12,11.69,3.13,25.34,3.7,35.49-3.85,10.51-8.26,19.02-19.81,21.82-32.88,3.12-16.9-7.19-32.86-19.4-43.77-8.87-7.96-21.79-9.39-33.14-6.79-33.57,7.22-64.16,24.03-91.39,44.17ZM1645.81,1209.43c-11.09,10.53-20.55,25.09-18.45,40.86,1.86,12.96,10.09,24.25,19.73,32.93,8.85,7.87,21.7,9.3,32.99,6.74,33.59-7.2,64.23-24.03,91.47-44.19-27.64-20.42-58.77-37.53-92.93-44.45-11.46-2.48-24.3-.15-32.81,8.11ZM1017.51,1245.77c14.96,9.37,27.67,25.09,46.65,25.92,19.73-1.13,37.15-12.66,50.88-25.92-13.74-13.29-31.24-24.86-51.01-25.92-18.89.89-31.57,16.55-46.52,25.92ZM1425.68,1245.77c13.21,12.87,29.82,23.73,48.68,25.88,19.95.63,33.36-16.18,48.84-25.88-14.96-9.37-27.67-25.08-46.6-25.92-19.75,1.11-37.2,12.66-50.92,25.92ZM1106.54,1369.88c-13.66,13.5-11.13,34.05-14.98,51.3,17.51-3.8,38.4-1.33,52.16-14.61,12.82-14.49,16.61-34.46,16.9-53.1-19,.2-39.31,3.96-54.07,16.42ZM1380.12,1353.44c.24,18.59,4.03,38.51,16.74,52.99,13.77,13.44,34.74,10.92,52.32,14.72-3.88-17.18-1.35-37.66-14.9-51.17-14.77-12.57-35.16-16.3-54.16-16.55ZM1243.93,1448.06c.84,18.59,16.87,31.05,26.43,45.73,9.58-14.7,25.63-27.18,26.43-45.8-1.17-19.35-12.93-36.42-26.43-49.86-13.52,13.46-25.27,30.58-26.43,49.93ZM881.54,1486.83c-16.92,28.75-26.74,61.06-32.3,93.68-5.21,29.05-10.04,58.35-9.77,87.94,27.16.19,54.14-3.58,80.85-8.13,36.76-5.59,73.56-15.27,105.75-34.06,16.49-10.5,32.01-25.83,35.87-45.36,2.5-16.53-13.32-26.53-23.72-36.62-4.63,8.83-10.77,17.03-19,22.94-16.01,11.62-35.65,16.57-54.29,22.6-18.34,4.89-36.36,12.13-55.62,12.29-.56-.52-1.66-1.56-2.22-2.09.09-18.42,7.2-35.68,12.1-53.21,5.88-17.83,10.86-36.42,21.6-52.17,6.23-9.2,15.25-16.2,25.25-21.16-10.29-10.18-20.44-25.68-37.24-23.27-20.53,3.87-36.52,19.79-47.25,36.62ZM1574.68,1473.47c14.57,6.8,25.92,19.07,32.37,33.47,9.75,21.59,15.83,44.56,22.61,67.17,2.59,8.35,3.59,17.09,3.97,25.81-.53.54-1.59,1.63-2.13,2.18-8.94-.39-17.89-1.32-26.45-3.92-22.46-6.43-45.18-12.32-66.73-21.37-15.36-6.33-28.64-17.64-35.83-32.53-10.38,10.07-26.2,20.05-23.72,36.55,3.97,20.1,20.13,35.73,37.22,46.26,27.07,15.35,57.33,24.77,87.97,30.4,32.15,5.61,64.51,11.23,97.28,10.96.29-32.16-5.43-63.93-11.15-95.46-5.74-30.03-15.32-59.67-30.95-86.2-10.71-16.74-26.58-32.58-47-36.55-16.92-2.57-27.16,13.03-37.47,23.25ZM941.8,1510.36c-14.06,25.72-21.75,54.32-25.89,83.09,33.94-4.72,67.93-14.09,96.92-32.51,9.78-6.17,17.85-16.16,18.2-27.96.64-16.01-3.68-34.21-17.85-43.82-11.64-7.61-26.51-9.87-40.19-8.05-15.41,2.65-24.5,16.68-31.19,29.25ZM1524.98,1491.09c-12.24,10.01-15.76,26.71-15.3,41.62.25,11.96,8.4,22.1,18.29,28.29,29,18.35,62.92,27.73,96.84,32.45-4.68-32.49-13.95-64.89-31.7-92.97-6.1-9.76-15.59-18.64-27.71-19.75-13.99-1.05-29.29,1.41-40.41,10.35ZM1263.86,1596.21c-12.42,2.44-23.28,10.03-31.68,19.09-8.07,8.72-9.51,21.4-6.83,32.53,7.36,32.88,24.5,62.86,45.01,89.55,20.53-26.71,37.67-56.69,45.03-89.62,2.66-11.17,1.17-23.92-6.98-32.62-11.15-11.94-27.38-22.01-44.54-18.94ZM1176.11,1627.39c-11.86,17.29-11.53,40.03-6.65,59.63,8.98,31.77,25.23,61.19,44.74,87.9,17.12,24.08,34.85,47.93,56.16,68.65,23.59-22.94,42.74-49.69,61.63-76.33,17.03-24.57,31.11-51.43,39.24-80.13,4.9-19.64,5.28-42.51-6.72-59.82-10.06-13.4-28.62-9.51-43.19-9.51,4.28,12.13,4.94,25.4,1.49,37.81-5.7,19.68-16.34,37.5-26.03,55.48-7.78,13.11-14.03,28.05-26.38,37.71-6.23-4.18-10.33-10.9-14.61-16.86-12.28-21.61-25.03-43.08-34.52-66.02-6.32-15.22-7.63-32.55-1.89-48.13-14.61-.02-33.25-3.89-43.27,9.61Z"/>
      <path class="cls-1" d="M1257.34,1128.78c16.43-3.7,33.65.35,47.98,8.61,12.72,7.35,28.13,8.59,40.42,16.76,12.48,7.81,21.5,20.29,25.81,34.12,2.68,9.04,6.12,17.88,10.86,26.1,6.81,12.05,10.06,26.16,7.98,39.88-2.04,17.24-14.52,30.81-18.36,47.56-5.72,21.01-23.19,38.12-44.6,43.71-16.94,3.74-30.66,15.85-48.09,17.94-15.23,2.41-30.68-1.76-43.83-9.25-12.33-7.15-27.14-8.52-39.24-16.02-8.6-5.2-15.87-12.49-20.91-21.05-6.81-11.13-8.24-24.44-14.79-35.68-6.23-10.9-11.13-22.97-10.84-35.67-.31-12.74,4.64-24.85,10.91-35.79,7.16-12.59,8.45-27.75,17.25-39.53,8.98-13.22,23.66-21.64,39.11-25.59,14.19-3.61,25.87-13.31,40.35-16.1ZM1253.55,1138.63c-12.06,1.87-19.6,13.59-31.97,13.83-19.98,3.67-36.87,18.94-44.12,37.29-3.26,6.85-1.44,15.48-7.03,21.29-15.79,20.22-15.28,51.06,1.02,70.85,3.97,4.52,2.88,10.94,4.81,16.29,5.7,18.68,21.62,34.29,40.64,39.88,5.54,1.87,12.22.85,16.87,4.89,20.18,15.83,51.48,16.25,71.99.83,6.48-5.81,16.07-3.68,23.52-7.59,19.29-8.09,34.74-26.22,36.98-47.04.33-6.02,5.72-9.85,8.27-14.96,9.67-17.25,9.67-39.58.02-56.8-2.51-5.11-7.87-8.89-8.25-14.83-2.86-25.73-25.56-48.04-51.77-50.89-5.1-.15-8.56-4.17-12.64-6.52-14.1-9.14-32.28-10.4-48.35-6.52Z"/>
      <path class="cls-1" d="M1237.81,1169.9c8.45-7.35,18.65-13.83,30.48-13.57,13.08-1.2,25.27,4.87,34.45,13.57,24.34-1.41,46.42,20.29,44.96,44.14,8.32,8.52,14.54,19.57,13.88,31.75.71,12.23-5.68,23.16-13.88,31.79,1.44,23.96-21,45.84-45.47,43.97-16.01,18.48-48.06,18.13-64.09-.13-24.5,2.02-46.95-20.4-45.01-44.32-18.71-15.59-18.73-47.06-.02-62.65-1.93-23.97,20.33-45.89,44.69-44.56ZM1242.13,1178.66c-22.48-4.3-44.58,17.38-40.19,39.4-18.89,12.46-18.86,42.95,0,55.41-4.39,22.03,17.71,43.71,40.17,39.4,12.68,18.51,43.78,18.53,56.49,0,22.44,4.31,44.56-17.37,40.15-39.4,18.91-12.44,18.89-42.97.02-55.41,4.39-22.03-17.74-43.71-40.17-39.4-12.68-18.53-43.78-18.53-56.47,0Z"/>
    </g>
  </g>
</svg>