<?xml version="1.0" encoding="UTF-8"?>
<svg id="Layer_2" data-name="Layer 2" xmlns="http://www.w3.org/2000/svg" viewBox="0 0 474 283.91">
  <defs>
    <style>
      .cls-1 {
        fill: #cda58b;
      }

      .cls-1, .cls-2, .cls-3, .cls-4, .cls-5, .cls-6 {
        stroke-width: 0px;
      }

      .cls-2 {
        fill: #bcb1bc;
      }

      .cls-3 {
        fill: #c08a93;
      }

      .cls-4 {
        fill: #8bb9c9;
      }

      .cls-5 {
        fill: #9fb799;
      }

      .cls-6 {
        fill: #fff;
      }
    </style>
  </defs>
  <g id="Layer_1-2" data-name="Layer 1">
    <g>
      <path class="cls-6" d="M275.79,160.25c-10.88,12.52-23.77,18.44-34,21.52-5.58,1.68-13.36,3.39-20.84,7.85-8.13,4.85-11.32,9.89-12.61,12.5l-6.48-3.45c1.29-2.61,4.48-7.65,12.61-12.5,7.48-4.46,15.25-6.17,20.84-7.85,10.22-3.08,23.12-9,34-21.52"/>
      <g>
        <path class="cls-6" d="M368.52,55c-10.99-43.26-54.64-66.16-94.26-49.6-11.69,4.88-20.96,12.58-27.71,23.29C212.88-.71,167.85-.18,136.78,20.67c-29.98,20.12-42.14,53.61-31.21,86.26,9.34,27.88,33.52,45.56,61.91,44.75,13.76-.39,25.64-6.16,36.43-15.28,16.64,15.52,35.98,24.18,59.38,27.58,0,0-.02.02-.03.03.64,0,1.23.08,1.77.2.42.05.82.14,1.2.25.2.02.39.03.59.05.06,0,.11,0,.17-.02,1.17-.06,2.33.08,3.5.28.39-.03.78-.06,1.17-.05.47-.08.92-.14,1.34-.19,9.89-1.24,20.07-1.32,29.68-3.69,49.68-12.27,77.96-58.15,65.83-105.87v.02Z"/>
        <path class="cls-3" d="M310.23,91.32c-7.29,7.18-16.4,9.7-25.8,9.44-3.59-11.82-6.98-22.78-10.23-33.79-4.04-13.78,10.51-27.07,25.59-23.46,9.75,2.33,15.91,8.47,18.39,18.02,2.94,11.32.44,21.5-7.96,29.79Z"/>
        <path class="cls-2" d="M296.23,156.21c-7.51,1.48-15.21,1.93-24.15,3,7.77-17.06,11.46-33.62,11.01-50.67,6.02-1.21,11.61-1.82,16.89-3.5,20.73-6.61,31.31-28.72,23.43-48.81-4.85-12.33-14.27-19.3-27.4-19.75-12.63-.42-22.14,5.54-27.85,17.49-5.5-7.04-10.98-14.06-16.65-21.33,9.24-15.55,23.48-23.4,40.99-25.69,32.96-4.31,64.96,16.81,71.37,55.88,7.42,45.18-20.96,84.23-67.64,93.37h0Z"/>
        <path class="cls-5" d="M275.99,99.55c-24.19-5.02-37.77-35.08-27.37-59.68,15.74,16.85,24.32,36.59,27.37,59.68Z"/>
        <path class="cls-1" d="M276.69,115.11c-1.29,13.33-3.84,26.26-9.33,38.55-1.26,2.83-2.61,4.24-6.03,3.7-19.93-3.22-37.5-11.26-52.68-25.25,17.09-22.67,14.51-50.95-5.82-67.79-17.15-14.2-43.75-10.4-55.91,7.96-8.23,12.42-6.98,27.89,3.14,38.9,9.1,9.92,20.24,10.79,34.8,2.6,4.45,5.97,8.91,11.97,13.74,18.47-7.31,7-16.2,11.26-26.32,12.42-30.72,3.56-57.69-17.27-63.02-48.34-6.61-38.41,17.83-73.19,58.23-82.08,26.4-5.82,50.49-.45,71.79,16.67,3.11,2.49,3.59,4.45,2.29,8.16-8.77,24.89,1.06,52.21,22.56,63.49,1.88.98,3.81,2.24,5.82,2.5,6.31.81,7.29,4.49,6.75,10.04h0Z"/>
        <path class="cls-4" d="M212.46,108.77c-1.41,6.53-4.91,12.59-7.45,18.88-.72-.06-1.45-.14-2.18-.2-5.5-8.05-11.01-16.09-16.06-23.46-4.63,2.75-8.99,6.7-14.04,8.09-11.55,3.16-23.06-6.05-24.35-18.47-1.66-15.97,10.25-29.53,26.37-31.21,24.74-2.58,42.85,22.53,37.71,46.38h0Z"/>
      </g>
      <g>
        <path class="cls-6" d="M76.61,195.05v86.75c0,.19-1.15.76-2.29.76-2.29,0-4.01-1.34-4.01-6.69v-12.8c-5.74,11.85-17.77,20.82-34,20.82-23.88,0-36.31-16.25-36.31-40.69v-48.14c0-2.49,1.15-3.25,2.67-3.25h.95c1.52,0,2.67.76,2.67,3.25v47.77c0,21.39,10.51,35.16,30.38,35.16,15.86,0,27.89-8.99,33.63-22.93v-59.99c0-2.49,1.15-3.25,2.67-3.25h.76c1.73,0,2.86.76,2.86,3.25v-.02Z"/>
        <path class="cls-6" d="M180.35,231.15v48.34c0,2.29-1.34,3.06-2.86,3.06h-.76c-1.52,0-2.67-.76-2.67-3.06v-47.77c0-21.39-10.7-35.16-30.38-35.16-15.86,0-27.89,8.99-33.63,22.73v60.19c0,2.29-1.15,3.06-2.67,3.06h-.95c-1.52,0-2.67-.76-2.67-3.06v-86.93c0-.19.95-.76,2.1-.76,2.29,0,4.01,1.34,4.01,6.69v13.19c5.74-12.22,17.96-21.02,34-21.02,24.07,0,36.49,16.05,36.49,40.5Z"/>
        <path class="cls-6" d="M283.33,231.15v48.34c0,2.29-1.34,3.06-2.86,3.06h-.76c-1.52,0-2.67-.76-2.67-3.06v-47.77c0-21.39-10.7-35.16-30.38-35.16-15.86,0-27.89,8.99-33.63,22.73v60.19c0,2.29-1.15,3.06-2.67,3.06h-.95c-1.52,0-2.67-.76-2.67-3.06v-86.93c0-.19.95-.76,2.1-.76,2.29,0,4.01,1.34,4.01,6.69v13.19c5.74-12.22,17.96-21.02,34-21.02,24.07,0,36.49,16.05,36.49,40.5Z"/>
        <path class="cls-6" d="M370.45,231.15h1.91v-5.74c0-18.15-11.27-29.04-29.62-29.04-16.43,0-27.32,7.65-32.29,17.59-.19,0-3.44-.58-3.44-3.82,0-1.52,1.91-5.16,5.16-8.21,5.54-5.74,15.28-11.27,30.96-11.27,21.97,0,35.34,13.19,35.34,34.58v56.55c0,.19-.95.76-2.1.76-2.29,0-4.01-1.34-4.01-6.69v-14.9c-4.98,13-19.3,22.93-37.83,22.93s-31.33-9.36-31.33-24.27c0-19.87,18.92-28.08,67.25-28.47h0ZM372.36,236.13h-2.29c-44.14.58-60.38,7.26-60.38,23.49,0,11.85,10.12,18.92,25.22,18.92,20.82,0,37.44-13.95,37.44-32.67v-9.75Z"/>
        <path class="cls-6" d="M409.04,256.37v-58.46h-13.37c-2.49,0-3.25-.95-3.25-2.49v-.58c0-1.73.76-2.49,3.25-2.49h13.37v-19.11c0-2.49,1.15-3.44,2.86-3.44h.76c1.52,0,2.67.95,2.67,3.44v19.11h27.89c2.49,0,3.25.76,3.25,2.49v.58c0,1.52-.76,2.49-3.25,2.49h-27.89v58.09c0,16.05,5.35,22.36,16.23,22.36,7.26,0,12.22-3.44,15.28-8.78.39-.19,2.29.76,2.29,3.25,0,1.34-.95,3.44-3.25,5.74-2.86,2.86-7.45,5.35-14.52,5.35-14.71,0-22.36-8.21-22.36-27.52l.03-.02Z"/>
        <path class="cls-6" d="M469.23,160.66c3.25,0,4.77,1.73,4.77,4.96s-1.73,4.98-5.16,4.98c-2.86,0-4.59-1.73-4.59-4.98s1.73-4.96,4.96-4.96h.02ZM465.98,195.05c0-2.49,1.15-3.25,2.67-3.25h.76c1.73,0,2.86.76,2.86,3.25v84.44c0,2.29-1.34,3.06-2.86,3.06h-.76c-1.52,0-2.67-.76-2.67-3.06v-84.44Z"/>
      </g>
      <rect class="cls-6" x="199.94" y="186.17" width="6.78" height="22.33"/>
    </g>
  </g>
</svg>