<?xml version="1.0" encoding="UTF-8"?>
<svg id="Layer_2" data-name="Layer 2" xmlns="http://www.w3.org/2000/svg" viewBox="0 0 150.83 593.86">
  <defs>
    <style>
      .cls-1 {
        fill: #f4d1cd;
      }

      .cls-1, .cls-2, .cls-3, .cls-4, .cls-5, .cls-6, .cls-7, .cls-8, .cls-9, .cls-10, .cls-11, .cls-12, .cls-13 {
        stroke-width: 0px;
      }

      .cls-2 {
        fill: #716a62;
      }

      .cls-3 {
        fill: #555150;
      }

      .cls-4 {
        fill: #373534;
      }

      .cls-5 {
        fill: #080709;
      }

      .cls-6 {
        fill: #252423;
      }

      .cls-7 {
        fill: #e2cdb8;
      }

      .cls-8 {
        fill: #e2dbd1;
      }

      .cls-9 {
        fill: #aca39a;
      }

      .cls-10 {
        fill: #d08085;
      }

      .cls-11 {
        fill: #80786f;
      }

      .cls-12 {
        fill: #f0afa6;
      }

      .cls-13 {
        fill: #e8d5d0;
      }
    </style>
  </defs>
  <g id="bugs">
    <g>
      <path class="cls-5" d="M59.7.17c7-.84,34.11,1.31,36.35,9.67-1.59,10.3,11.46,16.75.67,33.35,4.24,3.32,4.06,11.32,0,14.67,1.91,26.53-15.07,20.69-16.01,22.01l2,19.34c3.6,5.96,34.69-5.04,41.35,15.34,2.74,8.38,2.16,28.46,3.33,38.69,2.64,23.07,15.14,70.6-6.67,78.04,10.05,37.4,23.44,74.89,25.35,114.06-7.78,8.4-17.16,15.42-28.01,19.34-3.01,15.95-9.45,31.06-10.67,47.36,5.96,32.57,8.23,50.11,0,82.71-5.38,21.33-20.65,45.91-12.34,67.03,7.68.78,52.16-1.02,54.69,0,.73.29,1.31,1.59,1,2.33-1.17,2.86-54.77-.11-61.7,1-.66,4.78,24.89,10.1,16.01,16.01-9.39,6.26-21.66-9.95-20.34-1,.09.62,6.43,10.1,7,10.34,7.23,2.95,20.71-10.64,19.01-5-1.27,4.21-13.01,7.94-17.01,8.34-9.84.97-68.96-9.36-71.03-15.67-2.46-7.5,13.33-19.72,25.68-17.01,4.65,1.02,14.93,11.8,15.01,2.33.08-9.45-17.84-11.58-6-32.02-21.65-47.98-22.81-68.84-16.67-120.73l-4.67-40.02c-30.95-1-20.18-19.94-22.68-43.35-15.17-13.03-8.06-20.71-8-29.35C5.51,271.89-.24,246.08,0,219.94c1.57-16.17,4.95-32.42,5.34-48.69.61-25.86-7.73-47.1,7.67-58.36,19.15-14,37.51-5.14,37.02-43.02-.61-1.63-4.67,1.81-13.01-.33-4.44-1.14-7.68-4.93-11.34-7.34-38.29,9.44-26.93-44.27-2-18.01C23.1,22.74,37.75,2.82,59.7.17Z"/>
      <g>
        <path class="cls-12" d="M119.4,114.23c-2.5.59-1.89-1.81-2.67-1-.53.55-3.98,13.91-4,14.67-.17,5.72,5.64-.87,3.33,8.34-.77-11.81-6.99-1-8.67,13.01-1.83,15.21-.2,40.66,2.33,56.36-30.05-11.79-41.42,3.98-44.02,4-2.23.02.88-2.6-1.33-3.33-1.09-.36-11.4,2.07-22.68-1.33-2.3-19.41-6.94-38.51-10.34-57.69-1.31-2.52-3.83-1.53-4-1.67-7.26-5.85-12.51-16.44-16.01-24.68,3.96-5.5,11.2-8.3,17.01-11.34-1.8,17.52,17.5,44.15,36.02,42.02,21.54-2.48,32.06-27.53,35.35-46.02,7.34.03,16.2,1.27,19.68,8.67Z"/>
        <path class="cls-7" d="M41.03,368.35l29.68.33c-1.21,8.31-2,45.71-2.67,48.02-.31,1.07-6,5.4-7.34,6.67,3.4,17.44-10.89,15.24,2.67,20.01,5.7,24.41,2.1,47.68,2.67,72.04.14,6.15,4.04,12.65-1.67,13.67-4.72.84-5.58-3.85-9.67-13.67-12.33-29.6-17.1-61.78-10-93.38.95-19.17-5.87-52.13-3.67-53.69Z"/>
        <path class="cls-7" d="M111.73,364.35c1.42.09,2.05-.02,2.33,1.67.33,2-9.44,32.07-10,39.35-1.85,23.67,12.07,39-.67,89.38-3.33,13.15-8.98,26.06-13.01,39.02-1.54-2.59-6.2-.54-7-1.67-1.29-1.81,5.67-22.04,4.67-44.02-6.95-22.75,5.29-33.48-2.67-60.03,18.82,9.59.7-5.56-.67-8.67-4.12-9.34,1.32-42.65,3.67-54.36,6.64.96,17.78-1.01,23.34-.67Z"/>
        <path class="cls-8" d="M27.35,145.57c-1.78,25.94-2.51,52.13-7.34,77.7-.09,21.38.6,42.72-1.33,64.03,4.05,3.67,5.27,18.62,4.67,23.34-1.47,11.55-2.94-12.72-7-11.01-.75.32-1.52,3.49-1.67,4.34-1.7,9.63,4.26,32.27-6.67,8,5.98-46.17-10.13-77.73,1.33-129.4,2.5-14.65-5.25-51.63,2-61.7,3.49,8.24,8.75,18.82,16.01,24.68Z"/>
        <path class="cls-8" d="M79.71,365.01c.61-.14,2.66-.15,3,.33-.37,10.32-3.54,22.71-4,32.68-1.44,30.95,9.35,44.99,2,68.03l2.67,39.35c-2.75,8.53-2.68,23.95-3.33,26.68-2.06,8.62-7.98-2.59-9.34-11.34-3.59-23.1,4.83-57.69-5.34-83.37,1.61-3.88,6.16-12.54,6.67-16.01,1.18-7.98.42-46.74,2.67-52.69.11-.29,4.7-3.6,5-3.67Z"/>
        <path class="cls-8" d="M92.39,20.18c6.75,6.14,4.99,15.74-.33,22.34,7.18,3.45,7.26,16.5-2,12.01,7.57,9.22,1.35,27.16-12.34,20.34-7.07,15.44,3.92-15.29-6.34,1-.91-8.22-5.46-23.56,0-22.01-2.04-18.54,24.55.85,21.01-33.68Z"/>
        <path class="cls-8" d="M119.4,114.23c3.4,7.23,2.27,26.47,3.33,35.68,1.66,14.37,9.41,48.57,2.33,50.36-2.97.75-5.92-.49-7-3.67-.68-2.01-5.32-38.7-5.34-42.02-.05-10.9,2.32-14.28,3.33-18.34,2.31-9.21-3.5-2.62-3.33-8.34.02-.76,3.47-14.13,4-14.67.78-.81.16,1.59,2.67,1Z"/>
        <path class="cls-8" d="M117.06,202.27c3.8,2.81,11.35,1.15,11.67,1.67,1.78,3.39-2,20.29-6.34,20.34-2.24.03-1.54-8.04-6-6-4.41,2.01,7.3,14.74-14.67,12.67-3.35-.32-7.95-2.49-11.34-3.33,6.89-2.86,7.64-3.66,9.67-11.01-5.91-4.35-13.92-1.76-20.34.33-3.04-.62,3.36-9.55,9.34-10.67,9.8-1.84,20.47,4.56,30.01,6.67,2.21-.53-3-5.02-2-10.67Z"/>
        <path class="cls-8" d="M41.69,563.78c14.73-1.52,20.48,18.13,27.35,22.01,6.03,3.41,19.91.03,18.34,4.34-.32.89-3.38,1.01-4.34,1-4.44-.03-53.3-11.37-56.03-13.34-5.38-3.89,10.2-13.54,14.67-14.01Z"/>
        <path class="cls-8" d="M30.36,169.59c9.71,34.61,6.91,42.56-5.34,74.7-1.14-25,5.45-49.56,5.34-74.7Z"/>
        <path class="cls-8" d="M9.68,39.52c8.21-1.5,9.32,9.04,10,9.34,3.2-.27,6.56.38,9.34,2,3.72,2.17,21,27.49-2.67,7.34C-.41,65.44,1.91,40.94,9.68,39.52Z"/>
        <path class="cls-7" d="M61.37,548.44c3.39-1.98-1.31-4.6,0-6,8.76,10.92,18.24,10.2,22.68,25.01-9.57,15.9,1.88,8.07-17.34-2-.74-6.53-1.43-11.55-5.34-17.01Z"/>
        <path class="cls-8" d="M81.71,13.51c14.75-4.39,8.88,25.05-8.67,28.01,2.68-5.84,3.26-26.4,8.67-28.01Z"/>
        <path class="cls-8" d="M63.04,533.1c8.34-3.24,13.71,10.15,12.01,16.67-5.08-.39-17.63-14.49-12.01-16.67Z"/>
        <path class="cls-13" d="M85.05,537.1c.94-.04,1.93-.19,2.33.33-.3,4.81,2.41,18.53-6.34,15.01-4.24-1.71-.75-15.16,4-15.34Z"/>
        <path class="cls-1" d="M65.04,569.11c.88-.21,6.5,2.26,8.34,5,9.95,14.91-18.5-2.54-8.34-5Z"/>
        <path class="cls-8" d="M79.05,207.6c.37.02.83-.14,1,.33-5.65,7.14-2.58,10.82-14.67,7.34-.26-.94,12.67-7.71,13.67-7.67Z"/>
        <path class="cls-13" d="M86.38,571.78c3.45.55,7.58,1.83,10.67,3.33,12.47,6.1-10.06,3.86-10.67-3.33Z"/>
        <path class="cls-10" d="M42.36,208.27c.57-.34,11.12,2.9,13.01,3-4.33,2.91-17.42-.36-13.01-3Z"/>
        <path class="cls-10" d="M61.37,542.43c-1.31,1.4,3.39,4.03,0,6-.13-.19-3.61-1.22-4-2.33-.98-2.76.57-9.14,4-3.67Z"/>
        <path class="cls-13" d="M87.72,554.44c1.67.14,5.42,9.94-1.33,6-4.21-2.46.11-6.1,1.33-6Z"/>
        <path class="cls-13" d="M19.02,314.32c.73,2.49,2.94,4.08,3,4.34,2.17,9.01-5.49,8.86-3-4.34Z"/>
        <path class="cls-8" d="M93.05,219.61c2.47.58-2.35,2.59-2.67,2.67-12.04,2.98-12.68,1.25,2.67-2.67Z"/>
        <g>
          <path class="cls-8" d="M41.03,214.94c5.62-.55,11.8,3.39,16.67.67,4.07,4.94,10.94,4.66,16.67,5.34,7.28,12.82,28.28,14.38,41.69,13.67,10.86,35.97,22.61,72.34,24.68,110.05-16.41,17.28-34.82,18.94-57.36,14.67,10.14-30.32,7.42-51.37,4.34-82.37-1.52,3.02-6.28,25.14-5.67,26.35.83,1.64,3.25.38,4,2,.96,2.07.54,21.94,0,26.01-.46,3.46-7.94,30.66-9.34,32.02-7.89.29-47.23,2.7-49.69,2.33-2.12-.32-6.83-2.99-7.67-5-1-2.41-2.26-30.71-1.33-32.02.64-.9,4.03.08,5-.33,5.41-2.3,3.93-36.21.33-42.35,2.24-24.53,6.31-48.87,17.68-71.03Z"/>
          <g>
            <path class="cls-6" d="M63.04,327c1.78-1.38,4.65,2.36,2,3.33-2.05.76-3.16-2.44-2-3.33Z"/>
            <path class="cls-4" d="M101.06,262.96c1.92.07,2.17,2.67,1.33,3.33-1.57,1.24-4.7-3.46-1.33-3.33Z"/>
            <path class="cls-2" d="M51.03,235.62c2.94-.87,2.97,2.06,1.33,2.67-1.97.74-3.23-2.11-1.33-2.67Z"/>
            <path class="cls-6" d="M112.4,332.33c1.81-1.15,3.37,1.6,2,2.67-1.16.91-3.42-1.76-2-2.67Z"/>
            <path class="cls-3" d="M102.39,295.65c1.44-.8,2.22,2.74.67,2.67-.64-.03-1.6-2.15-.67-2.67Z"/>
            <path class="cls-9" d="M57.7,266.3c.23-.16,1.47-.11,1.67.33.5,1.1-3.82,1.13-1.67-.33Z"/>
            <path class="cls-2" d="M73.04,287.64c.24,0,1.47.96.33,1.67-1.27.79-1.49-1.67-.33-1.67Z"/>
            <path class="cls-2" d="M73.71,270.97c.56-.34,1.71.91,1.67,1-.5,1.11-3.16-.09-1.67-1Z"/>
            <path class="cls-11" d="M68.37,274.97c1-.4,1.47,1.01.67,1.33-1,.4-1.47-1.01-.67-1.33Z"/>
          </g>
        </g>
        <g>
          <path class="cls-8" d="M60.37,4.84c5.18-.53,34.26.28,31.35,8-20.81-11.2-17.72,18.72-25.35,36.68-22.49-15.42-18.49-6.11-5,9.67-5.79,17.34,11.04,37.09,15.67,24.35,1.92,11.85-2.17,23.03,13.67,22.34.79,29.42-31.19,61.54-50.69,24.01-13.36-25.71,8.09-24.51,12.01-36.68.67-2.09,3.83-33.01,3.33-34.68-.65-2.21-2.62-3.68-4.34-5-1.86.1,5.06,16.45-6.67,9.34-2.45-1.49-9.76-9.69-6.34-12.34l-10-6c-1.22-19.5,12.51-37.65,32.35-39.69Z"/>
          <path class="cls-5" d="M69.71,108.89c3.9-1.86,4.87,4.02,2,4.67-2,.45-4.65-3.41-2-4.67Z"/>
        </g>
      </g>
    </g>
  </g>
</svg>