<?xml version="1.0" encoding="UTF-8"?>
<svg id="Layer_2" data-name="Layer 2" xmlns="http://www.w3.org/2000/svg" viewBox="0 0 807.9 144.11">
  <defs>
    <style>
      .cls-1 {
        font-family: MyriadPro-Regular, 'Myriad Pro';
        font-size: 48px;
      }
    </style>
  </defs>
  <g id="bugs">
    <text class="cls-1" transform="translate(96.51 94.43) rotate(-19.54)"><tspan x="0" y="0">1</tspan></text>
    <text class="cls-1" transform="translate(119.48 86.27) rotate(-17.96)"><tspan x="0" y="0">0</tspan></text>
    <text class="cls-1" transform="translate(142.7 78.74) rotate(-16.36)"><tspan x="0" y="0">0</tspan></text>
    <text class="cls-1" transform="translate(166.02 71.77) rotate(-14.32)"><tspan x="0" y="0">%</tspan></text>
    <text class="cls-1" transform="translate(202.68 62.6) rotate(-12.75)"><tspan x="0" y="0"> </tspan></text>
    <text class="cls-1" transform="translate(212.52 60.37) rotate(-12.04)"><tspan x="0" y="0">I</tspan></text>
    <text class="cls-1" transform="translate(224.03 57.83) rotate(-10.76)"><tspan x="0" y="0">n</tspan></text>
    <text class="cls-1" transform="translate(250 52.94) rotate(-9.26)"><tspan x="0" y="0">s</tspan></text>
    <text class="cls-1" transform="translate(268.55 49.86) rotate(-7.74)"><tspan x="0" y="0">p</tspan></text>
    <text class="cls-1" transform="translate(295.44 46.29) rotate(-6.47)"><tspan x="0" y="0">i</tspan></text>
    <text class="cls-1" transform="translate(306.47 45.02) rotate(-5.58)"><tspan x="0" y="0">r</tspan></text>
    <text class="cls-1" transform="translate(321.44 43.51) rotate(-4.3)"><tspan x="0" y="0">e</tspan></text>
    <text class="cls-1" transform="translate(345.21 41.77) rotate(-2.93)"><tspan x="0" y="0">d</tspan></text>
    <text class="cls-1" transform="translate(372.06 40.55) rotate(-1.39)"><tspan x="0" y="0"> </tspan></text>
    <text class="cls-1" transform="translate(382.03 40.2) rotate(-.09)"><tspan x="0" y="0">A</tspan></text>
    <text class="cls-1" transform="translate(411.08 40.24) rotate(1.39)"><tspan x="0" y="0">r</tspan></text>
    <text class="cls-1" transform="translate(427.76 40.65) rotate(2.51)"><tspan x="0" y="0">t</tspan></text>
    <text class="cls-1" transform="translate(443.49 41.36) rotate(3.41)"><tspan x="0" y="0">i</tspan></text>
    <text class="cls-1" transform="translate(454.58 41.99) rotate(4.41)"><tspan x="0" y="0">s</tspan></text>
    <text class="cls-1" transform="translate(473.37 43.45) rotate(5.55)"><tspan x="0" y="0">t</tspan></text>
    <text class="cls-1" transform="translate(488.92 44.98) rotate(6.39)"><tspan x="0" y="0">,</tspan></text>
    <text class="cls-1" transform="translate(498.71 46.08) rotate(7.06)"><tspan x="0" y="0"> </tspan></text>
    <text class="cls-1" transform="translate(508.64 47.21) rotate(8.3)"><tspan x="0" y="0">C</tspan></text>
    <text class="cls-1" transform="translate(535.39 51.11) rotate(10.04)"><tspan x="0" y="0">u</tspan></text>
    <text class="cls-1" transform="translate(561.22 55.74) rotate(11.4)"><tspan x="0" y="0">r</tspan></text>
    <text class="cls-1" transform="translate(576.22 58.72) rotate(12.65)"><tspan x="0" y="0">a</tspan></text>
    <text class="cls-1" transform="translate(598.42 63.74) rotate(13.89)"><tspan x="0" y="0">t</tspan></text>
    <text class="cls-1" transform="translate(613.41 67.38) rotate(15.23)"><tspan x="0" y="0">o</tspan></text>
    <text class="cls-1" transform="translate(638.63 74.31) rotate(16.58)"><tspan x="0" y="0">r</tspan></text>
    <text class="cls-1" transform="translate(651.17 78.04) rotate(17.24)"><tspan x="0" y="0">,</tspan></text>
    <text class="cls-1" transform="translate(660.57 80.96) rotate(17.88)"><tspan x="0" y="0"> </tspan></text>
    <text class="cls-1" transform="translate(668.46 83.27) rotate(19.38)"><tspan x="0" y="0">W</tspan></text>
    <text class="cls-1" transform="translate(705.77 96.58) rotate(21.13)"><tspan x="0" y="0">r</tspan></text>
    <text class="cls-1" transform="translate(720.47 102.28) rotate(22)"><tspan x="0" y="0">i</tspan></text>
    <text class="cls-1" transform="translate(730.77 106.42) rotate(22.87)"><tspan x="0" y="0">t</tspan></text>
    <text class="cls-1" transform="translate(745.01 112.37) rotate(24.14)"><tspan x="0" y="0">e</tspan></text>
    <text class="cls-1" transform="translate(766.77 122.17) rotate(25.42)"><tspan x="0" y="0">r</tspan></text>
    <text class="cls-1" transform="translate(780.84 128.88) rotate(26.26)"><tspan x="0" y="0"> </tspan></text>
  </g>
</svg>